<?xml version="1.0" encoding="utf-8" standalone="no"?>
<!DOCTYPE svg PUBLIC "-//W3C//DTD SVG 1.1//EN"
  "http://www.w3.org/Graphics/SVG/1.1/DTD/svg11.dtd">
<!-- Created with matplotlib (http://matplotlib.org/) -->
<svg height="216pt" version="1.1" viewBox="0 0 360 216" width="360pt" xmlns="http://www.w3.org/2000/svg" xmlns:xlink="http://www.w3.org/1999/xlink">
 <defs>
  <style type="text/css">
*{stroke-linecap:butt;stroke-linejoin:round;}
  </style>
 </defs>
 <g id="figure_1">
  <g id="patch_1">
   <path d="M 0 216 
L 360 216 
L 360 0 
L 0 0 
z
" style="fill:#ffffff;"/>
  </g>
  <g id="axes_1">
   <g id="patch_2">
    <path d="M 45 189 
L 324 189 
L 324 25.92 
L 45 25.92 
z
" style="fill:#eaeaf2;"/>
   </g>
   <g id="matplotlib.axis_1">
    <g id="xtick_1">
     <g id="text_1">
      <!-- 0 -->
      <defs>
       <path d="M 4.15625 35.296875 
Q 4.15625 48 6.765625 55.734375 
Q 9.375 63.484375 14.515625 67.671875 
Q 19.671875 71.875 27.484375 71.875 
Q 33.25 71.875 37.59375 69.546875 
Q 41.9375 67.234375 44.765625 62.859375 
Q 47.609375 58.5 49.21875 52.21875 
Q 50.828125 45.953125 50.828125 35.296875 
Q 50.828125 22.703125 48.234375 14.96875 
Q 45.65625 7.234375 40.5 3 
Q 35.359375 -1.21875 27.484375 -1.21875 
Q 17.140625 -1.21875 11.234375 6.203125 
Q 4.15625 15.140625 4.15625 35.296875 
z
M 13.1875 35.296875 
Q 13.1875 17.671875 17.3125 11.828125 
Q 21.4375 6 27.484375 6 
Q 33.546875 6 37.671875 11.859375 
Q 41.796875 17.71875 41.796875 35.296875 
Q 41.796875 52.984375 37.671875 58.78125 
Q 33.546875 64.59375 27.390625 64.59375 
Q 21.34375 64.59375 17.71875 59.46875 
Q 13.1875 52.9375 13.1875 35.296875 
z
" id="ArialMT-30"/>
      </defs>
      <g style="fill:#262626;" transform="translate(61.870056 206.373594)scale(0.11 -0.11)">
       <use xlink:href="#ArialMT-30"/>
      </g>
     </g>
    </g>
    <g id="xtick_2">
     <g id="text_2">
      <!-- 1 -->
      <defs>
       <path d="M 37.25 0 
L 28.46875 0 
L 28.46875 56 
Q 25.296875 52.984375 20.140625 49.953125 
Q 14.984375 46.921875 10.890625 45.40625 
L 10.890625 53.90625 
Q 18.265625 57.375 23.78125 62.296875 
Q 29.296875 67.234375 31.59375 71.875 
L 37.25 71.875 
z
" id="ArialMT-31"/>
      </defs>
      <g style="fill:#262626;" transform="translate(101.727199 206.373594)scale(0.11 -0.11)">
       <use xlink:href="#ArialMT-31"/>
      </g>
     </g>
    </g>
    <g id="xtick_3">
     <g id="text_3">
      <!-- 2 -->
      <defs>
       <path d="M 50.34375 8.453125 
L 50.34375 0 
L 3.03125 0 
Q 2.9375 3.171875 4.046875 6.109375 
Q 5.859375 10.9375 9.828125 15.625 
Q 13.8125 20.3125 21.34375 26.46875 
Q 33.015625 36.03125 37.109375 41.625 
Q 41.21875 47.21875 41.21875 52.203125 
Q 41.21875 57.421875 37.46875 61 
Q 33.734375 64.59375 27.734375 64.59375 
Q 21.390625 64.59375 17.578125 60.78125 
Q 13.765625 56.984375 13.71875 50.25 
L 4.6875 51.171875 
Q 5.609375 61.28125 11.65625 66.578125 
Q 17.71875 71.875 27.9375 71.875 
Q 38.234375 71.875 44.234375 66.15625 
Q 50.25 60.453125 50.25 52 
Q 50.25 47.703125 48.484375 43.546875 
Q 46.734375 39.40625 42.65625 34.8125 
Q 38.578125 30.21875 29.109375 22.21875 
Q 21.1875 15.578125 18.9375 13.203125 
Q 16.703125 10.84375 15.234375 8.453125 
z
" id="ArialMT-32"/>
      </defs>
      <g style="fill:#262626;" transform="translate(141.584342 206.373594)scale(0.11 -0.11)">
       <use xlink:href="#ArialMT-32"/>
      </g>
     </g>
    </g>
    <g id="xtick_4">
     <g id="text_4">
      <!-- 3 -->
      <defs>
       <path d="M 4.203125 18.890625 
L 12.984375 20.0625 
Q 14.5 12.59375 18.140625 9.296875 
Q 21.78125 6 27 6 
Q 33.203125 6 37.46875 10.296875 
Q 41.75 14.59375 41.75 20.953125 
Q 41.75 27 37.796875 30.921875 
Q 33.84375 34.859375 27.734375 34.859375 
Q 25.25 34.859375 21.53125 33.890625 
L 22.515625 41.609375 
Q 23.390625 41.5 23.921875 41.5 
Q 29.546875 41.5 34.03125 44.421875 
Q 38.53125 47.359375 38.53125 53.46875 
Q 38.53125 58.296875 35.25 61.46875 
Q 31.984375 64.65625 26.8125 64.65625 
Q 21.6875 64.65625 18.265625 61.421875 
Q 14.84375 58.203125 13.875 51.765625 
L 5.078125 53.328125 
Q 6.6875 62.15625 12.390625 67.015625 
Q 18.109375 71.875 26.609375 71.875 
Q 32.46875 71.875 37.390625 69.359375 
Q 42.328125 66.84375 44.9375 62.5 
Q 47.5625 58.15625 47.5625 53.265625 
Q 47.5625 48.640625 45.0625 44.828125 
Q 42.578125 41.015625 37.703125 38.765625 
Q 44.046875 37.3125 47.5625 32.6875 
Q 51.078125 28.078125 51.078125 21.140625 
Q 51.078125 11.765625 44.234375 5.25 
Q 37.40625 -1.265625 26.953125 -1.265625 
Q 17.53125 -1.265625 11.296875 4.34375 
Q 5.078125 9.96875 4.203125 18.890625 
z
" id="ArialMT-33"/>
      </defs>
      <g style="fill:#262626;" transform="translate(181.441484 206.373594)scale(0.11 -0.11)">
       <use xlink:href="#ArialMT-33"/>
      </g>
     </g>
    </g>
    <g id="xtick_5">
     <g id="text_5">
      <!-- 4 -->
      <defs>
       <path d="M 32.328125 0 
L 32.328125 17.140625 
L 1.265625 17.140625 
L 1.265625 25.203125 
L 33.9375 71.578125 
L 41.109375 71.578125 
L 41.109375 25.203125 
L 50.78125 25.203125 
L 50.78125 17.140625 
L 41.109375 17.140625 
L 41.109375 0 
z
M 32.328125 25.203125 
L 32.328125 57.46875 
L 9.90625 25.203125 
z
" id="ArialMT-34"/>
      </defs>
      <g style="fill:#262626;" transform="translate(221.298627 206.373594)scale(0.11 -0.11)">
       <use xlink:href="#ArialMT-34"/>
      </g>
     </g>
    </g>
    <g id="xtick_6">
     <g id="text_6">
      <!-- 5 -->
      <defs>
       <path d="M 4.15625 18.75 
L 13.375 19.53125 
Q 14.40625 12.796875 18.140625 9.390625 
Q 21.875 6 27.15625 6 
Q 33.5 6 37.890625 10.78125 
Q 42.28125 15.578125 42.28125 23.484375 
Q 42.28125 31 38.0625 35.34375 
Q 33.84375 39.703125 27 39.703125 
Q 22.75 39.703125 19.328125 37.765625 
Q 15.921875 35.84375 13.96875 32.765625 
L 5.71875 33.84375 
L 12.640625 70.609375 
L 48.25 70.609375 
L 48.25 62.203125 
L 19.671875 62.203125 
L 15.828125 42.96875 
Q 22.265625 47.46875 29.34375 47.46875 
Q 38.71875 47.46875 45.15625 40.96875 
Q 51.609375 34.46875 51.609375 24.265625 
Q 51.609375 14.546875 45.953125 7.46875 
Q 39.0625 -1.21875 27.15625 -1.21875 
Q 17.390625 -1.21875 11.203125 4.25 
Q 5.03125 9.71875 4.15625 18.75 
z
" id="ArialMT-35"/>
      </defs>
      <g style="fill:#262626;" transform="translate(261.15577 206.373594)scale(0.11 -0.11)">
       <use xlink:href="#ArialMT-35"/>
      </g>
     </g>
    </g>
    <g id="xtick_7">
     <g id="text_7">
      <!-- 6 -->
      <defs>
       <path d="M 49.75 54.046875 
L 41.015625 53.375 
Q 39.84375 58.546875 37.703125 60.890625 
Q 34.125 64.65625 28.90625 64.65625 
Q 24.703125 64.65625 21.53125 62.3125 
Q 17.390625 59.28125 14.984375 53.46875 
Q 12.59375 47.65625 12.5 36.921875 
Q 15.671875 41.75 20.265625 44.09375 
Q 24.859375 46.4375 29.890625 46.4375 
Q 38.671875 46.4375 44.84375 39.96875 
Q 51.03125 33.5 51.03125 23.25 
Q 51.03125 16.5 48.125 10.71875 
Q 45.21875 4.9375 40.140625 1.859375 
Q 35.0625 -1.21875 28.609375 -1.21875 
Q 17.625 -1.21875 10.6875 6.859375 
Q 3.765625 14.9375 3.765625 33.5 
Q 3.765625 54.25 11.421875 63.671875 
Q 18.109375 71.875 29.4375 71.875 
Q 37.890625 71.875 43.28125 67.140625 
Q 48.6875 62.40625 49.75 54.046875 
z
M 13.875 23.1875 
Q 13.875 18.65625 15.796875 14.5 
Q 17.71875 10.359375 21.1875 8.171875 
Q 24.65625 6 28.46875 6 
Q 34.03125 6 38.03125 10.484375 
Q 42.046875 14.984375 42.046875 22.703125 
Q 42.046875 30.125 38.078125 34.390625 
Q 34.125 38.671875 28.125 38.671875 
Q 22.171875 38.671875 18.015625 34.390625 
Q 13.875 30.125 13.875 23.1875 
z
" id="ArialMT-36"/>
      </defs>
      <g style="fill:#262626;" transform="translate(301.012913 206.373594)scale(0.11 -0.11)">
       <use xlink:href="#ArialMT-36"/>
      </g>
     </g>
    </g>
    <g id="text_8">
     <!-- Batch -->
     <defs>
      <path d="M 7.328125 0 
L 7.328125 71.578125 
L 34.1875 71.578125 
Q 42.390625 71.578125 47.34375 69.40625 
Q 52.296875 67.234375 55.09375 62.71875 
Q 57.90625 58.203125 57.90625 53.265625 
Q 57.90625 48.6875 55.421875 44.625 
Q 52.9375 40.578125 47.90625 38.09375 
Q 54.390625 36.1875 57.875 31.59375 
Q 61.375 27 61.375 20.75 
Q 61.375 15.71875 59.25 11.390625 
Q 57.125 7.078125 54 4.734375 
Q 50.875 2.390625 46.15625 1.1875 
Q 41.453125 0 34.625 0 
z
M 16.796875 41.5 
L 32.28125 41.5 
Q 38.578125 41.5 41.3125 42.328125 
Q 44.921875 43.40625 46.75 45.890625 
Q 48.578125 48.390625 48.578125 52.15625 
Q 48.578125 55.71875 46.875 58.421875 
Q 45.171875 61.140625 41.984375 62.140625 
Q 38.8125 63.140625 31.109375 63.140625 
L 16.796875 63.140625 
z
M 16.796875 8.453125 
L 34.625 8.453125 
Q 39.203125 8.453125 41.0625 8.796875 
Q 44.34375 9.375 46.53125 10.734375 
Q 48.734375 12.109375 50.140625 14.71875 
Q 51.5625 17.328125 51.5625 20.75 
Q 51.5625 24.75 49.515625 27.703125 
Q 47.46875 30.671875 43.828125 31.859375 
Q 40.1875 33.0625 33.34375 33.0625 
L 16.796875 33.0625 
z
" id="ArialMT-42"/>
      <path d="M 40.4375 6.390625 
Q 35.546875 2.25 31.03125 0.53125 
Q 26.515625 -1.171875 21.34375 -1.171875 
Q 12.796875 -1.171875 8.203125 3 
Q 3.609375 7.171875 3.609375 13.671875 
Q 3.609375 17.484375 5.34375 20.625 
Q 7.078125 23.78125 9.890625 25.6875 
Q 12.703125 27.59375 16.21875 28.5625 
Q 18.796875 29.25 24.03125 29.890625 
Q 34.671875 31.15625 39.703125 32.90625 
Q 39.75 34.71875 39.75 35.203125 
Q 39.75 40.578125 37.25 42.78125 
Q 33.890625 45.75 27.25 45.75 
Q 21.046875 45.75 18.09375 43.578125 
Q 15.140625 41.40625 13.71875 35.890625 
L 5.125 37.0625 
Q 6.296875 42.578125 8.984375 45.96875 
Q 11.671875 49.359375 16.75 51.1875 
Q 21.828125 53.03125 28.515625 53.03125 
Q 35.15625 53.03125 39.296875 51.46875 
Q 43.453125 49.90625 45.40625 47.53125 
Q 47.359375 45.171875 48.140625 41.546875 
Q 48.578125 39.3125 48.578125 33.453125 
L 48.578125 21.734375 
Q 48.578125 9.46875 49.140625 6.21875 
Q 49.703125 2.984375 51.375 0 
L 42.1875 0 
Q 40.828125 2.734375 40.4375 6.390625 
z
M 39.703125 26.03125 
Q 34.90625 24.078125 25.34375 22.703125 
Q 19.921875 21.921875 17.671875 20.9375 
Q 15.4375 19.96875 14.203125 18.09375 
Q 12.984375 16.21875 12.984375 13.921875 
Q 12.984375 10.40625 15.640625 8.0625 
Q 18.3125 5.71875 23.4375 5.71875 
Q 28.515625 5.71875 32.46875 7.9375 
Q 36.421875 10.15625 38.28125 14.015625 
Q 39.703125 17 39.703125 22.796875 
z
" id="ArialMT-61"/>
      <path d="M 25.78125 7.859375 
L 27.046875 0.09375 
Q 23.34375 -0.6875 20.40625 -0.6875 
Q 15.625 -0.6875 12.984375 0.828125 
Q 10.359375 2.34375 9.28125 4.8125 
Q 8.203125 7.28125 8.203125 15.1875 
L 8.203125 45.015625 
L 1.765625 45.015625 
L 1.765625 51.859375 
L 8.203125 51.859375 
L 8.203125 64.703125 
L 16.9375 69.96875 
L 16.9375 51.859375 
L 25.78125 51.859375 
L 25.78125 45.015625 
L 16.9375 45.015625 
L 16.9375 14.703125 
Q 16.9375 10.9375 17.40625 9.859375 
Q 17.875 8.796875 18.921875 8.15625 
Q 19.96875 7.515625 21.921875 7.515625 
Q 23.390625 7.515625 25.78125 7.859375 
z
" id="ArialMT-74"/>
      <path d="M 40.4375 19 
L 49.078125 17.875 
Q 47.65625 8.9375 41.8125 3.875 
Q 35.984375 -1.171875 27.484375 -1.171875 
Q 16.84375 -1.171875 10.375 5.78125 
Q 3.90625 12.75 3.90625 25.734375 
Q 3.90625 34.125 6.6875 40.421875 
Q 9.46875 46.734375 15.15625 49.875 
Q 20.84375 53.03125 27.546875 53.03125 
Q 35.984375 53.03125 41.359375 48.75 
Q 46.734375 44.484375 48.25 36.625 
L 39.703125 35.296875 
Q 38.484375 40.53125 35.375 43.15625 
Q 32.28125 45.796875 27.875 45.796875 
Q 21.234375 45.796875 17.078125 41.03125 
Q 12.9375 36.28125 12.9375 25.984375 
Q 12.9375 15.53125 16.9375 10.796875 
Q 20.953125 6.0625 27.390625 6.0625 
Q 32.5625 6.0625 36.03125 9.234375 
Q 39.5 12.40625 40.4375 19 
z
" id="ArialMT-63"/>
      <path d="M 6.59375 0 
L 6.59375 71.578125 
L 15.375 71.578125 
L 15.375 45.90625 
Q 21.53125 53.03125 30.90625 53.03125 
Q 36.671875 53.03125 40.921875 50.75 
Q 45.171875 48.484375 47 44.484375 
Q 48.828125 40.484375 48.828125 32.859375 
L 48.828125 0 
L 40.046875 0 
L 40.046875 32.859375 
Q 40.046875 39.453125 37.1875 42.453125 
Q 34.328125 45.453125 29.109375 45.453125 
Q 25.203125 45.453125 21.75 43.421875 
Q 18.3125 41.40625 16.84375 37.9375 
Q 15.375 34.46875 15.375 28.375 
L 15.375 0 
z
" id="ArialMT-68"/>
     </defs>
     <g style="fill:#262626;" transform="translate(169.157813 221.149219)scale(0.12 -0.12)">
      <use xlink:href="#ArialMT-42"/>
      <use x="66.699219" xlink:href="#ArialMT-61"/>
      <use x="122.314453" xlink:href="#ArialMT-74"/>
      <use x="150.097656" xlink:href="#ArialMT-63"/>
      <use x="200.097656" xlink:href="#ArialMT-68"/>
     </g>
    </g>
   </g>
   <g id="matplotlib.axis_2">
    <g id="ytick_1">
     <g id="line2d_1">
      <path clip-path="url(#pd43df2eac1)" d="M 45 165.343019 
L 324 165.343019 
" style="fill:none;stroke:#ffffff;stroke-linecap:round;"/>
     </g>
     <g id="text_9">
      <!-- 15.0 -->
      <defs>
       <path d="M 9.078125 0 
L 9.078125 10.015625 
L 19.09375 10.015625 
L 19.09375 0 
z
" id="ArialMT-2e"/>
      </defs>
      <g style="fill:#262626;" transform="translate(14.092969 169.279816)scale(0.11 -0.11)">
       <use xlink:href="#ArialMT-31"/>
       <use x="55.615234" xlink:href="#ArialMT-35"/>
       <use x="111.230469" xlink:href="#ArialMT-2e"/>
       <use x="139.013672" xlink:href="#ArialMT-30"/>
      </g>
     </g>
    </g>
    <g id="ytick_2">
     <g id="line2d_2">
      <path clip-path="url(#pd43df2eac1)" d="M 45 139.634133 
L 324 139.634133 
" style="fill:none;stroke:#ffffff;stroke-linecap:round;"/>
     </g>
     <g id="text_10">
      <!-- 17.5 -->
      <defs>
       <path d="M 4.734375 62.203125 
L 4.734375 70.65625 
L 51.078125 70.65625 
L 51.078125 63.8125 
Q 44.234375 56.546875 37.515625 44.484375 
Q 30.8125 32.421875 27.15625 19.671875 
Q 24.515625 10.6875 23.78125 0 
L 14.75 0 
Q 14.890625 8.453125 18.0625 20.40625 
Q 21.234375 32.375 27.171875 43.484375 
Q 33.109375 54.59375 39.796875 62.203125 
z
" id="ArialMT-37"/>
      </defs>
      <g style="fill:#262626;" transform="translate(14.092969 143.570929)scale(0.11 -0.11)">
       <use xlink:href="#ArialMT-31"/>
       <use x="55.615234" xlink:href="#ArialMT-37"/>
       <use x="111.230469" xlink:href="#ArialMT-2e"/>
       <use x="139.013672" xlink:href="#ArialMT-35"/>
      </g>
     </g>
    </g>
    <g id="ytick_3">
     <g id="line2d_3">
      <path clip-path="url(#pd43df2eac1)" d="M 45 113.925246 
L 324 113.925246 
" style="fill:none;stroke:#ffffff;stroke-linecap:round;"/>
     </g>
     <g id="text_11">
      <!-- 20.0 -->
      <g style="fill:#262626;" transform="translate(14.092969 117.862043)scale(0.11 -0.11)">
       <use xlink:href="#ArialMT-32"/>
       <use x="55.615234" xlink:href="#ArialMT-30"/>
       <use x="111.230469" xlink:href="#ArialMT-2e"/>
       <use x="139.013672" xlink:href="#ArialMT-30"/>
      </g>
     </g>
    </g>
    <g id="ytick_4">
     <g id="line2d_4">
      <path clip-path="url(#pd43df2eac1)" d="M 45 88.21636 
L 324 88.21636 
" style="fill:none;stroke:#ffffff;stroke-linecap:round;"/>
     </g>
     <g id="text_12">
      <!-- 22.5 -->
      <g style="fill:#262626;" transform="translate(14.092969 92.153157)scale(0.11 -0.11)">
       <use xlink:href="#ArialMT-32"/>
       <use x="55.615234" xlink:href="#ArialMT-32"/>
       <use x="111.230469" xlink:href="#ArialMT-2e"/>
       <use x="139.013672" xlink:href="#ArialMT-35"/>
      </g>
     </g>
    </g>
    <g id="ytick_5">
     <g id="line2d_5">
      <path clip-path="url(#pd43df2eac1)" d="M 45 62.507473 
L 324 62.507473 
" style="fill:none;stroke:#ffffff;stroke-linecap:round;"/>
     </g>
     <g id="text_13">
      <!-- 25.0 -->
      <g style="fill:#262626;" transform="translate(14.092969 66.44427)scale(0.11 -0.11)">
       <use xlink:href="#ArialMT-32"/>
       <use x="55.615234" xlink:href="#ArialMT-35"/>
       <use x="111.230469" xlink:href="#ArialMT-2e"/>
       <use x="139.013672" xlink:href="#ArialMT-30"/>
      </g>
     </g>
    </g>
    <g id="ytick_6">
     <g id="line2d_6">
      <path clip-path="url(#pd43df2eac1)" d="M 45 36.798587 
L 324 36.798587 
" style="fill:none;stroke:#ffffff;stroke-linecap:round;"/>
     </g>
     <g id="text_14">
      <!-- 27.5 -->
      <g style="fill:#262626;" transform="translate(14.092969 40.735384)scale(0.11 -0.11)">
       <use xlink:href="#ArialMT-32"/>
       <use x="55.615234" xlink:href="#ArialMT-37"/>
       <use x="111.230469" xlink:href="#ArialMT-2e"/>
       <use x="139.013672" xlink:href="#ArialMT-35"/>
      </g>
     </g>
    </g>
    <g id="text_15">
     <!-- OvarioleNb -->
     <defs>
      <path d="M 4.828125 34.859375 
Q 4.828125 52.6875 14.390625 62.765625 
Q 23.96875 72.859375 39.109375 72.859375 
Q 49.03125 72.859375 56.984375 68.109375 
Q 64.9375 63.375 69.109375 54.90625 
Q 73.296875 46.4375 73.296875 35.6875 
Q 73.296875 24.8125 68.890625 16.21875 
Q 64.5 7.625 56.4375 3.203125 
Q 48.390625 -1.21875 39.0625 -1.21875 
Q 28.953125 -1.21875 20.984375 3.65625 
Q 13.03125 8.546875 8.921875 16.984375 
Q 4.828125 25.4375 4.828125 34.859375 
z
M 14.59375 34.71875 
Q 14.59375 21.78125 21.546875 14.328125 
Q 28.515625 6.890625 39.015625 6.890625 
Q 49.703125 6.890625 56.609375 14.40625 
Q 63.53125 21.921875 63.53125 35.75 
Q 63.53125 44.484375 60.578125 51 
Q 57.625 57.515625 51.921875 61.109375 
Q 46.234375 64.703125 39.15625 64.703125 
Q 29.109375 64.703125 21.84375 57.78125 
Q 14.59375 50.875 14.59375 34.71875 
z
" id="ArialMT-4f"/>
      <path d="M 21 0 
L 1.265625 51.859375 
L 10.546875 51.859375 
L 21.6875 20.796875 
Q 23.484375 15.765625 25 10.359375 
Q 26.171875 14.453125 28.265625 20.21875 
L 39.796875 51.859375 
L 48.828125 51.859375 
L 29.203125 0 
z
" id="ArialMT-76"/>
      <path d="M 6.5 0 
L 6.5 51.859375 
L 14.40625 51.859375 
L 14.40625 44 
Q 17.4375 49.515625 20 51.265625 
Q 22.5625 53.03125 25.640625 53.03125 
Q 30.078125 53.03125 34.671875 50.203125 
L 31.640625 42.046875 
Q 28.421875 43.953125 25.203125 43.953125 
Q 22.3125 43.953125 20.015625 42.21875 
Q 17.71875 40.484375 16.75 37.40625 
Q 15.28125 32.71875 15.28125 27.15625 
L 15.28125 0 
z
" id="ArialMT-72"/>
      <path d="M 6.640625 61.46875 
L 6.640625 71.578125 
L 15.4375 71.578125 
L 15.4375 61.46875 
z
M 6.640625 0 
L 6.640625 51.859375 
L 15.4375 51.859375 
L 15.4375 0 
z
" id="ArialMT-69"/>
      <path d="M 3.328125 25.921875 
Q 3.328125 40.328125 11.328125 47.265625 
Q 18.015625 53.03125 27.640625 53.03125 
Q 38.328125 53.03125 45.109375 46.015625 
Q 51.90625 39.015625 51.90625 26.65625 
Q 51.90625 16.65625 48.90625 10.90625 
Q 45.90625 5.171875 40.15625 2 
Q 34.421875 -1.171875 27.640625 -1.171875 
Q 16.75 -1.171875 10.03125 5.8125 
Q 3.328125 12.796875 3.328125 25.921875 
z
M 12.359375 25.921875 
Q 12.359375 15.96875 16.703125 11.015625 
Q 21.046875 6.0625 27.640625 6.0625 
Q 34.1875 6.0625 38.53125 11.03125 
Q 42.875 16.015625 42.875 26.21875 
Q 42.875 35.84375 38.5 40.796875 
Q 34.125 45.75 27.640625 45.75 
Q 21.046875 45.75 16.703125 40.8125 
Q 12.359375 35.890625 12.359375 25.921875 
z
" id="ArialMT-6f"/>
      <path d="M 6.390625 0 
L 6.390625 71.578125 
L 15.1875 71.578125 
L 15.1875 0 
z
" id="ArialMT-6c"/>
      <path d="M 42.09375 16.703125 
L 51.171875 15.578125 
Q 49.03125 7.625 43.21875 3.21875 
Q 37.40625 -1.171875 28.375 -1.171875 
Q 17 -1.171875 10.328125 5.828125 
Q 3.65625 12.84375 3.65625 25.484375 
Q 3.65625 38.578125 10.390625 45.796875 
Q 17.140625 53.03125 27.875 53.03125 
Q 38.28125 53.03125 44.875 45.953125 
Q 51.46875 38.875 51.46875 26.03125 
Q 51.46875 25.25 51.421875 23.6875 
L 12.75 23.6875 
Q 13.234375 15.140625 17.578125 10.59375 
Q 21.921875 6.0625 28.421875 6.0625 
Q 33.25 6.0625 36.671875 8.59375 
Q 40.09375 11.140625 42.09375 16.703125 
z
M 13.234375 30.90625 
L 42.1875 30.90625 
Q 41.609375 37.453125 38.875 40.71875 
Q 34.671875 45.796875 27.984375 45.796875 
Q 21.921875 45.796875 17.796875 41.75 
Q 13.671875 37.703125 13.234375 30.90625 
z
" id="ArialMT-65"/>
      <path d="M 7.625 0 
L 7.625 71.578125 
L 17.328125 71.578125 
L 54.9375 15.375 
L 54.9375 71.578125 
L 64.015625 71.578125 
L 64.015625 0 
L 54.296875 0 
L 16.703125 56.25 
L 16.703125 0 
z
" id="ArialMT-4e"/>
      <path d="M 14.703125 0 
L 6.546875 0 
L 6.546875 71.578125 
L 15.328125 71.578125 
L 15.328125 46.046875 
Q 20.90625 53.03125 29.546875 53.03125 
Q 34.328125 53.03125 38.59375 51.09375 
Q 42.875 49.171875 45.625 45.671875 
Q 48.390625 42.1875 49.953125 37.25 
Q 51.515625 32.328125 51.515625 26.703125 
Q 51.515625 13.375 44.921875 6.09375 
Q 38.328125 -1.171875 29.109375 -1.171875 
Q 19.921875 -1.171875 14.703125 6.5 
z
M 14.59375 26.3125 
Q 14.59375 17 17.140625 12.84375 
Q 21.296875 6.0625 28.375 6.0625 
Q 34.125 6.0625 38.328125 11.0625 
Q 42.53125 16.0625 42.53125 25.984375 
Q 42.53125 36.140625 38.5 40.96875 
Q 34.46875 45.796875 28.765625 45.796875 
Q 23 45.796875 18.796875 40.796875 
Q 14.59375 35.796875 14.59375 26.3125 
z
" id="ArialMT-62"/>
     </defs>
     <g style="fill:#262626;" transform="translate(7.707969 137.470312)rotate(-90)scale(0.12 -0.12)">
      <use xlink:href="#ArialMT-4f"/>
      <use x="77.783203" xlink:href="#ArialMT-76"/>
      <use x="127.783203" xlink:href="#ArialMT-61"/>
      <use x="183.398438" xlink:href="#ArialMT-72"/>
      <use x="216.699219" xlink:href="#ArialMT-69"/>
      <use x="238.916016" xlink:href="#ArialMT-6f"/>
      <use x="294.53125" xlink:href="#ArialMT-6c"/>
      <use x="316.748047" xlink:href="#ArialMT-65"/>
      <use x="372.363281" xlink:href="#ArialMT-4e"/>
      <use x="444.580078" xlink:href="#ArialMT-62"/>
     </g>
    </g>
   </g>
   <g id="PolyCollection_1">
    <defs>
     <path d="M 65.392648 -57.087849 
L 64.464495 -57.087849 
L 64.363005 -57.788927 
L 64.24562 -58.490005 
L 64.111329 -59.191083 
L 63.959369 -59.89216 
L 63.789279 -60.593238 
L 63.600946 -61.294316 
L 63.394642 -61.995394 
L 63.171034 -62.696471 
L 62.931186 -63.397549 
L 62.676524 -64.098627 
L 62.40879 -64.799705 
L 62.129967 -65.500783 
L 61.842188 -66.20186 
L 61.547631 -66.902938 
L 61.248409 -67.604016 
L 60.946458 -68.305094 
L 60.643428 -69.006171 
L 60.340603 -69.707249 
L 60.038821 -70.408327 
L 59.738436 -71.109405 
L 59.439299 -71.810483 
L 59.140765 -72.51156 
L 58.841732 -73.212638 
L 58.540695 -73.913716 
L 58.235828 -74.614794 
L 57.925071 -75.315872 
L 57.606236 -76.016949 
L 57.277113 -76.718027 
L 56.935587 -77.419105 
L 56.579751 -78.120183 
L 56.20803 -78.82126 
L 55.819295 -79.522338 
L 55.412987 -80.223416 
L 54.98923 -80.924494 
L 54.548934 -81.625572 
L 54.093892 -82.326649 
L 53.626842 -83.027727 
L 53.151502 -83.728805 
L 52.672561 -84.429883 
L 52.195614 -85.13096 
L 51.727045 -85.832038 
L 51.273844 -86.533116 
L 50.843375 -87.234194 
L 50.443091 -87.935272 
L 50.080217 -88.636349 
L 49.761421 -89.337427 
L 49.49249 -90.038505 
L 49.278043 -90.739583 
L 49.121285 -91.44066 
L 49.02385 -92.141738 
L 48.985714 -92.842816 
L 49.005208 -93.543894 
L 49.079117 -94.244972 
L 49.202869 -94.946049 
L 49.370779 -95.647127 
L 49.576354 -96.348205 
L 49.812616 -97.049283 
L 50.072436 -97.75036 
L 50.348843 -98.451438 
L 50.635314 -99.152516 
L 50.926006 -99.853594 
L 51.215943 -100.554672 
L 51.501152 -101.255749 
L 51.778739 -101.956827 
L 52.046925 -102.657905 
L 52.305035 -103.358983 
L 52.553453 -104.06006 
L 52.793548 -104.761138 
L 53.027569 -105.462216 
L 53.258518 -106.163294 
L 53.489997 -106.864372 
L 53.726038 -107.565449 
L 53.970907 -108.266527 
L 54.228897 -108.967605 
L 54.504102 -109.668683 
L 54.800204 -110.36976 
L 55.120246 -111.070838 
L 55.466452 -111.771916 
L 55.840054 -112.472994 
L 56.241186 -113.174072 
L 56.668817 -113.875149 
L 57.120754 -114.576227 
L 57.593701 -115.277305 
L 58.083389 -115.978383 
L 58.584749 -116.67946 
L 59.092131 -117.380538 
L 59.599551 -118.081616 
L 60.100953 -118.782694 
L 60.590458 -119.483772 
L 61.062599 -120.184849 
L 61.512521 -120.885927 
L 61.936137 -121.587005 
L 62.330234 -122.288083 
L 62.692526 -122.98916 
L 63.021662 -123.690238 
L 63.317184 -124.391316 
L 63.579444 -125.092394 
L 63.809507 -125.793472 
L 64.009018 -126.494549 
L 65.848125 -126.494549 
L 65.848125 -126.494549 
L 66.047635 -125.793472 
L 66.277698 -125.092394 
L 66.539959 -124.391316 
L 66.83548 -123.690238 
L 67.164617 -122.98916 
L 67.526909 -122.288083 
L 67.921006 -121.587005 
L 68.344622 -120.885927 
L 68.794544 -120.184849 
L 69.266685 -119.483772 
L 69.75619 -118.782694 
L 70.257591 -118.081616 
L 70.765012 -117.380538 
L 71.272394 -116.67946 
L 71.773754 -115.978383 
L 72.263442 -115.277305 
L 72.736389 -114.576227 
L 73.188325 -113.875149 
L 73.615956 -113.174072 
L 74.017089 -112.472994 
L 74.390691 -111.771916 
L 74.736897 -111.070838 
L 75.056939 -110.36976 
L 75.35304 -109.668683 
L 75.628246 -108.967605 
L 75.886236 -108.266527 
L 76.131105 -107.565449 
L 76.367146 -106.864372 
L 76.598625 -106.163294 
L 76.829573 -105.462216 
L 77.063594 -104.761138 
L 77.30369 -104.06006 
L 77.552108 -103.358983 
L 77.810218 -102.657905 
L 78.078404 -101.956827 
L 78.355991 -101.255749 
L 78.6412 -100.554672 
L 78.931137 -99.853594 
L 79.221828 -99.152516 
L 79.508299 -98.451438 
L 79.784707 -97.75036 
L 80.044526 -97.049283 
L 80.280789 -96.348205 
L 80.486364 -95.647127 
L 80.654274 -94.946049 
L 80.778025 -94.244972 
L 80.851935 -93.543894 
L 80.871429 -92.842816 
L 80.833292 -92.141738 
L 80.735858 -91.44066 
L 80.5791 -90.739583 
L 80.364653 -90.038505 
L 80.095722 -89.337427 
L 79.776926 -88.636349 
L 79.414052 -87.935272 
L 79.013768 -87.234194 
L 78.583299 -86.533116 
L 78.130098 -85.832038 
L 77.661528 -85.13096 
L 77.184582 -84.429883 
L 76.705641 -83.728805 
L 76.230301 -83.027727 
L 75.763251 -82.326649 
L 75.308209 -81.625572 
L 74.867913 -80.924494 
L 74.444156 -80.223416 
L 74.037848 -79.522338 
L 73.649113 -78.82126 
L 73.277392 -78.120183 
L 72.921556 -77.419105 
L 72.58003 -76.718027 
L 72.250907 -76.016949 
L 71.932072 -75.315872 
L 71.621315 -74.614794 
L 71.316448 -73.913716 
L 71.015411 -73.212638 
L 70.716378 -72.51156 
L 70.417844 -71.810483 
L 70.118707 -71.109405 
L 69.818322 -70.408327 
L 69.51654 -69.707249 
L 69.213714 -69.006171 
L 68.910685 -68.305094 
L 68.608733 -67.604016 
L 68.309512 -66.902938 
L 68.014955 -66.20186 
L 67.727176 -65.500783 
L 67.448353 -64.799705 
L 67.180619 -64.098627 
L 66.925957 -63.397549 
L 66.686109 -62.696471 
L 66.462501 -61.995394 
L 66.256197 -61.294316 
L 66.067864 -60.593238 
L 65.897774 -59.89216 
L 65.745814 -59.191083 
L 65.611523 -58.490005 
L 65.494138 -57.788927 
L 65.392648 -57.087849 
z
" id="m73a05ca5e1" style="stroke:#7f7f7f;stroke-width:1.5;"/>
    </defs>
    <g clip-path="url(#pd43df2eac1)">
     <use style="fill:#d3d3d3;stroke:#7f7f7f;stroke-width:1.5;" x="0" xlink:href="#m73a05ca5e1" y="216"/>
    </g>
   </g>
   <g id="PolyCollection_2">
    <defs>
     <path d="M 104.907081 -47.40264 
L 104.664348 -47.40264 
L 104.627873 -48.299378 
L 104.583719 -49.196117 
L 104.531269 -50.092855 
L 104.470118 -50.989594 
L 104.400109 -51.886333 
L 104.321364 -52.783071 
L 104.234276 -53.67981 
L 104.139469 -54.576548 
L 104.037733 -55.473287 
L 103.929919 -56.370025 
L 103.816826 -57.266764 
L 103.699071 -58.163503 
L 103.576971 -59.060241 
L 103.450443 -59.95698 
L 103.318938 -60.853718 
L 103.181403 -61.750457 
L 103.036283 -62.647196 
L 102.881561 -63.543934 
L 102.714816 -64.440673 
L 102.533309 -65.337411 
L 102.334083 -66.23415 
L 102.114088 -67.130888 
L 101.870326 -68.027627 
L 101.600033 -68.924366 
L 101.300887 -69.821104 
L 100.971257 -70.717843 
L 100.610451 -71.614581 
L 100.218963 -72.51132 
L 99.798656 -73.408058 
L 99.35285 -74.304797 
L 98.886278 -75.201536 
L 98.404871 -76.098274 
L 97.915395 -76.995013 
L 97.424946 -77.891751 
L 96.940382 -78.78849 
L 96.467747 -79.685229 
L 96.011791 -80.581967 
L 95.575652 -81.478706 
L 95.160737 -82.375444 
L 94.766834 -83.272183 
L 94.392414 -84.168921 
L 94.035053 -85.06566 
L 93.691913 -85.962399 
L 93.360176 -86.859137 
L 93.037385 -87.755876 
L 92.721644 -88.652614 
L 92.411708 -89.549353 
L 92.106986 -90.446091 
L 91.807523 -91.34283 
L 91.514028 -92.239569 
L 91.227979 -93.136307 
L 90.951804 -94.033046 
L 90.689099 -94.929784 
L 90.444811 -95.826523 
L 90.225294 -96.723261 
L 90.038159 -97.62 
L 89.891887 -98.516739 
L 89.795198 -99.413477 
L 89.756259 -100.310216 
L 89.781836 -101.206954 
L 89.876538 -102.103693 
L 90.04228 -103.000432 
L 90.278064 -103.89717 
L 90.580131 -104.793909 
L 90.942436 -105.690647 
L 91.357378 -106.587386 
L 91.816633 -107.484124 
L 92.31195 -108.380863 
L 92.835786 -109.277602 
L 93.381678 -110.17434 
L 93.944338 -111.071079 
L 94.519494 -111.967817 
L 95.10356 -112.864556 
L 95.693231 -113.761294 
L 96.28513 -114.658033 
L 96.875565 -115.554772 
L 97.460462 -116.45151 
L 98.035461 -117.348249 
L 98.596148 -118.244987 
L 99.138349 -119.141726 
L 99.658424 -120.038465 
L 100.153495 -120.935203 
L 100.621556 -121.831942 
L 101.061472 -122.72868 
L 101.472861 -123.625419 
L 101.855905 -124.522157 
L 102.211137 -125.418896 
L 102.539232 -126.315635 
L 102.840864 -127.212373 
L 103.11662 -128.109112 
L 103.366989 -129.00585 
L 103.592417 -129.902589 
L 103.793384 -130.799327 
L 103.970512 -131.696066 
L 104.124639 -132.592805 
L 104.256881 -133.489543 
L 104.368646 -134.386282 
L 104.461606 -135.28302 
L 104.537647 -136.179759 
L 105.033781 -136.179759 
L 105.033781 -136.179759 
L 105.109822 -135.28302 
L 105.202783 -134.386282 
L 105.314547 -133.489543 
L 105.44679 -132.592805 
L 105.600917 -131.696066 
L 105.778044 -130.799327 
L 105.979012 -129.902589 
L 106.204439 -129.00585 
L 106.454809 -128.109112 
L 106.730564 -127.212373 
L 107.032197 -126.315635 
L 107.360292 -125.418896 
L 107.715523 -124.522157 
L 108.098568 -123.625419 
L 108.509956 -122.72868 
L 108.949872 -121.831942 
L 109.417934 -120.935203 
L 109.913004 -120.038465 
L 110.43308 -119.141726 
L 110.975281 -118.244987 
L 111.535967 -117.348249 
L 112.110967 -116.45151 
L 112.695864 -115.554772 
L 113.286299 -114.658033 
L 113.878198 -113.761294 
L 114.467869 -112.864556 
L 115.051934 -111.967817 
L 115.627091 -111.071079 
L 116.189751 -110.17434 
L 116.735643 -109.277602 
L 117.259478 -108.380863 
L 117.754796 -107.484124 
L 118.21405 -106.587386 
L 118.628993 -105.690647 
L 118.991298 -104.793909 
L 119.293364 -103.89717 
L 119.529148 -103.000432 
L 119.69489 -102.103693 
L 119.789593 -101.206954 
L 119.81517 -100.310216 
L 119.776231 -99.413477 
L 119.679542 -98.516739 
L 119.533269 -97.62 
L 119.346135 -96.723261 
L 119.126617 -95.826523 
L 118.882329 -94.929784 
L 118.619625 -94.033046 
L 118.34345 -93.136307 
L 118.057401 -92.239569 
L 117.763906 -91.34283 
L 117.464442 -90.446091 
L 117.15972 -89.549353 
L 116.849785 -88.652614 
L 116.534044 -87.755876 
L 116.211252 -86.859137 
L 115.879516 -85.962399 
L 115.536376 -85.06566 
L 115.179015 -84.168921 
L 114.804594 -83.272183 
L 114.410692 -82.375444 
L 113.995776 -81.478706 
L 113.559637 -80.581967 
L 113.103682 -79.685229 
L 112.631047 -78.78849 
L 112.146482 -77.891751 
L 111.656034 -76.995013 
L 111.166557 -76.098274 
L 110.68515 -75.201536 
L 110.218578 -74.304797 
L 109.772773 -73.408058 
L 109.352465 -72.51132 
L 108.960977 -71.614581 
L 108.600172 -70.717843 
L 108.270541 -69.821104 
L 107.971396 -68.924366 
L 107.701102 -68.027627 
L 107.457341 -67.130888 
L 107.237345 -66.23415 
L 107.03812 -65.337411 
L 106.856613 -64.440673 
L 106.689868 -63.543934 
L 106.535146 -62.647196 
L 106.390026 -61.750457 
L 106.25249 -60.853718 
L 106.120985 -59.95698 
L 105.994458 -59.060241 
L 105.872358 -58.163503 
L 105.754602 -57.266764 
L 105.641509 -56.370025 
L 105.533696 -55.473287 
L 105.43196 -54.576548 
L 105.337153 -53.67981 
L 105.250064 -52.783071 
L 105.17132 -51.886333 
L 105.101311 -50.989594 
L 105.040159 -50.092855 
L 104.98771 -49.196117 
L 104.943556 -48.299378 
L 104.907081 -47.40264 
z
" id="m56b6098c37" style="stroke:#7f7f7f;stroke-width:1.5;"/>
    </defs>
    <g clip-path="url(#pd43df2eac1)">
     <use style="fill:#d3d3d3;stroke:#7f7f7f;stroke-width:1.5;" x="0" xlink:href="#m56b6098c37" y="216"/>
    </g>
   </g>
   <g id="PolyCollection_3">
    <defs>
     <path d="M 144.885367 -57.070473 
L 144.400347 -57.070473 
L 144.327342 -57.979651 
L 144.237982 -58.888828 
L 144.1302 -59.798005 
L 144.002003 -60.707183 
L 143.851524 -61.61636 
L 143.677052 -62.525538 
L 143.477043 -63.434715 
L 143.250123 -64.343892 
L 142.995083 -65.25307 
L 142.710875 -66.162247 
L 142.396646 -67.071425 
L 142.051798 -67.980602 
L 141.676108 -68.889779 
L 141.269902 -69.798957 
L 140.834264 -70.708134 
L 140.371281 -71.617311 
L 139.884247 -72.526489 
L 139.37783 -73.435666 
L 138.858106 -74.344844 
L 138.332457 -75.254021 
L 137.809298 -76.163198 
L 137.297633 -77.072376 
L 136.806469 -77.981553 
L 136.344154 -78.890731 
L 135.917699 -79.799908 
L 135.53217 -80.709085 
L 135.190234 -81.618263 
L 134.89191 -82.52744 
L 134.634549 -83.436618 
L 134.413067 -84.345795 
L 134.220376 -85.254972 
L 134.047973 -86.16415 
L 133.886629 -87.073327 
L 133.727092 -87.982504 
L 133.560782 -88.891682 
L 133.380397 -89.800859 
L 133.180446 -90.710037 
L 132.957661 -91.619214 
L 132.7113 -92.528391 
L 132.443318 -93.437569 
L 132.1584 -94.346746 
L 131.863825 -95.255924 
L 131.569149 -96.165101 
L 131.285704 -97.074278 
L 131.025904 -97.983456 
L 130.802421 -98.892633 
L 130.627279 -99.80181 
L 130.510957 -100.710988 
L 130.461614 -101.620165 
L 130.484505 -102.529343 
L 130.581689 -103.43852 
L 130.752036 -104.347697 
L 130.991536 -105.256875 
L 131.293859 -106.166052 
L 131.65106 -107.07523 
L 132.054343 -107.984407 
L 132.494761 -108.893584 
L 132.963791 -109.802762 
L 133.453709 -110.711939 
L 133.957777 -111.621116 
L 134.470245 -112.530294 
L 134.986247 -113.439471 
L 135.501618 -114.348649 
L 136.012729 -115.257826 
L 136.516346 -116.167003 
L 137.009569 -117.076181 
L 137.489828 -117.985358 
L 137.954919 -118.894536 
L 138.40307 -119.803713 
L 138.832977 -120.71289 
L 139.243823 -121.622068 
L 139.635242 -122.531245 
L 140.007251 -123.440422 
L 140.360152 -124.3496 
L 140.694435 -125.258777 
L 141.010682 -126.167955 
L 141.309504 -127.077132 
L 141.591507 -127.986309 
L 141.857282 -128.895487 
L 142.107416 -129.804664 
L 142.342503 -130.713842 
L 142.563156 -131.623019 
L 142.770004 -132.532196 
L 142.963669 -133.441374 
L 143.144741 -134.350551 
L 143.313743 -135.259728 
L 143.471102 -136.168906 
L 143.617131 -137.078083 
L 143.752033 -137.987261 
L 143.875925 -138.896438 
L 143.988868 -139.805615 
L 144.090923 -140.714793 
L 144.182197 -141.62397 
L 144.262887 -142.533148 
L 144.333318 -143.442325 
L 144.393953 -144.351502 
L 144.445397 -145.26068 
L 144.48838 -146.169857 
L 144.523728 -147.079034 
L 144.761986 -147.079034 
L 144.761986 -147.079034 
L 144.797334 -146.169857 
L 144.840318 -145.26068 
L 144.891762 -144.351502 
L 144.952396 -143.442325 
L 145.022827 -142.533148 
L 145.103518 -141.62397 
L 145.194791 -140.714793 
L 145.296846 -139.805615 
L 145.40979 -138.896438 
L 145.533681 -137.987261 
L 145.668584 -137.078083 
L 145.814612 -136.168906 
L 145.971971 -135.259728 
L 146.140973 -134.350551 
L 146.322046 -133.441374 
L 146.515711 -132.532196 
L 146.722558 -131.623019 
L 146.943211 -130.713842 
L 147.178298 -129.804664 
L 147.428432 -128.895487 
L 147.694207 -127.986309 
L 147.97621 -127.077132 
L 148.275032 -126.167955 
L 148.591279 -125.258777 
L 148.925562 -124.3496 
L 149.278464 -123.440422 
L 149.650473 -122.531245 
L 150.041891 -121.622068 
L 150.452737 -120.71289 
L 150.882644 -119.803713 
L 151.330795 -118.894536 
L 151.795887 -117.985358 
L 152.276145 -117.076181 
L 152.769368 -116.167003 
L 153.272985 -115.257826 
L 153.784096 -114.348649 
L 154.299468 -113.439471 
L 154.815469 -112.530294 
L 155.327938 -111.621116 
L 155.832005 -110.711939 
L 156.321924 -109.802762 
L 156.790953 -108.893584 
L 157.231372 -107.984407 
L 157.634654 -107.07523 
L 157.991855 -106.166052 
L 158.294178 -105.256875 
L 158.533678 -104.347697 
L 158.704025 -103.43852 
L 158.801209 -102.529343 
L 158.8241 -101.620165 
L 158.774757 -100.710988 
L 158.658436 -99.80181 
L 158.483293 -98.892633 
L 158.25981 -97.983456 
L 158.00001 -97.074278 
L 157.716565 -96.165101 
L 157.42189 -95.255924 
L 157.127314 -94.346746 
L 156.842396 -93.437569 
L 156.574415 -92.528391 
L 156.328054 -91.619214 
L 156.105269 -90.710037 
L 155.905318 -89.800859 
L 155.724933 -88.891682 
L 155.558622 -87.982504 
L 155.399086 -87.073327 
L 155.237741 -86.16415 
L 155.065338 -85.254972 
L 154.872647 -84.345795 
L 154.651165 -83.436618 
L 154.393804 -82.52744 
L 154.09548 -81.618263 
L 153.753545 -80.709085 
L 153.368016 -79.799908 
L 152.94156 -78.890731 
L 152.479245 -77.981553 
L 151.988081 -77.072376 
L 151.476416 -76.163198 
L 150.953258 -75.254021 
L 150.427609 -74.344844 
L 149.907884 -73.435666 
L 149.401467 -72.526489 
L 148.914434 -71.617311 
L 148.45145 -70.708134 
L 148.015813 -69.798957 
L 147.609606 -68.889779 
L 147.233916 -67.980602 
L 146.889068 -67.071425 
L 146.574839 -66.162247 
L 146.290632 -65.25307 
L 146.035591 -64.343892 
L 145.808672 -63.434715 
L 145.608663 -62.525538 
L 145.43419 -61.61636 
L 145.283712 -60.707183 
L 145.155515 -59.798005 
L 145.047732 -58.888828 
L 144.958372 -57.979651 
L 144.885367 -57.070473 
z
" id="m747436cc4d" style="stroke:#7f7f7f;stroke-width:1.5;"/>
    </defs>
    <g clip-path="url(#pd43df2eac1)">
     <use style="fill:#d3d3d3;stroke:#7f7f7f;stroke-width:1.5;" x="0" xlink:href="#m747436cc4d" y="216"/>
    </g>
   </g>
   <g id="PolyCollection_4">
    <defs>
     <path d="M 184.622681 -57.31572 
L 184.377319 -57.31572 
L 184.340018 -58.219943 
L 184.294311 -59.124165 
L 184.23914 -60.028388 
L 184.173486 -60.932611 
L 184.096381 -61.836834 
L 184.006922 -62.741057 
L 183.904245 -63.64528 
L 183.787506 -64.549503 
L 183.655832 -65.453726 
L 183.508277 -66.357949 
L 183.343773 -67.262172 
L 183.161096 -68.166395 
L 182.958845 -69.070618 
L 182.735453 -69.97484 
L 182.48921 -70.879063 
L 182.218319 -71.783286 
L 181.920949 -72.687509 
L 181.595295 -73.591732 
L 181.23964 -74.495955 
L 180.852398 -75.400178 
L 180.432167 -76.304401 
L 179.9778 -77.208624 
L 179.488505 -78.112847 
L 178.964021 -79.01707 
L 178.404855 -79.921292 
L 177.812603 -80.825515 
L 177.190322 -81.729738 
L 176.542909 -82.633961 
L 175.877416 -83.538184 
L 175.203235 -84.442407 
L 174.532051 -85.34663 
L 173.877528 -86.250853 
L 173.254692 -87.155076 
L 172.679023 -88.059299 
L 172.165352 -88.963522 
L 171.726649 -89.867745 
L 171.372856 -90.771967 
L 171.109923 -91.67619 
L 170.939154 -92.580413 
L 170.856976 -93.484636 
L 170.855148 -94.388859 
L 170.921399 -95.293082 
L 171.040403 -96.197305 
L 171.194997 -97.101528 
L 171.367483 -98.005751 
L 171.540915 -98.909974 
L 171.700252 -99.814197 
L 171.833308 -100.71842 
L 171.931458 -101.622642 
L 171.990107 -102.526865 
L 172.008891 -103.431088 
L 171.991656 -104.335311 
L 171.946193 -105.239534 
L 171.883747 -106.143757 
L 171.8183 -107.04798 
L 171.765636 -107.952203 
L 171.742229 -108.856426 
L 171.764018 -109.760649 
L 171.845157 -110.664872 
L 171.996851 -111.569094 
L 172.226407 -112.473317 
L 172.536605 -113.37754 
L 172.925462 -114.281763 
L 173.386431 -115.185986 
L 173.909 -116.090209 
L 174.479625 -116.994432 
L 175.082883 -117.898655 
L 175.702699 -118.802878 
L 176.323525 -119.707101 
L 176.931347 -120.611324 
L 177.514434 -121.515547 
L 178.063811 -122.419769 
L 178.573428 -123.323992 
L 179.040088 -124.228215 
L 179.463179 -125.132438 
L 179.844264 -126.036661 
L 180.186613 -126.940884 
L 180.494707 -127.845107 
L 180.773757 -128.74933 
L 181.029265 -129.653553 
L 181.266631 -130.557776 
L 181.490818 -131.461999 
L 181.706081 -132.366222 
L 181.915769 -133.270444 
L 182.122193 -134.174667 
L 182.326587 -135.07889 
L 182.529145 -135.983113 
L 182.729138 -136.887336 
L 182.925096 -137.791559 
L 183.115041 -138.695782 
L 183.296742 -139.600005 
L 183.467964 -140.504228 
L 183.626697 -141.408451 
L 183.771331 -142.312674 
L 183.900779 -143.216896 
L 184.014528 -144.121119 
L 184.112639 -145.025342 
L 184.195686 -145.929565 
L 184.264668 -146.833788 
L 184.735332 -146.833788 
L 184.735332 -146.833788 
L 184.804314 -145.929565 
L 184.887361 -145.025342 
L 184.985472 -144.121119 
L 185.099221 -143.216896 
L 185.228669 -142.312674 
L 185.373303 -141.408451 
L 185.532036 -140.504228 
L 185.703258 -139.600005 
L 185.884959 -138.695782 
L 186.074904 -137.791559 
L 186.270862 -136.887336 
L 186.470855 -135.983113 
L 186.673413 -135.07889 
L 186.877807 -134.174667 
L 187.084231 -133.270444 
L 187.293919 -132.366222 
L 187.509182 -131.461999 
L 187.733369 -130.557776 
L 187.970735 -129.653553 
L 188.226243 -128.74933 
L 188.505293 -127.845107 
L 188.813387 -126.940884 
L 189.155736 -126.036661 
L 189.536821 -125.132438 
L 189.959912 -124.228215 
L 190.426572 -123.323992 
L 190.936189 -122.419769 
L 191.485566 -121.515547 
L 192.068653 -120.611324 
L 192.676475 -119.707101 
L 193.297301 -118.802878 
L 193.917117 -117.898655 
L 194.520375 -116.994432 
L 195.091 -116.090209 
L 195.613569 -115.185986 
L 196.074538 -114.281763 
L 196.463395 -113.37754 
L 196.773593 -112.473317 
L 197.003149 -111.569094 
L 197.154843 -110.664872 
L 197.235982 -109.760649 
L 197.257771 -108.856426 
L 197.234364 -107.952203 
L 197.1817 -107.04798 
L 197.116253 -106.143757 
L 197.053807 -105.239534 
L 197.008344 -104.335311 
L 196.991109 -103.431088 
L 197.009893 -102.526865 
L 197.068542 -101.622642 
L 197.166692 -100.71842 
L 197.299748 -99.814197 
L 197.459085 -98.909974 
L 197.632517 -98.005751 
L 197.805003 -97.101528 
L 197.959597 -96.197305 
L 198.078601 -95.293082 
L 198.144852 -94.388859 
L 198.143024 -93.484636 
L 198.060846 -92.580413 
L 197.890077 -91.67619 
L 197.627144 -90.771967 
L 197.273351 -89.867745 
L 196.834648 -88.963522 
L 196.320977 -88.059299 
L 195.745308 -87.155076 
L 195.122472 -86.250853 
L 194.467949 -85.34663 
L 193.796765 -84.442407 
L 193.122584 -83.538184 
L 192.457091 -82.633961 
L 191.809678 -81.729738 
L 191.187397 -80.825515 
L 190.595145 -79.921292 
L 190.035979 -79.01707 
L 189.511495 -78.112847 
L 189.0222 -77.208624 
L 188.567833 -76.304401 
L 188.147602 -75.400178 
L 187.76036 -74.495955 
L 187.404705 -73.591732 
L 187.079051 -72.687509 
L 186.781681 -71.783286 
L 186.51079 -70.879063 
L 186.264547 -69.97484 
L 186.041155 -69.070618 
L 185.838904 -68.166395 
L 185.656227 -67.262172 
L 185.491723 -66.357949 
L 185.344168 -65.453726 
L 185.212494 -64.549503 
L 185.095755 -63.64528 
L 184.993078 -62.741057 
L 184.903619 -61.836834 
L 184.826514 -60.932611 
L 184.76086 -60.028388 
L 184.705689 -59.124165 
L 184.659982 -58.219943 
L 184.622681 -57.31572 
z
" id="mb638eb8d21" style="stroke:#7f7f7f;stroke-width:1.5;"/>
    </defs>
    <g clip-path="url(#pd43df2eac1)">
     <use style="fill:#d3d3d3;stroke:#7f7f7f;stroke-width:1.5;" x="0" xlink:href="#mb638eb8d21" y="216"/>
    </g>
   </g>
   <g id="PolyCollection_5">
    <defs>
     <path d="M 224.468028 -45.192407 
L 224.246258 -45.192407 
L 224.207527 -46.341545 
L 224.15882 -47.490684 
L 224.098725 -48.639822 
L 224.025913 -49.78896 
L 223.939189 -50.938099 
L 223.837516 -52.087237 
L 223.720028 -53.236375 
L 223.586006 -54.385514 
L 223.434842 -55.534652 
L 223.265982 -56.68379 
L 223.078878 -57.832929 
L 222.87294 -58.982067 
L 222.647515 -60.131205 
L 222.401889 -61.280344 
L 222.135309 -62.429482 
L 221.847045 -63.57862 
L 221.536454 -64.727758 
L 221.203074 -65.876897 
L 220.846737 -67.026035 
L 220.467687 -68.175173 
L 220.066722 -69.324312 
L 219.645333 -70.47345 
L 219.20583 -71.622588 
L 218.75142 -72.771727 
L 218.2862 -73.920865 
L 217.815054 -75.070003 
L 217.34341 -76.219142 
L 216.876883 -77.36828 
L 216.42084 -78.517418 
L 215.979926 -79.666557 
L 215.557651 -80.815695 
L 215.156092 -81.964833 
L 214.775767 -83.113972 
L 214.415724 -84.26311 
L 214.073819 -85.412248 
L 213.747155 -86.561387 
L 213.432632 -87.710525 
L 213.127533 -88.859663 
L 212.830087 -90.008802 
L 212.539961 -91.15794 
L 212.258623 -92.307078 
L 211.989556 -93.456216 
L 211.738269 -94.605355 
L 211.512103 -95.754493 
L 211.319809 -96.903631 
L 211.170933 -98.05277 
L 211.075037 -99.201908 
L 211.040875 -100.351046 
L 211.075599 -101.500185 
L 211.184127 -102.649323 
L 211.368762 -103.798461 
L 211.629089 -104.9476 
L 211.962168 -106.096738 
L 212.362938 -107.245876 
L 212.824743 -108.395015 
L 213.339868 -109.544153 
L 213.900003 -110.693291 
L 214.49657 -111.84243 
L 215.120919 -112.991568 
L 215.764422 -114.140706 
L 216.418521 -115.289845 
L 217.074783 -116.438983 
L 217.725009 -117.588121 
L 218.361385 -118.73726 
L 218.976678 -119.886398 
L 219.564421 -121.035536 
L 220.119063 -122.184674 
L 220.636049 -123.333813 
L 221.111827 -124.482951 
L 221.543803 -125.632089 
L 221.930268 -126.781228 
L 222.270331 -127.930366 
L 222.563888 -129.079504 
L 222.811643 -130.228643 
L 223.01515 -131.377781 
L 223.176891 -132.526919 
L 223.300308 -133.676058 
L 223.389799 -134.825196 
L 223.450621 -135.974334 
L 223.488691 -137.123473 
L 223.510312 -138.272611 
L 223.521818 -139.421749 
L 223.529189 -140.570888 
L 223.537687 -141.720026 
L 223.551537 -142.869164 
L 223.573714 -144.018303 
L 223.605844 -145.167441 
L 223.648232 -146.316579 
L 223.700018 -147.465718 
L 223.759416 -148.614856 
L 223.824023 -149.763994 
L 223.891141 -150.913132 
L 223.958087 -152.062271 
L 224.022441 -153.211409 
L 224.082235 -154.360547 
L 224.136051 -155.509686 
L 224.18305 -156.658824 
L 224.222932 -157.807962 
L 224.25585 -158.957101 
L 224.458436 -158.957101 
L 224.458436 -158.957101 
L 224.491354 -157.807962 
L 224.531236 -156.658824 
L 224.578235 -155.509686 
L 224.632051 -154.360547 
L 224.691845 -153.211409 
L 224.756199 -152.062271 
L 224.823144 -150.913132 
L 224.890263 -149.763994 
L 224.95487 -148.614856 
L 225.014268 -147.465718 
L 225.066053 -146.316579 
L 225.108442 -145.167441 
L 225.140571 -144.018303 
L 225.162748 -142.869164 
L 225.176599 -141.720026 
L 225.185096 -140.570888 
L 225.192468 -139.421749 
L 225.203974 -138.272611 
L 225.225595 -137.123473 
L 225.263665 -135.974334 
L 225.324486 -134.825196 
L 225.413978 -133.676058 
L 225.537395 -132.526919 
L 225.699135 -131.377781 
L 225.902643 -130.228643 
L 226.150397 -129.079504 
L 226.443955 -127.930366 
L 226.784018 -126.781228 
L 227.170483 -125.632089 
L 227.602459 -124.482951 
L 228.078237 -123.333813 
L 228.595222 -122.184674 
L 229.149865 -121.035536 
L 229.737608 -119.886398 
L 230.352901 -118.73726 
L 230.989277 -117.588121 
L 231.639503 -116.438983 
L 232.295765 -115.289845 
L 232.949863 -114.140706 
L 233.593367 -112.991568 
L 234.217716 -111.84243 
L 234.814283 -110.693291 
L 235.374418 -109.544153 
L 235.889543 -108.395015 
L 236.351347 -107.245876 
L 236.752117 -106.096738 
L 237.085197 -104.9476 
L 237.345524 -103.798461 
L 237.530158 -102.649323 
L 237.638687 -101.500185 
L 237.673411 -100.351046 
L 237.639249 -99.201908 
L 237.543353 -98.05277 
L 237.394476 -96.903631 
L 237.202183 -95.754493 
L 236.976017 -94.605355 
L 236.72473 -93.456216 
L 236.455662 -92.307078 
L 236.174325 -91.15794 
L 235.884199 -90.008802 
L 235.586753 -88.859663 
L 235.281654 -87.710525 
L 234.967131 -86.561387 
L 234.640467 -85.412248 
L 234.298561 -84.26311 
L 233.938519 -83.113972 
L 233.558194 -81.964833 
L 233.156634 -80.815695 
L 232.73436 -79.666557 
L 232.293446 -78.517418 
L 231.837402 -77.36828 
L 231.370876 -76.219142 
L 230.899231 -75.070003 
L 230.428086 -73.920865 
L 229.962866 -72.771727 
L 229.508455 -71.622588 
L 229.068953 -70.47345 
L 228.647564 -69.324312 
L 228.246599 -68.175173 
L 227.867548 -67.026035 
L 227.511211 -65.876897 
L 227.177832 -64.727758 
L 226.867241 -63.57862 
L 226.578976 -62.429482 
L 226.312397 -61.280344 
L 226.06677 -60.131205 
L 225.841346 -58.982067 
L 225.635408 -57.832929 
L 225.448304 -56.68379 
L 225.279444 -55.534652 
L 225.12828 -54.385514 
L 224.994258 -53.236375 
L 224.87677 -52.087237 
L 224.775097 -50.938099 
L 224.688372 -49.78896 
L 224.615561 -48.639822 
L 224.555466 -47.490684 
L 224.506759 -46.341545 
L 224.468028 -45.192407 
z
" id="mc28bbcd002" style="stroke:#7f7f7f;stroke-width:1.5;"/>
    </defs>
    <g clip-path="url(#pd43df2eac1)">
     <use style="fill:#d3d3d3;stroke:#7f7f7f;stroke-width:1.5;" x="0" xlink:href="#mc28bbcd002" y="216"/>
    </g>
   </g>
   <g id="PolyCollection_6">
    <defs>
     <path d="M 264.404874 -52.332899 
L 264.023698 -52.332899 
L 263.960039 -53.649408 
L 263.880678 -54.965916 
L 263.783549 -56.282425 
L 263.666798 -57.598934 
L 263.528902 -58.915443 
L 263.368773 -60.231952 
L 263.185838 -61.548461 
L 262.980085 -62.864969 
L 262.752065 -64.181478 
L 262.502855 -65.497987 
L 262.233987 -66.814496 
L 261.947352 -68.131005 
L 261.645087 -69.447514 
L 261.329461 -70.764022 
L 261.002783 -72.080531 
L 260.667312 -73.39704 
L 260.325208 -74.713549 
L 259.978497 -76.030058 
L 259.629059 -77.346567 
L 259.27863 -78.663075 
L 258.928817 -79.979584 
L 258.581103 -81.296093 
L 258.236857 -82.612602 
L 257.897328 -83.929111 
L 257.563625 -85.245619 
L 257.236697 -86.562128 
L 256.917301 -87.878637 
L 256.605975 -89.195146 
L 256.303037 -90.511655 
L 256.008593 -91.828164 
L 255.722594 -93.144672 
L 255.444921 -94.461181 
L 255.175516 -95.77769 
L 254.914531 -97.094199 
L 254.6625 -98.410708 
L 254.420503 -99.727217 
L 254.190295 -101.043725 
L 253.974397 -102.360234 
L 253.776111 -103.676743 
L 253.59946 -104.993252 
L 253.449044 -106.309761 
L 253.329827 -107.62627 
L 253.246868 -108.942778 
L 253.205012 -110.259287 
L 253.208591 -111.575796 
L 253.261143 -112.892305 
L 253.365179 -114.208814 
L 253.522016 -115.525323 
L 253.731691 -116.841831 
L 253.992928 -118.15834 
L 254.30319 -119.474849 
L 254.658769 -120.791358 
L 255.054929 -122.107867 
L 255.486075 -123.424375 
L 255.945954 -124.740884 
L 256.427871 -126.057393 
L 256.924911 -127.373902 
L 257.430178 -128.690411 
L 257.937002 -130.00692 
L 258.439146 -131.323428 
L 258.930958 -132.639937 
L 259.407491 -133.956446 
L 259.864562 -135.272955 
L 260.298764 -136.589464 
L 260.707427 -137.905973 
L 261.088551 -139.222481 
L 261.440711 -140.53899 
L 261.762963 -141.855499 
L 262.054762 -143.172008 
L 262.315896 -144.488517 
L 262.546464 -145.805026 
L 262.746874 -147.121534 
L 262.917884 -148.438043 
L 263.060649 -149.754552 
L 263.176787 -151.071061 
L 263.268418 -152.38757 
L 263.338187 -153.704079 
L 263.389234 -155.020587 
L 263.425112 -156.337096 
L 263.449651 -157.653605 
L 263.466777 -158.970114 
L 263.480299 -160.286623 
L 263.493683 -161.603131 
L 263.509848 -162.91964 
L 263.531006 -164.236149 
L 263.558554 -165.552658 
L 263.59305 -166.869167 
L 263.634257 -168.185676 
L 263.681258 -169.502184 
L 263.732619 -170.818693 
L 263.78659 -172.135202 
L 263.8413 -173.451711 
L 263.894944 -174.76822 
L 263.945932 -176.084729 
L 263.992997 -177.401237 
L 264.035247 -178.717746 
L 264.072176 -180.034255 
L 264.103634 -181.350764 
L 264.129772 -182.667273 
L 264.298799 -182.667273 
L 264.298799 -182.667273 
L 264.324938 -181.350764 
L 264.356396 -180.034255 
L 264.393324 -178.717746 
L 264.435574 -177.401237 
L 264.482639 -176.084729 
L 264.533628 -174.76822 
L 264.587272 -173.451711 
L 264.641982 -172.135202 
L 264.695952 -170.818693 
L 264.747314 -169.502184 
L 264.794314 -168.185676 
L 264.835521 -166.869167 
L 264.870017 -165.552658 
L 264.897565 -164.236149 
L 264.918723 -162.91964 
L 264.934889 -161.603131 
L 264.948272 -160.286623 
L 264.961794 -158.970114 
L 264.978921 -157.653605 
L 265.00346 -156.337096 
L 265.039337 -155.020587 
L 265.090384 -153.704079 
L 265.160153 -152.38757 
L 265.251784 -151.071061 
L 265.367922 -149.754552 
L 265.510688 -148.438043 
L 265.681697 -147.121534 
L 265.882108 -145.805026 
L 266.112675 -144.488517 
L 266.37381 -143.172008 
L 266.665608 -141.855499 
L 266.987861 -140.53899 
L 267.340021 -139.222481 
L 267.721144 -137.905973 
L 268.129807 -136.589464 
L 268.564009 -135.272955 
L 269.02108 -133.956446 
L 269.497613 -132.639937 
L 269.989425 -131.323428 
L 270.491569 -130.00692 
L 270.998394 -128.690411 
L 271.50366 -127.373902 
L 272.000701 -126.057393 
L 272.482617 -124.740884 
L 272.942496 -123.424375 
L 273.373642 -122.107867 
L 273.769802 -120.791358 
L 274.125381 -119.474849 
L 274.435643 -118.15834 
L 274.696881 -116.841831 
L 274.906555 -115.525323 
L 275.063393 -114.208814 
L 275.167428 -112.892305 
L 275.21998 -111.575796 
L 275.223559 -110.259287 
L 275.181703 -108.942778 
L 275.098744 -107.62627 
L 274.979528 -106.309761 
L 274.829112 -104.993252 
L 274.652461 -103.676743 
L 274.454175 -102.360234 
L 274.238277 -101.043725 
L 274.008069 -99.727217 
L 273.766071 -98.410708 
L 273.514041 -97.094199 
L 273.253056 -95.77769 
L 272.98365 -94.461181 
L 272.705978 -93.144672 
L 272.419978 -91.828164 
L 272.125534 -90.511655 
L 271.822596 -89.195146 
L 271.511271 -87.878637 
L 271.191874 -86.562128 
L 270.864946 -85.245619 
L 270.531243 -83.929111 
L 270.191714 -82.612602 
L 269.847469 -81.296093 
L 269.499755 -79.979584 
L 269.149941 -78.663075 
L 268.799513 -77.346567 
L 268.450074 -76.030058 
L 268.103363 -74.713549 
L 267.76126 -73.39704 
L 267.425789 -72.080531 
L 267.09911 -70.764022 
L 266.783485 -69.447514 
L 266.481219 -68.131005 
L 266.194584 -66.814496 
L 265.925717 -65.497987 
L 265.676507 -64.181478 
L 265.448486 -62.864969 
L 265.242733 -61.548461 
L 265.059799 -60.231952 
L 264.89967 -58.915443 
L 264.761774 -57.598934 
L 264.645023 -56.282425 
L 264.547894 -54.965916 
L 264.468532 -53.649408 
L 264.404874 -52.332899 
z
" id="mb48f29a51d" style="stroke:#7f7f7f;stroke-width:1.5;"/>
    </defs>
    <g clip-path="url(#pd43df2eac1)">
     <use style="fill:#d3d3d3;stroke:#7f7f7f;stroke-width:1.5;" x="0" xlink:href="#mb48f29a51d" y="216"/>
    </g>
   </g>
   <g id="PolyCollection_7">
    <defs>
     <path d="M 304.173119 -34.412727 
L 303.969738 -34.412727 
L 303.939853 -35.468014 
L 303.903853 -36.523301 
L 303.861308 -37.578588 
L 303.811989 -38.633874 
L 303.75591 -39.689161 
L 303.693373 -40.744448 
L 303.62498 -41.799735 
L 303.551631 -42.855021 
L 303.474491 -43.910308 
L 303.39493 -44.965595 
L 303.314444 -46.020882 
L 303.234554 -47.076168 
L 303.156696 -48.131455 
L 303.082117 -49.186742 
L 303.011759 -50.242029 
L 302.946176 -51.297315 
L 302.885448 -52.352602 
L 302.829114 -53.407889 
L 302.776119 -54.463176 
L 302.724758 -55.518463 
L 302.672638 -56.573749 
L 302.61663 -57.629036 
L 302.552839 -58.684323 
L 302.476588 -59.73961 
L 302.382433 -60.794896 
L 302.264237 -61.850183 
L 302.115308 -62.90547 
L 301.928631 -63.960757 
L 301.697201 -65.016043 
L 301.414455 -66.07133 
L 301.074791 -67.126617 
L 300.674144 -68.181904 
L 300.210563 -69.23719 
L 299.684744 -70.292477 
L 299.100425 -71.347764 
L 298.464602 -72.403051 
L 297.787495 -73.458337 
L 297.082231 -74.513624 
L 296.364248 -75.568911 
L 295.650442 -76.624198 
L 294.958137 -77.679485 
L 294.303962 -78.734771 
L 293.70275 -79.790058 
L 293.16658 -80.845345 
L 292.70406 -81.900632 
L 292.319921 -82.955918 
L 292.014966 -84.011205 
L 291.786354 -85.066492 
L 291.628191 -86.121779 
L 291.532338 -87.177065 
L 291.489338 -88.232352 
L 291.489377 -89.287639 
L 291.523168 -90.342926 
L 291.582692 -91.398212 
L 291.661732 -92.453499 
L 291.756177 -93.508786 
L 291.864087 -94.564073 
L 291.985518 -95.61936 
L 292.122162 -96.674646 
L 292.276825 -97.729933 
L 292.452809 -98.78522 
L 292.653264 -99.840507 
L 292.880569 -100.895793 
L 293.135819 -101.95108 
L 293.418465 -103.006367 
L 293.726147 -104.061654 
L 294.05475 -105.11694 
L 294.398665 -106.172227 
L 294.751234 -107.227514 
L 295.105331 -108.282801 
L 295.454008 -109.338087 
L 295.791136 -110.393374 
L 296.111975 -111.448661 
L 296.413618 -112.503948 
L 296.695246 -113.559234 
L 296.958188 -114.614521 
L 297.205776 -115.669808 
L 297.443003 -116.725095 
L 297.676018 -117.780382 
L 297.911523 -118.835668 
L 298.156104 -119.890955 
L 298.415575 -120.946242 
L 298.694405 -122.001529 
L 298.995266 -123.056815 
L 299.318753 -124.112102 
L 299.663315 -125.167389 
L 300.025374 -126.222676 
L 300.399637 -127.277962 
L 300.779551 -128.333249 
L 301.157851 -129.388536 
L 301.527142 -130.443823 
L 301.880447 -131.499109 
L 302.211683 -132.554396 
L 302.516008 -133.609683 
L 302.790033 -134.66497 
L 303.031887 -135.720257 
L 303.241149 -136.775543 
L 303.41868 -137.83083 
L 303.566377 -138.886117 
L 304.57648 -138.886117 
L 304.57648 -138.886117 
L 304.724178 -137.83083 
L 304.901708 -136.775543 
L 305.110971 -135.720257 
L 305.352824 -134.66497 
L 305.626849 -133.609683 
L 305.931175 -132.554396 
L 306.26241 -131.499109 
L 306.615715 -130.443823 
L 306.985006 -129.388536 
L 307.363306 -128.333249 
L 307.74322 -127.277962 
L 308.117483 -126.222676 
L 308.479542 -125.167389 
L 308.824104 -124.112102 
L 309.147592 -123.056815 
L 309.448452 -122.001529 
L 309.727282 -120.946242 
L 309.986754 -119.890955 
L 310.231334 -118.835668 
L 310.466839 -117.780382 
L 310.699855 -116.725095 
L 310.937081 -115.669808 
L 311.184669 -114.614521 
L 311.447612 -113.559234 
L 311.729239 -112.503948 
L 312.030882 -111.448661 
L 312.351721 -110.393374 
L 312.688849 -109.338087 
L 313.037526 -108.282801 
L 313.391623 -107.227514 
L 313.744192 -106.172227 
L 314.088107 -105.11694 
L 314.41671 -104.061654 
L 314.724392 -103.006367 
L 315.007038 -101.95108 
L 315.262289 -100.895793 
L 315.489594 -99.840507 
L 315.690048 -98.78522 
L 315.866032 -97.729933 
L 316.020695 -96.674646 
L 316.157339 -95.61936 
L 316.27877 -94.564073 
L 316.38668 -93.508786 
L 316.481126 -92.453499 
L 316.560165 -91.398212 
L 316.619689 -90.342926 
L 316.65348 -89.287639 
L 316.653519 -88.232352 
L 316.610519 -87.177065 
L 316.514666 -86.121779 
L 316.356503 -85.066492 
L 316.127891 -84.011205 
L 315.822936 -82.955918 
L 315.438797 -81.900632 
L 314.976277 -80.845345 
L 314.440107 -79.790058 
L 313.838895 -78.734771 
L 313.18472 -77.679485 
L 312.492415 -76.624198 
L 311.778609 -75.568911 
L 311.060626 -74.513624 
L 310.355362 -73.458337 
L 309.678255 -72.403051 
L 309.042432 -71.347764 
L 308.458113 -70.292477 
L 307.932294 -69.23719 
L 307.468714 -68.181904 
L 307.068066 -67.126617 
L 306.728402 -66.07133 
L 306.445656 -65.016043 
L 306.214226 -63.960757 
L 306.027549 -62.90547 
L 305.87862 -61.850183 
L 305.760424 -60.794896 
L 305.66627 -59.73961 
L 305.590018 -58.684323 
L 305.526227 -57.629036 
L 305.470219 -56.573749 
L 305.418099 -55.518463 
L 305.366738 -54.463176 
L 305.313743 -53.407889 
L 305.257409 -52.352602 
L 305.196681 -51.297315 
L 305.131098 -50.242029 
L 305.060741 -49.186742 
L 304.986161 -48.131455 
L 304.908304 -47.076168 
L 304.828413 -46.020882 
L 304.747927 -44.965595 
L 304.668366 -43.910308 
L 304.591226 -42.855021 
L 304.517877 -41.799735 
L 304.449484 -40.744448 
L 304.386947 -39.689161 
L 304.330868 -38.633874 
L 304.281549 -37.578588 
L 304.239004 -36.523301 
L 304.203004 -35.468014 
L 304.173119 -34.412727 
z
" id="m13360b9b94" style="stroke:#7f7f7f;stroke-width:1.5;"/>
    </defs>
    <g clip-path="url(#pd43df2eac1)">
     <use style="fill:#d3d3d3;stroke:#7f7f7f;stroke-width:1.5;" x="0" xlink:href="#m13360b9b94" y="216"/>
    </g>
   </g>
   <g id="line2d_7">
    <path clip-path="url(#pd43df2eac1)" d="M 64.928571 144.77591 
L 64.928571 103.641692 
" style="fill:none;stroke:#7f7f7f;stroke-linecap:round;stroke-width:1.5;"/>
   </g>
   <g id="line2d_8">
    <path clip-path="url(#pd43df2eac1)" d="M 64.928571 126.779689 
L 64.928571 113.925246 
" style="fill:none;stroke:#7f7f7f;stroke-linecap:round;stroke-width:4.5;"/>
   </g>
   <g id="line2d_9">
    <path clip-path="url(#pd43df2eac1)" d="M 104.785714 144.77591 
L 104.785714 103.641692 
" style="fill:none;stroke:#7f7f7f;stroke-linecap:round;stroke-width:1.5;"/>
   </g>
   <g id="line2d_10">
    <path clip-path="url(#pd43df2eac1)" d="M 104.785714 126.779689 
L 104.785714 113.925246 
" style="fill:none;stroke:#7f7f7f;stroke-linecap:round;stroke-width:4.5;"/>
   </g>
   <g id="line2d_11">
    <path clip-path="url(#pd43df2eac1)" d="M 144.642857 144.77591 
L 144.642857 83.074582 
" style="fill:none;stroke:#7f7f7f;stroke-linecap:round;stroke-width:1.5;"/>
   </g>
   <g id="line2d_12">
    <path clip-path="url(#pd43df2eac1)" d="M 144.642857 126.779689 
L 144.642857 103.641692 
" style="fill:none;stroke:#7f7f7f;stroke-linecap:round;stroke-width:4.5;"/>
   </g>
   <g id="line2d_13">
    <path clip-path="url(#pd43df2eac1)" d="M 184.5 144.77591 
L 184.5 83.074582 
" style="fill:none;stroke:#7f7f7f;stroke-linecap:round;stroke-width:1.5;"/>
   </g>
   <g id="line2d_14">
    <path clip-path="url(#pd43df2eac1)" d="M 184.5 124.208801 
L 184.5 103.641692 
" style="fill:none;stroke:#7f7f7f;stroke-linecap:round;stroke-width:4.5;"/>
   </g>
   <g id="line2d_15">
    <path clip-path="url(#pd43df2eac1)" d="M 224.357143 155.059464 
L 224.357143 93.358137 
" style="fill:none;stroke:#7f7f7f;stroke-linecap:round;stroke-width:1.5;"/>
   </g>
   <g id="line2d_16">
    <path clip-path="url(#pd43df2eac1)" d="M 224.357143 134.492355 
L 224.357143 111.354357 
" style="fill:none;stroke:#7f7f7f;stroke-linecap:round;stroke-width:4.5;"/>
   </g>
   <g id="line2d_17">
    <path clip-path="url(#pd43df2eac1)" d="M 264.214286 144.77591 
L 264.214286 52.223919 
" style="fill:none;stroke:#7f7f7f;stroke-linecap:round;stroke-width:1.5;"/>
   </g>
   <g id="line2d_18">
    <path clip-path="url(#pd43df2eac1)" d="M 264.214286 124.208801 
L 264.214286 93.358137 
" style="fill:none;stroke:#7f7f7f;stroke-linecap:round;stroke-width:4.5;"/>
   </g>
   <g id="line2d_19">
    <path clip-path="url(#pd43df2eac1)" d="M 304.071429 165.343019 
L 304.071429 93.358137 
" style="fill:none;stroke:#7f7f7f;stroke-linecap:round;stroke-width:1.5;"/>
   </g>
   <g id="line2d_20">
    <path clip-path="url(#pd43df2eac1)" d="M 304.071429 134.492355 
L 304.071429 113.925246 
" style="fill:none;stroke:#7f7f7f;stroke-linecap:round;stroke-width:4.5;"/>
   </g>
   <g id="patch_3">
    <path d="M 45 189 
L 45 25.92 
" style="fill:none;stroke:#ffffff;stroke-linecap:square;stroke-linejoin:miter;stroke-width:1.25;"/>
   </g>
   <g id="patch_4">
    <path d="M 324 189 
L 324 25.92 
" style="fill:none;stroke:#ffffff;stroke-linecap:square;stroke-linejoin:miter;stroke-width:1.25;"/>
   </g>
   <g id="patch_5">
    <path d="M 45 189 
L 324 189 
" style="fill:none;stroke:#ffffff;stroke-linecap:square;stroke-linejoin:miter;stroke-width:1.25;"/>
   </g>
   <g id="patch_6">
    <path d="M 45 25.92 
L 324 25.92 
" style="fill:none;stroke:#ffffff;stroke-linecap:square;stroke-linejoin:miter;stroke-width:1.25;"/>
   </g>
   <g id="PathCollection_1">
    <defs>
     <path d="M 0 1.5 
C 0.397805 1.5 0.77937 1.341951 1.06066 1.06066 
C 1.341951 0.77937 1.5 0.397805 1.5 0 
C 1.5 -0.397805 1.341951 -0.77937 1.06066 -1.06066 
C 0.77937 -1.341951 0.397805 -1.5 0 -1.5 
C -0.397805 -1.5 -0.77937 -1.341951 -1.06066 -1.06066 
C -1.341951 -0.77937 -1.5 -0.397805 -1.5 0 
C -1.5 0.397805 -1.341951 0.77937 -1.06066 1.06066 
C -0.77937 1.341951 -0.397805 1.5 0 1.5 
z
" id="m815b801b05" style="stroke:#7f7f7f;"/>
    </defs>
    <g clip-path="url(#pd43df2eac1)">
     <use style="fill:#ffffff;stroke:#7f7f7f;" x="64.928571" xlink:href="#m815b801b05" y="124.208801"/>
    </g>
   </g>
   <g id="PathCollection_2">
    <g clip-path="url(#pd43df2eac1)">
     <use style="fill:#ffffff;stroke:#7f7f7f;" x="104.785714" xlink:href="#m815b801b05" y="113.925246"/>
    </g>
   </g>
   <g id="PathCollection_3">
    <g clip-path="url(#pd43df2eac1)">
     <use style="fill:#ffffff;stroke:#7f7f7f;" x="144.642857" xlink:href="#m815b801b05" y="113.925246"/>
    </g>
   </g>
   <g id="PathCollection_4">
    <g clip-path="url(#pd43df2eac1)">
     <use style="fill:#ffffff;stroke:#7f7f7f;" x="184.5" xlink:href="#m815b801b05" y="113.925246"/>
    </g>
   </g>
   <g id="PathCollection_5">
    <g clip-path="url(#pd43df2eac1)">
     <use style="fill:#ffffff;stroke:#7f7f7f;" x="224.357143" xlink:href="#m815b801b05" y="113.925246"/>
    </g>
   </g>
   <g id="PathCollection_6">
    <g clip-path="url(#pd43df2eac1)">
     <use style="fill:#ffffff;stroke:#7f7f7f;" x="264.214286" xlink:href="#m815b801b05" y="103.641692"/>
    </g>
   </g>
   <g id="PathCollection_7">
    <g clip-path="url(#pd43df2eac1)">
     <use style="fill:#ffffff;stroke:#7f7f7f;" x="304.071429" xlink:href="#m815b801b05" y="124.208801"/>
    </g>
   </g>
   <g id="text_16">
    <!-- Hippo RNAi Ovariole number -->
    <defs>
     <path d="M 8.015625 0 
L 8.015625 71.578125 
L 17.484375 71.578125 
L 17.484375 42.1875 
L 54.6875 42.1875 
L 54.6875 71.578125 
L 64.15625 71.578125 
L 64.15625 0 
L 54.6875 0 
L 54.6875 33.734375 
L 17.484375 33.734375 
L 17.484375 0 
z
" id="ArialMT-48"/>
     <path d="M 6.59375 -19.875 
L 6.59375 51.859375 
L 14.59375 51.859375 
L 14.59375 45.125 
Q 17.4375 49.078125 21 51.046875 
Q 24.5625 53.03125 29.640625 53.03125 
Q 36.28125 53.03125 41.359375 49.609375 
Q 46.4375 46.1875 49.015625 39.953125 
Q 51.609375 33.734375 51.609375 26.3125 
Q 51.609375 18.359375 48.75 11.984375 
Q 45.90625 5.609375 40.453125 2.21875 
Q 35.015625 -1.171875 29 -1.171875 
Q 24.609375 -1.171875 21.109375 0.6875 
Q 17.625 2.546875 15.375 5.375 
L 15.375 -19.875 
z
M 14.546875 25.640625 
Q 14.546875 15.625 18.59375 10.84375 
Q 22.65625 6.0625 28.421875 6.0625 
Q 34.28125 6.0625 38.453125 11.015625 
Q 42.625 15.96875 42.625 26.375 
Q 42.625 36.28125 38.546875 41.203125 
Q 34.46875 46.140625 28.8125 46.140625 
Q 23.1875 46.140625 18.859375 40.890625 
Q 14.546875 35.640625 14.546875 25.640625 
z
" id="ArialMT-70"/>
     <path id="ArialMT-20"/>
     <path d="M 7.859375 0 
L 7.859375 71.578125 
L 39.59375 71.578125 
Q 49.171875 71.578125 54.140625 69.640625 
Q 59.125 67.71875 62.109375 62.828125 
Q 65.09375 57.953125 65.09375 52.046875 
Q 65.09375 44.4375 60.15625 39.203125 
Q 55.21875 33.984375 44.921875 32.5625 
Q 48.6875 30.765625 50.640625 29 
Q 54.78125 25.203125 58.5 19.484375 
L 70.953125 0 
L 59.03125 0 
L 49.5625 14.890625 
Q 45.40625 21.34375 42.71875 24.75 
Q 40.046875 28.171875 37.921875 29.53125 
Q 35.796875 30.90625 33.59375 31.453125 
Q 31.984375 31.78125 28.328125 31.78125 
L 17.328125 31.78125 
L 17.328125 0 
z
M 17.328125 39.984375 
L 37.703125 39.984375 
Q 44.1875 39.984375 47.84375 41.328125 
Q 51.515625 42.671875 53.421875 45.625 
Q 55.328125 48.578125 55.328125 52.046875 
Q 55.328125 57.125 51.640625 60.390625 
Q 47.953125 63.671875 39.984375 63.671875 
L 17.328125 63.671875 
z
" id="ArialMT-52"/>
     <path d="M -0.140625 0 
L 27.34375 71.578125 
L 37.546875 71.578125 
L 66.84375 0 
L 56.0625 0 
L 47.703125 21.6875 
L 17.78125 21.6875 
L 9.90625 0 
z
M 20.515625 29.390625 
L 44.78125 29.390625 
L 37.3125 49.21875 
Q 33.890625 58.25 32.234375 64.0625 
Q 30.859375 57.171875 28.375 50.390625 
z
" id="ArialMT-41"/>
     <path d="M 6.59375 0 
L 6.59375 51.859375 
L 14.5 51.859375 
L 14.5 44.484375 
Q 20.21875 53.03125 31 53.03125 
Q 35.6875 53.03125 39.625 51.34375 
Q 43.5625 49.65625 45.515625 46.921875 
Q 47.46875 44.1875 48.25 40.4375 
Q 48.734375 37.984375 48.734375 31.890625 
L 48.734375 0 
L 39.9375 0 
L 39.9375 31.546875 
Q 39.9375 36.921875 38.90625 39.578125 
Q 37.890625 42.234375 35.28125 43.8125 
Q 32.671875 45.40625 29.15625 45.40625 
Q 23.53125 45.40625 19.453125 41.84375 
Q 15.375 38.28125 15.375 28.328125 
L 15.375 0 
z
" id="ArialMT-6e"/>
     <path d="M 40.578125 0 
L 40.578125 7.625 
Q 34.515625 -1.171875 24.125 -1.171875 
Q 19.53125 -1.171875 15.546875 0.578125 
Q 11.578125 2.34375 9.640625 5 
Q 7.71875 7.671875 6.9375 11.53125 
Q 6.390625 14.109375 6.390625 19.734375 
L 6.390625 51.859375 
L 15.1875 51.859375 
L 15.1875 23.09375 
Q 15.1875 16.21875 15.71875 13.8125 
Q 16.546875 10.359375 19.234375 8.375 
Q 21.921875 6.390625 25.875 6.390625 
Q 29.828125 6.390625 33.296875 8.421875 
Q 36.765625 10.453125 38.203125 13.9375 
Q 39.65625 17.4375 39.65625 24.078125 
L 39.65625 51.859375 
L 48.4375 51.859375 
L 48.4375 0 
z
" id="ArialMT-75"/>
     <path d="M 6.59375 0 
L 6.59375 51.859375 
L 14.453125 51.859375 
L 14.453125 44.578125 
Q 16.890625 48.390625 20.9375 50.703125 
Q 25 53.03125 30.171875 53.03125 
Q 35.9375 53.03125 39.625 50.640625 
Q 43.3125 48.25 44.828125 43.953125 
Q 50.984375 53.03125 60.84375 53.03125 
Q 68.5625 53.03125 72.703125 48.75 
Q 76.859375 44.484375 76.859375 35.59375 
L 76.859375 0 
L 68.109375 0 
L 68.109375 32.671875 
Q 68.109375 37.9375 67.25 40.25 
Q 66.40625 42.578125 64.15625 43.984375 
Q 61.921875 45.40625 58.890625 45.40625 
Q 53.421875 45.40625 49.796875 41.765625 
Q 46.1875 38.140625 46.1875 30.125 
L 46.1875 0 
L 37.40625 0 
L 37.40625 33.6875 
Q 37.40625 39.546875 35.25 42.46875 
Q 33.109375 45.40625 28.21875 45.40625 
Q 24.515625 45.40625 21.359375 43.453125 
Q 18.21875 41.5 16.796875 37.734375 
Q 15.375 33.984375 15.375 26.90625 
L 15.375 0 
z
" id="ArialMT-6d"/>
    </defs>
    <g style="fill:#262626;" transform="translate(107.139375 19.92)scale(0.12 -0.12)">
     <use xlink:href="#ArialMT-48"/>
     <use x="72.216797" xlink:href="#ArialMT-69"/>
     <use x="94.433594" xlink:href="#ArialMT-70"/>
     <use x="150.048828" xlink:href="#ArialMT-70"/>
     <use x="205.664062" xlink:href="#ArialMT-6f"/>
     <use x="261.279297" xlink:href="#ArialMT-20"/>
     <use x="289.0625" xlink:href="#ArialMT-52"/>
     <use x="361.279297" xlink:href="#ArialMT-4e"/>
     <use x="433.496094" xlink:href="#ArialMT-41"/>
     <use x="500.195312" xlink:href="#ArialMT-69"/>
     <use x="522.412109" xlink:href="#ArialMT-20"/>
     <use x="550.195312" xlink:href="#ArialMT-4f"/>
     <use x="627.978516" xlink:href="#ArialMT-76"/>
     <use x="677.978516" xlink:href="#ArialMT-61"/>
     <use x="733.59375" xlink:href="#ArialMT-72"/>
     <use x="766.894531" xlink:href="#ArialMT-69"/>
     <use x="789.111328" xlink:href="#ArialMT-6f"/>
     <use x="844.726562" xlink:href="#ArialMT-6c"/>
     <use x="866.943359" xlink:href="#ArialMT-65"/>
     <use x="922.558594" xlink:href="#ArialMT-20"/>
     <use x="950.341797" xlink:href="#ArialMT-6e"/>
     <use x="1005.957031" xlink:href="#ArialMT-75"/>
     <use x="1061.572266" xlink:href="#ArialMT-6d"/>
     <use x="1144.873047" xlink:href="#ArialMT-62"/>
     <use x="1200.488281" xlink:href="#ArialMT-65"/>
     <use x="1256.103516" xlink:href="#ArialMT-72"/>
    </g>
   </g>
  </g>
 </g>
 <defs>
  <clipPath id="pd43df2eac1">
   <rect height="163.08" width="279" x="45" y="25.92"/>
  </clipPath>
 </defs>
</svg>
