<?xml version="1.0" encoding="utf-8" standalone="no"?>
<!DOCTYPE svg PUBLIC "-//W3C//DTD SVG 1.1//EN"
  "http://www.w3.org/Graphics/SVG/1.1/DTD/svg11.dtd">
<!-- Created with matplotlib (http://matplotlib.org/) -->
<svg height="216pt" version="1.1" viewBox="0 0 360 216" width="360pt" xmlns="http://www.w3.org/2000/svg" xmlns:xlink="http://www.w3.org/1999/xlink">
 <defs>
  <style type="text/css">
*{stroke-linecap:butt;stroke-linejoin:round;}
  </style>
 </defs>
 <g id="figure_1">
  <g id="patch_1">
   <path d="M 0 216 
L 360 216 
L 360 0 
L 0 0 
z
" style="fill:#ffffff;"/>
  </g>
  <g id="axes_1">
   <g id="patch_2">
    <path d="M 45 189 
L 324 189 
L 324 25.92 
L 45 25.92 
z
" style="fill:#eaeaf2;"/>
   </g>
   <g id="matplotlib.axis_1">
    <g id="xtick_1">
     <g id="text_1">
      <!-- 0 -->
      <defs>
       <path d="M 4.15625 35.296875 
Q 4.15625 48 6.765625 55.734375 
Q 9.375 63.484375 14.515625 67.671875 
Q 19.671875 71.875 27.484375 71.875 
Q 33.25 71.875 37.59375 69.546875 
Q 41.9375 67.234375 44.765625 62.859375 
Q 47.609375 58.5 49.21875 52.21875 
Q 50.828125 45.953125 50.828125 35.296875 
Q 50.828125 22.703125 48.234375 14.96875 
Q 45.65625 7.234375 40.5 3 
Q 35.359375 -1.21875 27.484375 -1.21875 
Q 17.140625 -1.21875 11.234375 6.203125 
Q 4.15625 15.140625 4.15625 35.296875 
z
M 13.1875 35.296875 
Q 13.1875 17.671875 17.3125 11.828125 
Q 21.4375 6 27.484375 6 
Q 33.546875 6 37.671875 11.859375 
Q 41.796875 17.71875 41.796875 35.296875 
Q 41.796875 52.984375 37.671875 58.78125 
Q 33.546875 64.59375 27.390625 64.59375 
Q 21.34375 64.59375 17.71875 59.46875 
Q 13.1875 52.9375 13.1875 35.296875 
z
" id="ArialMT-30"/>
      </defs>
      <g style="fill:#262626;" transform="translate(65.191484 206.373594)scale(0.11 -0.11)">
       <use xlink:href="#ArialMT-30"/>
      </g>
     </g>
    </g>
    <g id="xtick_2">
     <g id="text_2">
      <!-- 1 -->
      <defs>
       <path d="M 37.25 0 
L 28.46875 0 
L 28.46875 56 
Q 25.296875 52.984375 20.140625 49.953125 
Q 14.984375 46.921875 10.890625 45.40625 
L 10.890625 53.90625 
Q 18.265625 57.375 23.78125 62.296875 
Q 29.296875 67.234375 31.59375 71.875 
L 37.25 71.875 
z
" id="ArialMT-31"/>
      </defs>
      <g style="fill:#262626;" transform="translate(111.691484 206.373594)scale(0.11 -0.11)">
       <use xlink:href="#ArialMT-31"/>
      </g>
     </g>
    </g>
    <g id="xtick_3">
     <g id="text_3">
      <!-- 2 -->
      <defs>
       <path d="M 50.34375 8.453125 
L 50.34375 0 
L 3.03125 0 
Q 2.9375 3.171875 4.046875 6.109375 
Q 5.859375 10.9375 9.828125 15.625 
Q 13.8125 20.3125 21.34375 26.46875 
Q 33.015625 36.03125 37.109375 41.625 
Q 41.21875 47.21875 41.21875 52.203125 
Q 41.21875 57.421875 37.46875 61 
Q 33.734375 64.59375 27.734375 64.59375 
Q 21.390625 64.59375 17.578125 60.78125 
Q 13.765625 56.984375 13.71875 50.25 
L 4.6875 51.171875 
Q 5.609375 61.28125 11.65625 66.578125 
Q 17.71875 71.875 27.9375 71.875 
Q 38.234375 71.875 44.234375 66.15625 
Q 50.25 60.453125 50.25 52 
Q 50.25 47.703125 48.484375 43.546875 
Q 46.734375 39.40625 42.65625 34.8125 
Q 38.578125 30.21875 29.109375 22.21875 
Q 21.1875 15.578125 18.9375 13.203125 
Q 16.703125 10.84375 15.234375 8.453125 
z
" id="ArialMT-32"/>
      </defs>
      <g style="fill:#262626;" transform="translate(158.191484 206.373594)scale(0.11 -0.11)">
       <use xlink:href="#ArialMT-32"/>
      </g>
     </g>
    </g>
    <g id="xtick_4">
     <g id="text_4">
      <!-- 3 -->
      <defs>
       <path d="M 4.203125 18.890625 
L 12.984375 20.0625 
Q 14.5 12.59375 18.140625 9.296875 
Q 21.78125 6 27 6 
Q 33.203125 6 37.46875 10.296875 
Q 41.75 14.59375 41.75 20.953125 
Q 41.75 27 37.796875 30.921875 
Q 33.84375 34.859375 27.734375 34.859375 
Q 25.25 34.859375 21.53125 33.890625 
L 22.515625 41.609375 
Q 23.390625 41.5 23.921875 41.5 
Q 29.546875 41.5 34.03125 44.421875 
Q 38.53125 47.359375 38.53125 53.46875 
Q 38.53125 58.296875 35.25 61.46875 
Q 31.984375 64.65625 26.8125 64.65625 
Q 21.6875 64.65625 18.265625 61.421875 
Q 14.84375 58.203125 13.875 51.765625 
L 5.078125 53.328125 
Q 6.6875 62.15625 12.390625 67.015625 
Q 18.109375 71.875 26.609375 71.875 
Q 32.46875 71.875 37.390625 69.359375 
Q 42.328125 66.84375 44.9375 62.5 
Q 47.5625 58.15625 47.5625 53.265625 
Q 47.5625 48.640625 45.0625 44.828125 
Q 42.578125 41.015625 37.703125 38.765625 
Q 44.046875 37.3125 47.5625 32.6875 
Q 51.078125 28.078125 51.078125 21.140625 
Q 51.078125 11.765625 44.234375 5.25 
Q 37.40625 -1.265625 26.953125 -1.265625 
Q 17.53125 -1.265625 11.296875 4.34375 
Q 5.078125 9.96875 4.203125 18.890625 
z
" id="ArialMT-33"/>
      </defs>
      <g style="fill:#262626;" transform="translate(204.691484 206.373594)scale(0.11 -0.11)">
       <use xlink:href="#ArialMT-33"/>
      </g>
     </g>
    </g>
    <g id="xtick_5">
     <g id="text_5">
      <!-- 4 -->
      <defs>
       <path d="M 32.328125 0 
L 32.328125 17.140625 
L 1.265625 17.140625 
L 1.265625 25.203125 
L 33.9375 71.578125 
L 41.109375 71.578125 
L 41.109375 25.203125 
L 50.78125 25.203125 
L 50.78125 17.140625 
L 41.109375 17.140625 
L 41.109375 0 
z
M 32.328125 25.203125 
L 32.328125 57.46875 
L 9.90625 25.203125 
z
" id="ArialMT-34"/>
      </defs>
      <g style="fill:#262626;" transform="translate(251.191484 206.373594)scale(0.11 -0.11)">
       <use xlink:href="#ArialMT-34"/>
      </g>
     </g>
    </g>
    <g id="xtick_6">
     <g id="text_6">
      <!-- 5 -->
      <defs>
       <path d="M 4.15625 18.75 
L 13.375 19.53125 
Q 14.40625 12.796875 18.140625 9.390625 
Q 21.875 6 27.15625 6 
Q 33.5 6 37.890625 10.78125 
Q 42.28125 15.578125 42.28125 23.484375 
Q 42.28125 31 38.0625 35.34375 
Q 33.84375 39.703125 27 39.703125 
Q 22.75 39.703125 19.328125 37.765625 
Q 15.921875 35.84375 13.96875 32.765625 
L 5.71875 33.84375 
L 12.640625 70.609375 
L 48.25 70.609375 
L 48.25 62.203125 
L 19.671875 62.203125 
L 15.828125 42.96875 
Q 22.265625 47.46875 29.34375 47.46875 
Q 38.71875 47.46875 45.15625 40.96875 
Q 51.609375 34.46875 51.609375 24.265625 
Q 51.609375 14.546875 45.953125 7.46875 
Q 39.0625 -1.21875 27.15625 -1.21875 
Q 17.390625 -1.21875 11.203125 4.25 
Q 5.03125 9.71875 4.15625 18.75 
z
" id="ArialMT-35"/>
      </defs>
      <g style="fill:#262626;" transform="translate(297.691484 206.373594)scale(0.11 -0.11)">
       <use xlink:href="#ArialMT-35"/>
      </g>
     </g>
    </g>
    <g id="text_7">
     <!-- Batch -->
     <defs>
      <path d="M 7.328125 0 
L 7.328125 71.578125 
L 34.1875 71.578125 
Q 42.390625 71.578125 47.34375 69.40625 
Q 52.296875 67.234375 55.09375 62.71875 
Q 57.90625 58.203125 57.90625 53.265625 
Q 57.90625 48.6875 55.421875 44.625 
Q 52.9375 40.578125 47.90625 38.09375 
Q 54.390625 36.1875 57.875 31.59375 
Q 61.375 27 61.375 20.75 
Q 61.375 15.71875 59.25 11.390625 
Q 57.125 7.078125 54 4.734375 
Q 50.875 2.390625 46.15625 1.1875 
Q 41.453125 0 34.625 0 
z
M 16.796875 41.5 
L 32.28125 41.5 
Q 38.578125 41.5 41.3125 42.328125 
Q 44.921875 43.40625 46.75 45.890625 
Q 48.578125 48.390625 48.578125 52.15625 
Q 48.578125 55.71875 46.875 58.421875 
Q 45.171875 61.140625 41.984375 62.140625 
Q 38.8125 63.140625 31.109375 63.140625 
L 16.796875 63.140625 
z
M 16.796875 8.453125 
L 34.625 8.453125 
Q 39.203125 8.453125 41.0625 8.796875 
Q 44.34375 9.375 46.53125 10.734375 
Q 48.734375 12.109375 50.140625 14.71875 
Q 51.5625 17.328125 51.5625 20.75 
Q 51.5625 24.75 49.515625 27.703125 
Q 47.46875 30.671875 43.828125 31.859375 
Q 40.1875 33.0625 33.34375 33.0625 
L 16.796875 33.0625 
z
" id="ArialMT-42"/>
      <path d="M 40.4375 6.390625 
Q 35.546875 2.25 31.03125 0.53125 
Q 26.515625 -1.171875 21.34375 -1.171875 
Q 12.796875 -1.171875 8.203125 3 
Q 3.609375 7.171875 3.609375 13.671875 
Q 3.609375 17.484375 5.34375 20.625 
Q 7.078125 23.78125 9.890625 25.6875 
Q 12.703125 27.59375 16.21875 28.5625 
Q 18.796875 29.25 24.03125 29.890625 
Q 34.671875 31.15625 39.703125 32.90625 
Q 39.75 34.71875 39.75 35.203125 
Q 39.75 40.578125 37.25 42.78125 
Q 33.890625 45.75 27.25 45.75 
Q 21.046875 45.75 18.09375 43.578125 
Q 15.140625 41.40625 13.71875 35.890625 
L 5.125 37.0625 
Q 6.296875 42.578125 8.984375 45.96875 
Q 11.671875 49.359375 16.75 51.1875 
Q 21.828125 53.03125 28.515625 53.03125 
Q 35.15625 53.03125 39.296875 51.46875 
Q 43.453125 49.90625 45.40625 47.53125 
Q 47.359375 45.171875 48.140625 41.546875 
Q 48.578125 39.3125 48.578125 33.453125 
L 48.578125 21.734375 
Q 48.578125 9.46875 49.140625 6.21875 
Q 49.703125 2.984375 51.375 0 
L 42.1875 0 
Q 40.828125 2.734375 40.4375 6.390625 
z
M 39.703125 26.03125 
Q 34.90625 24.078125 25.34375 22.703125 
Q 19.921875 21.921875 17.671875 20.9375 
Q 15.4375 19.96875 14.203125 18.09375 
Q 12.984375 16.21875 12.984375 13.921875 
Q 12.984375 10.40625 15.640625 8.0625 
Q 18.3125 5.71875 23.4375 5.71875 
Q 28.515625 5.71875 32.46875 7.9375 
Q 36.421875 10.15625 38.28125 14.015625 
Q 39.703125 17 39.703125 22.796875 
z
" id="ArialMT-61"/>
      <path d="M 25.78125 7.859375 
L 27.046875 0.09375 
Q 23.34375 -0.6875 20.40625 -0.6875 
Q 15.625 -0.6875 12.984375 0.828125 
Q 10.359375 2.34375 9.28125 4.8125 
Q 8.203125 7.28125 8.203125 15.1875 
L 8.203125 45.015625 
L 1.765625 45.015625 
L 1.765625 51.859375 
L 8.203125 51.859375 
L 8.203125 64.703125 
L 16.9375 69.96875 
L 16.9375 51.859375 
L 25.78125 51.859375 
L 25.78125 45.015625 
L 16.9375 45.015625 
L 16.9375 14.703125 
Q 16.9375 10.9375 17.40625 9.859375 
Q 17.875 8.796875 18.921875 8.15625 
Q 19.96875 7.515625 21.921875 7.515625 
Q 23.390625 7.515625 25.78125 7.859375 
z
" id="ArialMT-74"/>
      <path d="M 40.4375 19 
L 49.078125 17.875 
Q 47.65625 8.9375 41.8125 3.875 
Q 35.984375 -1.171875 27.484375 -1.171875 
Q 16.84375 -1.171875 10.375 5.78125 
Q 3.90625 12.75 3.90625 25.734375 
Q 3.90625 34.125 6.6875 40.421875 
Q 9.46875 46.734375 15.15625 49.875 
Q 20.84375 53.03125 27.546875 53.03125 
Q 35.984375 53.03125 41.359375 48.75 
Q 46.734375 44.484375 48.25 36.625 
L 39.703125 35.296875 
Q 38.484375 40.53125 35.375 43.15625 
Q 32.28125 45.796875 27.875 45.796875 
Q 21.234375 45.796875 17.078125 41.03125 
Q 12.9375 36.28125 12.9375 25.984375 
Q 12.9375 15.53125 16.9375 10.796875 
Q 20.953125 6.0625 27.390625 6.0625 
Q 32.5625 6.0625 36.03125 9.234375 
Q 39.5 12.40625 40.4375 19 
z
" id="ArialMT-63"/>
      <path d="M 6.59375 0 
L 6.59375 71.578125 
L 15.375 71.578125 
L 15.375 45.90625 
Q 21.53125 53.03125 30.90625 53.03125 
Q 36.671875 53.03125 40.921875 50.75 
Q 45.171875 48.484375 47 44.484375 
Q 48.828125 40.484375 48.828125 32.859375 
L 48.828125 0 
L 40.046875 0 
L 40.046875 32.859375 
Q 40.046875 39.453125 37.1875 42.453125 
Q 34.328125 45.453125 29.109375 45.453125 
Q 25.203125 45.453125 21.75 43.421875 
Q 18.3125 41.40625 16.84375 37.9375 
Q 15.375 34.46875 15.375 28.375 
L 15.375 0 
z
" id="ArialMT-68"/>
     </defs>
     <g style="fill:#262626;" transform="translate(169.157813 221.149219)scale(0.12 -0.12)">
      <use xlink:href="#ArialMT-42"/>
      <use x="66.699219" xlink:href="#ArialMT-61"/>
      <use x="122.314453" xlink:href="#ArialMT-74"/>
      <use x="150.097656" xlink:href="#ArialMT-63"/>
      <use x="200.097656" xlink:href="#ArialMT-68"/>
     </g>
    </g>
   </g>
   <g id="matplotlib.axis_2">
    <g id="ytick_1">
     <g id="line2d_1">
      <path clip-path="url(#p3de8914179)" d="M 45 167.770429 
L 324 167.770429 
" style="fill:none;stroke:#ffffff;stroke-linecap:round;"/>
     </g>
     <g id="text_8">
      <!-- 100 -->
      <g style="fill:#262626;" transform="translate(17.148906 171.707225)scale(0.11 -0.11)">
       <use xlink:href="#ArialMT-31"/>
       <use x="55.615234" xlink:href="#ArialMT-30"/>
       <use x="111.230469" xlink:href="#ArialMT-30"/>
      </g>
     </g>
    </g>
    <g id="ytick_2">
     <g id="line2d_2">
      <path clip-path="url(#p3de8914179)" d="M 45 141.145814 
L 324 141.145814 
" style="fill:none;stroke:#ffffff;stroke-linecap:round;"/>
     </g>
     <g id="text_9">
      <!-- 150 -->
      <g style="fill:#262626;" transform="translate(17.148906 145.082611)scale(0.11 -0.11)">
       <use xlink:href="#ArialMT-31"/>
       <use x="55.615234" xlink:href="#ArialMT-35"/>
       <use x="111.230469" xlink:href="#ArialMT-30"/>
      </g>
     </g>
    </g>
    <g id="ytick_3">
     <g id="line2d_3">
      <path clip-path="url(#p3de8914179)" d="M 45 114.521199 
L 324 114.521199 
" style="fill:none;stroke:#ffffff;stroke-linecap:round;"/>
     </g>
     <g id="text_10">
      <!-- 200 -->
      <g style="fill:#262626;" transform="translate(17.148906 118.457996)scale(0.11 -0.11)">
       <use xlink:href="#ArialMT-32"/>
       <use x="55.615234" xlink:href="#ArialMT-30"/>
       <use x="111.230469" xlink:href="#ArialMT-30"/>
      </g>
     </g>
    </g>
    <g id="ytick_4">
     <g id="line2d_4">
      <path clip-path="url(#p3de8914179)" d="M 45 87.896584 
L 324 87.896584 
" style="fill:none;stroke:#ffffff;stroke-linecap:round;"/>
     </g>
     <g id="text_11">
      <!-- 250 -->
      <g style="fill:#262626;" transform="translate(17.148906 91.833381)scale(0.11 -0.11)">
       <use xlink:href="#ArialMT-32"/>
       <use x="55.615234" xlink:href="#ArialMT-35"/>
       <use x="111.230469" xlink:href="#ArialMT-30"/>
      </g>
     </g>
    </g>
    <g id="ytick_5">
     <g id="line2d_5">
      <path clip-path="url(#p3de8914179)" d="M 45 61.271969 
L 324 61.271969 
" style="fill:none;stroke:#ffffff;stroke-linecap:round;"/>
     </g>
     <g id="text_12">
      <!-- 300 -->
      <g style="fill:#262626;" transform="translate(17.148906 65.208766)scale(0.11 -0.11)">
       <use xlink:href="#ArialMT-33"/>
       <use x="55.615234" xlink:href="#ArialMT-30"/>
       <use x="111.230469" xlink:href="#ArialMT-30"/>
      </g>
     </g>
    </g>
    <g id="ytick_6">
     <g id="line2d_6">
      <path clip-path="url(#p3de8914179)" d="M 45 34.647354 
L 324 34.647354 
" style="fill:none;stroke:#ffffff;stroke-linecap:round;"/>
     </g>
     <g id="text_13">
      <!-- 350 -->
      <g style="fill:#262626;" transform="translate(17.148906 38.584151)scale(0.11 -0.11)">
       <use xlink:href="#ArialMT-33"/>
       <use x="55.615234" xlink:href="#ArialMT-35"/>
       <use x="111.230469" xlink:href="#ArialMT-30"/>
      </g>
     </g>
    </g>
    <g id="text_14">
     <!-- Count -->
     <defs>
      <path d="M 58.796875 25.09375 
L 68.265625 22.703125 
Q 65.28125 11.03125 57.546875 4.90625 
Q 49.8125 -1.21875 38.625 -1.21875 
Q 27.046875 -1.21875 19.796875 3.484375 
Q 12.546875 8.203125 8.765625 17.140625 
Q 4.984375 26.078125 4.984375 36.328125 
Q 4.984375 47.515625 9.25 55.828125 
Q 13.53125 64.15625 21.40625 68.46875 
Q 29.296875 72.796875 38.765625 72.796875 
Q 49.515625 72.796875 56.828125 67.328125 
Q 64.15625 61.859375 67.046875 51.953125 
L 57.71875 49.75 
Q 55.21875 57.5625 50.484375 61.125 
Q 45.75 64.703125 38.578125 64.703125 
Q 30.328125 64.703125 24.78125 60.734375 
Q 19.234375 56.78125 16.984375 50.109375 
Q 14.75 43.453125 14.75 36.375 
Q 14.75 27.25 17.40625 20.4375 
Q 20.0625 13.625 25.671875 10.25 
Q 31.296875 6.890625 37.84375 6.890625 
Q 45.796875 6.890625 51.3125 11.46875 
Q 56.84375 16.0625 58.796875 25.09375 
z
" id="ArialMT-43"/>
      <path d="M 3.328125 25.921875 
Q 3.328125 40.328125 11.328125 47.265625 
Q 18.015625 53.03125 27.640625 53.03125 
Q 38.328125 53.03125 45.109375 46.015625 
Q 51.90625 39.015625 51.90625 26.65625 
Q 51.90625 16.65625 48.90625 10.90625 
Q 45.90625 5.171875 40.15625 2 
Q 34.421875 -1.171875 27.640625 -1.171875 
Q 16.75 -1.171875 10.03125 5.8125 
Q 3.328125 12.796875 3.328125 25.921875 
z
M 12.359375 25.921875 
Q 12.359375 15.96875 16.703125 11.015625 
Q 21.046875 6.0625 27.640625 6.0625 
Q 34.1875 6.0625 38.53125 11.03125 
Q 42.875 16.015625 42.875 26.21875 
Q 42.875 35.84375 38.5 40.796875 
Q 34.125 45.75 27.640625 45.75 
Q 21.046875 45.75 16.703125 40.8125 
Q 12.359375 35.890625 12.359375 25.921875 
z
" id="ArialMT-6f"/>
      <path d="M 40.578125 0 
L 40.578125 7.625 
Q 34.515625 -1.171875 24.125 -1.171875 
Q 19.53125 -1.171875 15.546875 0.578125 
Q 11.578125 2.34375 9.640625 5 
Q 7.71875 7.671875 6.9375 11.53125 
Q 6.390625 14.109375 6.390625 19.734375 
L 6.390625 51.859375 
L 15.1875 51.859375 
L 15.1875 23.09375 
Q 15.1875 16.21875 15.71875 13.8125 
Q 16.546875 10.359375 19.234375 8.375 
Q 21.921875 6.390625 25.875 6.390625 
Q 29.828125 6.390625 33.296875 8.421875 
Q 36.765625 10.453125 38.203125 13.9375 
Q 39.65625 17.4375 39.65625 24.078125 
L 39.65625 51.859375 
L 48.4375 51.859375 
L 48.4375 0 
z
" id="ArialMT-75"/>
      <path d="M 6.59375 0 
L 6.59375 51.859375 
L 14.5 51.859375 
L 14.5 44.484375 
Q 20.21875 53.03125 31 53.03125 
Q 35.6875 53.03125 39.625 51.34375 
Q 43.5625 49.65625 45.515625 46.921875 
Q 47.46875 44.1875 48.25 40.4375 
Q 48.734375 37.984375 48.734375 31.890625 
L 48.734375 0 
L 39.9375 0 
L 39.9375 31.546875 
Q 39.9375 36.921875 38.90625 39.578125 
Q 37.890625 42.234375 35.28125 43.8125 
Q 32.671875 45.40625 29.15625 45.40625 
Q 23.53125 45.40625 19.453125 41.84375 
Q 15.375 38.28125 15.375 28.328125 
L 15.375 0 
z
" id="ArialMT-6e"/>
     </defs>
     <g style="fill:#262626;" transform="translate(10.763906 123.469687)rotate(-90)scale(0.12 -0.12)">
      <use xlink:href="#ArialMT-43"/>
      <use x="72.216797" xlink:href="#ArialMT-6f"/>
      <use x="127.832031" xlink:href="#ArialMT-75"/>
      <use x="183.447266" xlink:href="#ArialMT-6e"/>
      <use x="239.0625" xlink:href="#ArialMT-74"/>
     </g>
    </g>
   </g>
   <g id="PolyCollection_1">
    <defs>
     <path d="M 68.594713 -38.763394 
L 67.905287 -38.763394 
L 67.850282 -39.750679 
L 67.78896 -40.737964 
L 67.721042 -41.725249 
L 67.646306 -42.712534 
L 67.564607 -43.699819 
L 67.475883 -44.687104 
L 67.380167 -45.674389 
L 67.27759 -46.661674 
L 67.168393 -47.648959 
L 67.05292 -48.636244 
L 66.931624 -49.623529 
L 66.805058 -50.610814 
L 66.673868 -51.598099 
L 66.53878 -52.585384 
L 66.400581 -53.572669 
L 66.260108 -54.559954 
L 66.118217 -55.547239 
L 65.975765 -56.534524 
L 65.833583 -57.521809 
L 65.69245 -58.509094 
L 65.553072 -59.496379 
L 65.416055 -60.483664 
L 65.281888 -61.470949 
L 65.150926 -62.458234 
L 65.023376 -63.445519 
L 64.899294 -64.432804 
L 64.778579 -65.420089 
L 64.660979 -66.407374 
L 64.546098 -67.394659 
L 64.433415 -68.381944 
L 64.322298 -69.369229 
L 64.21203 -70.356514 
L 64.101831 -71.343799 
L 63.990891 -72.331084 
L 63.878395 -73.318369 
L 63.763553 -74.305654 
L 63.645631 -75.292939 
L 63.523971 -76.280224 
L 63.398019 -77.267509 
L 63.267347 -78.254794 
L 63.131667 -79.242079 
L 62.990845 -80.229364 
L 62.844912 -81.216649 
L 62.694071 -82.203934 
L 62.5387 -83.191219 
L 62.37935 -84.178504 
L 62.216746 -85.165789 
L 62.051777 -86.153074 
L 61.885496 -87.140359 
L 61.719105 -88.127644 
L 61.553946 -89.114929 
L 61.391491 -90.102214 
L 61.233325 -91.089499 
L 61.081129 -92.076784 
L 60.936667 -93.064069 
L 60.801756 -94.051354 
L 60.678251 -95.038639 
L 60.568015 -96.025924 
L 60.47289 -97.013209 
L 60.394667 -98.000494 
L 60.335053 -98.987779 
L 60.295635 -99.975064 
L 60.277848 -100.962349 
L 60.282936 -101.949634 
L 60.311918 -102.936919 
L 60.365562 -103.924204 
L 60.444351 -104.911489 
L 60.548462 -105.898774 
L 60.677751 -106.886059 
L 60.831738 -107.873344 
L 61.009608 -108.860629 
L 61.210217 -109.847914 
L 61.432101 -110.835199 
L 61.673502 -111.822484 
L 61.932397 -112.809769 
L 62.206531 -113.797054 
L 62.493464 -114.784339 
L 62.790615 -115.771624 
L 63.095315 -116.758909 
L 63.404856 -117.746194 
L 63.716543 -118.733479 
L 64.027748 -119.720764 
L 64.335954 -120.708049 
L 64.638801 -121.695334 
L 64.934118 -122.682619 
L 65.219959 -123.669904 
L 65.494627 -124.657189 
L 65.756685 -125.644474 
L 66.004971 -126.631759 
L 66.238596 -127.619044 
L 66.456941 -128.606329 
L 66.659645 -129.593614 
L 66.846587 -130.580899 
L 67.017871 -131.568184 
L 67.173793 -132.555469 
L 67.314823 -133.542754 
L 67.441573 -134.530039 
L 67.554772 -135.517324 
L 67.655236 -136.504609 
L 68.844764 -136.504609 
L 68.844764 -136.504609 
L 68.945228 -135.517324 
L 69.058427 -134.530039 
L 69.185177 -133.542754 
L 69.326207 -132.555469 
L 69.482129 -131.568184 
L 69.653413 -130.580899 
L 69.840355 -129.593614 
L 70.043059 -128.606329 
L 70.261404 -127.619044 
L 70.495029 -126.631759 
L 70.743315 -125.644474 
L 71.005373 -124.657189 
L 71.280041 -123.669904 
L 71.565882 -122.682619 
L 71.861199 -121.695334 
L 72.164046 -120.708049 
L 72.472252 -119.720764 
L 72.783457 -118.733479 
L 73.095144 -117.746194 
L 73.404685 -116.758909 
L 73.709385 -115.771624 
L 74.006536 -114.784339 
L 74.293469 -113.797054 
L 74.567603 -112.809769 
L 74.826498 -111.822484 
L 75.067899 -110.835199 
L 75.289783 -109.847914 
L 75.490392 -108.860629 
L 75.668262 -107.873344 
L 75.822249 -106.886059 
L 75.951538 -105.898774 
L 76.055649 -104.911489 
L 76.134438 -103.924204 
L 76.188082 -102.936919 
L 76.217064 -101.949634 
L 76.222152 -100.962349 
L 76.204365 -99.975064 
L 76.164947 -98.987779 
L 76.105333 -98.000494 
L 76.02711 -97.013209 
L 75.931985 -96.025924 
L 75.821749 -95.038639 
L 75.698244 -94.051354 
L 75.563333 -93.064069 
L 75.418871 -92.076784 
L 75.266675 -91.089499 
L 75.108509 -90.102214 
L 74.946054 -89.114929 
L 74.780895 -88.127644 
L 74.614504 -87.140359 
L 74.448223 -86.153074 
L 74.283254 -85.165789 
L 74.12065 -84.178504 
L 73.9613 -83.191219 
L 73.805929 -82.203934 
L 73.655088 -81.216649 
L 73.509155 -80.229364 
L 73.368333 -79.242079 
L 73.232653 -78.254794 
L 73.101981 -77.267509 
L 72.976029 -76.280224 
L 72.854369 -75.292939 
L 72.736447 -74.305654 
L 72.621605 -73.318369 
L 72.509109 -72.331084 
L 72.398169 -71.343799 
L 72.28797 -70.356514 
L 72.177702 -69.369229 
L 72.066585 -68.381944 
L 71.953902 -67.394659 
L 71.839021 -66.407374 
L 71.721421 -65.420089 
L 71.600706 -64.432804 
L 71.476624 -63.445519 
L 71.349074 -62.458234 
L 71.218112 -61.470949 
L 71.083945 -60.483664 
L 70.946928 -59.496379 
L 70.80755 -58.509094 
L 70.666417 -57.521809 
L 70.524235 -56.534524 
L 70.381783 -55.547239 
L 70.239892 -54.559954 
L 70.099419 -53.572669 
L 69.96122 -52.585384 
L 69.826132 -51.598099 
L 69.694942 -50.610814 
L 69.568376 -49.623529 
L 69.44708 -48.636244 
L 69.331607 -47.648959 
L 69.22241 -46.661674 
L 69.119833 -45.674389 
L 69.024117 -44.687104 
L 68.935393 -43.699819 
L 68.853694 -42.712534 
L 68.778958 -41.725249 
L 68.71104 -40.737964 
L 68.649718 -39.750679 
L 68.594713 -38.763394 
z
" id="m779fc83dee" style="stroke:#7f7f7f;stroke-width:1.5;"/>
    </defs>
    <g clip-path="url(#p3de8914179)">
     <use style="fill:#d3d3d3;stroke:#7f7f7f;stroke-width:1.5;" x="0" xlink:href="#m779fc83dee" y="216"/>
    </g>
   </g>
   <g id="PolyCollection_2">
    <defs>
     <path d="M 116.15048 -92.426715 
L 113.34952 -92.426715 
L 113.125116 -92.857006 
L 112.873446 -93.287297 
L 112.592758 -93.717588 
L 112.281452 -94.147879 
L 111.938129 -94.57817 
L 111.561642 -95.008461 
L 111.151153 -95.438752 
L 110.706182 -95.869044 
L 110.22666 -96.299335 
L 109.712973 -96.729626 
L 109.166004 -97.159917 
L 108.58717 -97.590208 
L 107.978439 -98.020499 
L 107.342351 -98.45079 
L 106.682018 -98.881081 
L 106.001112 -99.311372 
L 105.303845 -99.741663 
L 104.594927 -100.171955 
L 103.87952 -100.602246 
L 103.163168 -101.032537 
L 102.451726 -101.462828 
L 101.751267 -101.893119 
L 101.067991 -102.32341 
L 100.408119 -102.753701 
L 99.777782 -103.183992 
L 99.182917 -103.614283 
L 98.629153 -104.044574 
L 98.121707 -104.474866 
L 97.665282 -104.905157 
L 97.263979 -105.335448 
L 96.921213 -105.765739 
L 96.639651 -106.19603 
L 96.421154 -106.626321 
L 96.266746 -107.056612 
L 96.176592 -107.486903 
L 96.15 -107.917194 
L 96.185434 -108.347485 
L 96.280553 -108.777777 
L 96.432255 -109.208068 
L 96.636749 -109.638359 
L 96.889634 -110.06865 
L 97.185987 -110.498941 
L 97.520468 -110.929232 
L 97.887432 -111.359523 
L 98.281037 -111.789814 
L 98.695367 -112.220105 
L 99.124548 -112.650396 
L 99.562862 -113.080687 
L 100.004853 -113.510979 
L 100.445435 -113.94127 
L 100.879977 -114.371561 
L 101.304385 -114.801852 
L 101.715168 -115.232143 
L 102.109483 -115.662434 
L 102.485171 -116.092725 
L 102.840771 -116.523016 
L 103.175518 -116.953307 
L 103.489323 -117.383598 
L 103.782735 -117.81389 
L 104.05689 -118.244181 
L 104.313448 -118.674472 
L 104.554507 -119.104763 
L 104.782525 -119.535054 
L 105.00022 -119.965345 
L 105.210474 -120.395636 
L 105.416234 -120.825927 
L 105.620416 -121.256218 
L 105.825812 -121.686509 
L 106.035008 -122.116801 
L 106.250308 -122.547092 
L 106.473669 -122.977383 
L 106.70666 -123.407674 
L 106.950419 -123.837965 
L 107.205638 -124.268256 
L 107.472559 -124.698547 
L 107.75098 -125.128838 
L 108.04028 -125.559129 
L 108.339452 -125.98942 
L 108.647151 -126.419712 
L 108.961742 -126.850003 
L 109.281361 -127.280294 
L 109.603976 -127.710585 
L 109.927451 -128.140876 
L 110.249605 -128.571167 
L 110.568275 -129.001458 
L 110.881368 -129.431749 
L 111.186909 -129.86204 
L 111.483085 -130.292331 
L 111.768279 -130.722623 
L 112.041091 -131.152914 
L 112.300359 -131.583205 
L 112.545168 -132.013496 
L 112.774851 -132.443787 
L 112.988981 -132.874078 
L 113.187367 -133.304369 
L 113.370028 -133.73466 
L 113.537182 -134.164951 
L 113.689219 -134.595242 
L 113.826674 -135.025534 
L 115.673326 -135.025534 
L 115.673326 -135.025534 
L 115.810781 -134.595242 
L 115.962818 -134.164951 
L 116.129972 -133.73466 
L 116.312633 -133.304369 
L 116.511019 -132.874078 
L 116.725149 -132.443787 
L 116.954832 -132.013496 
L 117.199641 -131.583205 
L 117.458909 -131.152914 
L 117.731721 -130.722623 
L 118.016915 -130.292331 
L 118.313091 -129.86204 
L 118.618632 -129.431749 
L 118.931725 -129.001458 
L 119.250395 -128.571167 
L 119.572549 -128.140876 
L 119.896024 -127.710585 
L 120.218639 -127.280294 
L 120.538258 -126.850003 
L 120.852849 -126.419712 
L 121.160548 -125.98942 
L 121.45972 -125.559129 
L 121.74902 -125.128838 
L 122.027441 -124.698547 
L 122.294362 -124.268256 
L 122.549581 -123.837965 
L 122.79334 -123.407674 
L 123.026331 -122.977383 
L 123.249692 -122.547092 
L 123.464992 -122.116801 
L 123.674188 -121.686509 
L 123.879584 -121.256218 
L 124.083766 -120.825927 
L 124.289526 -120.395636 
L 124.49978 -119.965345 
L 124.717475 -119.535054 
L 124.945493 -119.104763 
L 125.186552 -118.674472 
L 125.44311 -118.244181 
L 125.717265 -117.81389 
L 126.010677 -117.383598 
L 126.324482 -116.953307 
L 126.659229 -116.523016 
L 127.014829 -116.092725 
L 127.390517 -115.662434 
L 127.784832 -115.232143 
L 128.195615 -114.801852 
L 128.620023 -114.371561 
L 129.054565 -113.94127 
L 129.495147 -113.510979 
L 129.937138 -113.080687 
L 130.375452 -112.650396 
L 130.804633 -112.220105 
L 131.218963 -111.789814 
L 131.612568 -111.359523 
L 131.979532 -110.929232 
L 132.314013 -110.498941 
L 132.610366 -110.06865 
L 132.863251 -109.638359 
L 133.067745 -109.208068 
L 133.219447 -108.777777 
L 133.314566 -108.347485 
L 133.35 -107.917194 
L 133.323408 -107.486903 
L 133.233254 -107.056612 
L 133.078846 -106.626321 
L 132.860349 -106.19603 
L 132.578787 -105.765739 
L 132.236021 -105.335448 
L 131.834718 -104.905157 
L 131.378293 -104.474866 
L 130.870847 -104.044574 
L 130.317083 -103.614283 
L 129.722218 -103.183992 
L 129.091881 -102.753701 
L 128.432009 -102.32341 
L 127.748733 -101.893119 
L 127.048274 -101.462828 
L 126.336832 -101.032537 
L 125.62048 -100.602246 
L 124.905073 -100.171955 
L 124.196155 -99.741663 
L 123.498888 -99.311372 
L 122.817982 -98.881081 
L 122.157649 -98.45079 
L 121.521561 -98.020499 
L 120.91283 -97.590208 
L 120.333996 -97.159917 
L 119.787027 -96.729626 
L 119.27334 -96.299335 
L 118.793818 -95.869044 
L 118.348847 -95.438752 
L 117.938358 -95.008461 
L 117.561871 -94.57817 
L 117.218548 -94.147879 
L 116.907242 -93.717588 
L 116.626554 -93.287297 
L 116.374884 -92.857006 
L 116.15048 -92.426715 
z
" id="mee4ee8674b" style="stroke:#7f7f7f;stroke-width:1.5;"/>
    </defs>
    <g clip-path="url(#p3de8914179)">
     <use style="fill:#d3d3d3;stroke:#7f7f7f;stroke-width:1.5;" x="0" xlink:href="#mee4ee8674b" y="216"/>
    </g>
   </g>
   <g id="PolyCollection_3">
    <defs>
     <path d="M 161.715629 -83.124421 
L 160.784371 -83.124421 
L 160.703076 -84.129904 
L 160.610819 -85.135388 
L 160.506746 -86.140871 
L 160.390045 -87.146354 
L 160.259973 -88.151838 
L 160.115878 -89.157321 
L 159.957227 -90.162805 
L 159.783631 -91.168288 
L 159.594872 -92.173771 
L 159.390926 -93.179255 
L 159.171989 -94.184738 
L 158.938494 -95.190221 
L 158.691129 -96.195705 
L 158.430846 -97.201188 
L 158.158871 -98.206671 
L 157.876697 -99.212155 
L 157.586081 -100.217638 
L 157.289027 -101.223121 
L 156.987763 -102.228605 
L 156.684714 -103.234088 
L 156.382459 -104.239571 
L 156.083694 -105.245055 
L 155.791181 -106.250538 
L 155.507694 -107.256021 
L 155.235964 -108.261505 
L 154.978621 -109.266988 
L 154.738138 -110.272472 
L 154.516776 -111.277955 
L 154.316535 -112.283438 
L 154.139104 -113.288922 
L 153.98583 -114.294405 
L 153.857681 -115.299888 
L 153.75523 -116.305372 
L 153.678648 -117.310855 
L 153.627699 -118.316338 
L 153.601755 -119.321822 
L 153.59982 -120.327305 
L 153.620558 -121.332788 
L 153.662335 -122.338272 
L 153.72327 -123.343755 
L 153.80128 -124.349238 
L 153.894147 -125.354722 
L 153.999567 -126.360205 
L 154.115218 -127.365688 
L 154.238809 -128.371172 
L 154.368137 -129.376655 
L 154.501138 -130.382139 
L 154.635921 -131.387622 
L 154.770814 -132.393105 
L 154.904379 -133.398589 
L 155.035441 -134.404072 
L 155.163089 -135.409555 
L 155.286688 -136.415039 
L 155.405865 -137.420522 
L 155.520502 -138.426005 
L 155.630718 -139.431489 
L 155.736842 -140.436972 
L 155.839389 -141.442455 
L 155.939031 -142.447939 
L 156.036559 -143.453422 
L 156.132855 -144.458905 
L 156.228856 -145.464389 
L 156.325521 -146.469872 
L 156.423799 -147.475355 
L 156.524597 -148.480839 
L 156.628757 -149.486322 
L 156.737029 -150.491806 
L 156.850046 -151.497289 
L 156.968312 -152.502772 
L 157.092186 -153.508256 
L 157.22187 -154.513739 
L 157.357406 -155.519222 
L 157.498677 -156.524706 
L 157.645404 -157.530189 
L 157.797158 -158.535672 
L 157.95337 -159.541156 
L 158.113344 -160.546639 
L 158.276275 -161.552122 
L 158.441273 -162.557606 
L 158.607377 -163.563089 
L 158.773586 -164.568572 
L 158.938879 -165.574056 
L 159.102239 -166.579539 
L 159.262677 -167.585022 
L 159.41925 -168.590506 
L 159.571083 -169.595989 
L 159.717386 -170.601473 
L 159.857464 -171.606956 
L 159.990728 -172.612439 
L 160.116705 -173.617923 
L 160.235037 -174.623406 
L 160.345484 -175.628889 
L 160.447918 -176.634373 
L 160.542322 -177.639856 
L 160.628776 -178.645339 
L 160.707453 -179.650823 
L 160.778602 -180.656306 
L 160.842543 -181.661789 
L 160.899646 -182.667273 
L 161.600354 -182.667273 
L 161.600354 -182.667273 
L 161.657457 -181.661789 
L 161.721398 -180.656306 
L 161.792547 -179.650823 
L 161.871224 -178.645339 
L 161.957678 -177.639856 
L 162.052082 -176.634373 
L 162.154516 -175.628889 
L 162.264963 -174.623406 
L 162.383295 -173.617923 
L 162.509272 -172.612439 
L 162.642536 -171.606956 
L 162.782614 -170.601473 
L 162.928917 -169.595989 
L 163.08075 -168.590506 
L 163.237323 -167.585022 
L 163.397761 -166.579539 
L 163.561121 -165.574056 
L 163.726414 -164.568572 
L 163.892623 -163.563089 
L 164.058727 -162.557606 
L 164.223725 -161.552122 
L 164.386656 -160.546639 
L 164.54663 -159.541156 
L 164.702842 -158.535672 
L 164.854596 -157.530189 
L 165.001323 -156.524706 
L 165.142594 -155.519222 
L 165.27813 -154.513739 
L 165.407814 -153.508256 
L 165.531688 -152.502772 
L 165.649954 -151.497289 
L 165.762971 -150.491806 
L 165.871243 -149.486322 
L 165.975403 -148.480839 
L 166.076201 -147.475355 
L 166.174479 -146.469872 
L 166.271144 -145.464389 
L 166.367145 -144.458905 
L 166.463441 -143.453422 
L 166.560969 -142.447939 
L 166.660611 -141.442455 
L 166.763158 -140.436972 
L 166.869282 -139.431489 
L 166.979498 -138.426005 
L 167.094135 -137.420522 
L 167.213312 -136.415039 
L 167.336911 -135.409555 
L 167.464559 -134.404072 
L 167.595621 -133.398589 
L 167.729186 -132.393105 
L 167.864079 -131.387622 
L 167.998862 -130.382139 
L 168.131863 -129.376655 
L 168.261191 -128.371172 
L 168.384782 -127.365688 
L 168.500433 -126.360205 
L 168.605853 -125.354722 
L 168.69872 -124.349238 
L 168.77673 -123.343755 
L 168.837665 -122.338272 
L 168.879442 -121.332788 
L 168.90018 -120.327305 
L 168.898245 -119.321822 
L 168.872301 -118.316338 
L 168.821352 -117.310855 
L 168.74477 -116.305372 
L 168.642319 -115.299888 
L 168.51417 -114.294405 
L 168.360896 -113.288922 
L 168.183465 -112.283438 
L 167.983224 -111.277955 
L 167.761862 -110.272472 
L 167.521379 -109.266988 
L 167.264036 -108.261505 
L 166.992306 -107.256021 
L 166.708819 -106.250538 
L 166.416306 -105.245055 
L 166.117541 -104.239571 
L 165.815286 -103.234088 
L 165.512237 -102.228605 
L 165.210973 -101.223121 
L 164.913919 -100.217638 
L 164.623303 -99.212155 
L 164.341129 -98.206671 
L 164.069154 -97.201188 
L 163.808871 -96.195705 
L 163.561506 -95.190221 
L 163.328011 -94.184738 
L 163.109074 -93.179255 
L 162.905128 -92.173771 
L 162.716369 -91.168288 
L 162.542773 -90.162805 
L 162.384122 -89.157321 
L 162.240027 -88.151838 
L 162.109955 -87.146354 
L 161.993254 -86.140871 
L 161.889181 -85.135388 
L 161.796924 -84.129904 
L 161.715629 -83.124421 
z
" id="mad19a81ee2" style="stroke:#7f7f7f;stroke-width:1.5;"/>
    </defs>
    <g clip-path="url(#p3de8914179)">
     <use style="fill:#d3d3d3;stroke:#7f7f7f;stroke-width:1.5;" x="0" xlink:href="#mad19a81ee2" y="216"/>
    </g>
   </g>
   <g id="PolyCollection_4">
    <defs>
     <path d="M 208.136993 -67.554526 
L 207.363007 -67.554526 
L 207.299111 -68.460392 
L 207.227822 -69.366258 
L 207.14889 -70.272124 
L 207.062172 -71.17799 
L 206.967651 -72.083856 
L 206.86545 -72.989722 
L 206.75585 -73.895588 
L 206.639298 -74.801454 
L 206.516413 -75.70732 
L 206.387988 -76.613186 
L 206.254982 -77.519052 
L 206.118509 -78.424918 
L 205.979819 -79.330784 
L 205.840266 -80.23665 
L 205.701278 -81.142516 
L 205.564316 -82.048382 
L 205.430824 -82.954248 
L 205.302179 -83.860114 
L 205.17964 -84.76598 
L 205.06429 -85.671846 
L 204.956983 -86.577712 
L 204.858295 -87.483578 
L 204.768481 -88.389444 
L 204.687432 -89.29531 
L 204.614657 -90.201176 
L 204.549258 -91.107042 
L 204.489939 -92.012908 
L 204.435007 -92.918774 
L 204.382409 -93.82464 
L 204.329766 -94.730506 
L 204.274433 -95.636372 
L 204.213569 -96.542238 
L 204.144214 -97.448104 
L 204.063382 -98.35397 
L 203.968157 -99.259836 
L 203.855794 -100.165702 
L 203.723817 -101.071568 
L 203.570122 -101.977434 
L 203.393066 -102.8833 
L 203.191545 -103.789166 
L 202.965069 -104.695032 
L 202.713813 -105.600898 
L 202.438648 -106.506764 
L 202.141158 -107.41263 
L 201.823636 -108.318496 
L 201.489051 -109.224362 
L 201.141001 -110.130228 
L 200.783643 -111.036094 
L 200.421605 -111.94196 
L 200.059884 -112.847826 
L 199.703727 -113.753692 
L 199.358509 -114.659558 
L 199.029603 -115.565424 
L 198.72225 -116.47129 
L 198.441434 -117.377156 
L 198.191763 -118.283022 
L 197.977362 -119.188888 
L 197.801783 -120.094754 
L 197.667931 -121.00062 
L 197.578006 -121.906486 
L 197.533475 -122.812352 
L 197.535049 -123.718218 
L 197.5827 -124.624084 
L 197.675677 -125.52995 
L 197.812557 -126.435817 
L 197.991297 -127.341683 
L 198.209303 -128.247549 
L 198.463514 -129.153415 
L 198.750481 -130.059281 
L 199.066457 -130.965147 
L 199.407482 -131.871013 
L 199.769472 -132.776879 
L 200.148299 -133.682745 
L 200.539862 -134.588611 
L 200.940159 -135.494477 
L 201.345341 -136.400343 
L 201.751767 -137.306209 
L 202.156042 -138.212075 
L 202.555046 -139.117941 
L 202.945964 -140.023807 
L 203.3263 -140.929673 
L 203.693881 -141.835539 
L 204.046864 -142.741405 
L 204.383734 -143.647271 
L 204.703288 -144.553137 
L 205.004632 -145.459003 
L 205.287158 -146.364869 
L 205.550528 -147.270735 
L 205.794651 -148.176601 
L 206.019662 -149.082467 
L 206.225896 -149.988333 
L 206.413865 -150.894199 
L 206.584227 -151.800065 
L 206.737768 -152.705931 
L 206.875371 -153.611797 
L 206.997996 -154.517663 
L 207.106654 -155.423529 
L 207.202388 -156.329395 
L 207.286252 -157.235261 
L 208.213748 -157.235261 
L 208.213748 -157.235261 
L 208.297612 -156.329395 
L 208.393346 -155.423529 
L 208.502004 -154.517663 
L 208.624629 -153.611797 
L 208.762232 -152.705931 
L 208.915773 -151.800065 
L 209.086135 -150.894199 
L 209.274104 -149.988333 
L 209.480338 -149.082467 
L 209.705349 -148.176601 
L 209.949472 -147.270735 
L 210.212842 -146.364869 
L 210.495368 -145.459003 
L 210.796712 -144.553137 
L 211.116266 -143.647271 
L 211.453136 -142.741405 
L 211.806119 -141.835539 
L 212.1737 -140.929673 
L 212.554036 -140.023807 
L 212.944954 -139.117941 
L 213.343958 -138.212075 
L 213.748233 -137.306209 
L 214.154659 -136.400343 
L 214.559841 -135.494477 
L 214.960138 -134.588611 
L 215.351701 -133.682745 
L 215.730528 -132.776879 
L 216.092518 -131.871013 
L 216.433543 -130.965147 
L 216.749519 -130.059281 
L 217.036486 -129.153415 
L 217.290697 -128.247549 
L 217.508703 -127.341683 
L 217.687443 -126.435817 
L 217.824323 -125.52995 
L 217.9173 -124.624084 
L 217.964951 -123.718218 
L 217.966525 -122.812352 
L 217.921994 -121.906486 
L 217.832069 -121.00062 
L 217.698217 -120.094754 
L 217.522638 -119.188888 
L 217.308237 -118.283022 
L 217.058566 -117.377156 
L 216.77775 -116.47129 
L 216.470397 -115.565424 
L 216.141491 -114.659558 
L 215.796273 -113.753692 
L 215.440116 -112.847826 
L 215.078395 -111.94196 
L 214.716357 -111.036094 
L 214.358999 -110.130228 
L 214.010949 -109.224362 
L 213.676364 -108.318496 
L 213.358842 -107.41263 
L 213.061352 -106.506764 
L 212.786187 -105.600898 
L 212.534931 -104.695032 
L 212.308455 -103.789166 
L 212.106934 -102.8833 
L 211.929878 -101.977434 
L 211.776183 -101.071568 
L 211.644206 -100.165702 
L 211.531843 -99.259836 
L 211.436618 -98.35397 
L 211.355786 -97.448104 
L 211.286431 -96.542238 
L 211.225567 -95.636372 
L 211.170234 -94.730506 
L 211.117591 -93.82464 
L 211.064993 -92.918774 
L 211.010061 -92.012908 
L 210.950742 -91.107042 
L 210.885343 -90.201176 
L 210.812568 -89.29531 
L 210.731519 -88.389444 
L 210.641705 -87.483578 
L 210.543017 -86.577712 
L 210.43571 -85.671846 
L 210.32036 -84.76598 
L 210.197821 -83.860114 
L 210.069176 -82.954248 
L 209.935684 -82.048382 
L 209.798722 -81.142516 
L 209.659734 -80.23665 
L 209.520181 -79.330784 
L 209.381491 -78.424918 
L 209.245018 -77.519052 
L 209.112012 -76.613186 
L 208.983587 -75.70732 
L 208.860702 -74.801454 
L 208.74415 -73.895588 
L 208.63455 -72.989722 
L 208.532349 -72.083856 
L 208.437828 -71.17799 
L 208.35111 -70.272124 
L 208.272178 -69.366258 
L 208.200889 -68.460392 
L 208.136993 -67.554526 
z
" id="m457b23ef91" style="stroke:#7f7f7f;stroke-width:1.5;"/>
    </defs>
    <g clip-path="url(#p3de8914179)">
     <use style="fill:#d3d3d3;stroke:#7f7f7f;stroke-width:1.5;" x="0" xlink:href="#m457b23ef91" y="216"/>
    </g>
   </g>
   <g id="PolyCollection_5">
    <defs>
     <path d="M 254.626159 -61.439014 
L 253.873841 -61.439014 
L 253.817721 -62.586757 
L 253.755292 -63.734501 
L 253.68619 -64.882244 
L 253.610085 -66.029987 
L 253.52669 -67.177731 
L 253.43577 -68.325474 
L 253.337151 -69.473217 
L 253.230736 -70.620961 
L 253.116503 -71.768704 
L 252.994525 -72.916447 
L 252.86497 -74.064191 
L 252.728106 -75.211934 
L 252.584312 -76.359677 
L 252.434075 -77.507421 
L 252.277989 -78.655164 
L 252.116759 -79.802907 
L 251.951188 -80.950651 
L 251.782177 -82.098394 
L 251.610709 -83.246137 
L 251.437843 -84.39388 
L 251.264691 -85.541624 
L 251.092408 -86.689367 
L 250.922169 -87.83711 
L 250.755148 -88.984854 
L 250.5925 -90.132597 
L 250.435332 -91.28034 
L 250.284687 -92.428084 
L 250.141519 -93.575827 
L 250.00667 -94.72357 
L 249.880854 -95.871314 
L 249.764637 -97.019057 
L 249.658426 -98.1668 
L 249.562455 -99.314544 
L 249.476779 -100.462287 
L 249.401273 -101.61003 
L 249.335631 -102.757774 
L 249.279373 -103.905517 
L 249.231859 -105.05326 
L 249.192301 -106.201004 
L 249.159787 -107.348747 
L 249.133302 -108.49649 
L 249.111756 -109.644234 
L 249.094017 -110.791977 
L 249.078944 -111.93972 
L 249.065417 -113.087464 
L 249.052377 -114.235207 
L 249.038854 -115.38295 
L 249.024003 -116.530694 
L 249.007131 -117.678437 
L 248.987724 -118.82618 
L 248.965466 -119.973924 
L 248.940257 -121.121667 
L 248.912218 -122.26941 
L 248.8817 -123.417154 
L 248.849274 -124.564897 
L 248.815725 -125.71264 
L 248.782031 -126.860384 
L 248.749343 -128.008127 
L 248.718953 -129.15587 
L 248.692262 -130.303614 
L 248.670741 -131.451357 
L 248.65589 -132.5991 
L 248.6492 -133.746844 
L 248.652105 -134.894587 
L 248.665946 -136.04233 
L 248.691928 -137.190074 
L 248.73109 -138.337817 
L 248.78427 -139.48556 
L 248.852084 -140.633304 
L 248.934904 -141.781047 
L 249.032851 -142.92879 
L 249.145783 -144.076534 
L 249.273304 -145.224277 
L 249.414771 -146.37202 
L 249.569308 -147.519764 
L 249.735826 -148.667507 
L 249.913055 -149.81525 
L 250.099567 -150.962994 
L 250.293811 -152.110737 
L 250.494153 -153.25848 
L 250.698903 -154.406224 
L 250.906357 -155.553967 
L 251.114827 -156.70171 
L 251.322675 -157.849454 
L 251.528343 -158.997197 
L 251.730373 -160.14494 
L 251.927434 -161.292684 
L 252.118336 -162.440427 
L 252.302042 -163.58817 
L 252.477678 -164.735913 
L 252.644535 -165.883657 
L 252.802067 -167.0314 
L 252.949891 -168.179143 
L 253.087775 -169.326887 
L 253.215631 -170.47463 
L 253.3335 -171.622373 
L 253.441543 -172.770117 
L 253.540019 -173.91786 
L 253.629276 -175.065603 
L 254.870724 -175.065603 
L 254.870724 -175.065603 
L 254.959981 -173.91786 
L 255.058457 -172.770117 
L 255.1665 -171.622373 
L 255.284369 -170.47463 
L 255.412225 -169.326887 
L 255.550109 -168.179143 
L 255.697933 -167.0314 
L 255.855465 -165.883657 
L 256.022322 -164.735913 
L 256.197958 -163.58817 
L 256.381664 -162.440427 
L 256.572566 -161.292684 
L 256.769627 -160.14494 
L 256.971657 -158.997197 
L 257.177325 -157.849454 
L 257.385173 -156.70171 
L 257.593643 -155.553967 
L 257.801097 -154.406224 
L 258.005847 -153.25848 
L 258.206189 -152.110737 
L 258.400433 -150.962994 
L 258.586945 -149.81525 
L 258.764174 -148.667507 
L 258.930692 -147.519764 
L 259.085229 -146.37202 
L 259.226696 -145.224277 
L 259.354217 -144.076534 
L 259.467149 -142.92879 
L 259.565096 -141.781047 
L 259.647916 -140.633304 
L 259.71573 -139.48556 
L 259.76891 -138.337817 
L 259.808072 -137.190074 
L 259.834054 -136.04233 
L 259.847895 -134.894587 
L 259.8508 -133.746844 
L 259.84411 -132.5991 
L 259.829259 -131.451357 
L 259.807738 -130.303614 
L 259.781047 -129.15587 
L 259.750657 -128.008127 
L 259.717969 -126.860384 
L 259.684275 -125.71264 
L 259.650726 -124.564897 
L 259.6183 -123.417154 
L 259.587782 -122.26941 
L 259.559743 -121.121667 
L 259.534534 -119.973924 
L 259.512276 -118.82618 
L 259.492869 -117.678437 
L 259.475997 -116.530694 
L 259.461146 -115.38295 
L 259.447623 -114.235207 
L 259.434583 -113.087464 
L 259.421056 -111.93972 
L 259.405983 -110.791977 
L 259.388244 -109.644234 
L 259.366698 -108.49649 
L 259.340213 -107.348747 
L 259.307699 -106.201004 
L 259.268141 -105.05326 
L 259.220627 -103.905517 
L 259.164369 -102.757774 
L 259.098727 -101.61003 
L 259.023221 -100.462287 
L 258.937545 -99.314544 
L 258.841574 -98.1668 
L 258.735363 -97.019057 
L 258.619146 -95.871314 
L 258.49333 -94.72357 
L 258.358481 -93.575827 
L 258.215313 -92.428084 
L 258.064668 -91.28034 
L 257.9075 -90.132597 
L 257.744852 -88.984854 
L 257.577831 -87.83711 
L 257.407592 -86.689367 
L 257.235309 -85.541624 
L 257.062157 -84.39388 
L 256.889291 -83.246137 
L 256.717823 -82.098394 
L 256.548812 -80.950651 
L 256.383241 -79.802907 
L 256.222011 -78.655164 
L 256.065925 -77.507421 
L 255.915688 -76.359677 
L 255.771894 -75.211934 
L 255.63503 -74.064191 
L 255.505475 -72.916447 
L 255.383497 -71.768704 
L 255.269264 -70.620961 
L 255.162849 -69.473217 
L 255.06423 -68.325474 
L 254.97331 -67.177731 
L 254.889915 -66.029987 
L 254.81381 -64.882244 
L 254.744708 -63.734501 
L 254.682279 -62.586757 
L 254.626159 -61.439014 
z
" id="ma1c1fd4349" style="stroke:#7f7f7f;stroke-width:1.5;"/>
    </defs>
    <g clip-path="url(#p3de8914179)">
     <use style="fill:#d3d3d3;stroke:#7f7f7f;stroke-width:1.5;" x="0" xlink:href="#ma1c1fd4349" y="216"/>
    </g>
   </g>
   <g id="PolyCollection_6">
    <defs>
     <path d="M 301.103643 -34.412727 
L 300.396357 -34.412727 
L 300.343958 -35.530934 
L 300.286042 -36.649141 
L 300.222415 -37.767348 
L 300.15294 -38.885555 
L 300.077548 -40.003762 
L 299.996243 -41.121969 
L 299.909117 -42.240176 
L 299.816348 -43.358383 
L 299.718212 -44.47659 
L 299.615079 -45.594797 
L 299.507415 -46.713004 
L 299.395781 -47.831211 
L 299.28082 -48.949417 
L 299.163254 -50.067624 
L 299.043867 -51.185831 
L 298.923488 -52.304038 
L 298.802976 -53.422245 
L 298.683194 -54.540452 
L 298.564989 -55.658659 
L 298.449166 -56.776866 
L 298.336461 -57.895073 
L 298.227519 -59.01328 
L 298.122869 -60.131487 
L 298.022902 -61.249694 
L 297.92785 -62.367901 
L 297.837777 -63.486108 
L 297.752561 -64.604315 
L 297.671895 -65.722522 
L 297.595284 -66.840728 
L 297.522051 -67.958935 
L 297.451354 -69.077142 
L 297.382196 -70.195349 
L 297.313457 -71.313556 
L 297.243921 -72.431763 
L 297.172307 -73.54997 
L 297.097309 -74.668177 
L 297.017636 -75.786384 
L 296.932052 -76.904591 
L 296.839419 -78.022798 
L 296.738738 -79.141005 
L 296.629186 -80.259212 
L 296.510152 -81.377419 
L 296.381269 -82.495626 
L 296.242438 -83.613833 
L 296.093847 -84.732039 
L 295.935984 -85.850246 
L 295.769641 -86.968453 
L 295.595912 -88.08666 
L 295.416181 -89.204867 
L 295.232105 -90.323074 
L 295.045589 -91.441281 
L 294.858753 -92.559488 
L 294.673897 -93.677695 
L 294.493452 -94.795902 
L 294.319941 -95.914109 
L 294.155923 -97.032316 
L 294.003944 -98.150523 
L 293.866487 -99.26873 
L 293.745916 -100.386937 
L 293.644431 -101.505144 
L 293.56402 -102.62335 
L 293.506417 -103.741557 
L 293.473068 -104.859764 
L 293.465095 -105.977971 
L 293.483281 -107.096178 
L 293.528046 -108.214385 
L 293.59944 -109.332592 
L 293.697149 -110.450799 
L 293.820494 -111.569006 
L 293.968451 -112.687213 
L 294.139672 -113.80542 
L 294.332513 -114.923627 
L 294.545069 -116.041834 
L 294.775214 -117.160041 
L 295.020641 -118.278248 
L 295.27891 -119.396455 
L 295.547493 -120.514662 
L 295.823822 -121.632868 
L 296.105334 -122.751075 
L 296.389514 -123.869282 
L 296.673938 -124.987489 
L 296.956305 -126.105696 
L 297.234475 -127.223903 
L 297.506492 -128.34211 
L 297.770603 -129.460317 
L 298.02528 -130.578524 
L 298.269223 -131.696731 
L 298.501369 -132.814938 
L 298.720889 -133.933145 
L 298.927181 -135.051352 
L 299.119861 -136.169559 
L 299.298749 -137.287766 
L 299.463851 -138.405973 
L 299.615344 -139.524179 
L 299.753549 -140.642386 
L 299.878914 -141.760593 
L 299.991992 -142.8788 
L 300.093418 -143.997007 
L 300.183888 -145.115214 
L 301.316112 -145.115214 
L 301.316112 -145.115214 
L 301.406582 -143.997007 
L 301.508008 -142.8788 
L 301.621086 -141.760593 
L 301.746451 -140.642386 
L 301.884656 -139.524179 
L 302.036149 -138.405973 
L 302.201251 -137.287766 
L 302.380139 -136.169559 
L 302.572819 -135.051352 
L 302.779111 -133.933145 
L 302.998631 -132.814938 
L 303.230777 -131.696731 
L 303.47472 -130.578524 
L 303.729397 -129.460317 
L 303.993508 -128.34211 
L 304.265525 -127.223903 
L 304.543695 -126.105696 
L 304.826062 -124.987489 
L 305.110486 -123.869282 
L 305.394666 -122.751075 
L 305.676178 -121.632868 
L 305.952507 -120.514662 
L 306.22109 -119.396455 
L 306.479359 -118.278248 
L 306.724786 -117.160041 
L 306.954931 -116.041834 
L 307.167487 -114.923627 
L 307.360328 -113.80542 
L 307.531549 -112.687213 
L 307.679506 -111.569006 
L 307.802851 -110.450799 
L 307.90056 -109.332592 
L 307.971954 -108.214385 
L 308.016719 -107.096178 
L 308.034905 -105.977971 
L 308.026932 -104.859764 
L 307.993583 -103.741557 
L 307.93598 -102.62335 
L 307.855569 -101.505144 
L 307.754084 -100.386937 
L 307.633513 -99.26873 
L 307.496056 -98.150523 
L 307.344077 -97.032316 
L 307.180059 -95.914109 
L 307.006548 -94.795902 
L 306.826103 -93.677695 
L 306.641247 -92.559488 
L 306.454411 -91.441281 
L 306.267895 -90.323074 
L 306.083819 -89.204867 
L 305.904088 -88.08666 
L 305.730359 -86.968453 
L 305.564016 -85.850246 
L 305.406153 -84.732039 
L 305.257562 -83.613833 
L 305.118731 -82.495626 
L 304.989848 -81.377419 
L 304.870814 -80.259212 
L 304.761262 -79.141005 
L 304.660581 -78.022798 
L 304.567948 -76.904591 
L 304.482364 -75.786384 
L 304.402691 -74.668177 
L 304.327693 -73.54997 
L 304.256079 -72.431763 
L 304.186543 -71.313556 
L 304.117804 -70.195349 
L 304.048646 -69.077142 
L 303.977949 -67.958935 
L 303.904716 -66.840728 
L 303.828105 -65.722522 
L 303.747439 -64.604315 
L 303.662223 -63.486108 
L 303.57215 -62.367901 
L 303.477098 -61.249694 
L 303.377131 -60.131487 
L 303.272481 -59.01328 
L 303.163539 -57.895073 
L 303.050834 -56.776866 
L 302.935011 -55.658659 
L 302.816806 -54.540452 
L 302.697024 -53.422245 
L 302.576512 -52.304038 
L 302.456133 -51.185831 
L 302.336746 -50.067624 
L 302.21918 -48.949417 
L 302.104219 -47.831211 
L 301.992585 -46.713004 
L 301.884921 -45.594797 
L 301.781788 -44.47659 
L 301.683652 -43.358383 
L 301.590883 -42.240176 
L 301.503757 -41.121969 
L 301.422452 -40.003762 
L 301.34706 -38.885555 
L 301.277585 -37.767348 
L 301.213958 -36.649141 
L 301.156042 -35.530934 
L 301.103643 -34.412727 
z
" id="m34a52a1eb9" style="stroke:#7f7f7f;stroke-width:1.5;"/>
    </defs>
    <g clip-path="url(#p3de8914179)">
     <use style="fill:#d3d3d3;stroke:#7f7f7f;stroke-width:1.5;" x="0" xlink:href="#m34a52a1eb9" y="216"/>
    </g>
   </g>
   <g id="line2d_7">
    <path clip-path="url(#p3de8914179)" d="M 68.25 150.730675 
L 68.25 106.001322 
" style="fill:none;stroke:#7f7f7f;stroke-linecap:round;stroke-width:1.5;"/>
   </g>
   <g id="line2d_8">
    <path clip-path="url(#p3de8914179)" d="M 68.25 130.495968 
L 68.25 108.663783 
" style="fill:none;stroke:#7f7f7f;stroke-linecap:round;stroke-width:4.5;"/>
   </g>
   <g id="line2d_9">
    <path clip-path="url(#p3de8914179)" d="M 114.75 111.326245 
L 114.75 93.221507 
" style="fill:none;stroke:#7f7f7f;stroke-linecap:round;stroke-width:1.5;"/>
   </g>
   <g id="line2d_10">
    <path clip-path="url(#p3de8914179)" d="M 114.75 109.728768 
L 114.75 101.60826 
" style="fill:none;stroke:#7f7f7f;stroke-linecap:round;stroke-width:4.5;"/>
   </g>
   <g id="line2d_11">
    <path clip-path="url(#p3de8914179)" d="M 161.25 106.001322 
L 161.25 60.206984 
" style="fill:none;stroke:#7f7f7f;stroke-linecap:round;stroke-width:1.5;"/>
   </g>
   <g id="line2d_12">
    <path clip-path="url(#p3de8914179)" d="M 161.25 98.54643 
L 161.25 76.181753 
" style="fill:none;stroke:#7f7f7f;stroke-linecap:round;stroke-width:4.5;"/>
   </g>
   <g id="line2d_13">
    <path clip-path="url(#p3de8914179)" d="M 207.75 96.416461 
L 207.75 92.156522 
" style="fill:none;stroke:#7f7f7f;stroke-linecap:round;stroke-width:1.5;"/>
   </g>
   <g id="line2d_14">
    <path clip-path="url(#p3de8914179)" d="M 207.75 96.416461 
L 207.75 92.156522 
" style="fill:none;stroke:#7f7f7f;stroke-linecap:round;stroke-width:4.5;"/>
   </g>
   <g id="line2d_15">
    <path clip-path="url(#p3de8914179)" d="M 254.25 120.378614 
L 254.25 75.116769 
" style="fill:none;stroke:#7f7f7f;stroke-linecap:round;stroke-width:1.5;"/>
   </g>
   <g id="line2d_16">
    <path clip-path="url(#p3de8914179)" d="M 254.25 109.995014 
L 254.25 75.915507 
" style="fill:none;stroke:#7f7f7f;stroke-linecap:round;stroke-width:4.5;"/>
   </g>
   <g id="line2d_17">
    <path clip-path="url(#p3de8914179)" d="M 300.75 149.66569 
L 300.75 102.806368 
" style="fill:none;stroke:#7f7f7f;stroke-linecap:round;stroke-width:1.5;"/>
   </g>
   <g id="line2d_18">
    <path clip-path="url(#p3de8914179)" d="M 300.75 126.502275 
L 300.75 106.400691 
" style="fill:none;stroke:#7f7f7f;stroke-linecap:round;stroke-width:4.5;"/>
   </g>
   <g id="patch_3">
    <path d="M 45 189 
L 45 25.92 
" style="fill:none;stroke:#ffffff;stroke-linecap:square;stroke-linejoin:miter;stroke-width:1.25;"/>
   </g>
   <g id="patch_4">
    <path d="M 324 189 
L 324 25.92 
" style="fill:none;stroke:#ffffff;stroke-linecap:square;stroke-linejoin:miter;stroke-width:1.25;"/>
   </g>
   <g id="patch_5">
    <path d="M 45 189 
L 324 189 
" style="fill:none;stroke:#ffffff;stroke-linecap:square;stroke-linejoin:miter;stroke-width:1.25;"/>
   </g>
   <g id="patch_6">
    <path d="M 45 25.92 
L 324 25.92 
" style="fill:none;stroke:#ffffff;stroke-linecap:square;stroke-linejoin:miter;stroke-width:1.25;"/>
   </g>
   <g id="PathCollection_1">
    <defs>
     <path d="M 0 1.5 
C 0.397805 1.5 0.77937 1.341951 1.06066 1.06066 
C 1.341951 0.77937 1.5 0.397805 1.5 0 
C 1.5 -0.397805 1.341951 -0.77937 1.06066 -1.06066 
C 0.77937 -1.341951 0.397805 -1.5 0 -1.5 
C -0.397805 -1.5 -0.77937 -1.341951 -1.06066 -1.06066 
C -1.341951 -0.77937 -1.5 -0.397805 -1.5 0 
C -1.5 0.397805 -1.341951 0.77937 -1.06066 1.06066 
C -0.77937 1.341951 -0.397805 1.5 0 1.5 
z
" id="m4f57894767" style="stroke:#7f7f7f;"/>
    </defs>
    <g clip-path="url(#p3de8914179)">
     <use style="fill:#ffffff;stroke:#7f7f7f;" x="68.25" xlink:href="#m4f57894767" y="118.781137"/>
    </g>
   </g>
   <g id="PathCollection_2">
    <g clip-path="url(#p3de8914179)">
     <use style="fill:#ffffff;stroke:#7f7f7f;" x="114.75" xlink:href="#m4f57894767" y="106.80006"/>
    </g>
   </g>
   <g id="PathCollection_3">
    <g clip-path="url(#p3de8914179)">
     <use style="fill:#ffffff;stroke:#7f7f7f;" x="161.25" xlink:href="#m4f57894767" y="93.753999"/>
    </g>
   </g>
   <g id="PathCollection_4">
    <g clip-path="url(#p3de8914179)">
     <use style="fill:#ffffff;stroke:#7f7f7f;" x="207.75" xlink:href="#m4f57894767" y="96.416461"/>
    </g>
   </g>
   <g id="PathCollection_5">
    <g clip-path="url(#p3de8914179)">
     <use style="fill:#ffffff;stroke:#7f7f7f;" x="254.25" xlink:href="#m4f57894767" y="91.357784"/>
    </g>
   </g>
   <g id="PathCollection_6">
    <g clip-path="url(#p3de8914179)">
     <use style="fill:#ffffff;stroke:#7f7f7f;" x="300.75" xlink:href="#m4f57894767" y="113.189968"/>
    </g>
   </g>
   <g id="text_15">
    <!-- Egg Laying -->
    <defs>
     <path d="M 7.90625 0 
L 7.90625 71.578125 
L 59.671875 71.578125 
L 59.671875 63.140625 
L 17.390625 63.140625 
L 17.390625 41.21875 
L 56.984375 41.21875 
L 56.984375 32.8125 
L 17.390625 32.8125 
L 17.390625 8.453125 
L 61.328125 8.453125 
L 61.328125 0 
z
" id="ArialMT-45"/>
     <path d="M 4.984375 -4.296875 
L 13.53125 -5.5625 
Q 14.0625 -9.515625 16.5 -11.328125 
Q 19.78125 -13.765625 25.4375 -13.765625 
Q 31.546875 -13.765625 34.859375 -11.328125 
Q 38.1875 -8.890625 39.359375 -4.5 
Q 40.046875 -1.8125 39.984375 6.78125 
Q 34.234375 0 25.640625 0 
Q 14.9375 0 9.078125 7.71875 
Q 3.21875 15.4375 3.21875 26.21875 
Q 3.21875 33.640625 5.90625 39.90625 
Q 8.59375 46.1875 13.6875 49.609375 
Q 18.796875 53.03125 25.6875 53.03125 
Q 34.859375 53.03125 40.828125 45.609375 
L 40.828125 51.859375 
L 48.921875 51.859375 
L 48.921875 7.03125 
Q 48.921875 -5.078125 46.453125 -10.125 
Q 44 -15.1875 38.640625 -18.109375 
Q 33.296875 -21.046875 25.484375 -21.046875 
Q 16.21875 -21.046875 10.5 -16.875 
Q 4.78125 -12.703125 4.984375 -4.296875 
z
M 12.25 26.859375 
Q 12.25 16.65625 16.296875 11.96875 
Q 20.359375 7.28125 26.46875 7.28125 
Q 32.515625 7.28125 36.609375 11.9375 
Q 40.71875 16.609375 40.71875 26.5625 
Q 40.71875 36.078125 36.5 40.90625 
Q 32.28125 45.75 26.3125 45.75 
Q 20.453125 45.75 16.34375 40.984375 
Q 12.25 36.234375 12.25 26.859375 
z
" id="ArialMT-67"/>
     <path id="ArialMT-20"/>
     <path d="M 7.328125 0 
L 7.328125 71.578125 
L 16.796875 71.578125 
L 16.796875 8.453125 
L 52.046875 8.453125 
L 52.046875 0 
z
" id="ArialMT-4c"/>
     <path d="M 6.203125 -19.96875 
L 5.21875 -11.71875 
Q 8.109375 -12.5 10.25 -12.5 
Q 13.1875 -12.5 14.9375 -11.515625 
Q 16.703125 -10.546875 17.828125 -8.796875 
Q 18.65625 -7.46875 20.515625 -2.25 
Q 20.75 -1.515625 21.296875 -0.09375 
L 1.609375 51.859375 
L 11.078125 51.859375 
L 21.875 21.828125 
Q 23.96875 16.109375 25.640625 9.8125 
Q 27.15625 15.875 29.25 21.625 
L 40.328125 51.859375 
L 49.125 51.859375 
L 29.390625 -0.875 
Q 26.21875 -9.421875 24.46875 -12.640625 
Q 22.125 -17 19.09375 -19.015625 
Q 16.0625 -21.046875 11.859375 -21.046875 
Q 9.328125 -21.046875 6.203125 -19.96875 
z
" id="ArialMT-79"/>
     <path d="M 6.640625 61.46875 
L 6.640625 71.578125 
L 15.4375 71.578125 
L 15.4375 61.46875 
z
M 6.640625 0 
L 6.640625 51.859375 
L 15.4375 51.859375 
L 15.4375 0 
z
" id="ArialMT-69"/>
    </defs>
    <g style="fill:#262626;" transform="translate(154.478438 19.92)scale(0.12 -0.12)">
     <use xlink:href="#ArialMT-45"/>
     <use x="66.699219" xlink:href="#ArialMT-67"/>
     <use x="122.314453" xlink:href="#ArialMT-67"/>
     <use x="177.929688" xlink:href="#ArialMT-20"/>
     <use x="205.712891" xlink:href="#ArialMT-4c"/>
     <use x="261.328125" xlink:href="#ArialMT-61"/>
     <use x="316.943359" xlink:href="#ArialMT-79"/>
     <use x="366.943359" xlink:href="#ArialMT-69"/>
     <use x="389.160156" xlink:href="#ArialMT-6e"/>
     <use x="444.775391" xlink:href="#ArialMT-67"/>
    </g>
   </g>
  </g>
 </g>
 <defs>
  <clipPath id="p3de8914179">
   <rect height="163.08" width="279" x="45" y="25.92"/>
  </clipPath>
 </defs>
</svg>
