<?xml version="1.0" encoding="utf-8" standalone="no"?>
<!DOCTYPE svg PUBLIC "-//W3C//DTD SVG 1.1//EN"
  "http://www.w3.org/Graphics/SVG/1.1/DTD/svg11.dtd">
<!-- Created with matplotlib (http://matplotlib.org/) -->
<svg height="216pt" version="1.1" viewBox="0 0 360 216" width="360pt" xmlns="http://www.w3.org/2000/svg" xmlns:xlink="http://www.w3.org/1999/xlink">
 <defs>
  <style type="text/css">
*{stroke-linecap:butt;stroke-linejoin:round;}
  </style>
 </defs>
 <g id="figure_1">
  <g id="patch_1">
   <path d="M 0 216 
L 360 216 
L 360 0 
L 0 0 
z
" style="fill:#ffffff;"/>
  </g>
  <g id="axes_1">
   <g id="patch_2">
    <path d="M 45 189 
L 324 189 
L 324 25.92 
L 45 25.92 
z
" style="fill:#eaeaf2;"/>
   </g>
   <g id="matplotlib.axis_1">
    <g id="xtick_1">
     <g id="text_1">
      <!-- 1 -->
      <defs>
       <path d="M 37.25 0 
L 28.46875 0 
L 28.46875 56 
Q 25.296875 52.984375 20.140625 49.953125 
Q 14.984375 46.921875 10.890625 45.40625 
L 10.890625 53.90625 
Q 18.265625 57.375 23.78125 62.296875 
Q 29.296875 67.234375 31.59375 71.875 
L 37.25 71.875 
z
" id="ArialMT-31"/>
      </defs>
      <g style="fill:#262626;" transform="translate(57.441484 206.373594)scale(0.11 -0.11)">
       <use xlink:href="#ArialMT-31"/>
      </g>
     </g>
    </g>
    <g id="xtick_2">
     <g id="text_2">
      <!-- 2 -->
      <defs>
       <path d="M 50.34375 8.453125 
L 50.34375 0 
L 3.03125 0 
Q 2.9375 3.171875 4.046875 6.109375 
Q 5.859375 10.9375 9.828125 15.625 
Q 13.8125 20.3125 21.34375 26.46875 
Q 33.015625 36.03125 37.109375 41.625 
Q 41.21875 47.21875 41.21875 52.203125 
Q 41.21875 57.421875 37.46875 61 
Q 33.734375 64.59375 27.734375 64.59375 
Q 21.390625 64.59375 17.578125 60.78125 
Q 13.765625 56.984375 13.71875 50.25 
L 4.6875 51.171875 
Q 5.609375 61.28125 11.65625 66.578125 
Q 17.71875 71.875 27.9375 71.875 
Q 38.234375 71.875 44.234375 66.15625 
Q 50.25 60.453125 50.25 52 
Q 50.25 47.703125 48.484375 43.546875 
Q 46.734375 39.40625 42.65625 34.8125 
Q 38.578125 30.21875 29.109375 22.21875 
Q 21.1875 15.578125 18.9375 13.203125 
Q 16.703125 10.84375 15.234375 8.453125 
z
" id="ArialMT-32"/>
      </defs>
      <g style="fill:#262626;" transform="translate(88.441484 206.373594)scale(0.11 -0.11)">
       <use xlink:href="#ArialMT-32"/>
      </g>
     </g>
    </g>
    <g id="xtick_3">
     <g id="text_3">
      <!-- 3 -->
      <defs>
       <path d="M 4.203125 18.890625 
L 12.984375 20.0625 
Q 14.5 12.59375 18.140625 9.296875 
Q 21.78125 6 27 6 
Q 33.203125 6 37.46875 10.296875 
Q 41.75 14.59375 41.75 20.953125 
Q 41.75 27 37.796875 30.921875 
Q 33.84375 34.859375 27.734375 34.859375 
Q 25.25 34.859375 21.53125 33.890625 
L 22.515625 41.609375 
Q 23.390625 41.5 23.921875 41.5 
Q 29.546875 41.5 34.03125 44.421875 
Q 38.53125 47.359375 38.53125 53.46875 
Q 38.53125 58.296875 35.25 61.46875 
Q 31.984375 64.65625 26.8125 64.65625 
Q 21.6875 64.65625 18.265625 61.421875 
Q 14.84375 58.203125 13.875 51.765625 
L 5.078125 53.328125 
Q 6.6875 62.15625 12.390625 67.015625 
Q 18.109375 71.875 26.609375 71.875 
Q 32.46875 71.875 37.390625 69.359375 
Q 42.328125 66.84375 44.9375 62.5 
Q 47.5625 58.15625 47.5625 53.265625 
Q 47.5625 48.640625 45.0625 44.828125 
Q 42.578125 41.015625 37.703125 38.765625 
Q 44.046875 37.3125 47.5625 32.6875 
Q 51.078125 28.078125 51.078125 21.140625 
Q 51.078125 11.765625 44.234375 5.25 
Q 37.40625 -1.265625 26.953125 -1.265625 
Q 17.53125 -1.265625 11.296875 4.34375 
Q 5.078125 9.96875 4.203125 18.890625 
z
" id="ArialMT-33"/>
      </defs>
      <g style="fill:#262626;" transform="translate(119.441484 206.373594)scale(0.11 -0.11)">
       <use xlink:href="#ArialMT-33"/>
      </g>
     </g>
    </g>
    <g id="xtick_4">
     <g id="text_4">
      <!-- 4 -->
      <defs>
       <path d="M 32.328125 0 
L 32.328125 17.140625 
L 1.265625 17.140625 
L 1.265625 25.203125 
L 33.9375 71.578125 
L 41.109375 71.578125 
L 41.109375 25.203125 
L 50.78125 25.203125 
L 50.78125 17.140625 
L 41.109375 17.140625 
L 41.109375 0 
z
M 32.328125 25.203125 
L 32.328125 57.46875 
L 9.90625 25.203125 
z
" id="ArialMT-34"/>
      </defs>
      <g style="fill:#262626;" transform="translate(150.441484 206.373594)scale(0.11 -0.11)">
       <use xlink:href="#ArialMT-34"/>
      </g>
     </g>
    </g>
    <g id="xtick_5">
     <g id="text_5">
      <!-- 5 -->
      <defs>
       <path d="M 4.15625 18.75 
L 13.375 19.53125 
Q 14.40625 12.796875 18.140625 9.390625 
Q 21.875 6 27.15625 6 
Q 33.5 6 37.890625 10.78125 
Q 42.28125 15.578125 42.28125 23.484375 
Q 42.28125 31 38.0625 35.34375 
Q 33.84375 39.703125 27 39.703125 
Q 22.75 39.703125 19.328125 37.765625 
Q 15.921875 35.84375 13.96875 32.765625 
L 5.71875 33.84375 
L 12.640625 70.609375 
L 48.25 70.609375 
L 48.25 62.203125 
L 19.671875 62.203125 
L 15.828125 42.96875 
Q 22.265625 47.46875 29.34375 47.46875 
Q 38.71875 47.46875 45.15625 40.96875 
Q 51.609375 34.46875 51.609375 24.265625 
Q 51.609375 14.546875 45.953125 7.46875 
Q 39.0625 -1.21875 27.15625 -1.21875 
Q 17.390625 -1.21875 11.203125 4.25 
Q 5.03125 9.71875 4.15625 18.75 
z
" id="ArialMT-35"/>
      </defs>
      <g style="fill:#262626;" transform="translate(181.441484 206.373594)scale(0.11 -0.11)">
       <use xlink:href="#ArialMT-35"/>
      </g>
     </g>
    </g>
    <g id="xtick_6">
     <g id="text_6">
      <!-- 6 -->
      <defs>
       <path d="M 49.75 54.046875 
L 41.015625 53.375 
Q 39.84375 58.546875 37.703125 60.890625 
Q 34.125 64.65625 28.90625 64.65625 
Q 24.703125 64.65625 21.53125 62.3125 
Q 17.390625 59.28125 14.984375 53.46875 
Q 12.59375 47.65625 12.5 36.921875 
Q 15.671875 41.75 20.265625 44.09375 
Q 24.859375 46.4375 29.890625 46.4375 
Q 38.671875 46.4375 44.84375 39.96875 
Q 51.03125 33.5 51.03125 23.25 
Q 51.03125 16.5 48.125 10.71875 
Q 45.21875 4.9375 40.140625 1.859375 
Q 35.0625 -1.21875 28.609375 -1.21875 
Q 17.625 -1.21875 10.6875 6.859375 
Q 3.765625 14.9375 3.765625 33.5 
Q 3.765625 54.25 11.421875 63.671875 
Q 18.109375 71.875 29.4375 71.875 
Q 37.890625 71.875 43.28125 67.140625 
Q 48.6875 62.40625 49.75 54.046875 
z
M 13.875 23.1875 
Q 13.875 18.65625 15.796875 14.5 
Q 17.71875 10.359375 21.1875 8.171875 
Q 24.65625 6 28.46875 6 
Q 34.03125 6 38.03125 10.484375 
Q 42.046875 14.984375 42.046875 22.703125 
Q 42.046875 30.125 38.078125 34.390625 
Q 34.125 38.671875 28.125 38.671875 
Q 22.171875 38.671875 18.015625 34.390625 
Q 13.875 30.125 13.875 23.1875 
z
" id="ArialMT-36"/>
      </defs>
      <g style="fill:#262626;" transform="translate(212.441484 206.373594)scale(0.11 -0.11)">
       <use xlink:href="#ArialMT-36"/>
      </g>
     </g>
    </g>
    <g id="xtick_7">
     <g id="text_7">
      <!-- 7 -->
      <defs>
       <path d="M 4.734375 62.203125 
L 4.734375 70.65625 
L 51.078125 70.65625 
L 51.078125 63.8125 
Q 44.234375 56.546875 37.515625 44.484375 
Q 30.8125 32.421875 27.15625 19.671875 
Q 24.515625 10.6875 23.78125 0 
L 14.75 0 
Q 14.890625 8.453125 18.0625 20.40625 
Q 21.234375 32.375 27.171875 43.484375 
Q 33.109375 54.59375 39.796875 62.203125 
z
" id="ArialMT-37"/>
      </defs>
      <g style="fill:#262626;" transform="translate(243.441484 206.373594)scale(0.11 -0.11)">
       <use xlink:href="#ArialMT-37"/>
      </g>
     </g>
    </g>
    <g id="xtick_8">
     <g id="text_8">
      <!-- 8 -->
      <defs>
       <path d="M 17.671875 38.8125 
Q 12.203125 40.828125 9.5625 44.53125 
Q 6.9375 48.25 6.9375 53.421875 
Q 6.9375 61.234375 12.546875 66.546875 
Q 18.171875 71.875 27.484375 71.875 
Q 36.859375 71.875 42.578125 66.421875 
Q 48.296875 60.984375 48.296875 53.171875 
Q 48.296875 48.1875 45.671875 44.5 
Q 43.0625 40.828125 37.75 38.8125 
Q 44.34375 36.671875 47.78125 31.875 
Q 51.21875 27.09375 51.21875 20.453125 
Q 51.21875 11.28125 44.71875 5.03125 
Q 38.234375 -1.21875 27.640625 -1.21875 
Q 17.046875 -1.21875 10.546875 5.046875 
Q 4.046875 11.328125 4.046875 20.703125 
Q 4.046875 27.6875 7.59375 32.390625 
Q 11.140625 37.109375 17.671875 38.8125 
z
M 15.921875 53.71875 
Q 15.921875 48.640625 19.1875 45.40625 
Q 22.46875 42.1875 27.6875 42.1875 
Q 32.765625 42.1875 36.015625 45.375 
Q 39.265625 48.578125 39.265625 53.21875 
Q 39.265625 58.0625 35.90625 61.359375 
Q 32.5625 64.65625 27.59375 64.65625 
Q 22.5625 64.65625 19.234375 61.421875 
Q 15.921875 58.203125 15.921875 53.71875 
z
M 13.09375 20.65625 
Q 13.09375 16.890625 14.875 13.375 
Q 16.65625 9.859375 20.171875 7.921875 
Q 23.6875 6 27.734375 6 
Q 34.03125 6 38.125 10.046875 
Q 42.234375 14.109375 42.234375 20.359375 
Q 42.234375 26.703125 38.015625 30.859375 
Q 33.796875 35.015625 27.4375 35.015625 
Q 21.234375 35.015625 17.15625 30.90625 
Q 13.09375 26.8125 13.09375 20.65625 
z
" id="ArialMT-38"/>
      </defs>
      <g style="fill:#262626;" transform="translate(274.441484 206.373594)scale(0.11 -0.11)">
       <use xlink:href="#ArialMT-38"/>
      </g>
     </g>
    </g>
    <g id="xtick_9">
     <g id="text_9">
      <!-- 9 -->
      <defs>
       <path d="M 5.46875 16.546875 
L 13.921875 17.328125 
Q 14.984375 11.375 18.015625 8.6875 
Q 21.046875 6 25.78125 6 
Q 29.828125 6 32.875 7.859375 
Q 35.9375 9.71875 37.890625 12.8125 
Q 39.84375 15.921875 41.15625 21.1875 
Q 42.484375 26.46875 42.484375 31.9375 
Q 42.484375 32.515625 42.4375 33.6875 
Q 39.796875 29.5 35.234375 26.875 
Q 30.671875 24.265625 25.34375 24.265625 
Q 16.453125 24.265625 10.296875 30.703125 
Q 4.15625 37.15625 4.15625 47.703125 
Q 4.15625 58.59375 10.578125 65.234375 
Q 17 71.875 26.65625 71.875 
Q 33.640625 71.875 39.421875 68.109375 
Q 45.21875 64.359375 48.21875 57.390625 
Q 51.21875 50.4375 51.21875 37.25 
Q 51.21875 23.53125 48.234375 15.40625 
Q 45.265625 7.28125 39.375 3.03125 
Q 33.5 -1.21875 25.59375 -1.21875 
Q 17.1875 -1.21875 11.859375 3.4375 
Q 6.546875 8.109375 5.46875 16.546875 
z
M 41.453125 48.140625 
Q 41.453125 55.71875 37.421875 60.15625 
Q 33.40625 64.59375 27.734375 64.59375 
Q 21.875 64.59375 17.53125 59.8125 
Q 13.1875 55.03125 13.1875 47.40625 
Q 13.1875 40.578125 17.3125 36.296875 
Q 21.4375 32.03125 27.484375 32.03125 
Q 33.59375 32.03125 37.515625 36.296875 
Q 41.453125 40.578125 41.453125 48.140625 
z
" id="ArialMT-39"/>
      </defs>
      <g style="fill:#262626;" transform="translate(305.441484 206.373594)scale(0.11 -0.11)">
       <use xlink:href="#ArialMT-39"/>
      </g>
     </g>
    </g>
    <g id="text_10">
     <!-- Batch -->
     <defs>
      <path d="M 7.328125 0 
L 7.328125 71.578125 
L 34.1875 71.578125 
Q 42.390625 71.578125 47.34375 69.40625 
Q 52.296875 67.234375 55.09375 62.71875 
Q 57.90625 58.203125 57.90625 53.265625 
Q 57.90625 48.6875 55.421875 44.625 
Q 52.9375 40.578125 47.90625 38.09375 
Q 54.390625 36.1875 57.875 31.59375 
Q 61.375 27 61.375 20.75 
Q 61.375 15.71875 59.25 11.390625 
Q 57.125 7.078125 54 4.734375 
Q 50.875 2.390625 46.15625 1.1875 
Q 41.453125 0 34.625 0 
z
M 16.796875 41.5 
L 32.28125 41.5 
Q 38.578125 41.5 41.3125 42.328125 
Q 44.921875 43.40625 46.75 45.890625 
Q 48.578125 48.390625 48.578125 52.15625 
Q 48.578125 55.71875 46.875 58.421875 
Q 45.171875 61.140625 41.984375 62.140625 
Q 38.8125 63.140625 31.109375 63.140625 
L 16.796875 63.140625 
z
M 16.796875 8.453125 
L 34.625 8.453125 
Q 39.203125 8.453125 41.0625 8.796875 
Q 44.34375 9.375 46.53125 10.734375 
Q 48.734375 12.109375 50.140625 14.71875 
Q 51.5625 17.328125 51.5625 20.75 
Q 51.5625 24.75 49.515625 27.703125 
Q 47.46875 30.671875 43.828125 31.859375 
Q 40.1875 33.0625 33.34375 33.0625 
L 16.796875 33.0625 
z
" id="ArialMT-42"/>
      <path d="M 40.4375 6.390625 
Q 35.546875 2.25 31.03125 0.53125 
Q 26.515625 -1.171875 21.34375 -1.171875 
Q 12.796875 -1.171875 8.203125 3 
Q 3.609375 7.171875 3.609375 13.671875 
Q 3.609375 17.484375 5.34375 20.625 
Q 7.078125 23.78125 9.890625 25.6875 
Q 12.703125 27.59375 16.21875 28.5625 
Q 18.796875 29.25 24.03125 29.890625 
Q 34.671875 31.15625 39.703125 32.90625 
Q 39.75 34.71875 39.75 35.203125 
Q 39.75 40.578125 37.25 42.78125 
Q 33.890625 45.75 27.25 45.75 
Q 21.046875 45.75 18.09375 43.578125 
Q 15.140625 41.40625 13.71875 35.890625 
L 5.125 37.0625 
Q 6.296875 42.578125 8.984375 45.96875 
Q 11.671875 49.359375 16.75 51.1875 
Q 21.828125 53.03125 28.515625 53.03125 
Q 35.15625 53.03125 39.296875 51.46875 
Q 43.453125 49.90625 45.40625 47.53125 
Q 47.359375 45.171875 48.140625 41.546875 
Q 48.578125 39.3125 48.578125 33.453125 
L 48.578125 21.734375 
Q 48.578125 9.46875 49.140625 6.21875 
Q 49.703125 2.984375 51.375 0 
L 42.1875 0 
Q 40.828125 2.734375 40.4375 6.390625 
z
M 39.703125 26.03125 
Q 34.90625 24.078125 25.34375 22.703125 
Q 19.921875 21.921875 17.671875 20.9375 
Q 15.4375 19.96875 14.203125 18.09375 
Q 12.984375 16.21875 12.984375 13.921875 
Q 12.984375 10.40625 15.640625 8.0625 
Q 18.3125 5.71875 23.4375 5.71875 
Q 28.515625 5.71875 32.46875 7.9375 
Q 36.421875 10.15625 38.28125 14.015625 
Q 39.703125 17 39.703125 22.796875 
z
" id="ArialMT-61"/>
      <path d="M 25.78125 7.859375 
L 27.046875 0.09375 
Q 23.34375 -0.6875 20.40625 -0.6875 
Q 15.625 -0.6875 12.984375 0.828125 
Q 10.359375 2.34375 9.28125 4.8125 
Q 8.203125 7.28125 8.203125 15.1875 
L 8.203125 45.015625 
L 1.765625 45.015625 
L 1.765625 51.859375 
L 8.203125 51.859375 
L 8.203125 64.703125 
L 16.9375 69.96875 
L 16.9375 51.859375 
L 25.78125 51.859375 
L 25.78125 45.015625 
L 16.9375 45.015625 
L 16.9375 14.703125 
Q 16.9375 10.9375 17.40625 9.859375 
Q 17.875 8.796875 18.921875 8.15625 
Q 19.96875 7.515625 21.921875 7.515625 
Q 23.390625 7.515625 25.78125 7.859375 
z
" id="ArialMT-74"/>
      <path d="M 40.4375 19 
L 49.078125 17.875 
Q 47.65625 8.9375 41.8125 3.875 
Q 35.984375 -1.171875 27.484375 -1.171875 
Q 16.84375 -1.171875 10.375 5.78125 
Q 3.90625 12.75 3.90625 25.734375 
Q 3.90625 34.125 6.6875 40.421875 
Q 9.46875 46.734375 15.15625 49.875 
Q 20.84375 53.03125 27.546875 53.03125 
Q 35.984375 53.03125 41.359375 48.75 
Q 46.734375 44.484375 48.25 36.625 
L 39.703125 35.296875 
Q 38.484375 40.53125 35.375 43.15625 
Q 32.28125 45.796875 27.875 45.796875 
Q 21.234375 45.796875 17.078125 41.03125 
Q 12.9375 36.28125 12.9375 25.984375 
Q 12.9375 15.53125 16.9375 10.796875 
Q 20.953125 6.0625 27.390625 6.0625 
Q 32.5625 6.0625 36.03125 9.234375 
Q 39.5 12.40625 40.4375 19 
z
" id="ArialMT-63"/>
      <path d="M 6.59375 0 
L 6.59375 71.578125 
L 15.375 71.578125 
L 15.375 45.90625 
Q 21.53125 53.03125 30.90625 53.03125 
Q 36.671875 53.03125 40.921875 50.75 
Q 45.171875 48.484375 47 44.484375 
Q 48.828125 40.484375 48.828125 32.859375 
L 48.828125 0 
L 40.046875 0 
L 40.046875 32.859375 
Q 40.046875 39.453125 37.1875 42.453125 
Q 34.328125 45.453125 29.109375 45.453125 
Q 25.203125 45.453125 21.75 43.421875 
Q 18.3125 41.40625 16.84375 37.9375 
Q 15.375 34.46875 15.375 28.375 
L 15.375 0 
z
" id="ArialMT-68"/>
     </defs>
     <g style="fill:#262626;" transform="translate(169.157813 221.149219)scale(0.12 -0.12)">
      <use xlink:href="#ArialMT-42"/>
      <use x="66.699219" xlink:href="#ArialMT-61"/>
      <use x="122.314453" xlink:href="#ArialMT-74"/>
      <use x="150.097656" xlink:href="#ArialMT-63"/>
      <use x="200.097656" xlink:href="#ArialMT-68"/>
     </g>
    </g>
   </g>
   <g id="matplotlib.axis_2">
    <g id="ytick_1">
     <g id="line2d_1">
      <path clip-path="url(#p7781256872)" d="M 45 166.514911 
L 324 166.514911 
" style="fill:none;stroke:#ffffff;stroke-linecap:round;"/>
     </g>
     <g id="text_11">
      <!-- 100 -->
      <defs>
       <path d="M 4.15625 35.296875 
Q 4.15625 48 6.765625 55.734375 
Q 9.375 63.484375 14.515625 67.671875 
Q 19.671875 71.875 27.484375 71.875 
Q 33.25 71.875 37.59375 69.546875 
Q 41.9375 67.234375 44.765625 62.859375 
Q 47.609375 58.5 49.21875 52.21875 
Q 50.828125 45.953125 50.828125 35.296875 
Q 50.828125 22.703125 48.234375 14.96875 
Q 45.65625 7.234375 40.5 3 
Q 35.359375 -1.21875 27.484375 -1.21875 
Q 17.140625 -1.21875 11.234375 6.203125 
Q 4.15625 15.140625 4.15625 35.296875 
z
M 13.1875 35.296875 
Q 13.1875 17.671875 17.3125 11.828125 
Q 21.4375 6 27.484375 6 
Q 33.546875 6 37.671875 11.859375 
Q 41.796875 17.71875 41.796875 35.296875 
Q 41.796875 52.984375 37.671875 58.78125 
Q 33.546875 64.59375 27.390625 64.59375 
Q 21.34375 64.59375 17.71875 59.46875 
Q 13.1875 52.9375 13.1875 35.296875 
z
" id="ArialMT-30"/>
      </defs>
      <g style="fill:#262626;" transform="translate(17.148906 170.451708)scale(0.11 -0.11)">
       <use xlink:href="#ArialMT-31"/>
       <use x="55.615234" xlink:href="#ArialMT-30"/>
       <use x="111.230469" xlink:href="#ArialMT-30"/>
      </g>
     </g>
    </g>
    <g id="ytick_2">
     <g id="line2d_2">
      <path clip-path="url(#p7781256872)" d="M 45 126.779557 
L 324 126.779557 
" style="fill:none;stroke:#ffffff;stroke-linecap:round;"/>
     </g>
     <g id="text_12">
      <!-- 200 -->
      <g style="fill:#262626;" transform="translate(17.148906 130.716354)scale(0.11 -0.11)">
       <use xlink:href="#ArialMT-32"/>
       <use x="55.615234" xlink:href="#ArialMT-30"/>
       <use x="111.230469" xlink:href="#ArialMT-30"/>
      </g>
     </g>
    </g>
    <g id="ytick_3">
     <g id="line2d_3">
      <path clip-path="url(#p7781256872)" d="M 45 87.044203 
L 324 87.044203 
" style="fill:none;stroke:#ffffff;stroke-linecap:round;"/>
     </g>
     <g id="text_13">
      <!-- 300 -->
      <g style="fill:#262626;" transform="translate(17.148906 90.981)scale(0.11 -0.11)">
       <use xlink:href="#ArialMT-33"/>
       <use x="55.615234" xlink:href="#ArialMT-30"/>
       <use x="111.230469" xlink:href="#ArialMT-30"/>
      </g>
     </g>
    </g>
    <g id="ytick_4">
     <g id="line2d_4">
      <path clip-path="url(#p7781256872)" d="M 45 47.308849 
L 324 47.308849 
" style="fill:none;stroke:#ffffff;stroke-linecap:round;"/>
     </g>
     <g id="text_14">
      <!-- 400 -->
      <g style="fill:#262626;" transform="translate(17.148906 51.245646)scale(0.11 -0.11)">
       <use xlink:href="#ArialMT-34"/>
       <use x="55.615234" xlink:href="#ArialMT-30"/>
       <use x="111.230469" xlink:href="#ArialMT-30"/>
      </g>
     </g>
    </g>
    <g id="text_15">
     <!-- Count -->
     <defs>
      <path d="M 58.796875 25.09375 
L 68.265625 22.703125 
Q 65.28125 11.03125 57.546875 4.90625 
Q 49.8125 -1.21875 38.625 -1.21875 
Q 27.046875 -1.21875 19.796875 3.484375 
Q 12.546875 8.203125 8.765625 17.140625 
Q 4.984375 26.078125 4.984375 36.328125 
Q 4.984375 47.515625 9.25 55.828125 
Q 13.53125 64.15625 21.40625 68.46875 
Q 29.296875 72.796875 38.765625 72.796875 
Q 49.515625 72.796875 56.828125 67.328125 
Q 64.15625 61.859375 67.046875 51.953125 
L 57.71875 49.75 
Q 55.21875 57.5625 50.484375 61.125 
Q 45.75 64.703125 38.578125 64.703125 
Q 30.328125 64.703125 24.78125 60.734375 
Q 19.234375 56.78125 16.984375 50.109375 
Q 14.75 43.453125 14.75 36.375 
Q 14.75 27.25 17.40625 20.4375 
Q 20.0625 13.625 25.671875 10.25 
Q 31.296875 6.890625 37.84375 6.890625 
Q 45.796875 6.890625 51.3125 11.46875 
Q 56.84375 16.0625 58.796875 25.09375 
z
" id="ArialMT-43"/>
      <path d="M 3.328125 25.921875 
Q 3.328125 40.328125 11.328125 47.265625 
Q 18.015625 53.03125 27.640625 53.03125 
Q 38.328125 53.03125 45.109375 46.015625 
Q 51.90625 39.015625 51.90625 26.65625 
Q 51.90625 16.65625 48.90625 10.90625 
Q 45.90625 5.171875 40.15625 2 
Q 34.421875 -1.171875 27.640625 -1.171875 
Q 16.75 -1.171875 10.03125 5.8125 
Q 3.328125 12.796875 3.328125 25.921875 
z
M 12.359375 25.921875 
Q 12.359375 15.96875 16.703125 11.015625 
Q 21.046875 6.0625 27.640625 6.0625 
Q 34.1875 6.0625 38.53125 11.03125 
Q 42.875 16.015625 42.875 26.21875 
Q 42.875 35.84375 38.5 40.796875 
Q 34.125 45.75 27.640625 45.75 
Q 21.046875 45.75 16.703125 40.8125 
Q 12.359375 35.890625 12.359375 25.921875 
z
" id="ArialMT-6f"/>
      <path d="M 40.578125 0 
L 40.578125 7.625 
Q 34.515625 -1.171875 24.125 -1.171875 
Q 19.53125 -1.171875 15.546875 0.578125 
Q 11.578125 2.34375 9.640625 5 
Q 7.71875 7.671875 6.9375 11.53125 
Q 6.390625 14.109375 6.390625 19.734375 
L 6.390625 51.859375 
L 15.1875 51.859375 
L 15.1875 23.09375 
Q 15.1875 16.21875 15.71875 13.8125 
Q 16.546875 10.359375 19.234375 8.375 
Q 21.921875 6.390625 25.875 6.390625 
Q 29.828125 6.390625 33.296875 8.421875 
Q 36.765625 10.453125 38.203125 13.9375 
Q 39.65625 17.4375 39.65625 24.078125 
L 39.65625 51.859375 
L 48.4375 51.859375 
L 48.4375 0 
z
" id="ArialMT-75"/>
      <path d="M 6.59375 0 
L 6.59375 51.859375 
L 14.5 51.859375 
L 14.5 44.484375 
Q 20.21875 53.03125 31 53.03125 
Q 35.6875 53.03125 39.625 51.34375 
Q 43.5625 49.65625 45.515625 46.921875 
Q 47.46875 44.1875 48.25 40.4375 
Q 48.734375 37.984375 48.734375 31.890625 
L 48.734375 0 
L 39.9375 0 
L 39.9375 31.546875 
Q 39.9375 36.921875 38.90625 39.578125 
Q 37.890625 42.234375 35.28125 43.8125 
Q 32.671875 45.40625 29.15625 45.40625 
Q 23.53125 45.40625 19.453125 41.84375 
Q 15.375 38.28125 15.375 28.328125 
L 15.375 0 
z
" id="ArialMT-6e"/>
     </defs>
     <g style="fill:#262626;" transform="translate(10.763906 123.469687)rotate(-90)scale(0.12 -0.12)">
      <use xlink:href="#ArialMT-43"/>
      <use x="72.216797" xlink:href="#ArialMT-6f"/>
      <use x="127.832031" xlink:href="#ArialMT-75"/>
      <use x="183.447266" xlink:href="#ArialMT-6e"/>
      <use x="239.0625" xlink:href="#ArialMT-74"/>
     </g>
    </g>
   </g>
   <g id="PolyCollection_1">
    <defs>
     <path d="M 60.836459 -57.524656 
L 60.163541 -57.524656 
L 60.106608 -58.433891 
L 60.042384 -59.343126 
L 59.970378 -60.252361 
L 59.890142 -61.161596 
L 59.801287 -62.070831 
L 59.703499 -62.980066 
L 59.596554 -63.889301 
L 59.480335 -64.798536 
L 59.354844 -65.707771 
L 59.220214 -66.617006 
L 59.076722 -67.526241 
L 58.924794 -68.435476 
L 58.765011 -69.344711 
L 58.598109 -70.253946 
L 58.424975 -71.163181 
L 58.246639 -72.072415 
L 58.064263 -72.98165 
L 57.879128 -73.890885 
L 57.692606 -74.80012 
L 57.506145 -75.709355 
L 57.321237 -76.61859 
L 57.139391 -77.527825 
L 56.962105 -78.43706 
L 56.790833 -79.346295 
L 56.626954 -80.25553 
L 56.471747 -81.164765 
L 56.32636 -82.074 
L 56.191792 -82.983235 
L 56.068869 -83.89247 
L 55.958231 -84.801705 
L 55.860323 -85.71094 
L 55.775387 -86.620175 
L 55.703467 -87.52941 
L 55.644414 -88.438645 
L 55.597892 -89.34788 
L 55.5634 -90.257115 
L 55.540286 -91.166349 
L 55.527774 -92.075584 
L 55.524985 -92.984819 
L 55.530965 -93.894054 
L 55.544714 -94.803289 
L 55.565212 -95.712524 
L 55.591447 -96.621759 
L 55.622437 -97.530994 
L 55.65726 -98.440229 
L 55.695068 -99.349464 
L 55.735109 -100.258699 
L 55.77674 -101.167934 
L 55.819436 -102.077169 
L 55.862802 -102.986404 
L 55.906571 -103.895639 
L 55.950608 -104.804874 
L 55.994903 -105.714109 
L 56.039567 -106.623344 
L 56.08482 -107.532579 
L 56.13098 -108.441814 
L 56.178447 -109.351049 
L 56.227689 -110.260283 
L 56.27922 -111.169518 
L 56.333584 -112.078753 
L 56.391336 -112.987988 
L 56.453021 -113.897223 
L 56.519153 -114.806458 
L 56.590203 -115.715693 
L 56.666578 -116.624928 
L 56.748607 -117.534163 
L 56.836527 -118.443398 
L 56.930475 -119.352633 
L 57.030479 -120.261868 
L 57.136456 -121.171103 
L 57.248204 -122.080338 
L 57.36541 -122.989573 
L 57.487652 -123.898808 
L 57.614405 -124.808043 
L 57.745052 -125.717278 
L 57.878898 -126.626513 
L 58.015179 -127.535748 
L 58.153084 -128.444983 
L 58.291768 -129.354218 
L 58.43037 -130.263452 
L 58.568031 -131.172687 
L 58.70391 -132.081922 
L 58.8372 -132.991157 
L 58.967145 -133.900392 
L 59.09305 -134.809627 
L 59.214291 -135.718862 
L 59.330329 -136.628097 
L 59.440709 -137.537332 
L 59.545071 -138.446567 
L 59.643144 -139.355802 
L 59.734751 -140.265037 
L 59.819804 -141.174272 
L 59.898296 -142.083507 
L 59.9703 -142.992742 
L 60.035958 -143.901977 
L 60.095472 -144.811212 
L 60.149096 -145.720447 
L 60.197126 -146.629682 
L 60.239891 -147.538917 
L 60.760109 -147.538917 
L 60.760109 -147.538917 
L 60.802874 -146.629682 
L 60.850904 -145.720447 
L 60.904528 -144.811212 
L 60.964042 -143.901977 
L 61.0297 -142.992742 
L 61.101704 -142.083507 
L 61.180196 -141.174272 
L 61.265249 -140.265037 
L 61.356856 -139.355802 
L 61.454929 -138.446567 
L 61.559291 -137.537332 
L 61.669671 -136.628097 
L 61.785709 -135.718862 
L 61.90695 -134.809627 
L 62.032855 -133.900392 
L 62.1628 -132.991157 
L 62.29609 -132.081922 
L 62.431969 -131.172687 
L 62.56963 -130.263452 
L 62.708232 -129.354218 
L 62.846916 -128.444983 
L 62.984821 -127.535748 
L 63.121102 -126.626513 
L 63.254948 -125.717278 
L 63.385595 -124.808043 
L 63.512348 -123.898808 
L 63.63459 -122.989573 
L 63.751796 -122.080338 
L 63.863544 -121.171103 
L 63.969521 -120.261868 
L 64.069525 -119.352633 
L 64.163473 -118.443398 
L 64.251393 -117.534163 
L 64.333422 -116.624928 
L 64.409797 -115.715693 
L 64.480847 -114.806458 
L 64.546979 -113.897223 
L 64.608664 -112.987988 
L 64.666416 -112.078753 
L 64.72078 -111.169518 
L 64.772311 -110.260283 
L 64.821553 -109.351049 
L 64.86902 -108.441814 
L 64.91518 -107.532579 
L 64.960433 -106.623344 
L 65.005097 -105.714109 
L 65.049392 -104.804874 
L 65.093429 -103.895639 
L 65.137198 -102.986404 
L 65.180564 -102.077169 
L 65.22326 -101.167934 
L 65.264891 -100.258699 
L 65.304932 -99.349464 
L 65.34274 -98.440229 
L 65.377563 -97.530994 
L 65.408553 -96.621759 
L 65.434788 -95.712524 
L 65.455286 -94.803289 
L 65.469035 -93.894054 
L 65.475015 -92.984819 
L 65.472226 -92.075584 
L 65.459714 -91.166349 
L 65.4366 -90.257115 
L 65.402108 -89.34788 
L 65.355586 -88.438645 
L 65.296533 -87.52941 
L 65.224613 -86.620175 
L 65.139677 -85.71094 
L 65.041769 -84.801705 
L 64.931131 -83.89247 
L 64.808208 -82.983235 
L 64.67364 -82.074 
L 64.528253 -81.164765 
L 64.373046 -80.25553 
L 64.209167 -79.346295 
L 64.037895 -78.43706 
L 63.860609 -77.527825 
L 63.678763 -76.61859 
L 63.493855 -75.709355 
L 63.307394 -74.80012 
L 63.120872 -73.890885 
L 62.935737 -72.98165 
L 62.753361 -72.072415 
L 62.575025 -71.163181 
L 62.401891 -70.253946 
L 62.234989 -69.344711 
L 62.075206 -68.435476 
L 61.923278 -67.526241 
L 61.779786 -66.617006 
L 61.645156 -65.707771 
L 61.519665 -64.798536 
L 61.403446 -63.889301 
L 61.296501 -62.980066 
L 61.198713 -62.070831 
L 61.109858 -61.161596 
L 61.029622 -60.252361 
L 60.957616 -59.343126 
L 60.893392 -58.433891 
L 60.836459 -57.524656 
z
" id="mb3b9c70a2e" style="stroke:#7f7f7f;stroke-width:1.5;"/>
    </defs>
    <g clip-path="url(#p7781256872)">
     <use style="fill:#d3d3d3;stroke:#7f7f7f;stroke-width:1.5;" x="0" xlink:href="#mb3b9c70a2e" y="216"/>
    </g>
   </g>
   <g id="PolyCollection_2">
    <defs>
     <path d="M 92.038367 -57.723297 
L 90.961633 -57.723297 
L 90.867431 -58.231166 
L 90.760707 -58.739034 
L 90.640556 -59.246903 
L 90.506138 -59.754771 
L 90.356702 -60.26264 
L 90.191619 -60.770508 
L 90.010399 -61.278377 
L 89.812722 -61.786245 
L 89.598459 -62.294114 
L 89.36769 -62.801982 
L 89.120719 -63.30985 
L 88.85809 -63.817719 
L 88.580586 -64.325587 
L 88.289231 -64.833456 
L 87.985282 -65.341324 
L 87.670216 -65.849193 
L 87.345711 -66.357061 
L 87.013616 -66.86493 
L 86.675925 -67.372798 
L 86.334741 -67.880667 
L 85.992238 -68.388535 
L 85.65062 -68.896404 
L 85.31209 -69.404272 
L 84.978805 -69.91214 
L 84.652849 -70.420009 
L 84.336199 -70.927877 
L 84.030703 -71.435746 
L 83.738066 -71.943614 
L 83.45983 -72.451483 
L 83.197379 -72.959351 
L 82.951931 -73.46722 
L 82.724549 -73.975088 
L 82.516149 -74.482957 
L 82.327514 -74.990825 
L 82.159303 -75.498693 
L 82.01207 -76.006562 
L 81.886273 -76.51443 
L 81.782282 -77.022299 
L 81.700382 -77.530167 
L 81.640775 -78.038036 
L 81.603575 -78.545904 
L 81.588793 -79.053773 
L 81.596332 -79.561641 
L 81.625963 -80.06951 
L 81.67731 -80.577378 
L 81.749833 -81.085247 
L 81.842814 -81.593115 
L 81.955343 -82.100983 
L 82.086315 -82.608852 
L 82.234432 -83.11672 
L 82.398215 -83.624589 
L 82.576018 -84.132457 
L 82.766059 -84.640326 
L 82.966455 -85.148194 
L 83.175264 -85.656063 
L 83.390534 -86.163931 
L 83.610349 -86.6718 
L 83.832884 -87.179668 
L 84.056452 -87.687536 
L 84.279551 -88.195405 
L 84.500897 -88.703273 
L 84.71946 -89.211142 
L 84.934475 -89.71901 
L 85.145456 -90.226879 
L 85.352188 -90.734747 
L 85.554709 -91.242616 
L 85.753288 -91.750484 
L 85.948386 -92.258353 
L 86.140611 -92.766221 
L 86.330672 -93.27409 
L 86.519324 -93.781958 
L 86.707323 -94.289826 
L 86.895367 -94.797695 
L 87.084061 -95.305563 
L 87.273873 -95.813432 
L 87.465109 -96.3213 
L 87.657888 -96.829169 
L 87.852137 -97.337037 
L 88.047586 -97.844906 
L 88.243779 -98.352774 
L 88.440094 -98.860643 
L 88.635761 -99.368511 
L 88.829899 -99.876379 
L 89.021544 -100.384248 
L 89.20969 -100.892116 
L 89.39332 -101.399985 
L 89.571446 -101.907853 
L 89.743135 -102.415722 
L 89.907542 -102.92359 
L 90.06393 -103.431459 
L 90.211687 -103.939327 
L 90.35034 -104.447196 
L 90.479558 -104.955064 
L 90.599155 -105.462933 
L 90.709085 -105.970801 
L 90.809434 -106.478669 
L 90.900405 -106.986538 
L 90.98231 -107.494406 
L 91.055547 -108.002275 
L 91.944453 -108.002275 
L 91.944453 -108.002275 
L 92.01769 -107.494406 
L 92.099595 -106.986538 
L 92.190566 -106.478669 
L 92.290915 -105.970801 
L 92.400845 -105.462933 
L 92.520442 -104.955064 
L 92.64966 -104.447196 
L 92.788313 -103.939327 
L 92.93607 -103.431459 
L 93.092458 -102.92359 
L 93.256865 -102.415722 
L 93.428554 -101.907853 
L 93.60668 -101.399985 
L 93.79031 -100.892116 
L 93.978456 -100.384248 
L 94.170101 -99.876379 
L 94.364239 -99.368511 
L 94.559906 -98.860643 
L 94.756221 -98.352774 
L 94.952414 -97.844906 
L 95.147863 -97.337037 
L 95.342112 -96.829169 
L 95.534891 -96.3213 
L 95.726127 -95.813432 
L 95.915939 -95.305563 
L 96.104633 -94.797695 
L 96.292677 -94.289826 
L 96.480676 -93.781958 
L 96.669328 -93.27409 
L 96.859389 -92.766221 
L 97.051614 -92.258353 
L 97.246712 -91.750484 
L 97.445291 -91.242616 
L 97.647812 -90.734747 
L 97.854544 -90.226879 
L 98.065525 -89.71901 
L 98.28054 -89.211142 
L 98.499103 -88.703273 
L 98.720449 -88.195405 
L 98.943548 -87.687536 
L 99.167116 -87.179668 
L 99.389651 -86.6718 
L 99.609466 -86.163931 
L 99.824736 -85.656063 
L 100.033545 -85.148194 
L 100.233941 -84.640326 
L 100.423982 -84.132457 
L 100.601785 -83.624589 
L 100.765568 -83.11672 
L 100.913685 -82.608852 
L 101.044657 -82.100983 
L 101.157186 -81.593115 
L 101.250167 -81.085247 
L 101.32269 -80.577378 
L 101.374037 -80.06951 
L 101.403668 -79.561641 
L 101.411207 -79.053773 
L 101.396425 -78.545904 
L 101.359225 -78.038036 
L 101.299618 -77.530167 
L 101.217718 -77.022299 
L 101.113727 -76.51443 
L 100.98793 -76.006562 
L 100.840697 -75.498693 
L 100.672486 -74.990825 
L 100.483851 -74.482957 
L 100.275451 -73.975088 
L 100.048069 -73.46722 
L 99.802621 -72.959351 
L 99.54017 -72.451483 
L 99.261934 -71.943614 
L 98.969297 -71.435746 
L 98.663801 -70.927877 
L 98.347151 -70.420009 
L 98.021195 -69.91214 
L 97.68791 -69.404272 
L 97.34938 -68.896404 
L 97.007762 -68.388535 
L 96.665259 -67.880667 
L 96.324075 -67.372798 
L 95.986384 -66.86493 
L 95.654289 -66.357061 
L 95.329784 -65.849193 
L 95.014718 -65.341324 
L 94.710769 -64.833456 
L 94.419414 -64.325587 
L 94.14191 -63.817719 
L 93.879281 -63.30985 
L 93.63231 -62.801982 
L 93.401541 -62.294114 
L 93.187278 -61.786245 
L 92.989601 -61.278377 
L 92.808381 -60.770508 
L 92.643298 -60.26264 
L 92.493862 -59.754771 
L 92.359444 -59.246903 
L 92.239293 -58.739034 
L 92.132569 -58.231166 
L 92.038367 -57.723297 
z
" id="mf90f40479a" style="stroke:#7f7f7f;stroke-width:1.5;"/>
    </defs>
    <g clip-path="url(#p7781256872)">
     <use style="fill:#d3d3d3;stroke:#7f7f7f;stroke-width:1.5;" x="0" xlink:href="#mf90f40479a" y="216"/>
    </g>
   </g>
   <g id="PolyCollection_3">
    <defs>
     <path d="M 122.847256 -52.372409 
L 122.152744 -52.372409 
L 122.093963 -53.177019 
L 122.027457 -53.981629 
L 121.952628 -54.786238 
L 121.8689 -55.590848 
L 121.77574 -56.395458 
L 121.672669 -57.200068 
L 121.559282 -58.004678 
L 121.435263 -58.809287 
L 121.300405 -59.613897 
L 121.154624 -60.418507 
L 120.99798 -61.223117 
L 120.830686 -62.027727 
L 120.653127 -62.832336 
L 120.465865 -63.636946 
L 120.269653 -64.441556 
L 120.065432 -65.246166 
L 119.854332 -66.050776 
L 119.637672 -66.855385 
L 119.416942 -67.659995 
L 119.193794 -68.464605 
L 118.970019 -69.269215 
L 118.747523 -70.073825 
L 118.528294 -70.878434 
L 118.314373 -71.683044 
L 118.107811 -72.487654 
L 117.910633 -73.292264 
L 117.72479 -74.096874 
L 117.552121 -74.901484 
L 117.394308 -75.706093 
L 117.252835 -76.510703 
L 117.128951 -77.315313 
L 117.023634 -78.119923 
L 116.937566 -78.924533 
L 116.871107 -79.729142 
L 116.824289 -80.533752 
L 116.796799 -81.338362 
L 116.787995 -82.142972 
L 116.796906 -82.947582 
L 116.822265 -83.752191 
L 116.862531 -84.556801 
L 116.915929 -85.361411 
L 116.980498 -86.166021 
L 117.054141 -86.970631 
L 117.13468 -87.77524 
L 117.219913 -88.57985 
L 117.307677 -89.38446 
L 117.395904 -90.18907 
L 117.482676 -90.99368 
L 117.566279 -91.798289 
L 117.645245 -92.602899 
L 117.71839 -93.407509 
L 117.784846 -94.212119 
L 117.844072 -95.016729 
L 117.89587 -95.821338 
L 117.940376 -96.625948 
L 117.978054 -97.430558 
L 118.009665 -98.235168 
L 118.036241 -99.039778 
L 118.059045 -99.844387 
L 118.079522 -100.648997 
L 118.099248 -101.453607 
L 118.119879 -102.258217 
L 118.143092 -103.062827 
L 118.170532 -103.867437 
L 118.203762 -104.672046 
L 118.24421 -105.476656 
L 118.29313 -106.281266 
L 118.351566 -107.085876 
L 118.420321 -107.890486 
L 118.499941 -108.695095 
L 118.590704 -109.499705 
L 118.692612 -110.304315 
L 118.805403 -111.108925 
L 118.928563 -111.913535 
L 119.061345 -112.718144 
L 119.202798 -113.522754 
L 119.351795 -114.327364 
L 119.50707 -115.131974 
L 119.667256 -115.936584 
L 119.830921 -116.741193 
L 119.996602 -117.545803 
L 120.162848 -118.350413 
L 120.328246 -119.155023 
L 120.491455 -119.959633 
L 120.651229 -120.764242 
L 120.806441 -121.568852 
L 120.956095 -122.373462 
L 121.09934 -123.178072 
L 121.235477 -123.982682 
L 121.363959 -124.787291 
L 121.484391 -125.591901 
L 121.596522 -126.396511 
L 121.700237 -127.201121 
L 121.795548 -128.005731 
L 121.882577 -128.810341 
L 121.961542 -129.61495 
L 122.032746 -130.41956 
L 122.096556 -131.22417 
L 122.153391 -132.02878 
L 122.846609 -132.02878 
L 122.846609 -132.02878 
L 122.903444 -131.22417 
L 122.967254 -130.41956 
L 123.038458 -129.61495 
L 123.117423 -128.810341 
L 123.204452 -128.005731 
L 123.299763 -127.201121 
L 123.403478 -126.396511 
L 123.515609 -125.591901 
L 123.636041 -124.787291 
L 123.764523 -123.982682 
L 123.90066 -123.178072 
L 124.043905 -122.373462 
L 124.193559 -121.568852 
L 124.348771 -120.764242 
L 124.508545 -119.959633 
L 124.671754 -119.155023 
L 124.837152 -118.350413 
L 125.003398 -117.545803 
L 125.169079 -116.741193 
L 125.332744 -115.936584 
L 125.49293 -115.131974 
L 125.648205 -114.327364 
L 125.797202 -113.522754 
L 125.938655 -112.718144 
L 126.071437 -111.913535 
L 126.194597 -111.108925 
L 126.307388 -110.304315 
L 126.409296 -109.499705 
L 126.500059 -108.695095 
L 126.579679 -107.890486 
L 126.648434 -107.085876 
L 126.70687 -106.281266 
L 126.75579 -105.476656 
L 126.796238 -104.672046 
L 126.829468 -103.867437 
L 126.856908 -103.062827 
L 126.880121 -102.258217 
L 126.900752 -101.453607 
L 126.920478 -100.648997 
L 126.940955 -99.844387 
L 126.963759 -99.039778 
L 126.990335 -98.235168 
L 127.021946 -97.430558 
L 127.059624 -96.625948 
L 127.10413 -95.821338 
L 127.155928 -95.016729 
L 127.215154 -94.212119 
L 127.28161 -93.407509 
L 127.354755 -92.602899 
L 127.433721 -91.798289 
L 127.517324 -90.99368 
L 127.604096 -90.18907 
L 127.692323 -89.38446 
L 127.780087 -88.57985 
L 127.86532 -87.77524 
L 127.945859 -86.970631 
L 128.019502 -86.166021 
L 128.084071 -85.361411 
L 128.137469 -84.556801 
L 128.177735 -83.752191 
L 128.203094 -82.947582 
L 128.212005 -82.142972 
L 128.203201 -81.338362 
L 128.175711 -80.533752 
L 128.128893 -79.729142 
L 128.062434 -78.924533 
L 127.976366 -78.119923 
L 127.871049 -77.315313 
L 127.747165 -76.510703 
L 127.605692 -75.706093 
L 127.447879 -74.901484 
L 127.27521 -74.096874 
L 127.089367 -73.292264 
L 126.892189 -72.487654 
L 126.685627 -71.683044 
L 126.471706 -70.878434 
L 126.252477 -70.073825 
L 126.029981 -69.269215 
L 125.806206 -68.464605 
L 125.583058 -67.659995 
L 125.362328 -66.855385 
L 125.145668 -66.050776 
L 124.934568 -65.246166 
L 124.730347 -64.441556 
L 124.534135 -63.636946 
L 124.346873 -62.832336 
L 124.169314 -62.027727 
L 124.00202 -61.223117 
L 123.845376 -60.418507 
L 123.699595 -59.613897 
L 123.564737 -58.809287 
L 123.440718 -58.004678 
L 123.327331 -57.200068 
L 123.22426 -56.395458 
L 123.1311 -55.590848 
L 123.047372 -54.786238 
L 122.972543 -53.981629 
L 122.906037 -53.177019 
L 122.847256 -52.372409 
z
" id="m9f401f40d1" style="stroke:#7f7f7f;stroke-width:1.5;"/>
    </defs>
    <g clip-path="url(#p7781256872)">
     <use style="fill:#d3d3d3;stroke:#7f7f7f;stroke-width:1.5;" x="0" xlink:href="#m9f401f40d1" y="216"/>
    </g>
   </g>
   <g id="PolyCollection_4">
    <defs>
     <path d="M 153.810179 -65.066248 
L 153.189821 -65.066248 
L 153.135624 -65.847209 
L 153.074327 -66.628171 
L 153.005436 -67.409132 
L 152.928493 -68.190094 
L 152.843082 -68.971056 
L 152.748845 -69.752017 
L 152.645485 -70.532979 
L 152.532776 -71.313941 
L 152.410568 -72.094902 
L 152.278786 -72.875864 
L 152.13744 -73.656825 
L 151.986611 -74.437787 
L 151.826461 -75.218749 
L 151.657218 -75.99971 
L 151.479176 -76.780672 
L 151.292685 -77.561633 
L 151.098148 -78.342595 
L 150.896016 -79.123557 
L 150.686785 -79.904518 
L 150.470993 -80.68548 
L 150.249229 -81.466441 
L 150.022135 -82.247403 
L 149.790418 -83.028365 
L 149.554863 -83.809326 
L 149.316347 -84.590288 
L 149.07586 -85.371249 
L 148.83452 -86.152211 
L 148.593589 -86.933173 
L 148.354488 -87.714134 
L 148.118801 -88.495096 
L 147.888282 -89.276057 
L 147.664846 -90.057019 
L 147.45055 -90.837981 
L 147.247574 -91.618942 
L 147.058178 -92.399904 
L 146.88466 -93.180865 
L 146.729299 -93.961827 
L 146.594295 -94.742789 
L 146.481699 -95.52375 
L 146.393347 -96.304712 
L 146.330787 -97.085673 
L 146.29522 -97.866635 
L 146.287437 -98.647597 
L 146.307778 -99.428558 
L 146.356094 -100.20952 
L 146.431732 -100.990481 
L 146.533534 -101.771443 
L 146.659852 -102.552405 
L 146.808583 -103.333366 
L 146.977223 -104.114328 
L 147.162931 -104.895289 
L 147.362611 -105.676251 
L 147.572998 -106.457213 
L 147.790756 -107.238174 
L 148.012571 -108.019136 
L 148.235253 -108.800097 
L 148.455818 -109.581059 
L 148.671574 -110.362021 
L 148.880189 -111.142982 
L 149.07974 -111.923944 
L 149.268755 -112.704905 
L 149.446229 -113.485867 
L 149.611626 -114.266829 
L 149.764863 -115.04779 
L 149.906278 -115.828752 
L 150.036585 -116.609713 
L 150.156815 -117.390675 
L 150.268251 -118.171637 
L 150.372354 -118.952598 
L 150.470694 -119.73356 
L 150.564872 -120.514521 
L 150.656457 -121.295483 
L 150.746914 -122.076445 
L 150.837562 -122.857406 
L 150.92952 -123.638368 
L 151.023681 -124.419329 
L 151.12069 -125.200291 
L 151.220934 -125.981253 
L 151.324548 -126.762214 
L 151.431424 -127.543176 
L 151.541238 -128.324138 
L 151.653471 -129.105099 
L 151.767452 -129.886061 
L 151.882391 -130.667022 
L 151.997417 -131.447984 
L 152.11162 -132.228946 
L 152.224084 -133.009907 
L 152.333925 -133.790869 
L 152.440315 -134.57183 
L 152.542509 -135.352792 
L 152.639863 -136.133754 
L 152.731848 -136.914715 
L 152.818054 -137.695677 
L 152.898195 -138.476638 
L 152.972104 -139.2576 
L 153.03973 -140.038562 
L 153.101125 -140.819523 
L 153.156434 -141.600485 
L 153.20588 -142.381446 
L 153.79412 -142.381446 
L 153.79412 -142.381446 
L 153.843566 -141.600485 
L 153.898875 -140.819523 
L 153.96027 -140.038562 
L 154.027896 -139.2576 
L 154.101805 -138.476638 
L 154.181946 -137.695677 
L 154.268152 -136.914715 
L 154.360137 -136.133754 
L 154.457491 -135.352792 
L 154.559685 -134.57183 
L 154.666075 -133.790869 
L 154.775916 -133.009907 
L 154.88838 -132.228946 
L 155.002583 -131.447984 
L 155.117609 -130.667022 
L 155.232548 -129.886061 
L 155.346529 -129.105099 
L 155.458762 -128.324138 
L 155.568576 -127.543176 
L 155.675452 -126.762214 
L 155.779066 -125.981253 
L 155.87931 -125.200291 
L 155.976319 -124.419329 
L 156.07048 -123.638368 
L 156.162438 -122.857406 
L 156.253086 -122.076445 
L 156.343543 -121.295483 
L 156.435128 -120.514521 
L 156.529306 -119.73356 
L 156.627646 -118.952598 
L 156.731749 -118.171637 
L 156.843185 -117.390675 
L 156.963415 -116.609713 
L 157.093722 -115.828752 
L 157.235137 -115.04779 
L 157.388374 -114.266829 
L 157.553771 -113.485867 
L 157.731245 -112.704905 
L 157.92026 -111.923944 
L 158.119811 -111.142982 
L 158.328426 -110.362021 
L 158.544182 -109.581059 
L 158.764747 -108.800097 
L 158.987429 -108.019136 
L 159.209244 -107.238174 
L 159.427002 -106.457213 
L 159.637389 -105.676251 
L 159.837069 -104.895289 
L 160.022777 -104.114328 
L 160.191417 -103.333366 
L 160.340148 -102.552405 
L 160.466466 -101.771443 
L 160.568268 -100.990481 
L 160.643906 -100.20952 
L 160.692222 -99.428558 
L 160.712563 -98.647597 
L 160.70478 -97.866635 
L 160.669213 -97.085673 
L 160.606653 -96.304712 
L 160.518301 -95.52375 
L 160.405705 -94.742789 
L 160.270701 -93.961827 
L 160.11534 -93.180865 
L 159.941822 -92.399904 
L 159.752426 -91.618942 
L 159.54945 -90.837981 
L 159.335154 -90.057019 
L 159.111718 -89.276057 
L 158.881199 -88.495096 
L 158.645512 -87.714134 
L 158.406411 -86.933173 
L 158.16548 -86.152211 
L 157.92414 -85.371249 
L 157.683653 -84.590288 
L 157.445137 -83.809326 
L 157.209582 -83.028365 
L 156.977865 -82.247403 
L 156.750771 -81.466441 
L 156.529007 -80.68548 
L 156.313215 -79.904518 
L 156.103984 -79.123557 
L 155.901852 -78.342595 
L 155.707315 -77.561633 
L 155.520824 -76.780672 
L 155.342782 -75.99971 
L 155.173539 -75.218749 
L 155.013389 -74.437787 
L 154.86256 -73.656825 
L 154.721214 -72.875864 
L 154.589432 -72.094902 
L 154.467224 -71.313941 
L 154.354515 -70.532979 
L 154.251155 -69.752017 
L 154.156918 -68.971056 
L 154.071507 -68.190094 
L 153.994564 -67.409132 
L 153.925673 -66.628171 
L 153.864376 -65.847209 
L 153.810179 -65.066248 
z
" id="m4a7e5eafd9" style="stroke:#7f7f7f;stroke-width:1.5;"/>
    </defs>
    <g clip-path="url(#p7781256872)">
     <use style="fill:#d3d3d3;stroke:#7f7f7f;stroke-width:1.5;" x="0" xlink:href="#m4a7e5eafd9" y="216"/>
    </g>
   </g>
   <g id="PolyCollection_5">
    <defs>
     <path d="M 184.839885 -55.901369 
L 184.160115 -55.901369 
L 184.102751 -56.582509 
L 184.03838 -57.263649 
L 183.966644 -57.944789 
L 183.887254 -58.625929 
L 183.799998 -59.307069 
L 183.704759 -59.988209 
L 183.60152 -60.669349 
L 183.49037 -61.350489 
L 183.371513 -62.031629 
L 183.245264 -62.712769 
L 183.112043 -63.393909 
L 182.972372 -64.075049 
L 182.826854 -64.756189 
L 182.676163 -65.437328 
L 182.521017 -66.118468 
L 182.362156 -66.799608 
L 182.200316 -67.480748 
L 182.036203 -68.161888 
L 181.870465 -68.843028 
L 181.70367 -69.524168 
L 181.536281 -70.205308 
L 181.368647 -70.886448 
L 181.200985 -71.567588 
L 181.033383 -72.248728 
L 180.865802 -72.929868 
L 180.698089 -73.611008 
L 180.529994 -74.292148 
L 180.361202 -74.973288 
L 180.19136 -75.654428 
L 180.020118 -76.335568 
L 179.847167 -77.016707 
L 179.67228 -77.697847 
L 179.495352 -78.378987 
L 179.316437 -79.060127 
L 179.135776 -79.741267 
L 178.953822 -80.422407 
L 178.771255 -81.103547 
L 178.588987 -81.784687 
L 178.408153 -82.465827 
L 178.230102 -83.146967 
L 178.056363 -83.828107 
L 177.888614 -84.509247 
L 177.728639 -85.190387 
L 177.578278 -85.871527 
L 177.439372 -86.552667 
L 177.313713 -87.233807 
L 177.202989 -87.914946 
L 177.10873 -88.596086 
L 177.032268 -89.277226 
L 176.974699 -89.958366 
L 176.93685 -90.639506 
L 176.919262 -91.320646 
L 176.922185 -92.001786 
L 176.945572 -92.682926 
L 176.9891 -93.364066 
L 177.052182 -94.045206 
L 177.134002 -94.726346 
L 177.233549 -95.407486 
L 177.349655 -96.088626 
L 177.481037 -96.769766 
L 177.626339 -97.450906 
L 177.784172 -98.132046 
L 177.953154 -98.813186 
L 178.131935 -99.494325 
L 178.319229 -100.175465 
L 178.513831 -100.856605 
L 178.714627 -101.537745 
L 178.920602 -102.218885 
L 179.130834 -102.900025 
L 179.344491 -103.581165 
L 179.560816 -104.262305 
L 179.779113 -104.943445 
L 179.998728 -105.624585 
L 180.219034 -106.305725 
L 180.439416 -106.986865 
L 180.659249 -107.668005 
L 180.877897 -108.349145 
L 181.094697 -109.030285 
L 181.308963 -109.711425 
L 181.519981 -110.392564 
L 181.727019 -111.073704 
L 181.929336 -111.754844 
L 182.126193 -112.435984 
L 182.316865 -113.117124 
L 182.500663 -113.798264 
L 182.676946 -114.479404 
L 182.845136 -115.160544 
L 183.004735 -115.841684 
L 183.155333 -116.522824 
L 183.29662 -117.203964 
L 183.428392 -117.885104 
L 183.550552 -118.566244 
L 183.663108 -119.247384 
L 183.766174 -119.928524 
L 183.859956 -120.609664 
L 183.944752 -121.290804 
L 184.020932 -121.971943 
L 184.088932 -122.653083 
L 184.149238 -123.334223 
L 184.850762 -123.334223 
L 184.850762 -123.334223 
L 184.911068 -122.653083 
L 184.979068 -121.971943 
L 185.055248 -121.290804 
L 185.140044 -120.609664 
L 185.233826 -119.928524 
L 185.336892 -119.247384 
L 185.449448 -118.566244 
L 185.571608 -117.885104 
L 185.70338 -117.203964 
L 185.844667 -116.522824 
L 185.995265 -115.841684 
L 186.154864 -115.160544 
L 186.323054 -114.479404 
L 186.499337 -113.798264 
L 186.683135 -113.117124 
L 186.873807 -112.435984 
L 187.070664 -111.754844 
L 187.272981 -111.073704 
L 187.480019 -110.392564 
L 187.691037 -109.711425 
L 187.905303 -109.030285 
L 188.122103 -108.349145 
L 188.340751 -107.668005 
L 188.560584 -106.986865 
L 188.780966 -106.305725 
L 189.001272 -105.624585 
L 189.220887 -104.943445 
L 189.439184 -104.262305 
L 189.655509 -103.581165 
L 189.869166 -102.900025 
L 190.079398 -102.218885 
L 190.285373 -101.537745 
L 190.486169 -100.856605 
L 190.680771 -100.175465 
L 190.868065 -99.494325 
L 191.046846 -98.813186 
L 191.215828 -98.132046 
L 191.373661 -97.450906 
L 191.518963 -96.769766 
L 191.650345 -96.088626 
L 191.766451 -95.407486 
L 191.865998 -94.726346 
L 191.947818 -94.045206 
L 192.0109 -93.364066 
L 192.054428 -92.682926 
L 192.077815 -92.001786 
L 192.080738 -91.320646 
L 192.06315 -90.639506 
L 192.025301 -89.958366 
L 191.967732 -89.277226 
L 191.89127 -88.596086 
L 191.797011 -87.914946 
L 191.686287 -87.233807 
L 191.560628 -86.552667 
L 191.421722 -85.871527 
L 191.271361 -85.190387 
L 191.111386 -84.509247 
L 190.943637 -83.828107 
L 190.769898 -83.146967 
L 190.591847 -82.465827 
L 190.411013 -81.784687 
L 190.228745 -81.103547 
L 190.046178 -80.422407 
L 189.864224 -79.741267 
L 189.683563 -79.060127 
L 189.504648 -78.378987 
L 189.32772 -77.697847 
L 189.152833 -77.016707 
L 188.979882 -76.335568 
L 188.80864 -75.654428 
L 188.638798 -74.973288 
L 188.470006 -74.292148 
L 188.301911 -73.611008 
L 188.134198 -72.929868 
L 187.966617 -72.248728 
L 187.799015 -71.567588 
L 187.631353 -70.886448 
L 187.463719 -70.205308 
L 187.29633 -69.524168 
L 187.129535 -68.843028 
L 186.963797 -68.161888 
L 186.799684 -67.480748 
L 186.637844 -66.799608 
L 186.478983 -66.118468 
L 186.323837 -65.437328 
L 186.173146 -64.756189 
L 186.027628 -64.075049 
L 185.887957 -63.393909 
L 185.754736 -62.712769 
L 185.628487 -62.031629 
L 185.50963 -61.350489 
L 185.39848 -60.669349 
L 185.295241 -59.988209 
L 185.200002 -59.307069 
L 185.112746 -58.625929 
L 185.033356 -57.944789 
L 184.96162 -57.263649 
L 184.897249 -56.582509 
L 184.839885 -55.901369 
z
" id="m4bfd5c66f7" style="stroke:#7f7f7f;stroke-width:1.5;"/>
    </defs>
    <g clip-path="url(#p7781256872)">
     <use style="fill:#d3d3d3;stroke:#7f7f7f;stroke-width:1.5;" x="0" xlink:href="#m4bfd5c66f7" y="216"/>
    </g>
   </g>
   <g id="PolyCollection_6">
    <defs>
     <path d="M 215.788843 -34.412727 
L 215.211157 -34.412727 
L 215.163071 -35.206887 
L 215.109172 -36.001048 
L 215.049164 -36.795208 
L 214.982803 -37.589368 
L 214.909913 -38.383528 
L 214.830391 -39.177688 
L 214.744223 -39.971848 
L 214.651483 -40.766008 
L 214.552344 -41.560169 
L 214.447079 -42.354329 
L 214.33606 -43.148489 
L 214.219751 -43.942649 
L 214.098706 -44.736809 
L 213.973553 -45.530969 
L 213.844981 -46.32513 
L 213.713723 -47.11929 
L 213.580538 -47.91345 
L 213.446186 -48.70761 
L 213.311408 -49.50177 
L 213.176905 -50.29593 
L 213.043312 -51.09009 
L 212.911182 -51.884251 
L 212.780969 -52.678411 
L 212.653014 -53.472571 
L 212.527531 -54.266731 
L 212.40461 -55.060891 
L 212.284212 -55.855051 
L 212.166175 -56.649211 
L 212.050226 -57.443372 
L 211.935993 -58.237532 
L 211.823027 -59.031692 
L 211.710823 -59.825852 
L 211.598845 -60.620012 
L 211.486553 -61.414172 
L 211.373433 -62.208333 
L 211.259022 -63.002493 
L 211.142937 -63.796653 
L 211.024898 -64.590813 
L 210.904752 -65.384973 
L 210.782489 -66.179133 
L 210.658257 -66.973293 
L 210.532375 -67.767454 
L 210.405334 -68.561614 
L 210.277795 -69.355774 
L 210.15059 -70.149934 
L 210.024706 -70.944094 
L 209.901272 -71.738254 
L 209.781537 -72.532414 
L 209.666849 -73.326575 
L 209.558627 -74.120735 
L 209.458332 -74.914895 
L 209.367434 -75.709055 
L 209.287381 -76.503215 
L 209.219567 -77.297375 
L 209.165302 -78.091536 
L 209.125779 -78.885696 
L 209.102051 -79.679856 
L 209.095005 -80.474016 
L 209.105346 -81.268176 
L 209.133575 -82.062336 
L 209.179985 -82.856496 
L 209.244653 -83.650657 
L 209.327438 -84.444817 
L 209.427986 -85.238977 
L 209.545736 -86.033137 
L 209.679935 -86.827297 
L 209.829648 -87.621457 
L 209.993781 -88.415617 
L 210.171098 -89.209778 
L 210.360242 -90.003938 
L 210.55976 -90.798098 
L 210.768124 -91.592258 
L 210.983752 -92.386418 
L 211.205035 -93.180578 
L 211.430357 -93.974739 
L 211.658115 -94.768899 
L 211.886738 -95.563059 
L 212.11471 -96.357219 
L 212.34058 -97.151379 
L 212.562983 -97.945539 
L 212.780653 -98.739699 
L 212.99243 -99.53386 
L 213.197276 -100.32802 
L 213.394278 -101.12218 
L 213.582657 -101.91634 
L 213.761768 -102.7105 
L 213.931104 -103.50466 
L 214.090296 -104.29882 
L 214.239103 -105.092981 
L 214.377417 -105.887141 
L 214.505247 -106.681301 
L 214.622713 -107.475461 
L 214.730038 -108.269621 
L 214.827532 -109.063781 
L 214.915585 -109.857942 
L 214.994648 -110.652102 
L 215.065224 -111.446262 
L 215.127856 -112.240422 
L 215.183108 -113.034582 
L 215.816892 -113.034582 
L 215.816892 -113.034582 
L 215.872144 -112.240422 
L 215.934776 -111.446262 
L 216.005352 -110.652102 
L 216.084415 -109.857942 
L 216.172468 -109.063781 
L 216.269962 -108.269621 
L 216.377287 -107.475461 
L 216.494753 -106.681301 
L 216.622583 -105.887141 
L 216.760897 -105.092981 
L 216.909704 -104.29882 
L 217.068896 -103.50466 
L 217.238232 -102.7105 
L 217.417343 -101.91634 
L 217.605722 -101.12218 
L 217.802724 -100.32802 
L 218.00757 -99.53386 
L 218.219347 -98.739699 
L 218.437017 -97.945539 
L 218.65942 -97.151379 
L 218.88529 -96.357219 
L 219.113262 -95.563059 
L 219.341885 -94.768899 
L 219.569643 -93.974739 
L 219.794965 -93.180578 
L 220.016248 -92.386418 
L 220.231876 -91.592258 
L 220.44024 -90.798098 
L 220.639758 -90.003938 
L 220.828902 -89.209778 
L 221.006219 -88.415617 
L 221.170352 -87.621457 
L 221.320065 -86.827297 
L 221.454264 -86.033137 
L 221.572014 -85.238977 
L 221.672562 -84.444817 
L 221.755347 -83.650657 
L 221.820015 -82.856496 
L 221.866425 -82.062336 
L 221.894654 -81.268176 
L 221.904995 -80.474016 
L 221.897949 -79.679856 
L 221.874221 -78.885696 
L 221.834698 -78.091536 
L 221.780433 -77.297375 
L 221.712619 -76.503215 
L 221.632566 -75.709055 
L 221.541668 -74.914895 
L 221.441373 -74.120735 
L 221.333151 -73.326575 
L 221.218463 -72.532414 
L 221.098728 -71.738254 
L 220.975294 -70.944094 
L 220.84941 -70.149934 
L 220.722205 -69.355774 
L 220.594666 -68.561614 
L 220.467625 -67.767454 
L 220.341743 -66.973293 
L 220.217511 -66.179133 
L 220.095248 -65.384973 
L 219.975102 -64.590813 
L 219.857063 -63.796653 
L 219.740978 -63.002493 
L 219.626567 -62.208333 
L 219.513447 -61.414172 
L 219.401155 -60.620012 
L 219.289177 -59.825852 
L 219.176973 -59.031692 
L 219.064007 -58.237532 
L 218.949774 -57.443372 
L 218.833825 -56.649211 
L 218.715788 -55.855051 
L 218.59539 -55.060891 
L 218.472469 -54.266731 
L 218.346986 -53.472571 
L 218.219031 -52.678411 
L 218.088818 -51.884251 
L 217.956688 -51.09009 
L 217.823095 -50.29593 
L 217.688592 -49.50177 
L 217.553814 -48.70761 
L 217.419462 -47.91345 
L 217.286277 -47.11929 
L 217.155019 -46.32513 
L 217.026447 -45.530969 
L 216.901294 -44.736809 
L 216.780249 -43.942649 
L 216.66394 -43.148489 
L 216.552921 -42.354329 
L 216.447656 -41.560169 
L 216.348517 -40.766008 
L 216.255777 -39.971848 
L 216.169609 -39.177688 
L 216.090087 -38.383528 
L 216.017197 -37.589368 
L 215.950836 -36.795208 
L 215.890828 -36.001048 
L 215.836929 -35.206887 
L 215.788843 -34.412727 
z
" id="m398588f084" style="stroke:#7f7f7f;stroke-width:1.5;"/>
    </defs>
    <g clip-path="url(#p7781256872)">
     <use style="fill:#d3d3d3;stroke:#7f7f7f;stroke-width:1.5;" x="0" xlink:href="#m398588f084" y="216"/>
    </g>
   </g>
   <g id="PolyCollection_7">
    <defs>
     <path d="M 246.942779 -57.04708 
L 246.057221 -57.04708 
L 245.985442 -57.548541 
L 245.905512 -58.050002 
L 245.817168 -58.551463 
L 245.720264 -59.052924 
L 245.614788 -59.554385 
L 245.500885 -60.055846 
L 245.378873 -60.557307 
L 245.249251 -61.058768 
L 245.112714 -61.560229 
L 244.970151 -62.06169 
L 244.822643 -62.563152 
L 244.671453 -63.064613 
L 244.518005 -63.566074 
L 244.363864 -64.067535 
L 244.210699 -64.568996 
L 244.060242 -65.070457 
L 243.914244 -65.571918 
L 243.77442 -66.073379 
L 243.642398 -66.57484 
L 243.519654 -67.076301 
L 243.407457 -67.577762 
L 243.306811 -68.079223 
L 243.2184 -68.580684 
L 243.142539 -69.082145 
L 243.079137 -69.583606 
L 243.027663 -70.085067 
L 242.987125 -70.586528 
L 242.956064 -71.08799 
L 242.932563 -71.589451 
L 242.914262 -72.090912 
L 242.898396 -72.592373 
L 242.881844 -73.093834 
L 242.861192 -73.595295 
L 242.832805 -74.096756 
L 242.792915 -74.598217 
L 242.737718 -75.099678 
L 242.663471 -75.601139 
L 242.566605 -76.1026 
L 242.443829 -76.604061 
L 242.292238 -77.105522 
L 242.109419 -77.606983 
L 241.893544 -78.108444 
L 241.64346 -78.609905 
L 241.35876 -79.111366 
L 241.03984 -79.612828 
L 240.687942 -80.114289 
L 240.305169 -80.61575 
L 239.894487 -81.117211 
L 239.459697 -81.618672 
L 239.005387 -82.120133 
L 238.536862 -82.621594 
L 238.06005 -83.123055 
L 237.58139 -83.624516 
L 237.107701 -84.125977 
L 236.646038 -84.627438 
L 236.203537 -85.128899 
L 235.787254 -85.63036 
L 235.404004 -86.131821 
L 235.060202 -86.633282 
L 234.76171 -87.134743 
L 234.513708 -87.636204 
L 234.320565 -88.137666 
L 234.185747 -88.639127 
L 234.11174 -89.140588 
L 234.1 -89.642049 
L 234.150937 -90.14351 
L 234.263915 -90.644971 
L 234.43729 -91.146432 
L 234.668467 -91.647893 
L 234.953979 -92.149354 
L 235.28959 -92.650815 
L 235.670411 -93.152276 
L 236.091025 -93.653737 
L 236.545624 -94.155198 
L 237.028147 -94.656659 
L 237.532413 -95.15812 
L 238.052256 -95.659581 
L 238.581646 -96.161042 
L 239.114797 -96.662503 
L 239.646266 -97.163965 
L 240.171034 -97.665426 
L 240.684567 -98.166887 
L 241.182868 -98.668348 
L 241.662503 -99.169809 
L 242.120614 -99.67127 
L 242.554923 -100.172731 
L 242.963715 -100.674192 
L 243.345809 -101.175653 
L 243.700529 -101.677114 
L 244.027653 -102.178575 
L 244.327373 -102.680036 
L 244.600235 -103.181497 
L 244.847088 -103.682958 
L 245.069032 -104.184419 
L 245.267363 -104.68588 
L 245.443523 -105.187341 
L 245.599056 -105.688803 
L 245.735563 -106.190264 
L 245.854665 -106.691725 
L 247.145335 -106.691725 
L 247.145335 -106.691725 
L 247.264437 -106.190264 
L 247.400944 -105.688803 
L 247.556477 -105.187341 
L 247.732637 -104.68588 
L 247.930968 -104.184419 
L 248.152912 -103.682958 
L 248.399765 -103.181497 
L 248.672627 -102.680036 
L 248.972347 -102.178575 
L 249.299471 -101.677114 
L 249.654191 -101.175653 
L 250.036285 -100.674192 
L 250.445077 -100.172731 
L 250.879386 -99.67127 
L 251.337497 -99.169809 
L 251.817132 -98.668348 
L 252.315433 -98.166887 
L 252.828966 -97.665426 
L 253.353734 -97.163965 
L 253.885203 -96.662503 
L 254.418354 -96.161042 
L 254.947744 -95.659581 
L 255.467587 -95.15812 
L 255.971853 -94.656659 
L 256.454376 -94.155198 
L 256.908975 -93.653737 
L 257.329589 -93.152276 
L 257.71041 -92.650815 
L 258.046021 -92.149354 
L 258.331533 -91.647893 
L 258.56271 -91.146432 
L 258.736085 -90.644971 
L 258.849063 -90.14351 
L 258.9 -89.642049 
L 258.88826 -89.140588 
L 258.814253 -88.639127 
L 258.679435 -88.137666 
L 258.486292 -87.636204 
L 258.23829 -87.134743 
L 257.939798 -86.633282 
L 257.595996 -86.131821 
L 257.212746 -85.63036 
L 256.796463 -85.128899 
L 256.353962 -84.627438 
L 255.892299 -84.125977 
L 255.41861 -83.624516 
L 254.93995 -83.123055 
L 254.463138 -82.621594 
L 253.994613 -82.120133 
L 253.540303 -81.618672 
L 253.105513 -81.117211 
L 252.694831 -80.61575 
L 252.312058 -80.114289 
L 251.96016 -79.612828 
L 251.64124 -79.111366 
L 251.35654 -78.609905 
L 251.106456 -78.108444 
L 250.890581 -77.606983 
L 250.707762 -77.105522 
L 250.556171 -76.604061 
L 250.433395 -76.1026 
L 250.336529 -75.601139 
L 250.262282 -75.099678 
L 250.207085 -74.598217 
L 250.167195 -74.096756 
L 250.138808 -73.595295 
L 250.118156 -73.093834 
L 250.101604 -72.592373 
L 250.085738 -72.090912 
L 250.067437 -71.589451 
L 250.043936 -71.08799 
L 250.012875 -70.586528 
L 249.972337 -70.085067 
L 249.920863 -69.583606 
L 249.857461 -69.082145 
L 249.7816 -68.580684 
L 249.693189 -68.079223 
L 249.592543 -67.577762 
L 249.480346 -67.076301 
L 249.357602 -66.57484 
L 249.22558 -66.073379 
L 249.085756 -65.571918 
L 248.939758 -65.070457 
L 248.789301 -64.568996 
L 248.636136 -64.067535 
L 248.481995 -63.566074 
L 248.328547 -63.064613 
L 248.177357 -62.563152 
L 248.029849 -62.06169 
L 247.887286 -61.560229 
L 247.750749 -61.058768 
L 247.621127 -60.557307 
L 247.499115 -60.055846 
L 247.385212 -59.554385 
L 247.279736 -59.052924 
L 247.182832 -58.551463 
L 247.094488 -58.050002 
L 247.014558 -57.548541 
L 246.942779 -57.04708 
z
" id="m05a6995b8f" style="stroke:#7f7f7f;stroke-width:1.5;"/>
    </defs>
    <g clip-path="url(#p7781256872)">
     <use style="fill:#d3d3d3;stroke:#7f7f7f;stroke-width:1.5;" x="0" xlink:href="#m05a6995b8f" y="216"/>
    </g>
   </g>
   <g id="PolyCollection_8">
    <defs>
     <path d="M 278.147248 -83.71206 
L 276.852752 -83.71206 
L 276.756011 -84.240763 
L 276.648471 -84.769465 
L 276.529554 -85.298168 
L 276.398756 -85.82687 
L 276.255662 -86.355572 
L 276.099965 -86.884275 
L 275.931492 -87.412977 
L 275.750211 -87.941679 
L 275.556257 -88.470382 
L 275.349943 -88.999084 
L 275.131774 -89.527786 
L 274.902454 -90.056489 
L 274.662893 -90.585191 
L 274.414207 -91.113893 
L 274.157717 -91.642596 
L 273.894933 -92.171298 
L 273.627548 -92.7 
L 273.35741 -93.228703 
L 273.086501 -93.757405 
L 272.816905 -94.286108 
L 272.550771 -94.81481 
L 272.290278 -95.343512 
L 272.037585 -95.872215 
L 271.794792 -96.400917 
L 271.563894 -96.929619 
L 271.346732 -97.458322 
L 271.144951 -97.987024 
L 270.959962 -98.515726 
L 270.792899 -99.044429 
L 270.644596 -99.573131 
L 270.515554 -100.101833 
L 270.405935 -100.630536 
L 270.315545 -101.159238 
L 270.243842 -101.68794 
L 270.189942 -102.216643 
L 270.152646 -102.745345 
L 270.130462 -103.274047 
L 270.12165 -103.80275 
L 270.124262 -104.331452 
L 270.136201 -104.860155 
L 270.155271 -105.388857 
L 270.179245 -105.917559 
L 270.205924 -106.446262 
L 270.233198 -106.974964 
L 270.259111 -107.503666 
L 270.281914 -108.032369 
L 270.300118 -108.561071 
L 270.312538 -109.089773 
L 270.318325 -109.618476 
L 270.316999 -110.147178 
L 270.308454 -110.67588 
L 270.292972 -111.204583 
L 270.271208 -111.733285 
L 270.244177 -112.261987 
L 270.213223 -112.79069 
L 270.17998 -113.319392 
L 270.146329 -113.848095 
L 270.114339 -114.376797 
L 270.086213 -114.905499 
L 270.064224 -115.434202 
L 270.050651 -115.962904 
L 270.047713 -116.491606 
L 270.057511 -117.020309 
L 270.08197 -117.549011 
L 270.122784 -118.077713 
L 270.181374 -118.606416 
L 270.258852 -119.135118 
L 270.355988 -119.66382 
L 270.473201 -120.192523 
L 270.610541 -120.721225 
L 270.767697 -121.249927 
L 270.944008 -121.77863 
L 271.138479 -122.307332 
L 271.349812 -122.836035 
L 271.576438 -123.364737 
L 271.816561 -123.893439 
L 272.068198 -124.422142 
L 272.329225 -124.950844 
L 272.597429 -125.479546 
L 272.870554 -126.008249 
L 273.146346 -126.536951 
L 273.422596 -127.065653 
L 273.697184 -127.594356 
L 273.968107 -128.123058 
L 274.233518 -128.65176 
L 274.491741 -129.180463 
L 274.7413 -129.709165 
L 274.98092 -130.237867 
L 275.209546 -130.76657 
L 275.426335 -131.295272 
L 275.630659 -131.823975 
L 275.822094 -132.352677 
L 276.000409 -132.881379 
L 276.165555 -133.410082 
L 276.317642 -133.938784 
L 276.456925 -134.467486 
L 276.583783 -134.996189 
L 276.698699 -135.524891 
L 276.802241 -136.053593 
L 278.197759 -136.053593 
L 278.197759 -136.053593 
L 278.301301 -135.524891 
L 278.416217 -134.996189 
L 278.543075 -134.467486 
L 278.682358 -133.938784 
L 278.834445 -133.410082 
L 278.999591 -132.881379 
L 279.177906 -132.352677 
L 279.369341 -131.823975 
L 279.573665 -131.295272 
L 279.790454 -130.76657 
L 280.01908 -130.237867 
L 280.2587 -129.709165 
L 280.508259 -129.180463 
L 280.766482 -128.65176 
L 281.031893 -128.123058 
L 281.302816 -127.594356 
L 281.577404 -127.065653 
L 281.853654 -126.536951 
L 282.129446 -126.008249 
L 282.402571 -125.479546 
L 282.670775 -124.950844 
L 282.931802 -124.422142 
L 283.183439 -123.893439 
L 283.423562 -123.364737 
L 283.650188 -122.836035 
L 283.861521 -122.307332 
L 284.055992 -121.77863 
L 284.232303 -121.249927 
L 284.389459 -120.721225 
L 284.526799 -120.192523 
L 284.644012 -119.66382 
L 284.741148 -119.135118 
L 284.818626 -118.606416 
L 284.877216 -118.077713 
L 284.91803 -117.549011 
L 284.942489 -117.020309 
L 284.952287 -116.491606 
L 284.949349 -115.962904 
L 284.935776 -115.434202 
L 284.913787 -114.905499 
L 284.885661 -114.376797 
L 284.853671 -113.848095 
L 284.82002 -113.319392 
L 284.786777 -112.79069 
L 284.755823 -112.261987 
L 284.728792 -111.733285 
L 284.707028 -111.204583 
L 284.691546 -110.67588 
L 284.683001 -110.147178 
L 284.681675 -109.618476 
L 284.687462 -109.089773 
L 284.699882 -108.561071 
L 284.718086 -108.032369 
L 284.740889 -107.503666 
L 284.766802 -106.974964 
L 284.794076 -106.446262 
L 284.820755 -105.917559 
L 284.844729 -105.388857 
L 284.863799 -104.860155 
L 284.875738 -104.331452 
L 284.87835 -103.80275 
L 284.869538 -103.274047 
L 284.847354 -102.745345 
L 284.810058 -102.216643 
L 284.756158 -101.68794 
L 284.684455 -101.159238 
L 284.594065 -100.630536 
L 284.484446 -100.101833 
L 284.355404 -99.573131 
L 284.207101 -99.044429 
L 284.040038 -98.515726 
L 283.855049 -97.987024 
L 283.653268 -97.458322 
L 283.436106 -96.929619 
L 283.205208 -96.400917 
L 282.962415 -95.872215 
L 282.709722 -95.343512 
L 282.449229 -94.81481 
L 282.183095 -94.286108 
L 281.913499 -93.757405 
L 281.64259 -93.228703 
L 281.372452 -92.7 
L 281.105067 -92.171298 
L 280.842283 -91.642596 
L 280.585793 -91.113893 
L 280.337107 -90.585191 
L 280.097546 -90.056489 
L 279.868226 -89.527786 
L 279.650057 -88.999084 
L 279.443743 -88.470382 
L 279.249789 -87.941679 
L 279.068508 -87.412977 
L 278.900035 -86.884275 
L 278.744338 -86.355572 
L 278.601244 -85.82687 
L 278.470446 -85.298168 
L 278.351529 -84.769465 
L 278.243989 -84.240763 
L 278.147248 -83.71206 
z
" id="md6c8ac28bd" style="stroke:#7f7f7f;stroke-width:1.5;"/>
    </defs>
    <g clip-path="url(#p7781256872)">
     <use style="fill:#d3d3d3;stroke:#7f7f7f;stroke-width:1.5;" x="0" xlink:href="#md6c8ac28bd" y="216"/>
    </g>
   </g>
   <g id="PolyCollection_9">
    <defs>
     <path d="M 308.8343 -78.820503 
L 308.1657 -78.820503 
L 308.117672 -79.86946 
L 308.064673 -80.918417 
L 308.006515 -81.967375 
L 307.943053 -83.016332 
L 307.874199 -84.065289 
L 307.799928 -85.114246 
L 307.720288 -86.163204 
L 307.635402 -87.212161 
L 307.545481 -88.261118 
L 307.450823 -89.310076 
L 307.351819 -90.359033 
L 307.248953 -91.40799 
L 307.1428 -92.456947 
L 307.034024 -93.505905 
L 306.923371 -94.554862 
L 306.811656 -95.603819 
L 306.69976 -96.652776 
L 306.588608 -97.701734 
L 306.479156 -98.750691 
L 306.372373 -99.799648 
L 306.269218 -100.848606 
L 306.170624 -101.897563 
L 306.077468 -102.94652 
L 305.990559 -103.995477 
L 305.910606 -105.044435 
L 305.838204 -106.093392 
L 305.773817 -107.142349 
L 305.717753 -108.191306 
L 305.670162 -109.240264 
L 305.631018 -110.289221 
L 305.600118 -111.338178 
L 305.577079 -112.387136 
L 305.561342 -113.436093 
L 305.552182 -114.48505 
L 305.548717 -115.534007 
L 305.54993 -116.582965 
L 305.554687 -117.631922 
L 305.561765 -118.680879 
L 305.569878 -119.729836 
L 305.57771 -120.778794 
L 305.583948 -121.827751 
L 305.587315 -122.876708 
L 305.586605 -123.925666 
L 305.580713 -124.974623 
L 305.568671 -126.02358 
L 305.549673 -127.072537 
L 305.523102 -128.121495 
L 305.488549 -129.170452 
L 305.445831 -130.219409 
L 305.395004 -131.268366 
L 305.336362 -132.317324 
L 305.270441 -133.366281 
L 305.198011 -134.415238 
L 305.120062 -135.464196 
L 305.037787 -136.513153 
L 304.952553 -137.56211 
L 304.865881 -138.611067 
L 304.779406 -139.660025 
L 304.694841 -140.708982 
L 304.613945 -141.757939 
L 304.538476 -142.806896 
L 304.470156 -143.855854 
L 304.410631 -144.904811 
L 304.361432 -145.953768 
L 304.323943 -147.002726 
L 304.299368 -148.051683 
L 304.288711 -149.10064 
L 304.292744 -150.149597 
L 304.312005 -151.198555 
L 304.346777 -152.247512 
L 304.397093 -153.296469 
L 304.462735 -154.345426 
L 304.543242 -155.394384 
L 304.637929 -156.443341 
L 304.7459 -157.492298 
L 304.866075 -158.541255 
L 304.997218 -159.590213 
L 305.13796 -160.63917 
L 305.286837 -161.688127 
L 305.442321 -162.737085 
L 305.602846 -163.786042 
L 305.766847 -164.834999 
L 305.932783 -165.883956 
L 306.099166 -166.932914 
L 306.264586 -167.981871 
L 306.427732 -169.030828 
L 306.587406 -170.079785 
L 306.742539 -171.128743 
L 306.892198 -172.1777 
L 307.035596 -173.226657 
L 307.172088 -174.275615 
L 307.301174 -175.324572 
L 307.422492 -176.373529 
L 307.535814 -177.422486 
L 307.641033 -178.471444 
L 307.738154 -179.520401 
L 307.827284 -180.569358 
L 307.908616 -181.618315 
L 307.982416 -182.667273 
L 309.017584 -182.667273 
L 309.017584 -182.667273 
L 309.091384 -181.618315 
L 309.172716 -180.569358 
L 309.261846 -179.520401 
L 309.358967 -178.471444 
L 309.464186 -177.422486 
L 309.577508 -176.373529 
L 309.698826 -175.324572 
L 309.827912 -174.275615 
L 309.964404 -173.226657 
L 310.107802 -172.1777 
L 310.257461 -171.128743 
L 310.412594 -170.079785 
L 310.572268 -169.030828 
L 310.735414 -167.981871 
L 310.900834 -166.932914 
L 311.067217 -165.883956 
L 311.233153 -164.834999 
L 311.397154 -163.786042 
L 311.557679 -162.737085 
L 311.713163 -161.688127 
L 311.86204 -160.63917 
L 312.002782 -159.590213 
L 312.133925 -158.541255 
L 312.2541 -157.492298 
L 312.362071 -156.443341 
L 312.456758 -155.394384 
L 312.537265 -154.345426 
L 312.602907 -153.296469 
L 312.653223 -152.247512 
L 312.687995 -151.198555 
L 312.707256 -150.149597 
L 312.711289 -149.10064 
L 312.700632 -148.051683 
L 312.676057 -147.002726 
L 312.638568 -145.953768 
L 312.589369 -144.904811 
L 312.529844 -143.855854 
L 312.461524 -142.806896 
L 312.386055 -141.757939 
L 312.305159 -140.708982 
L 312.220594 -139.660025 
L 312.134119 -138.611067 
L 312.047447 -137.56211 
L 311.962213 -136.513153 
L 311.879938 -135.464196 
L 311.801989 -134.415238 
L 311.729559 -133.366281 
L 311.663638 -132.317324 
L 311.604996 -131.268366 
L 311.554169 -130.219409 
L 311.511451 -129.170452 
L 311.476898 -128.121495 
L 311.450327 -127.072537 
L 311.431329 -126.02358 
L 311.419287 -124.974623 
L 311.413395 -123.925666 
L 311.412685 -122.876708 
L 311.416052 -121.827751 
L 311.42229 -120.778794 
L 311.430122 -119.729836 
L 311.438235 -118.680879 
L 311.445313 -117.631922 
L 311.45007 -116.582965 
L 311.451283 -115.534007 
L 311.447818 -114.48505 
L 311.438658 -113.436093 
L 311.422921 -112.387136 
L 311.399882 -111.338178 
L 311.368982 -110.289221 
L 311.329838 -109.240264 
L 311.282247 -108.191306 
L 311.226183 -107.142349 
L 311.161796 -106.093392 
L 311.089394 -105.044435 
L 311.009441 -103.995477 
L 310.922532 -102.94652 
L 310.829376 -101.897563 
L 310.730782 -100.848606 
L 310.627627 -99.799648 
L 310.520844 -98.750691 
L 310.411392 -97.701734 
L 310.30024 -96.652776 
L 310.188344 -95.603819 
L 310.076629 -94.554862 
L 309.965976 -93.505905 
L 309.8572 -92.456947 
L 309.751047 -91.40799 
L 309.648181 -90.359033 
L 309.549177 -89.310076 
L 309.454519 -88.261118 
L 309.364598 -87.212161 
L 309.279712 -86.163204 
L 309.200072 -85.114246 
L 309.125801 -84.065289 
L 309.056947 -83.016332 
L 308.993485 -81.967375 
L 308.935327 -80.918417 
L 308.882328 -79.86946 
L 308.8343 -78.820503 
z
" id="m1f292ff4f7" style="stroke:#7f7f7f;stroke-width:1.5;"/>
    </defs>
    <g clip-path="url(#p7781256872)">
     <use style="fill:#d3d3d3;stroke:#7f7f7f;stroke-width:1.5;" x="0" xlink:href="#m1f292ff4f7" y="216"/>
    </g>
   </g>
   <g id="line2d_5">
    <path clip-path="url(#p7781256872)" d="M 60.5 133.931921 
L 60.5 93.004506 
" style="fill:none;stroke:#7f7f7f;stroke-linecap:round;stroke-width:1.5;"/>
   </g>
   <g id="line2d_6">
    <path clip-path="url(#p7781256872)" d="M 60.5 128.766325 
L 60.5 104.527759 
" style="fill:none;stroke:#7f7f7f;stroke-linecap:round;stroke-width:4.5;"/>
   </g>
   <g id="line2d_7">
    <path clip-path="url(#p7781256872)" d="M 91.5 145.05782 
L 91.5 121.216608 
" style="fill:none;stroke:#7f7f7f;stroke-linecap:round;stroke-width:1.5;"/>
   </g>
   <g id="line2d_8">
    <path clip-path="url(#p7781256872)" d="M 91.5 140.686931 
L 91.5 131.945153 
" style="fill:none;stroke:#7f7f7f;stroke-linecap:round;stroke-width:4.5;"/>
   </g>
   <g id="line2d_9">
    <path clip-path="url(#p7781256872)" d="M 122.5 141.481638 
L 122.5 106.117173 
" style="fill:none;stroke:#7f7f7f;stroke-linecap:round;stroke-width:1.5;"/>
   </g>
   <g id="line2d_10">
    <path clip-path="url(#p7781256872)" d="M 122.5 133.931921 
L 122.5 111.680123 
" style="fill:none;stroke:#7f7f7f;stroke-linecap:round;stroke-width:4.5;"/>
   </g>
   <g id="line2d_11">
    <path clip-path="url(#p7781256872)" d="M 153.5 118.832486 
L 153.5 113.269537 
" style="fill:none;stroke:#7f7f7f;stroke-linecap:round;stroke-width:1.5;"/>
   </g>
   <g id="line2d_12">
    <path clip-path="url(#p7781256872)" d="M 153.5 118.832486 
L 153.5 113.269537 
" style="fill:none;stroke:#7f7f7f;stroke-linecap:round;stroke-width:4.5;"/>
   </g>
   <g id="line2d_13">
    <path clip-path="url(#p7781256872)" d="M 184.5 142.673699 
L 184.5 110.090709 
" style="fill:none;stroke:#7f7f7f;stroke-linecap:round;stroke-width:1.5;"/>
   </g>
   <g id="line2d_14">
    <path clip-path="url(#p7781256872)" d="M 184.5 129.958386 
L 184.5 120.421901 
" style="fill:none;stroke:#7f7f7f;stroke-linecap:round;stroke-width:4.5;"/>
   </g>
   <g id="line2d_15">
    <path clip-path="url(#p7781256872)" d="M 215.5 160.951962 
L 215.5 123.600729 
" style="fill:none;stroke:#7f7f7f;stroke-linecap:round;stroke-width:1.5;"/>
   </g>
   <g id="line2d_16">
    <path clip-path="url(#p7781256872)" d="M 215.5 147.044588 
L 215.5 133.931921 
" style="fill:none;stroke:#7f7f7f;stroke-linecap:round;stroke-width:4.5;"/>
   </g>
   <g id="line2d_17">
    <path clip-path="url(#p7781256872)" d="M 246.5 127.971618 
L 246.5 127.176911 
" style="fill:none;stroke:#7f7f7f;stroke-linecap:round;stroke-width:1.5;"/>
   </g>
   <g id="line2d_18">
    <path clip-path="url(#p7781256872)" d="M 246.5 127.971618 
L 246.5 127.176911 
" style="fill:none;stroke:#7f7f7f;stroke-linecap:round;stroke-width:4.5;"/>
   </g>
   <g id="line2d_19">
    <path clip-path="url(#p7781256872)" d="M 277.5 116.448365 
L 277.5 95.785981 
" style="fill:none;stroke:#7f7f7f;stroke-linecap:round;stroke-width:1.5;"/>
   </g>
   <g id="line2d_20">
    <path clip-path="url(#p7781256872)" d="M 277.5 114.064244 
L 277.5 97.574072 
" style="fill:none;stroke:#7f7f7f;stroke-linecap:round;stroke-width:4.5;"/>
   </g>
   <g id="line2d_21">
    <path clip-path="url(#p7781256872)" d="M 308.5 105.71982 
L 308.5 64.792405 
" style="fill:none;stroke:#7f7f7f;stroke-linecap:round;stroke-width:1.5;"/>
   </g>
   <g id="line2d_22">
    <path clip-path="url(#p7781256872)" d="M 308.5 104.130405 
L 308.5 65.189758 
" style="fill:none;stroke:#7f7f7f;stroke-linecap:round;stroke-width:4.5;"/>
   </g>
   <g id="patch_3">
    <path d="M 45 189 
L 45 25.92 
" style="fill:none;stroke:#ffffff;stroke-linecap:square;stroke-linejoin:miter;stroke-width:1.25;"/>
   </g>
   <g id="patch_4">
    <path d="M 324 189 
L 324 25.92 
" style="fill:none;stroke:#ffffff;stroke-linecap:square;stroke-linejoin:miter;stroke-width:1.25;"/>
   </g>
   <g id="patch_5">
    <path d="M 45 189 
L 324 189 
" style="fill:none;stroke:#ffffff;stroke-linecap:square;stroke-linejoin:miter;stroke-width:1.25;"/>
   </g>
   <g id="patch_6">
    <path d="M 45 25.92 
L 324 25.92 
" style="fill:none;stroke:#ffffff;stroke-linecap:square;stroke-linejoin:miter;stroke-width:1.25;"/>
   </g>
   <g id="PathCollection_1">
    <defs>
     <path d="M 0 1.5 
C 0.397805 1.5 0.77937 1.341951 1.06066 1.06066 
C 1.341951 0.77937 1.5 0.397805 1.5 0 
C 1.5 -0.397805 1.341951 -0.77937 1.06066 -1.06066 
C 0.77937 -1.341951 0.397805 -1.5 0 -1.5 
C -0.397805 -1.5 -0.77937 -1.341951 -1.06066 -1.06066 
C -1.341951 -0.77937 -1.5 -0.397805 -1.5 0 
C -1.5 0.397805 -1.341951 0.77937 -1.06066 1.06066 
C -0.77937 1.341951 -0.397805 1.5 0 1.5 
z
" id="me2bcd2fcd1" style="stroke:#7f7f7f;"/>
    </defs>
    <g clip-path="url(#p7781256872)">
     <use style="fill:#ffffff;stroke:#7f7f7f;" x="60.5" xlink:href="#me2bcd2fcd1" y="117.640426"/>
    </g>
   </g>
   <g id="PathCollection_2">
    <g clip-path="url(#p7781256872)">
     <use style="fill:#ffffff;stroke:#7f7f7f;" x="91.5" xlink:href="#me2bcd2fcd1" y="134.329274"/>
    </g>
   </g>
   <g id="PathCollection_3">
    <g clip-path="url(#p7781256872)">
     <use style="fill:#ffffff;stroke:#7f7f7f;" x="122.5" xlink:href="#me2bcd2fcd1" y="131.945153"/>
    </g>
   </g>
   <g id="PathCollection_4">
    <g clip-path="url(#p7781256872)">
     <use style="fill:#ffffff;stroke:#7f7f7f;" x="153.5" xlink:href="#me2bcd2fcd1" y="116.051012"/>
    </g>
   </g>
   <g id="PathCollection_5">
    <g clip-path="url(#p7781256872)">
     <use style="fill:#ffffff;stroke:#7f7f7f;" x="184.5" xlink:href="#me2bcd2fcd1" y="125.190143"/>
    </g>
   </g>
   <g id="PathCollection_6">
    <g clip-path="url(#p7781256872)">
     <use style="fill:#ffffff;stroke:#7f7f7f;" x="215.5" xlink:href="#me2bcd2fcd1" y="135.918689"/>
    </g>
   </g>
   <g id="PathCollection_7">
    <g clip-path="url(#p7781256872)">
     <use style="fill:#ffffff;stroke:#7f7f7f;" x="246.5" xlink:href="#me2bcd2fcd1" y="127.574264"/>
    </g>
   </g>
   <g id="PathCollection_8">
    <g clip-path="url(#p7781256872)">
     <use style="fill:#ffffff;stroke:#7f7f7f;" x="277.5" xlink:href="#me2bcd2fcd1" y="105.71982"/>
    </g>
   </g>
   <g id="PathCollection_9">
    <g clip-path="url(#p7781256872)">
     <use style="fill:#ffffff;stroke:#7f7f7f;" x="308.5" xlink:href="#me2bcd2fcd1" y="65.984465"/>
    </g>
   </g>
   <g id="text_16">
    <!-- Hippo RNAi Egg Laying -->
    <defs>
     <path d="M 8.015625 0 
L 8.015625 71.578125 
L 17.484375 71.578125 
L 17.484375 42.1875 
L 54.6875 42.1875 
L 54.6875 71.578125 
L 64.15625 71.578125 
L 64.15625 0 
L 54.6875 0 
L 54.6875 33.734375 
L 17.484375 33.734375 
L 17.484375 0 
z
" id="ArialMT-48"/>
     <path d="M 6.640625 61.46875 
L 6.640625 71.578125 
L 15.4375 71.578125 
L 15.4375 61.46875 
z
M 6.640625 0 
L 6.640625 51.859375 
L 15.4375 51.859375 
L 15.4375 0 
z
" id="ArialMT-69"/>
     <path d="M 6.59375 -19.875 
L 6.59375 51.859375 
L 14.59375 51.859375 
L 14.59375 45.125 
Q 17.4375 49.078125 21 51.046875 
Q 24.5625 53.03125 29.640625 53.03125 
Q 36.28125 53.03125 41.359375 49.609375 
Q 46.4375 46.1875 49.015625 39.953125 
Q 51.609375 33.734375 51.609375 26.3125 
Q 51.609375 18.359375 48.75 11.984375 
Q 45.90625 5.609375 40.453125 2.21875 
Q 35.015625 -1.171875 29 -1.171875 
Q 24.609375 -1.171875 21.109375 0.6875 
Q 17.625 2.546875 15.375 5.375 
L 15.375 -19.875 
z
M 14.546875 25.640625 
Q 14.546875 15.625 18.59375 10.84375 
Q 22.65625 6.0625 28.421875 6.0625 
Q 34.28125 6.0625 38.453125 11.015625 
Q 42.625 15.96875 42.625 26.375 
Q 42.625 36.28125 38.546875 41.203125 
Q 34.46875 46.140625 28.8125 46.140625 
Q 23.1875 46.140625 18.859375 40.890625 
Q 14.546875 35.640625 14.546875 25.640625 
z
" id="ArialMT-70"/>
     <path id="ArialMT-20"/>
     <path d="M 7.859375 0 
L 7.859375 71.578125 
L 39.59375 71.578125 
Q 49.171875 71.578125 54.140625 69.640625 
Q 59.125 67.71875 62.109375 62.828125 
Q 65.09375 57.953125 65.09375 52.046875 
Q 65.09375 44.4375 60.15625 39.203125 
Q 55.21875 33.984375 44.921875 32.5625 
Q 48.6875 30.765625 50.640625 29 
Q 54.78125 25.203125 58.5 19.484375 
L 70.953125 0 
L 59.03125 0 
L 49.5625 14.890625 
Q 45.40625 21.34375 42.71875 24.75 
Q 40.046875 28.171875 37.921875 29.53125 
Q 35.796875 30.90625 33.59375 31.453125 
Q 31.984375 31.78125 28.328125 31.78125 
L 17.328125 31.78125 
L 17.328125 0 
z
M 17.328125 39.984375 
L 37.703125 39.984375 
Q 44.1875 39.984375 47.84375 41.328125 
Q 51.515625 42.671875 53.421875 45.625 
Q 55.328125 48.578125 55.328125 52.046875 
Q 55.328125 57.125 51.640625 60.390625 
Q 47.953125 63.671875 39.984375 63.671875 
L 17.328125 63.671875 
z
" id="ArialMT-52"/>
     <path d="M 7.625 0 
L 7.625 71.578125 
L 17.328125 71.578125 
L 54.9375 15.375 
L 54.9375 71.578125 
L 64.015625 71.578125 
L 64.015625 0 
L 54.296875 0 
L 16.703125 56.25 
L 16.703125 0 
z
" id="ArialMT-4e"/>
     <path d="M -0.140625 0 
L 27.34375 71.578125 
L 37.546875 71.578125 
L 66.84375 0 
L 56.0625 0 
L 47.703125 21.6875 
L 17.78125 21.6875 
L 9.90625 0 
z
M 20.515625 29.390625 
L 44.78125 29.390625 
L 37.3125 49.21875 
Q 33.890625 58.25 32.234375 64.0625 
Q 30.859375 57.171875 28.375 50.390625 
z
" id="ArialMT-41"/>
     <path d="M 7.90625 0 
L 7.90625 71.578125 
L 59.671875 71.578125 
L 59.671875 63.140625 
L 17.390625 63.140625 
L 17.390625 41.21875 
L 56.984375 41.21875 
L 56.984375 32.8125 
L 17.390625 32.8125 
L 17.390625 8.453125 
L 61.328125 8.453125 
L 61.328125 0 
z
" id="ArialMT-45"/>
     <path d="M 4.984375 -4.296875 
L 13.53125 -5.5625 
Q 14.0625 -9.515625 16.5 -11.328125 
Q 19.78125 -13.765625 25.4375 -13.765625 
Q 31.546875 -13.765625 34.859375 -11.328125 
Q 38.1875 -8.890625 39.359375 -4.5 
Q 40.046875 -1.8125 39.984375 6.78125 
Q 34.234375 0 25.640625 0 
Q 14.9375 0 9.078125 7.71875 
Q 3.21875 15.4375 3.21875 26.21875 
Q 3.21875 33.640625 5.90625 39.90625 
Q 8.59375 46.1875 13.6875 49.609375 
Q 18.796875 53.03125 25.6875 53.03125 
Q 34.859375 53.03125 40.828125 45.609375 
L 40.828125 51.859375 
L 48.921875 51.859375 
L 48.921875 7.03125 
Q 48.921875 -5.078125 46.453125 -10.125 
Q 44 -15.1875 38.640625 -18.109375 
Q 33.296875 -21.046875 25.484375 -21.046875 
Q 16.21875 -21.046875 10.5 -16.875 
Q 4.78125 -12.703125 4.984375 -4.296875 
z
M 12.25 26.859375 
Q 12.25 16.65625 16.296875 11.96875 
Q 20.359375 7.28125 26.46875 7.28125 
Q 32.515625 7.28125 36.609375 11.9375 
Q 40.71875 16.609375 40.71875 26.5625 
Q 40.71875 36.078125 36.5 40.90625 
Q 32.28125 45.75 26.3125 45.75 
Q 20.453125 45.75 16.34375 40.984375 
Q 12.25 36.234375 12.25 26.859375 
z
" id="ArialMT-67"/>
     <path d="M 7.328125 0 
L 7.328125 71.578125 
L 16.796875 71.578125 
L 16.796875 8.453125 
L 52.046875 8.453125 
L 52.046875 0 
z
" id="ArialMT-4c"/>
     <path d="M 6.203125 -19.96875 
L 5.21875 -11.71875 
Q 8.109375 -12.5 10.25 -12.5 
Q 13.1875 -12.5 14.9375 -11.515625 
Q 16.703125 -10.546875 17.828125 -8.796875 
Q 18.65625 -7.46875 20.515625 -2.25 
Q 20.75 -1.515625 21.296875 -0.09375 
L 1.609375 51.859375 
L 11.078125 51.859375 
L 21.875 21.828125 
Q 23.96875 16.109375 25.640625 9.8125 
Q 27.15625 15.875 29.25 21.625 
L 40.328125 51.859375 
L 49.125 51.859375 
L 29.390625 -0.875 
Q 26.21875 -9.421875 24.46875 -12.640625 
Q 22.125 -17 19.09375 -19.015625 
Q 16.0625 -21.046875 11.859375 -21.046875 
Q 9.328125 -21.046875 6.203125 -19.96875 
z
" id="ArialMT-79"/>
    </defs>
    <g style="fill:#262626;" transform="translate(121.467187 19.92)scale(0.12 -0.12)">
     <use xlink:href="#ArialMT-48"/>
     <use x="72.216797" xlink:href="#ArialMT-69"/>
     <use x="94.433594" xlink:href="#ArialMT-70"/>
     <use x="150.048828" xlink:href="#ArialMT-70"/>
     <use x="205.664062" xlink:href="#ArialMT-6f"/>
     <use x="261.279297" xlink:href="#ArialMT-20"/>
     <use x="289.0625" xlink:href="#ArialMT-52"/>
     <use x="361.279297" xlink:href="#ArialMT-4e"/>
     <use x="433.496094" xlink:href="#ArialMT-41"/>
     <use x="500.195312" xlink:href="#ArialMT-69"/>
     <use x="522.412109" xlink:href="#ArialMT-20"/>
     <use x="550.195312" xlink:href="#ArialMT-45"/>
     <use x="616.894531" xlink:href="#ArialMT-67"/>
     <use x="672.509766" xlink:href="#ArialMT-67"/>
     <use x="728.125" xlink:href="#ArialMT-20"/>
     <use x="755.908203" xlink:href="#ArialMT-4c"/>
     <use x="811.523438" xlink:href="#ArialMT-61"/>
     <use x="867.138672" xlink:href="#ArialMT-79"/>
     <use x="917.138672" xlink:href="#ArialMT-69"/>
     <use x="939.355469" xlink:href="#ArialMT-6e"/>
     <use x="994.970703" xlink:href="#ArialMT-67"/>
    </g>
   </g>
  </g>
 </g>
 <defs>
  <clipPath id="p7781256872">
   <rect height="163.08" width="279" x="45" y="25.92"/>
  </clipPath>
 </defs>
</svg>
