<?xml version="1.0" encoding="utf-8" standalone="no"?>
<!DOCTYPE svg PUBLIC "-//W3C//DTD SVG 1.1//EN"
  "http://www.w3.org/Graphics/SVG/1.1/DTD/svg11.dtd">
<!-- Created with matplotlib (https://matplotlib.org/) -->
<svg height="288pt" version="1.1" viewBox="0 0 576 288" width="576pt" xmlns="http://www.w3.org/2000/svg" xmlns:xlink="http://www.w3.org/1999/xlink">
 <defs>
  <style type="text/css">
*{stroke-linecap:butt;stroke-linejoin:round;}
  </style>
 </defs>
 <g id="figure_1">
  <g id="patch_1">
   <path d="M 0 288 
L 576 288 
L 576 0 
L 0 0 
z
" style="fill:#ffffff;"/>
  </g>
  <g id="axes_1">
   <g id="patch_2">
    <path d="M 72 252 
L 518.4 252 
L 518.4 34.56 
L 72 34.56 
z
" style="fill:#eaeaf2;"/>
   </g>
   <g id="matplotlib.axis_1">
    <g id="xtick_1">
     <g id="line2d_1">
      <path clip-path="url(#p13691d44a2)" d="M 80.365874 252 
L 80.365874 34.56 
" style="fill:none;stroke:#ffffff;stroke-linecap:round;"/>
     </g>
     <g id="text_1">
      <!-- −15 -->
      <defs>
       <path d="M 52.828125 31.203125 
L 5.5625 31.203125 
L 5.5625 39.40625 
L 52.828125 39.40625 
z
" id="ArialMT-8722"/>
       <path d="M 37.25 0 
L 28.46875 0 
L 28.46875 56 
Q 25.296875 52.984375 20.140625 49.953125 
Q 14.984375 46.921875 10.890625 45.40625 
L 10.890625 53.90625 
Q 18.265625 57.375 23.78125 62.296875 
Q 29.296875 67.234375 31.59375 71.875 
L 37.25 71.875 
z
" id="ArialMT-49"/>
       <path d="M 4.15625 18.75 
L 13.375 19.53125 
Q 14.40625 12.796875 18.140625 9.390625 
Q 21.875 6 27.15625 6 
Q 33.5 6 37.890625 10.78125 
Q 42.28125 15.578125 42.28125 23.484375 
Q 42.28125 31 38.0625 35.34375 
Q 33.84375 39.703125 27 39.703125 
Q 22.75 39.703125 19.328125 37.765625 
Q 15.921875 35.84375 13.96875 32.765625 
L 5.71875 33.84375 
L 12.640625 70.609375 
L 48.25 70.609375 
L 48.25 62.203125 
L 19.671875 62.203125 
L 15.828125 42.96875 
Q 22.265625 47.46875 29.34375 47.46875 
Q 38.71875 47.46875 45.15625 40.96875 
Q 51.609375 34.46875 51.609375 24.265625 
Q 51.609375 14.546875 45.953125 7.46875 
Q 39.0625 -1.21875 27.15625 -1.21875 
Q 17.390625 -1.21875 11.203125 4.25 
Q 5.03125 9.71875 4.15625 18.75 
z
" id="ArialMT-53"/>
      </defs>
      <g style="fill:#262626;" transform="translate(71.036499 269.373594)scale(0.11 -0.11)">
       <use xlink:href="#ArialMT-8722"/>
       <use x="58.398438" xlink:href="#ArialMT-49"/>
       <use x="114.013672" xlink:href="#ArialMT-53"/>
      </g>
     </g>
    </g>
    <g id="xtick_2">
     <g id="line2d_2">
      <path clip-path="url(#p13691d44a2)" d="M 175.865802 252 
L 175.865802 34.56 
" style="fill:none;stroke:#ffffff;stroke-linecap:round;"/>
     </g>
     <g id="text_2">
      <!-- −10 -->
      <defs>
       <path d="M 4.15625 35.296875 
Q 4.15625 48 6.765625 55.734375 
Q 9.375 63.484375 14.515625 67.671875 
Q 19.671875 71.875 27.484375 71.875 
Q 33.25 71.875 37.59375 69.546875 
Q 41.9375 67.234375 44.765625 62.859375 
Q 47.609375 58.5 49.21875 52.21875 
Q 50.828125 45.953125 50.828125 35.296875 
Q 50.828125 22.703125 48.234375 14.96875 
Q 45.65625 7.234375 40.5 3 
Q 35.359375 -1.21875 27.484375 -1.21875 
Q 17.140625 -1.21875 11.234375 6.203125 
Q 4.15625 15.140625 4.15625 35.296875 
z
M 13.1875 35.296875 
Q 13.1875 17.671875 17.3125 11.828125 
Q 21.4375 6 27.484375 6 
Q 33.546875 6 37.671875 11.859375 
Q 41.796875 17.71875 41.796875 35.296875 
Q 41.796875 52.984375 37.671875 58.78125 
Q 33.546875 64.59375 27.390625 64.59375 
Q 21.34375 64.59375 17.71875 59.46875 
Q 13.1875 52.9375 13.1875 35.296875 
z
" id="ArialMT-48"/>
      </defs>
      <g style="fill:#262626;" transform="translate(166.536427 269.373594)scale(0.11 -0.11)">
       <use xlink:href="#ArialMT-8722"/>
       <use x="58.398438" xlink:href="#ArialMT-49"/>
       <use x="114.013672" xlink:href="#ArialMT-48"/>
      </g>
     </g>
    </g>
    <g id="xtick_3">
     <g id="line2d_3">
      <path clip-path="url(#p13691d44a2)" d="M 271.36573 252 
L 271.36573 34.56 
" style="fill:none;stroke:#ffffff;stroke-linecap:round;"/>
     </g>
     <g id="text_3">
      <!-- −5 -->
      <g style="fill:#262626;" transform="translate(265.094871 269.373594)scale(0.11 -0.11)">
       <use xlink:href="#ArialMT-8722"/>
       <use x="58.398438" xlink:href="#ArialMT-53"/>
      </g>
     </g>
    </g>
    <g id="xtick_4">
     <g id="line2d_4">
      <path clip-path="url(#p13691d44a2)" d="M 366.865658 252 
L 366.865658 34.56 
" style="fill:none;stroke:#ffffff;stroke-linecap:round;"/>
     </g>
     <g id="text_4">
      <!-- 0 -->
      <g style="fill:#262626;" transform="translate(363.807143 269.373594)scale(0.11 -0.11)">
       <use xlink:href="#ArialMT-48"/>
      </g>
     </g>
    </g>
    <g id="xtick_5">
     <g id="line2d_5">
      <path clip-path="url(#p13691d44a2)" d="M 462.365587 252 
L 462.365587 34.56 
" style="fill:none;stroke:#ffffff;stroke-linecap:round;"/>
     </g>
     <g id="text_5">
      <!-- 5 -->
      <g style="fill:#262626;" transform="translate(459.307071 269.373594)scale(0.11 -0.11)">
       <use xlink:href="#ArialMT-53"/>
      </g>
     </g>
    </g>
    <g id="text_6">
     <!-- Z -->
     <defs>
      <path d="M 2 0 
L 2 8.796875 
L 38.671875 54.640625 
Q 42.578125 59.515625 46.09375 63.140625 
L 6.15625 63.140625 
L 6.15625 71.578125 
L 57.421875 71.578125 
L 57.421875 63.140625 
L 17.234375 13.484375 
L 12.890625 8.453125 
L 58.59375 8.453125 
L 58.59375 0 
z
" id="ArialMT-90"/>
     </defs>
     <g style="fill:#262626;" transform="translate(291.535312 284.149219)scale(0.12 -0.12)">
      <use xlink:href="#ArialMT-90"/>
     </g>
    </g>
   </g>
   <g id="matplotlib.axis_2">
    <g id="ytick_1">
     <g id="text_7">
      <!-- Ova# -->
      <defs>
       <path d="M 4.828125 34.859375 
Q 4.828125 52.6875 14.390625 62.765625 
Q 23.96875 72.859375 39.109375 72.859375 
Q 49.03125 72.859375 56.984375 68.109375 
Q 64.9375 63.375 69.109375 54.90625 
Q 73.296875 46.4375 73.296875 35.6875 
Q 73.296875 24.8125 68.890625 16.21875 
Q 64.5 7.625 56.4375 3.203125 
Q 48.390625 -1.21875 39.0625 -1.21875 
Q 28.953125 -1.21875 20.984375 3.65625 
Q 13.03125 8.546875 8.921875 16.984375 
Q 4.828125 25.4375 4.828125 34.859375 
z
M 14.59375 34.71875 
Q 14.59375 21.78125 21.546875 14.328125 
Q 28.515625 6.890625 39.015625 6.890625 
Q 49.703125 6.890625 56.609375 14.40625 
Q 63.53125 21.921875 63.53125 35.75 
Q 63.53125 44.484375 60.578125 51 
Q 57.625 57.515625 51.921875 61.109375 
Q 46.234375 64.703125 39.15625 64.703125 
Q 29.109375 64.703125 21.84375 57.78125 
Q 14.59375 50.875 14.59375 34.71875 
z
" id="ArialMT-79"/>
       <path d="M 21 0 
L 1.265625 51.859375 
L 10.546875 51.859375 
L 21.6875 20.796875 
Q 23.484375 15.765625 25 10.359375 
Q 26.171875 14.453125 28.265625 20.21875 
L 39.796875 51.859375 
L 48.828125 51.859375 
L 29.203125 0 
z
" id="ArialMT-118"/>
       <path d="M 40.4375 6.390625 
Q 35.546875 2.25 31.03125 0.53125 
Q 26.515625 -1.171875 21.34375 -1.171875 
Q 12.796875 -1.171875 8.203125 3 
Q 3.609375 7.171875 3.609375 13.671875 
Q 3.609375 17.484375 5.34375 20.625 
Q 7.078125 23.78125 9.890625 25.6875 
Q 12.703125 27.59375 16.21875 28.5625 
Q 18.796875 29.25 24.03125 29.890625 
Q 34.671875 31.15625 39.703125 32.90625 
Q 39.75 34.71875 39.75 35.203125 
Q 39.75 40.578125 37.25 42.78125 
Q 33.890625 45.75 27.25 45.75 
Q 21.046875 45.75 18.09375 43.578125 
Q 15.140625 41.40625 13.71875 35.890625 
L 5.125 37.0625 
Q 6.296875 42.578125 8.984375 45.96875 
Q 11.671875 49.359375 16.75 51.1875 
Q 21.828125 53.03125 28.515625 53.03125 
Q 35.15625 53.03125 39.296875 51.46875 
Q 43.453125 49.90625 45.40625 47.53125 
Q 47.359375 45.171875 48.140625 41.546875 
Q 48.578125 39.3125 48.578125 33.453125 
L 48.578125 21.734375 
Q 48.578125 9.46875 49.140625 6.21875 
Q 49.703125 2.984375 51.375 0 
L 42.1875 0 
Q 40.828125 2.734375 40.4375 6.390625 
z
M 39.703125 26.03125 
Q 34.90625 24.078125 25.34375 22.703125 
Q 19.921875 21.921875 17.671875 20.9375 
Q 15.4375 19.96875 14.203125 18.09375 
Q 12.984375 16.21875 12.984375 13.921875 
Q 12.984375 10.40625 15.640625 8.0625 
Q 18.3125 5.71875 23.4375 5.71875 
Q 28.515625 5.71875 32.46875 7.9375 
Q 36.421875 10.15625 38.28125 14.015625 
Q 39.703125 17 39.703125 22.796875 
z
" id="ArialMT-97"/>
       <path d="M 5.03125 -1.21875 
L 9.28125 19.578125 
L 1.03125 19.578125 
L 1.03125 26.859375 
L 10.75 26.859375 
L 14.359375 44.578125 
L 1.03125 44.578125 
L 1.03125 51.859375 
L 15.828125 51.859375 
L 20.0625 72.796875 
L 27.390625 72.796875 
L 23.140625 51.859375 
L 38.53125 51.859375 
L 42.78125 72.796875 
L 50.140625 72.796875 
L 45.90625 51.859375 
L 54.34375 51.859375 
L 54.34375 44.578125 
L 44.4375 44.578125 
L 40.765625 26.859375 
L 54.34375 26.859375 
L 54.34375 19.578125 
L 39.3125 19.578125 
L 35.0625 -1.21875 
L 27.734375 -1.21875 
L 31.9375 19.578125 
L 16.609375 19.578125 
L 12.359375 -1.21875 
z
M 18.0625 26.859375 
L 33.40625 26.859375 
L 37.0625 44.578125 
L 21.6875 44.578125 
z
" id="ArialMT-35"/>
      </defs>
      <g style="fill:#262626;" transform="translate(36.21 74.736797)scale(0.11 -0.11)">
       <use xlink:href="#ArialMT-79"/>
       <use x="77.783203" xlink:href="#ArialMT-118"/>
       <use x="127.783203" xlink:href="#ArialMT-97"/>
       <use x="183.398438" xlink:href="#ArialMT-35"/>
      </g>
     </g>
    </g>
    <g id="ytick_2">
     <g id="text_8">
      <!-- HpoEggL -->
      <defs>
       <path d="M 8.015625 0 
L 8.015625 71.578125 
L 17.484375 71.578125 
L 17.484375 42.1875 
L 54.6875 42.1875 
L 54.6875 71.578125 
L 64.15625 71.578125 
L 64.15625 0 
L 54.6875 0 
L 54.6875 33.734375 
L 17.484375 33.734375 
L 17.484375 0 
z
" id="ArialMT-72"/>
       <path d="M 6.59375 -19.875 
L 6.59375 51.859375 
L 14.59375 51.859375 
L 14.59375 45.125 
Q 17.4375 49.078125 21 51.046875 
Q 24.5625 53.03125 29.640625 53.03125 
Q 36.28125 53.03125 41.359375 49.609375 
Q 46.4375 46.1875 49.015625 39.953125 
Q 51.609375 33.734375 51.609375 26.3125 
Q 51.609375 18.359375 48.75 11.984375 
Q 45.90625 5.609375 40.453125 2.21875 
Q 35.015625 -1.171875 29 -1.171875 
Q 24.609375 -1.171875 21.109375 0.6875 
Q 17.625 2.546875 15.375 5.375 
L 15.375 -19.875 
z
M 14.546875 25.640625 
Q 14.546875 15.625 18.59375 10.84375 
Q 22.65625 6.0625 28.421875 6.0625 
Q 34.28125 6.0625 38.453125 11.015625 
Q 42.625 15.96875 42.625 26.375 
Q 42.625 36.28125 38.546875 41.203125 
Q 34.46875 46.140625 28.8125 46.140625 
Q 23.1875 46.140625 18.859375 40.890625 
Q 14.546875 35.640625 14.546875 25.640625 
z
" id="ArialMT-112"/>
       <path d="M 3.328125 25.921875 
Q 3.328125 40.328125 11.328125 47.265625 
Q 18.015625 53.03125 27.640625 53.03125 
Q 38.328125 53.03125 45.109375 46.015625 
Q 51.90625 39.015625 51.90625 26.65625 
Q 51.90625 16.65625 48.90625 10.90625 
Q 45.90625 5.171875 40.15625 2 
Q 34.421875 -1.171875 27.640625 -1.171875 
Q 16.75 -1.171875 10.03125 5.8125 
Q 3.328125 12.796875 3.328125 25.921875 
z
M 12.359375 25.921875 
Q 12.359375 15.96875 16.703125 11.015625 
Q 21.046875 6.0625 27.640625 6.0625 
Q 34.1875 6.0625 38.53125 11.03125 
Q 42.875 16.015625 42.875 26.21875 
Q 42.875 35.84375 38.5 40.796875 
Q 34.125 45.75 27.640625 45.75 
Q 21.046875 45.75 16.703125 40.8125 
Q 12.359375 35.890625 12.359375 25.921875 
z
" id="ArialMT-111"/>
       <path d="M 7.90625 0 
L 7.90625 71.578125 
L 59.671875 71.578125 
L 59.671875 63.140625 
L 17.390625 63.140625 
L 17.390625 41.21875 
L 56.984375 41.21875 
L 56.984375 32.8125 
L 17.390625 32.8125 
L 17.390625 8.453125 
L 61.328125 8.453125 
L 61.328125 0 
z
" id="ArialMT-69"/>
       <path d="M 4.984375 -4.296875 
L 13.53125 -5.5625 
Q 14.0625 -9.515625 16.5 -11.328125 
Q 19.78125 -13.765625 25.4375 -13.765625 
Q 31.546875 -13.765625 34.859375 -11.328125 
Q 38.1875 -8.890625 39.359375 -4.5 
Q 40.046875 -1.8125 39.984375 6.78125 
Q 34.234375 0 25.640625 0 
Q 14.9375 0 9.078125 7.71875 
Q 3.21875 15.4375 3.21875 26.21875 
Q 3.21875 33.640625 5.90625 39.90625 
Q 8.59375 46.1875 13.6875 49.609375 
Q 18.796875 53.03125 25.6875 53.03125 
Q 34.859375 53.03125 40.828125 45.609375 
L 40.828125 51.859375 
L 48.921875 51.859375 
L 48.921875 7.03125 
Q 48.921875 -5.078125 46.453125 -10.125 
Q 44 -15.1875 38.640625 -18.109375 
Q 33.296875 -21.046875 25.484375 -21.046875 
Q 16.21875 -21.046875 10.5 -16.875 
Q 4.78125 -12.703125 4.984375 -4.296875 
z
M 12.25 26.859375 
Q 12.25 16.65625 16.296875 11.96875 
Q 20.359375 7.28125 26.46875 7.28125 
Q 32.515625 7.28125 36.609375 11.9375 
Q 40.71875 16.609375 40.71875 26.5625 
Q 40.71875 36.078125 36.5 40.90625 
Q 32.28125 45.75 26.3125 45.75 
Q 20.453125 45.75 16.34375 40.984375 
Q 12.25 36.234375 12.25 26.859375 
z
" id="ArialMT-103"/>
       <path d="M 7.328125 0 
L 7.328125 71.578125 
L 16.796875 71.578125 
L 16.796875 8.453125 
L 52.046875 8.453125 
L 52.046875 0 
z
" id="ArialMT-76"/>
      </defs>
      <g style="fill:#262626;" transform="translate(16.633437 147.216797)scale(0.11 -0.11)">
       <use xlink:href="#ArialMT-72"/>
       <use x="72.216797" xlink:href="#ArialMT-112"/>
       <use x="127.832031" xlink:href="#ArialMT-111"/>
       <use x="183.447266" xlink:href="#ArialMT-69"/>
       <use x="250.146484" xlink:href="#ArialMT-103"/>
       <use x="305.761719" xlink:href="#ArialMT-103"/>
       <use x="361.376953" xlink:href="#ArialMT-76"/>
      </g>
     </g>
    </g>
    <g id="ytick_3">
     <g id="text_9">
      <!-- EggL -->
      <g style="fill:#262626;" transform="translate(36.811563 219.696797)scale(0.11 -0.11)">
       <use xlink:href="#ArialMT-69"/>
       <use x="66.699219" xlink:href="#ArialMT-103"/>
       <use x="122.314453" xlink:href="#ArialMT-103"/>
       <use x="177.929688" xlink:href="#ArialMT-76"/>
      </g>
     </g>
    </g>
    <g id="text_10">
     <!-- Screen -->
     <defs>
      <path d="M 4.5 23 
L 13.421875 23.78125 
Q 14.0625 18.40625 16.375 14.96875 
Q 18.703125 11.53125 23.578125 9.40625 
Q 28.46875 7.28125 34.578125 7.28125 
Q 39.984375 7.28125 44.140625 8.890625 
Q 48.296875 10.5 50.3125 13.296875 
Q 52.34375 16.109375 52.34375 19.4375 
Q 52.34375 22.796875 50.390625 25.3125 
Q 48.4375 27.828125 43.953125 29.546875 
Q 41.0625 30.671875 31.203125 33.03125 
Q 21.34375 35.40625 17.390625 37.5 
Q 12.25 40.1875 9.734375 44.15625 
Q 7.234375 48.140625 7.234375 53.078125 
Q 7.234375 58.5 10.296875 63.203125 
Q 13.375 67.921875 19.28125 70.359375 
Q 25.203125 72.796875 32.421875 72.796875 
Q 40.375 72.796875 46.453125 70.234375 
Q 52.546875 67.671875 55.8125 62.6875 
Q 59.078125 57.71875 59.328125 51.421875 
L 50.25 50.734375 
Q 49.515625 57.515625 45.28125 60.984375 
Q 41.0625 64.453125 32.8125 64.453125 
Q 24.21875 64.453125 20.28125 61.296875 
Q 16.359375 58.15625 16.359375 53.71875 
Q 16.359375 49.859375 19.140625 47.359375 
Q 21.875 44.875 33.421875 42.265625 
Q 44.96875 39.65625 49.265625 37.703125 
Q 55.515625 34.8125 58.484375 30.390625 
Q 61.46875 25.984375 61.46875 20.21875 
Q 61.46875 14.5 58.203125 9.4375 
Q 54.9375 4.390625 48.796875 1.578125 
Q 42.671875 -1.21875 35.015625 -1.21875 
Q 25.296875 -1.21875 18.71875 1.609375 
Q 12.15625 4.4375 8.421875 10.125 
Q 4.6875 15.828125 4.5 23 
z
" id="ArialMT-83"/>
      <path d="M 40.4375 19 
L 49.078125 17.875 
Q 47.65625 8.9375 41.8125 3.875 
Q 35.984375 -1.171875 27.484375 -1.171875 
Q 16.84375 -1.171875 10.375 5.78125 
Q 3.90625 12.75 3.90625 25.734375 
Q 3.90625 34.125 6.6875 40.421875 
Q 9.46875 46.734375 15.15625 49.875 
Q 20.84375 53.03125 27.546875 53.03125 
Q 35.984375 53.03125 41.359375 48.75 
Q 46.734375 44.484375 48.25 36.625 
L 39.703125 35.296875 
Q 38.484375 40.53125 35.375 43.15625 
Q 32.28125 45.796875 27.875 45.796875 
Q 21.234375 45.796875 17.078125 41.03125 
Q 12.9375 36.28125 12.9375 25.984375 
Q 12.9375 15.53125 16.9375 10.796875 
Q 20.953125 6.0625 27.390625 6.0625 
Q 32.5625 6.0625 36.03125 9.234375 
Q 39.5 12.40625 40.4375 19 
z
" id="ArialMT-99"/>
      <path d="M 6.5 0 
L 6.5 51.859375 
L 14.40625 51.859375 
L 14.40625 44 
Q 17.4375 49.515625 20 51.265625 
Q 22.5625 53.03125 25.640625 53.03125 
Q 30.078125 53.03125 34.671875 50.203125 
L 31.640625 42.046875 
Q 28.421875 43.953125 25.203125 43.953125 
Q 22.3125 43.953125 20.015625 42.21875 
Q 17.71875 40.484375 16.75 37.40625 
Q 15.28125 32.71875 15.28125 27.15625 
L 15.28125 0 
z
" id="ArialMT-114"/>
      <path d="M 42.09375 16.703125 
L 51.171875 15.578125 
Q 49.03125 7.625 43.21875 3.21875 
Q 37.40625 -1.171875 28.375 -1.171875 
Q 17 -1.171875 10.328125 5.828125 
Q 3.65625 12.84375 3.65625 25.484375 
Q 3.65625 38.578125 10.390625 45.796875 
Q 17.140625 53.03125 27.875 53.03125 
Q 38.28125 53.03125 44.875 45.953125 
Q 51.46875 38.875 51.46875 26.03125 
Q 51.46875 25.25 51.421875 23.6875 
L 12.75 23.6875 
Q 13.234375 15.140625 17.578125 10.59375 
Q 21.921875 6.0625 28.421875 6.0625 
Q 33.25 6.0625 36.671875 8.59375 
Q 40.09375 11.140625 42.09375 16.703125 
z
M 13.234375 30.90625 
L 42.1875 30.90625 
Q 41.609375 37.453125 38.875 40.71875 
Q 34.671875 45.796875 27.984375 45.796875 
Q 21.921875 45.796875 17.796875 41.75 
Q 13.671875 37.703125 13.234375 30.90625 
z
" id="ArialMT-101"/>
      <path d="M 6.59375 0 
L 6.59375 51.859375 
L 14.5 51.859375 
L 14.5 44.484375 
Q 20.21875 53.03125 31 53.03125 
Q 35.6875 53.03125 39.625 51.34375 
Q 43.5625 49.65625 45.515625 46.921875 
Q 47.46875 44.1875 48.25 40.4375 
Q 48.734375 37.984375 48.734375 31.890625 
L 48.734375 0 
L 39.9375 0 
L 39.9375 31.546875 
Q 39.9375 36.921875 38.90625 39.578125 
Q 37.890625 42.234375 35.28125 43.8125 
Q 32.671875 45.40625 29.15625 45.40625 
Q 23.53125 45.40625 19.453125 41.84375 
Q 15.375 38.28125 15.375 28.328125 
L 15.375 0 
z
" id="ArialMT-110"/>
     </defs>
     <g style="fill:#262626;" transform="translate(10.248437 162.289688)rotate(-90)scale(0.12 -0.12)">
      <use xlink:href="#ArialMT-83"/>
      <use x="66.699219" xlink:href="#ArialMT-99"/>
      <use x="116.699219" xlink:href="#ArialMT-114"/>
      <use x="150" xlink:href="#ArialMT-101"/>
      <use x="205.615234" xlink:href="#ArialMT-101"/>
      <use x="261.230469" xlink:href="#ArialMT-110"/>
     </g>
    </g>
   </g>
   <g id="patch_3">
    <path d="M 72 252 
L 72 34.56 
" style="fill:none;stroke:#ffffff;stroke-linecap:square;stroke-linejoin:miter;stroke-width:1.25;"/>
   </g>
   <g id="patch_4">
    <path d="M 518.4 252 
L 518.4 34.56 
" style="fill:none;stroke:#ffffff;stroke-linecap:square;stroke-linejoin:miter;stroke-width:1.25;"/>
   </g>
   <g id="patch_5">
    <path d="M 72 252 
L 518.4 252 
" style="fill:none;stroke:#ffffff;stroke-linecap:square;stroke-linejoin:miter;stroke-width:1.25;"/>
   </g>
   <g id="patch_6">
    <path d="M 72 34.56 
L 518.4 34.56 
" style="fill:none;stroke:#ffffff;stroke-linecap:square;stroke-linejoin:miter;stroke-width:1.25;"/>
   </g>
   <g id="PathCollection_1">
    <defs>
     <path d="M 0 2.5 
C 0.663008 2.5 1.29895 2.236584 1.767767 1.767767 
C 2.236584 1.29895 2.5 0.663008 2.5 0 
C 2.5 -0.663008 2.236584 -1.29895 1.767767 -1.767767 
C 1.29895 -2.236584 0.663008 -2.5 0 -2.5 
C -0.663008 -2.5 -1.29895 -2.236584 -1.767767 -1.767767 
C -2.236584 -1.29895 -2.5 -0.663008 -2.5 0 
C -2.5 0.663008 -2.236584 1.29895 -1.767767 1.767767 
C -1.29895 2.236584 -0.663008 2.5 0 2.5 
z
" id="C0_0_b195bddb81"/>
    </defs>
    <g clip-path="url(#p13691d44a2)">
     <use style="fill:#aaaaaa;" x="330.467246" xlink:href="#C0_0_b195bddb81" y="70.8"/>
    </g>
    <g clip-path="url(#p13691d44a2)">
     <use style="fill:#aaaaaa;" x="338.108976" xlink:href="#C0_0_b195bddb81" y="70.8"/>
    </g>
    <g clip-path="url(#p13691d44a2)">
     <use style="fill:#aaaaaa;" x="339.38705" xlink:href="#C0_0_b195bddb81" y="66.603166"/>
    </g>
    <g clip-path="url(#p13691d44a2)">
     <use style="fill:#aaaaaa;" x="343.38021" xlink:href="#C0_0_b195bddb81" y="70.8"/>
    </g>
    <g clip-path="url(#p13691d44a2)">
     <use style="fill:#aaaaaa;" x="343.686751" xlink:href="#C0_0_b195bddb81" y="65.604794"/>
    </g>
    <g clip-path="url(#p13691d44a2)">
     <use style="fill:#aaaaaa;" x="345.69976" xlink:href="#C0_0_b195bddb81" y="70.8"/>
    </g>
    <g clip-path="url(#p13691d44a2)">
     <use style="fill:#aaaaaa;" x="350.250686" xlink:href="#C0_0_b195bddb81" y="70.8"/>
    </g>
    <g clip-path="url(#p13691d44a2)">
     <use style="fill:#aaaaaa;" x="355.385788" xlink:href="#C0_0_b195bddb81" y="70.8"/>
    </g>
    <g clip-path="url(#p13691d44a2)">
     <use style="fill:#aaaaaa;" x="356.002023" xlink:href="#C0_0_b195bddb81" y="65.775105"/>
    </g>
    <g clip-path="url(#p13691d44a2)">
     <use style="fill:#aaaaaa;" x="363.670471" xlink:href="#C0_0_b195bddb81" y="70.8"/>
    </g>
    <g clip-path="url(#p13691d44a2)">
     <use style="fill:#aaaaaa;" x="365.076468" xlink:href="#C0_0_b195bddb81" y="66.860184"/>
    </g>
    <g clip-path="url(#p13691d44a2)">
     <use style="fill:#aaaaaa;" x="365.672865" xlink:href="#C0_0_b195bddb81" y="72.572334"/>
    </g>
    <g clip-path="url(#p13691d44a2)">
     <use style="fill:#aaaaaa;" x="368.143733" xlink:href="#C0_0_b195bddb81" y="70.8"/>
    </g>
    <g clip-path="url(#p13691d44a2)">
     <use style="fill:#aaaaaa;" x="368.78277" xlink:href="#C0_0_b195bddb81" y="65.792483"/>
    </g>
    <g clip-path="url(#p13691d44a2)">
     <use style="fill:#aaaaaa;" x="368.891518" xlink:href="#C0_0_b195bddb81" y="75.714943"/>
    </g>
    <g clip-path="url(#p13691d44a2)">
     <use style="fill:#aaaaaa;" x="372.235916" xlink:href="#C0_0_b195bddb81" y="70.8"/>
    </g>
    <g clip-path="url(#p13691d44a2)">
     <use style="fill:#aaaaaa;" x="372.616995" xlink:href="#C0_0_b195bddb81" y="65.634926"/>
    </g>
    <g clip-path="url(#p13691d44a2)">
     <use style="fill:#aaaaaa;" x="373.22566" xlink:href="#C0_0_b195bddb81" y="75.447155"/>
    </g>
    <g clip-path="url(#p13691d44a2)">
     <use style="fill:#aaaaaa;" x="373.256032" xlink:href="#C0_0_b195bddb81" y="80.696619"/>
    </g>
    <g clip-path="url(#p13691d44a2)">
     <use style="fill:#aaaaaa;" x="380.823237" xlink:href="#C0_0_b195bddb81" y="70.8"/>
    </g>
    <g clip-path="url(#p13691d44a2)">
     <use style="fill:#aaaaaa;" x="383.072534" xlink:href="#C0_0_b195bddb81" y="70.8"/>
    </g>
    <g clip-path="url(#p13691d44a2)">
     <use style="fill:#aaaaaa;" x="384.169821" xlink:href="#C0_0_b195bddb81" y="66.302335"/>
    </g>
    <g clip-path="url(#p13691d44a2)">
     <use style="fill:#aaaaaa;" x="386.509658" xlink:href="#C0_0_b195bddb81" y="70.8"/>
    </g>
    <g clip-path="url(#p13691d44a2)">
     <use style="fill:#aaaaaa;" x="387.314855" xlink:href="#C0_0_b195bddb81" y="65.940616"/>
    </g>
    <g clip-path="url(#p13691d44a2)">
     <use style="fill:#aaaaaa;" x="388.432186" xlink:href="#C0_0_b195bddb81" y="73.04731"/>
    </g>
    <g clip-path="url(#p13691d44a2)">
     <use style="fill:#aaaaaa;" x="391.1493" xlink:href="#C0_0_b195bddb81" y="70.8"/>
    </g>
    <g clip-path="url(#p13691d44a2)">
     <use style="fill:#aaaaaa;" x="393.705229" xlink:href="#C0_0_b195bddb81" y="70.8"/>
    </g>
    <g clip-path="url(#p13691d44a2)">
     <use style="fill:#aaaaaa;" x="401.373677" xlink:href="#C0_0_b195bddb81" y="70.8"/>
    </g>
   </g>
   <g id="PathCollection_2">
    <defs>
     <path d="M 0 2.5 
C 0.663008 2.5 1.29895 2.236584 1.767767 1.767767 
C 2.236584 1.29895 2.5 0.663008 2.5 0 
C 2.5 -0.663008 2.236584 -1.29895 1.767767 -1.767767 
C 1.29895 -2.236584 0.663008 -2.5 0 -2.5 
C -0.663008 -2.5 -1.29895 -2.236584 -1.767767 -1.767767 
C -2.236584 -1.29895 -2.5 -0.663008 -2.5 0 
C -2.5 0.663008 -2.236584 1.29895 -1.767767 1.767767 
C -1.29895 2.236584 -0.663008 2.5 0 2.5 
z
" id="C1_0_9d6af0b26b"/>
    </defs>
    <g clip-path="url(#p13691d44a2)">
     <use style="fill:#aaaaaa;" x="284.232015" xlink:href="#C1_0_9d6af0b26b" y="143.28"/>
    </g>
    <g clip-path="url(#p13691d44a2)">
     <use style="fill:#aaaaaa;" x="303.224868" xlink:href="#C1_0_9d6af0b26b" y="143.28"/>
    </g>
    <g clip-path="url(#p13691d44a2)">
     <use style="fill:#aaaaaa;" x="329.22485" xlink:href="#C1_0_9d6af0b26b" y="143.28"/>
    </g>
    <g clip-path="url(#p13691d44a2)">
     <use style="fill:#aaaaaa;" x="338.987697" xlink:href="#C1_0_9d6af0b26b" y="143.28"/>
    </g>
    <g clip-path="url(#p13691d44a2)">
     <use style="fill:#aaaaaa;" x="343.940964" xlink:href="#C1_0_9d6af0b26b" y="143.28"/>
    </g>
    <g clip-path="url(#p13691d44a2)">
     <use style="fill:#aaaaaa;" x="344.733166" xlink:href="#C1_0_9d6af0b26b" y="138.407625"/>
    </g>
    <g clip-path="url(#p13691d44a2)">
     <use style="fill:#aaaaaa;" x="346.537978" xlink:href="#C1_0_9d6af0b26b" y="143.28"/>
    </g>
    <g clip-path="url(#p13691d44a2)">
     <use style="fill:#aaaaaa;" x="347.118769" xlink:href="#C1_0_9d6af0b26b" y="138.229457"/>
    </g>
    <g clip-path="url(#p13691d44a2)">
     <use style="fill:#aaaaaa;" x="352.345887" xlink:href="#C1_0_9d6af0b26b" y="143.28"/>
    </g>
    <g clip-path="url(#p13691d44a2)">
     <use style="fill:#aaaaaa;" x="354.120745" xlink:href="#C1_0_9d6af0b26b" y="140.385887"/>
    </g>
    <g clip-path="url(#p13691d44a2)">
     <use style="fill:#aaaaaa;" x="355.444892" xlink:href="#C1_0_9d6af0b26b" y="144.494804"/>
    </g>
    <g clip-path="url(#p13691d44a2)">
     <use style="fill:#aaaaaa;" x="358.807821" xlink:href="#C1_0_9d6af0b26b" y="143.28"/>
    </g>
    <g clip-path="url(#p13691d44a2)">
     <use style="fill:#aaaaaa;" x="361.05775" xlink:href="#C1_0_9d6af0b26b" y="143.28"/>
    </g>
    <g clip-path="url(#p13691d44a2)">
     <use style="fill:#aaaaaa;" x="363.961704" xlink:href="#C1_0_9d6af0b26b" y="143.28"/>
    </g>
    <g clip-path="url(#p13691d44a2)">
     <use style="fill:#aaaaaa;" x="366.133152" xlink:href="#C1_0_9d6af0b26b" y="143.28"/>
    </g>
    <g clip-path="url(#p13691d44a2)">
     <use style="fill:#aaaaaa;" x="371.511985" xlink:href="#C1_0_9d6af0b26b" y="143.28"/>
    </g>
    <g clip-path="url(#p13691d44a2)">
     <use style="fill:#aaaaaa;" x="376.787794" xlink:href="#C1_0_9d6af0b26b" y="143.28"/>
    </g>
    <g clip-path="url(#p13691d44a2)">
     <use style="fill:#aaaaaa;" x="384.289384" xlink:href="#C1_0_9d6af0b26b" y="143.28"/>
    </g>
    <g clip-path="url(#p13691d44a2)">
     <use style="fill:#aaaaaa;" x="390.856618" xlink:href="#C1_0_9d6af0b26b" y="143.28"/>
    </g>
    <g clip-path="url(#p13691d44a2)">
     <use style="fill:#aaaaaa;" x="394.485841" xlink:href="#C1_0_9d6af0b26b" y="143.28"/>
    </g>
    <g clip-path="url(#p13691d44a2)">
     <use style="fill:#aaaaaa;" x="396.485993" xlink:href="#C1_0_9d6af0b26b" y="141.492317"/>
    </g>
    <g clip-path="url(#p13691d44a2)">
     <use style="fill:#aaaaaa;" x="402.762149" xlink:href="#C1_0_9d6af0b26b" y="143.28"/>
    </g>
    <g clip-path="url(#p13691d44a2)">
     <use style="fill:#aaaaaa;" x="407.398781" xlink:href="#C1_0_9d6af0b26b" y="143.28"/>
    </g>
    <g clip-path="url(#p13691d44a2)">
     <use style="fill:#aaaaaa;" x="408.410764" xlink:href="#C1_0_9d6af0b26b" y="138.66211"/>
    </g>
    <g clip-path="url(#p13691d44a2)">
     <use style="fill:#aaaaaa;" x="413.328928" xlink:href="#C1_0_9d6af0b26b" y="143.28"/>
    </g>
    <g clip-path="url(#p13691d44a2)">
     <use style="fill:#aaaaaa;" x="416.343539" xlink:href="#C1_0_9d6af0b26b" y="143.28"/>
    </g>
    <g clip-path="url(#p13691d44a2)">
     <use style="fill:#aaaaaa;" x="451.661125" xlink:href="#C1_0_9d6af0b26b" y="143.28"/>
    </g>
    <g clip-path="url(#p13691d44a2)">
     <use style="fill:#aaaaaa;" x="455.14587" xlink:href="#C1_0_9d6af0b26b" y="143.28"/>
    </g>
    <g clip-path="url(#p13691d44a2)">
     <use style="fill:#aaaaaa;" x="456.013274" xlink:href="#C1_0_9d6af0b26b" y="138.486266"/>
    </g>
   </g>
   <g id="PathCollection_3">
    <defs>
     <path d="M 0 2.5 
C 0.663008 2.5 1.29895 2.236584 1.767767 1.767767 
C 2.236584 1.29895 2.5 0.663008 2.5 0 
C 2.5 -0.663008 2.236584 -1.29895 1.767767 -1.767767 
C 1.29895 -2.236584 0.663008 -2.5 0 -2.5 
C -0.663008 -2.5 -1.29895 -2.236584 -1.767767 -1.767767 
C -2.236584 -1.29895 -2.5 -0.663008 -2.5 0 
C -2.5 0.663008 -2.236584 1.29895 -1.767767 1.767767 
C -1.29895 2.236584 -0.663008 2.5 0 2.5 
z
" id="C2_0_a952d973a7"/>
    </defs>
    <g clip-path="url(#p13691d44a2)">
     <use style="fill:#aaaaaa;" x="290.160066" xlink:href="#C2_0_a952d973a7" y="215.76"/>
    </g>
    <g clip-path="url(#p13691d44a2)">
     <use style="fill:#aaaaaa;" x="291.452857" xlink:href="#C2_0_a952d973a7" y="211.59071"/>
    </g>
    <g clip-path="url(#p13691d44a2)">
     <use style="fill:#aaaaaa;" x="314.922644" xlink:href="#C2_0_a952d973a7" y="215.76"/>
    </g>
    <g clip-path="url(#p13691d44a2)">
     <use style="fill:#aaaaaa;" x="345.496214" xlink:href="#C2_0_a952d973a7" y="215.76"/>
    </g>
    <g clip-path="url(#p13691d44a2)">
     <use style="fill:#aaaaaa;" x="347.144813" xlink:href="#C2_0_a952d973a7" y="212.442083"/>
    </g>
    <g clip-path="url(#p13691d44a2)">
     <use style="fill:#aaaaaa;" x="349.197516" xlink:href="#C2_0_a952d973a7" y="215.76"/>
    </g>
    <g clip-path="url(#p13691d44a2)">
     <use style="fill:#aaaaaa;" x="355.337108" xlink:href="#C2_0_a952d973a7" y="215.76"/>
    </g>
    <g clip-path="url(#p13691d44a2)">
     <use style="fill:#aaaaaa;" x="362.328278" xlink:href="#C2_0_a952d973a7" y="215.76"/>
    </g>
    <g clip-path="url(#p13691d44a2)">
     <use style="fill:#aaaaaa;" x="362.5813" xlink:href="#C2_0_a952d973a7" y="210.547269"/>
    </g>
    <g clip-path="url(#p13691d44a2)">
     <use style="fill:#aaaaaa;" x="364.83866" xlink:href="#C2_0_a952d973a7" y="215.76"/>
    </g>
    <g clip-path="url(#p13691d44a2)">
     <use style="fill:#aaaaaa;" x="366.337961" xlink:href="#C2_0_a952d973a7" y="212.035608"/>
    </g>
    <g clip-path="url(#p13691d44a2)">
     <use style="fill:#aaaaaa;" x="374.781122" xlink:href="#C2_0_a952d973a7" y="215.76"/>
    </g>
    <g clip-path="url(#p13691d44a2)">
     <use style="fill:#aaaaaa;" x="376.188316" xlink:href="#C2_0_a952d973a7" y="211.822788"/>
    </g>
    <g clip-path="url(#p13691d44a2)">
     <use style="fill:#aaaaaa;" x="377.595509" xlink:href="#C2_0_a952d973a7" y="215.76"/>
    </g>
    <g clip-path="url(#p13691d44a2)">
     <use style="fill:#aaaaaa;" x="378.299106" xlink:href="#C2_0_a952d973a7" y="220.714522"/>
    </g>
    <g clip-path="url(#p13691d44a2)">
     <use style="fill:#aaaaaa;" x="379.002703" xlink:href="#C2_0_a952d973a7" y="211.822788"/>
    </g>
    <g clip-path="url(#p13691d44a2)">
     <use style="fill:#aaaaaa;" x="380.850688" xlink:href="#C2_0_a952d973a7" y="215.76"/>
    </g>
    <g clip-path="url(#p13691d44a2)">
     <use style="fill:#aaaaaa;" x="383.208329" xlink:href="#C2_0_a952d973a7" y="215.76"/>
    </g>
    <g clip-path="url(#p13691d44a2)">
     <use style="fill:#aaaaaa;" x="387.119382" xlink:href="#C2_0_a952d973a7" y="215.76"/>
    </g>
    <g clip-path="url(#p13691d44a2)">
     <use style="fill:#aaaaaa;" x="387.273113" xlink:href="#C2_0_a952d973a7" y="210.523727"/>
    </g>
    <g clip-path="url(#p13691d44a2)">
     <use style="fill:#aaaaaa;" x="387.445864" xlink:href="#C2_0_a952d973a7" y="220.947801"/>
    </g>
    <g clip-path="url(#p13691d44a2)">
     <use style="fill:#aaaaaa;" x="391.661813" xlink:href="#C2_0_a952d973a7" y="215.76"/>
    </g>
    <g clip-path="url(#p13691d44a2)">
     <use style="fill:#aaaaaa;" x="394.601241" xlink:href="#C2_0_a952d973a7" y="215.76"/>
    </g>
    <g clip-path="url(#p13691d44a2)">
     <use style="fill:#aaaaaa;" x="400.909151" xlink:href="#C2_0_a952d973a7" y="215.76"/>
    </g>
    <g clip-path="url(#p13691d44a2)">
     <use style="fill:#aaaaaa;" x="403.478308" xlink:href="#C2_0_a952d973a7" y="215.76"/>
    </g>
    <g clip-path="url(#p13691d44a2)">
     <use style="fill:#aaaaaa;" x="416.99693" xlink:href="#C2_0_a952d973a7" y="215.76"/>
    </g>
    <g clip-path="url(#p13691d44a2)">
     <use style="fill:#aaaaaa;" x="425.440091" xlink:href="#C2_0_a952d973a7" y="215.76"/>
    </g>
    <g clip-path="url(#p13691d44a2)">
     <use style="fill:#aaaaaa;" x="436.417025" xlink:href="#C2_0_a952d973a7" y="215.76"/>
    </g>
    <g clip-path="url(#p13691d44a2)">
     <use style="fill:#aaaaaa;" x="442.590896" xlink:href="#C2_0_a952d973a7" y="215.76"/>
    </g>
    <g clip-path="url(#p13691d44a2)">
     <use style="fill:#aaaaaa;" x="443.733608" xlink:href="#C2_0_a952d973a7" y="211.331766"/>
    </g>
    <g clip-path="url(#p13691d44a2)">
     <use style="fill:#aaaaaa;" x="450.065979" xlink:href="#C2_0_a952d973a7" y="215.76"/>
    </g>
    <g clip-path="url(#p13691d44a2)">
     <use style="fill:#aaaaaa;" x="453.583963" xlink:href="#C2_0_a952d973a7" y="215.76"/>
    </g>
   </g>
   <g id="PathCollection_4">
    <defs>
     <path d="M 0 2.5 
C 0.663008 2.5 1.29895 2.236584 1.767767 1.767767 
C 2.236584 1.29895 2.5 0.663008 2.5 0 
C 2.5 -0.663008 2.236584 -1.29895 1.767767 -1.767767 
C 1.29895 -2.236584 0.663008 -2.5 0 -2.5 
C -0.663008 -2.5 -1.29895 -2.236584 -1.767767 -1.767767 
C -2.236584 -1.29895 -2.5 -0.663008 -2.5 0 
C -2.5 0.663008 -2.236584 1.29895 -1.767767 1.767767 
C -1.29895 2.236584 -0.663008 2.5 0 2.5 
z
" id="C3_0_5e247bdba3"/>
    </defs>
    <g clip-path="url(#p13691d44a2)">
     <use style="fill:#77cc77;" x="93.354547" xlink:href="#C3_0_5e247bdba3" y="70.8"/>
    </g>
    <g clip-path="url(#p13691d44a2)">
     <use style="fill:#77cc77;" x="109.333589" xlink:href="#C3_0_5e247bdba3" y="70.8"/>
    </g>
    <g clip-path="url(#p13691d44a2)">
     <use style="fill:#77cc77;" x="109.333589" xlink:href="#C3_0_5e247bdba3" y="65.55"/>
    </g>
    <g clip-path="url(#p13691d44a2)">
     <use style="fill:#77cc77;" x="118.383816" xlink:href="#C3_0_5e247bdba3" y="70.8"/>
    </g>
    <g clip-path="url(#p13691d44a2)">
     <use style="fill:#77cc77;" x="120.317698" xlink:href="#C3_0_5e247bdba3" y="65.958589"/>
    </g>
    <g clip-path="url(#p13691d44a2)">
     <use style="fill:#77cc77;" x="134.751193" xlink:href="#C3_0_5e247bdba3" y="70.8"/>
    </g>
    <g clip-path="url(#p13691d44a2)">
     <use style="fill:#77cc77;" x="155.983319" xlink:href="#C3_0_5e247bdba3" y="70.8"/>
    </g>
    <g clip-path="url(#p13691d44a2)">
     <use style="fill:#77cc77;" x="253.137239" xlink:href="#C3_0_5e247bdba3" y="70.8"/>
    </g>
    <g clip-path="url(#p13691d44a2)">
     <use style="fill:#77cc77;" x="289.542134" xlink:href="#C3_0_5e247bdba3" y="70.8"/>
    </g>
    <g clip-path="url(#p13691d44a2)">
     <use style="fill:#77cc77;" x="324.606205" xlink:href="#C3_0_5e247bdba3" y="70.8"/>
    </g>
    <g clip-path="url(#p13691d44a2)">
     <use style="fill:#77cc77;" x="407.676164" xlink:href="#C3_0_5e247bdba3" y="70.8"/>
    </g>
    <g clip-path="url(#p13691d44a2)">
     <use style="fill:#77cc77;" x="411.021109" xlink:href="#C3_0_5e247bdba3" y="66.89782"/>
    </g>
    <g clip-path="url(#p13691d44a2)">
     <use style="fill:#77cc77;" x="412.237313" xlink:href="#C3_0_5e247bdba3" y="72.950815"/>
    </g>
    <g clip-path="url(#p13691d44a2)">
     <use style="fill:#77cc77;" x="465.277417" xlink:href="#C3_0_5e247bdba3" y="70.8"/>
    </g>
   </g>
   <g id="PathCollection_5">
    <defs>
     <path d="M 0 2.5 
C 0.663008 2.5 1.29895 2.236584 1.767767 1.767767 
C 2.236584 1.29895 2.5 0.663008 2.5 0 
C 2.5 -0.663008 2.236584 -1.29895 1.767767 -1.767767 
C 1.29895 -2.236584 0.663008 -2.5 0 -2.5 
C -0.663008 -2.5 -1.29895 -2.236584 -1.767767 -1.767767 
C -2.236584 -1.29895 -2.5 -0.663008 -2.5 0 
C -2.5 0.663008 -2.236584 1.29895 -1.767767 1.767767 
C -1.29895 2.236584 -0.663008 2.5 0 2.5 
z
" id="C4_0_09d5a9ccfa"/>
    </defs>
    <g clip-path="url(#p13691d44a2)">
     <use style="fill:#77cc77;" x="134.679684" xlink:href="#C4_0_09d5a9ccfa" y="143.28"/>
    </g>
    <g clip-path="url(#p13691d44a2)">
     <use style="fill:#77cc77;" x="162.427273" xlink:href="#C4_0_09d5a9ccfa" y="143.28"/>
    </g>
    <g clip-path="url(#p13691d44a2)">
     <use style="fill:#77cc77;" x="162.427273" xlink:href="#C4_0_09d5a9ccfa" y="138.03"/>
    </g>
    <g clip-path="url(#p13691d44a2)">
     <use style="fill:#77cc77;" x="162.427273" xlink:href="#C4_0_09d5a9ccfa" y="148.53"/>
    </g>
    <g clip-path="url(#p13691d44a2)">
     <use style="fill:#77cc77;" x="162.427273" xlink:href="#C4_0_09d5a9ccfa" y="132.78"/>
    </g>
    <g clip-path="url(#p13691d44a2)">
     <use style="fill:#77cc77;" x="178.009221" xlink:href="#C4_0_09d5a9ccfa" y="143.28"/>
    </g>
    <g clip-path="url(#p13691d44a2)">
     <use style="fill:#77cc77;" x="222.829523" xlink:href="#C4_0_09d5a9ccfa" y="143.28"/>
    </g>
    <g clip-path="url(#p13691d44a2)">
     <use style="fill:#77cc77;" x="233.623387" xlink:href="#C4_0_09d5a9ccfa" y="143.28"/>
    </g>
    <g clip-path="url(#p13691d44a2)">
     <use style="fill:#77cc77;" x="239.276317" xlink:href="#C4_0_09d5a9ccfa" y="143.28"/>
    </g>
    <g clip-path="url(#p13691d44a2)">
     <use style="fill:#77cc77;" x="258.838557" xlink:href="#C4_0_09d5a9ccfa" y="143.28"/>
    </g>
    <g clip-path="url(#p13691d44a2)">
     <use style="fill:#77cc77;" x="259.323041" xlink:href="#C4_0_09d5a9ccfa" y="138.054704"/>
    </g>
    <g clip-path="url(#p13691d44a2)">
     <use style="fill:#77cc77;" x="259.323041" xlink:href="#C4_0_09d5a9ccfa" y="148.505296"/>
    </g>
    <g clip-path="url(#p13691d44a2)">
     <use style="fill:#77cc77;" x="464.852273" xlink:href="#C4_0_09d5a9ccfa" y="143.28"/>
    </g>
   </g>
   <g id="PathCollection_6">
    <defs>
     <path d="M 0 2.5 
C 0.663008 2.5 1.29895 2.236584 1.767767 1.767767 
C 2.236584 1.29895 2.5 0.663008 2.5 0 
C 2.5 -0.663008 2.236584 -1.29895 1.767767 -1.767767 
C 1.29895 -2.236584 0.663008 -2.5 0 -2.5 
C -0.663008 -2.5 -1.29895 -2.236584 -1.767767 -1.767767 
C -2.236584 -1.29895 -2.5 -0.663008 -2.5 0 
C -2.5 0.663008 -2.236584 1.29895 -1.767767 1.767767 
C -1.29895 2.236584 -0.663008 2.5 0 2.5 
z
" id="C5_0_7e5ba7c812"/>
    </defs>
    <g clip-path="url(#p13691d44a2)">
     <use style="fill:#77cc77;" x="140.48339" xlink:href="#C5_0_7e5ba7c812" y="215.76"/>
    </g>
    <g clip-path="url(#p13691d44a2)">
     <use style="fill:#77cc77;" x="140.48339" xlink:href="#C5_0_7e5ba7c812" y="210.51"/>
    </g>
    <g clip-path="url(#p13691d44a2)">
     <use style="fill:#77cc77;" x="140.48339" xlink:href="#C5_0_7e5ba7c812" y="221.01"/>
    </g>
    <g clip-path="url(#p13691d44a2)">
     <use style="fill:#77cc77;" x="140.48339" xlink:href="#C5_0_7e5ba7c812" y="205.26"/>
    </g>
    <g clip-path="url(#p13691d44a2)">
     <use style="fill:#77cc77;" x="140.48339" xlink:href="#C5_0_7e5ba7c812" y="226.26"/>
    </g>
    <g clip-path="url(#p13691d44a2)">
     <use style="fill:#77cc77;" x="171.441649" xlink:href="#C5_0_7e5ba7c812" y="215.76"/>
    </g>
    <g clip-path="url(#p13691d44a2)">
     <use style="fill:#77cc77;" x="228.367517" xlink:href="#C5_0_7e5ba7c812" y="215.76"/>
    </g>
    <g clip-path="url(#p13691d44a2)">
     <use style="fill:#77cc77;" x="228.367517" xlink:href="#C5_0_7e5ba7c812" y="210.51"/>
    </g>
    <g clip-path="url(#p13691d44a2)">
     <use style="fill:#77cc77;" x="250.996922" xlink:href="#C5_0_7e5ba7c812" y="215.76"/>
    </g>
    <g clip-path="url(#p13691d44a2)">
     <use style="fill:#77cc77;" x="495.799771" xlink:href="#C5_0_7e5ba7c812" y="215.76"/>
    </g>
   </g>
  </g>
 </g>
 <defs>
  <clipPath id="p13691d44a2">
   <rect height="217.44" width="446.4" x="72" y="34.56"/>
  </clipPath>
 </defs>
</svg>
