<?xml version="1.0" encoding="utf-8" standalone="no"?>
<!DOCTYPE svg PUBLIC "-//W3C//DTD SVG 1.1//EN"
  "http://www.w3.org/Graphics/SVG/1.1/DTD/svg11.dtd">
<!-- Created with matplotlib (http://matplotlib.org/) -->
<svg height="425.980469pt" version="1.1" viewBox="0 0 422.508437 425.980469" width="422.508437pt" xmlns="http://www.w3.org/2000/svg" xmlns:xlink="http://www.w3.org/1999/xlink">
 <defs>
  <style type="text/css">
*{stroke-linecap:butt;stroke-linejoin:round;}
  </style>
 </defs>
 <g id="figure_1">
  <g id="patch_1">
   <path d="M 0 425.980469 
L 422.508437 425.980469 
L 422.508437 0 
L 0 0 
z
" style="fill:#ffffff;"/>
  </g>
  <g id="axes_1">
   <g id="patch_2">
    <path d="M 43.908438 384.1 
L 346.668438 384.1 
L 346.668438 76.782857 
L 43.908438 76.782857 
z
" style="fill:#eaeaf2;"/>
   </g>
   <g id="matplotlib.axis_1">
    <g id="xtick_1">
     <g id="line2d_1">
      <path clip-path="url(#pa7e60c5f79)" d="M 71.28064 384.1 
L 71.28064 76.782857 
" style="fill:none;stroke:#ffffff;stroke-linecap:round;"/>
     </g>
     <g id="text_1">
      <!-- −100 -->
      <defs>
       <path d="M 52.828125 31.203125 
L 5.5625 31.203125 
L 5.5625 39.40625 
L 52.828125 39.40625 
z
" id="ArialMT-2212"/>
       <path d="M 37.25 0 
L 28.46875 0 
L 28.46875 56 
Q 25.296875 52.984375 20.140625 49.953125 
Q 14.984375 46.921875 10.890625 45.40625 
L 10.890625 53.90625 
Q 18.265625 57.375 23.78125 62.296875 
Q 29.296875 67.234375 31.59375 71.875 
L 37.25 71.875 
z
" id="ArialMT-31"/>
       <path d="M 4.15625 35.296875 
Q 4.15625 48 6.765625 55.734375 
Q 9.375 63.484375 14.515625 67.671875 
Q 19.671875 71.875 27.484375 71.875 
Q 33.25 71.875 37.59375 69.546875 
Q 41.9375 67.234375 44.765625 62.859375 
Q 47.609375 58.5 49.21875 52.21875 
Q 50.828125 45.953125 50.828125 35.296875 
Q 50.828125 22.703125 48.234375 14.96875 
Q 45.65625 7.234375 40.5 3 
Q 35.359375 -1.21875 27.484375 -1.21875 
Q 17.140625 -1.21875 11.234375 6.203125 
Q 4.15625 15.140625 4.15625 35.296875 
z
M 13.1875 35.296875 
Q 13.1875 17.671875 17.3125 11.828125 
Q 21.4375 6 27.484375 6 
Q 33.546875 6 37.671875 11.859375 
Q 41.796875 17.71875 41.796875 35.296875 
Q 41.796875 52.984375 37.671875 58.78125 
Q 33.546875 64.59375 27.390625 64.59375 
Q 21.34375 64.59375 17.71875 59.46875 
Q 13.1875 52.9375 13.1875 35.296875 
z
" id="ArialMT-30"/>
      </defs>
      <g style="fill:#262626;" transform="translate(58.892749 401.473594)scale(0.11 -0.11)">
       <use xlink:href="#ArialMT-2212"/>
       <use x="58.398438" xlink:href="#ArialMT-31"/>
       <use x="114.013672" xlink:href="#ArialMT-30"/>
       <use x="169.628906" xlink:href="#ArialMT-30"/>
      </g>
     </g>
    </g>
    <g id="xtick_2">
     <g id="line2d_2">
      <path clip-path="url(#pa7e60c5f79)" d="M 112.207306 384.1 
L 112.207306 76.782857 
" style="fill:none;stroke:#ffffff;stroke-linecap:round;"/>
     </g>
     <g id="text_2">
      <!-- 0 -->
      <g style="fill:#262626;" transform="translate(109.14879 401.473594)scale(0.11 -0.11)">
       <use xlink:href="#ArialMT-30"/>
      </g>
     </g>
    </g>
    <g id="xtick_3">
     <g id="line2d_3">
      <path clip-path="url(#pa7e60c5f79)" d="M 153.133972 384.1 
L 153.133972 76.782857 
" style="fill:none;stroke:#ffffff;stroke-linecap:round;"/>
     </g>
     <g id="text_3">
      <!-- 100 -->
      <g style="fill:#262626;" transform="translate(143.958425 401.473594)scale(0.11 -0.11)">
       <use xlink:href="#ArialMT-31"/>
       <use x="55.615234" xlink:href="#ArialMT-30"/>
       <use x="111.230469" xlink:href="#ArialMT-30"/>
      </g>
     </g>
    </g>
    <g id="xtick_4">
     <g id="line2d_4">
      <path clip-path="url(#pa7e60c5f79)" d="M 194.060638 384.1 
L 194.060638 76.782857 
" style="fill:none;stroke:#ffffff;stroke-linecap:round;"/>
     </g>
     <g id="text_4">
      <!-- 200 -->
      <defs>
       <path d="M 50.34375 8.453125 
L 50.34375 0 
L 3.03125 0 
Q 2.9375 3.171875 4.046875 6.109375 
Q 5.859375 10.9375 9.828125 15.625 
Q 13.8125 20.3125 21.34375 26.46875 
Q 33.015625 36.03125 37.109375 41.625 
Q 41.21875 47.21875 41.21875 52.203125 
Q 41.21875 57.421875 37.46875 61 
Q 33.734375 64.59375 27.734375 64.59375 
Q 21.390625 64.59375 17.578125 60.78125 
Q 13.765625 56.984375 13.71875 50.25 
L 4.6875 51.171875 
Q 5.609375 61.28125 11.65625 66.578125 
Q 17.71875 71.875 27.9375 71.875 
Q 38.234375 71.875 44.234375 66.15625 
Q 50.25 60.453125 50.25 52 
Q 50.25 47.703125 48.484375 43.546875 
Q 46.734375 39.40625 42.65625 34.8125 
Q 38.578125 30.21875 29.109375 22.21875 
Q 21.1875 15.578125 18.9375 13.203125 
Q 16.703125 10.84375 15.234375 8.453125 
z
" id="ArialMT-32"/>
      </defs>
      <g style="fill:#262626;" transform="translate(184.885091 401.473594)scale(0.11 -0.11)">
       <use xlink:href="#ArialMT-32"/>
       <use x="55.615234" xlink:href="#ArialMT-30"/>
       <use x="111.230469" xlink:href="#ArialMT-30"/>
      </g>
     </g>
    </g>
    <g id="xtick_5">
     <g id="line2d_5">
      <path clip-path="url(#pa7e60c5f79)" d="M 234.987303 384.1 
L 234.987303 76.782857 
" style="fill:none;stroke:#ffffff;stroke-linecap:round;"/>
     </g>
     <g id="text_5">
      <!-- 300 -->
      <defs>
       <path d="M 4.203125 18.890625 
L 12.984375 20.0625 
Q 14.5 12.59375 18.140625 9.296875 
Q 21.78125 6 27 6 
Q 33.203125 6 37.46875 10.296875 
Q 41.75 14.59375 41.75 20.953125 
Q 41.75 27 37.796875 30.921875 
Q 33.84375 34.859375 27.734375 34.859375 
Q 25.25 34.859375 21.53125 33.890625 
L 22.515625 41.609375 
Q 23.390625 41.5 23.921875 41.5 
Q 29.546875 41.5 34.03125 44.421875 
Q 38.53125 47.359375 38.53125 53.46875 
Q 38.53125 58.296875 35.25 61.46875 
Q 31.984375 64.65625 26.8125 64.65625 
Q 21.6875 64.65625 18.265625 61.421875 
Q 14.84375 58.203125 13.875 51.765625 
L 5.078125 53.328125 
Q 6.6875 62.15625 12.390625 67.015625 
Q 18.109375 71.875 26.609375 71.875 
Q 32.46875 71.875 37.390625 69.359375 
Q 42.328125 66.84375 44.9375 62.5 
Q 47.5625 58.15625 47.5625 53.265625 
Q 47.5625 48.640625 45.0625 44.828125 
Q 42.578125 41.015625 37.703125 38.765625 
Q 44.046875 37.3125 47.5625 32.6875 
Q 51.078125 28.078125 51.078125 21.140625 
Q 51.078125 11.765625 44.234375 5.25 
Q 37.40625 -1.265625 26.953125 -1.265625 
Q 17.53125 -1.265625 11.296875 4.34375 
Q 5.078125 9.96875 4.203125 18.890625 
z
" id="ArialMT-33"/>
      </defs>
      <g style="fill:#262626;" transform="translate(225.811757 401.473594)scale(0.11 -0.11)">
       <use xlink:href="#ArialMT-33"/>
       <use x="55.615234" xlink:href="#ArialMT-30"/>
       <use x="111.230469" xlink:href="#ArialMT-30"/>
      </g>
     </g>
    </g>
    <g id="xtick_6">
     <g id="line2d_6">
      <path clip-path="url(#pa7e60c5f79)" d="M 275.913969 384.1 
L 275.913969 76.782857 
" style="fill:none;stroke:#ffffff;stroke-linecap:round;"/>
     </g>
     <g id="text_6">
      <!-- 400 -->
      <defs>
       <path d="M 32.328125 0 
L 32.328125 17.140625 
L 1.265625 17.140625 
L 1.265625 25.203125 
L 33.9375 71.578125 
L 41.109375 71.578125 
L 41.109375 25.203125 
L 50.78125 25.203125 
L 50.78125 17.140625 
L 41.109375 17.140625 
L 41.109375 0 
z
M 32.328125 25.203125 
L 32.328125 57.46875 
L 9.90625 25.203125 
z
" id="ArialMT-34"/>
      </defs>
      <g style="fill:#262626;" transform="translate(266.738422 401.473594)scale(0.11 -0.11)">
       <use xlink:href="#ArialMT-34"/>
       <use x="55.615234" xlink:href="#ArialMT-30"/>
       <use x="111.230469" xlink:href="#ArialMT-30"/>
      </g>
     </g>
    </g>
    <g id="xtick_7">
     <g id="line2d_7">
      <path clip-path="url(#pa7e60c5f79)" d="M 316.840635 384.1 
L 316.840635 76.782857 
" style="fill:none;stroke:#ffffff;stroke-linecap:round;"/>
     </g>
     <g id="text_7">
      <!-- 500 -->
      <defs>
       <path d="M 4.15625 18.75 
L 13.375 19.53125 
Q 14.40625 12.796875 18.140625 9.390625 
Q 21.875 6 27.15625 6 
Q 33.5 6 37.890625 10.78125 
Q 42.28125 15.578125 42.28125 23.484375 
Q 42.28125 31 38.0625 35.34375 
Q 33.84375 39.703125 27 39.703125 
Q 22.75 39.703125 19.328125 37.765625 
Q 15.921875 35.84375 13.96875 32.765625 
L 5.71875 33.84375 
L 12.640625 70.609375 
L 48.25 70.609375 
L 48.25 62.203125 
L 19.671875 62.203125 
L 15.828125 42.96875 
Q 22.265625 47.46875 29.34375 47.46875 
Q 38.71875 47.46875 45.15625 40.96875 
Q 51.609375 34.46875 51.609375 24.265625 
Q 51.609375 14.546875 45.953125 7.46875 
Q 39.0625 -1.21875 27.15625 -1.21875 
Q 17.390625 -1.21875 11.203125 4.25 
Q 5.03125 9.71875 4.15625 18.75 
z
" id="ArialMT-35"/>
      </defs>
      <g style="fill:#262626;" transform="translate(307.665088 401.473594)scale(0.11 -0.11)">
       <use xlink:href="#ArialMT-35"/>
       <use x="55.615234" xlink:href="#ArialMT-30"/>
       <use x="111.230469" xlink:href="#ArialMT-30"/>
      </g>
     </g>
    </g>
    <g id="text_8">
     <!-- Count_x -->
     <defs>
      <path d="M 58.796875 25.09375 
L 68.265625 22.703125 
Q 65.28125 11.03125 57.546875 4.90625 
Q 49.8125 -1.21875 38.625 -1.21875 
Q 27.046875 -1.21875 19.796875 3.484375 
Q 12.546875 8.203125 8.765625 17.140625 
Q 4.984375 26.078125 4.984375 36.328125 
Q 4.984375 47.515625 9.25 55.828125 
Q 13.53125 64.15625 21.40625 68.46875 
Q 29.296875 72.796875 38.765625 72.796875 
Q 49.515625 72.796875 56.828125 67.328125 
Q 64.15625 61.859375 67.046875 51.953125 
L 57.71875 49.75 
Q 55.21875 57.5625 50.484375 61.125 
Q 45.75 64.703125 38.578125 64.703125 
Q 30.328125 64.703125 24.78125 60.734375 
Q 19.234375 56.78125 16.984375 50.109375 
Q 14.75 43.453125 14.75 36.375 
Q 14.75 27.25 17.40625 20.4375 
Q 20.0625 13.625 25.671875 10.25 
Q 31.296875 6.890625 37.84375 6.890625 
Q 45.796875 6.890625 51.3125 11.46875 
Q 56.84375 16.0625 58.796875 25.09375 
z
" id="ArialMT-43"/>
      <path d="M 3.328125 25.921875 
Q 3.328125 40.328125 11.328125 47.265625 
Q 18.015625 53.03125 27.640625 53.03125 
Q 38.328125 53.03125 45.109375 46.015625 
Q 51.90625 39.015625 51.90625 26.65625 
Q 51.90625 16.65625 48.90625 10.90625 
Q 45.90625 5.171875 40.15625 2 
Q 34.421875 -1.171875 27.640625 -1.171875 
Q 16.75 -1.171875 10.03125 5.8125 
Q 3.328125 12.796875 3.328125 25.921875 
z
M 12.359375 25.921875 
Q 12.359375 15.96875 16.703125 11.015625 
Q 21.046875 6.0625 27.640625 6.0625 
Q 34.1875 6.0625 38.53125 11.03125 
Q 42.875 16.015625 42.875 26.21875 
Q 42.875 35.84375 38.5 40.796875 
Q 34.125 45.75 27.640625 45.75 
Q 21.046875 45.75 16.703125 40.8125 
Q 12.359375 35.890625 12.359375 25.921875 
z
" id="ArialMT-6f"/>
      <path d="M 40.578125 0 
L 40.578125 7.625 
Q 34.515625 -1.171875 24.125 -1.171875 
Q 19.53125 -1.171875 15.546875 0.578125 
Q 11.578125 2.34375 9.640625 5 
Q 7.71875 7.671875 6.9375 11.53125 
Q 6.390625 14.109375 6.390625 19.734375 
L 6.390625 51.859375 
L 15.1875 51.859375 
L 15.1875 23.09375 
Q 15.1875 16.21875 15.71875 13.8125 
Q 16.546875 10.359375 19.234375 8.375 
Q 21.921875 6.390625 25.875 6.390625 
Q 29.828125 6.390625 33.296875 8.421875 
Q 36.765625 10.453125 38.203125 13.9375 
Q 39.65625 17.4375 39.65625 24.078125 
L 39.65625 51.859375 
L 48.4375 51.859375 
L 48.4375 0 
z
" id="ArialMT-75"/>
      <path d="M 6.59375 0 
L 6.59375 51.859375 
L 14.5 51.859375 
L 14.5 44.484375 
Q 20.21875 53.03125 31 53.03125 
Q 35.6875 53.03125 39.625 51.34375 
Q 43.5625 49.65625 45.515625 46.921875 
Q 47.46875 44.1875 48.25 40.4375 
Q 48.734375 37.984375 48.734375 31.890625 
L 48.734375 0 
L 39.9375 0 
L 39.9375 31.546875 
Q 39.9375 36.921875 38.90625 39.578125 
Q 37.890625 42.234375 35.28125 43.8125 
Q 32.671875 45.40625 29.15625 45.40625 
Q 23.53125 45.40625 19.453125 41.84375 
Q 15.375 38.28125 15.375 28.328125 
L 15.375 0 
z
" id="ArialMT-6e"/>
      <path d="M 25.78125 7.859375 
L 27.046875 0.09375 
Q 23.34375 -0.6875 20.40625 -0.6875 
Q 15.625 -0.6875 12.984375 0.828125 
Q 10.359375 2.34375 9.28125 4.8125 
Q 8.203125 7.28125 8.203125 15.1875 
L 8.203125 45.015625 
L 1.765625 45.015625 
L 1.765625 51.859375 
L 8.203125 51.859375 
L 8.203125 64.703125 
L 16.9375 69.96875 
L 16.9375 51.859375 
L 25.78125 51.859375 
L 25.78125 45.015625 
L 16.9375 45.015625 
L 16.9375 14.703125 
Q 16.9375 10.9375 17.40625 9.859375 
Q 17.875 8.796875 18.921875 8.15625 
Q 19.96875 7.515625 21.921875 7.515625 
Q 23.390625 7.515625 25.78125 7.859375 
z
" id="ArialMT-74"/>
      <path d="M -1.515625 -19.875 
L -1.515625 -13.53125 
L 56.734375 -13.53125 
L 56.734375 -19.875 
z
" id="ArialMT-5f"/>
      <path d="M 0.734375 0 
L 19.671875 26.953125 
L 2.15625 51.859375 
L 13.140625 51.859375 
L 21.09375 39.703125 
Q 23.34375 36.234375 24.703125 33.890625 
Q 26.859375 37.109375 28.65625 39.59375 
L 37.40625 51.859375 
L 47.90625 51.859375 
L 29.984375 27.4375 
L 49.265625 0 
L 38.484375 0 
L 27.828125 16.109375 
L 25 20.453125 
L 11.375 0 
z
" id="ArialMT-78"/>
     </defs>
     <g style="fill:#262626;" transform="translate(172.942188 416.395469)scale(0.12 -0.12)">
      <use xlink:href="#ArialMT-43"/>
      <use x="72.216797" xlink:href="#ArialMT-6f"/>
      <use x="127.832031" xlink:href="#ArialMT-75"/>
      <use x="183.447266" xlink:href="#ArialMT-6e"/>
      <use x="239.0625" xlink:href="#ArialMT-74"/>
      <use x="266.845703" xlink:href="#ArialMT-5f"/>
      <use x="322.460938" xlink:href="#ArialMT-78"/>
     </g>
    </g>
   </g>
   <g id="matplotlib.axis_2">
    <g id="ytick_1">
     <g id="line2d_8">
      <path clip-path="url(#pa7e60c5f79)" d="M 43.908438 355.72575 
L 346.668438 355.72575 
" style="fill:none;stroke:#ffffff;stroke-linecap:round;"/>
     </g>
     <g id="text_9">
      <!-- 10 -->
      <g style="fill:#262626;" transform="translate(22.174375 359.662547)scale(0.11 -0.11)">
       <use xlink:href="#ArialMT-31"/>
       <use x="55.615234" xlink:href="#ArialMT-30"/>
      </g>
     </g>
    </g>
    <g id="ytick_2">
     <g id="line2d_9">
      <path clip-path="url(#pa7e60c5f79)" d="M 43.908438 289.085154 
L 346.668438 289.085154 
" style="fill:none;stroke:#ffffff;stroke-linecap:round;"/>
     </g>
     <g id="text_10">
      <!-- 15 -->
      <g style="fill:#262626;" transform="translate(22.174375 293.02195)scale(0.11 -0.11)">
       <use xlink:href="#ArialMT-31"/>
       <use x="55.615234" xlink:href="#ArialMT-35"/>
      </g>
     </g>
    </g>
    <g id="ytick_3">
     <g id="line2d_10">
      <path clip-path="url(#pa7e60c5f79)" d="M 43.908438 222.444557 
L 346.668438 222.444557 
" style="fill:none;stroke:#ffffff;stroke-linecap:round;"/>
     </g>
     <g id="text_11">
      <!-- 20 -->
      <g style="fill:#262626;" transform="translate(22.174375 226.381354)scale(0.11 -0.11)">
       <use xlink:href="#ArialMT-32"/>
       <use x="55.615234" xlink:href="#ArialMT-30"/>
      </g>
     </g>
    </g>
    <g id="ytick_4">
     <g id="line2d_11">
      <path clip-path="url(#pa7e60c5f79)" d="M 43.908438 155.80396 
L 346.668438 155.80396 
" style="fill:none;stroke:#ffffff;stroke-linecap:round;"/>
     </g>
     <g id="text_12">
      <!-- 25 -->
      <g style="fill:#262626;" transform="translate(22.174375 159.740757)scale(0.11 -0.11)">
       <use xlink:href="#ArialMT-32"/>
       <use x="55.615234" xlink:href="#ArialMT-35"/>
      </g>
     </g>
    </g>
    <g id="ytick_5">
     <g id="line2d_12">
      <path clip-path="url(#pa7e60c5f79)" d="M 43.908438 89.163364 
L 346.668438 89.163364 
" style="fill:none;stroke:#ffffff;stroke-linecap:round;"/>
     </g>
     <g id="text_13">
      <!-- 30 -->
      <g style="fill:#262626;" transform="translate(22.174375 93.100161)scale(0.11 -0.11)">
       <use xlink:href="#ArialMT-33"/>
       <use x="55.615234" xlink:href="#ArialMT-30"/>
      </g>
     </g>
    </g>
    <g id="text_14">
     <!-- OvarioleNb -->
     <defs>
      <path d="M 4.828125 34.859375 
Q 4.828125 52.6875 14.390625 62.765625 
Q 23.96875 72.859375 39.109375 72.859375 
Q 49.03125 72.859375 56.984375 68.109375 
Q 64.9375 63.375 69.109375 54.90625 
Q 73.296875 46.4375 73.296875 35.6875 
Q 73.296875 24.8125 68.890625 16.21875 
Q 64.5 7.625 56.4375 3.203125 
Q 48.390625 -1.21875 39.0625 -1.21875 
Q 28.953125 -1.21875 20.984375 3.65625 
Q 13.03125 8.546875 8.921875 16.984375 
Q 4.828125 25.4375 4.828125 34.859375 
z
M 14.59375 34.71875 
Q 14.59375 21.78125 21.546875 14.328125 
Q 28.515625 6.890625 39.015625 6.890625 
Q 49.703125 6.890625 56.609375 14.40625 
Q 63.53125 21.921875 63.53125 35.75 
Q 63.53125 44.484375 60.578125 51 
Q 57.625 57.515625 51.921875 61.109375 
Q 46.234375 64.703125 39.15625 64.703125 
Q 29.109375 64.703125 21.84375 57.78125 
Q 14.59375 50.875 14.59375 34.71875 
z
" id="ArialMT-4f"/>
      <path d="M 21 0 
L 1.265625 51.859375 
L 10.546875 51.859375 
L 21.6875 20.796875 
Q 23.484375 15.765625 25 10.359375 
Q 26.171875 14.453125 28.265625 20.21875 
L 39.796875 51.859375 
L 48.828125 51.859375 
L 29.203125 0 
z
" id="ArialMT-76"/>
      <path d="M 40.4375 6.390625 
Q 35.546875 2.25 31.03125 0.53125 
Q 26.515625 -1.171875 21.34375 -1.171875 
Q 12.796875 -1.171875 8.203125 3 
Q 3.609375 7.171875 3.609375 13.671875 
Q 3.609375 17.484375 5.34375 20.625 
Q 7.078125 23.78125 9.890625 25.6875 
Q 12.703125 27.59375 16.21875 28.5625 
Q 18.796875 29.25 24.03125 29.890625 
Q 34.671875 31.15625 39.703125 32.90625 
Q 39.75 34.71875 39.75 35.203125 
Q 39.75 40.578125 37.25 42.78125 
Q 33.890625 45.75 27.25 45.75 
Q 21.046875 45.75 18.09375 43.578125 
Q 15.140625 41.40625 13.71875 35.890625 
L 5.125 37.0625 
Q 6.296875 42.578125 8.984375 45.96875 
Q 11.671875 49.359375 16.75 51.1875 
Q 21.828125 53.03125 28.515625 53.03125 
Q 35.15625 53.03125 39.296875 51.46875 
Q 43.453125 49.90625 45.40625 47.53125 
Q 47.359375 45.171875 48.140625 41.546875 
Q 48.578125 39.3125 48.578125 33.453125 
L 48.578125 21.734375 
Q 48.578125 9.46875 49.140625 6.21875 
Q 49.703125 2.984375 51.375 0 
L 42.1875 0 
Q 40.828125 2.734375 40.4375 6.390625 
z
M 39.703125 26.03125 
Q 34.90625 24.078125 25.34375 22.703125 
Q 19.921875 21.921875 17.671875 20.9375 
Q 15.4375 19.96875 14.203125 18.09375 
Q 12.984375 16.21875 12.984375 13.921875 
Q 12.984375 10.40625 15.640625 8.0625 
Q 18.3125 5.71875 23.4375 5.71875 
Q 28.515625 5.71875 32.46875 7.9375 
Q 36.421875 10.15625 38.28125 14.015625 
Q 39.703125 17 39.703125 22.796875 
z
" id="ArialMT-61"/>
      <path d="M 6.5 0 
L 6.5 51.859375 
L 14.40625 51.859375 
L 14.40625 44 
Q 17.4375 49.515625 20 51.265625 
Q 22.5625 53.03125 25.640625 53.03125 
Q 30.078125 53.03125 34.671875 50.203125 
L 31.640625 42.046875 
Q 28.421875 43.953125 25.203125 43.953125 
Q 22.3125 43.953125 20.015625 42.21875 
Q 17.71875 40.484375 16.75 37.40625 
Q 15.28125 32.71875 15.28125 27.15625 
L 15.28125 0 
z
" id="ArialMT-72"/>
      <path d="M 6.640625 61.46875 
L 6.640625 71.578125 
L 15.4375 71.578125 
L 15.4375 61.46875 
z
M 6.640625 0 
L 6.640625 51.859375 
L 15.4375 51.859375 
L 15.4375 0 
z
" id="ArialMT-69"/>
      <path d="M 6.390625 0 
L 6.390625 71.578125 
L 15.1875 71.578125 
L 15.1875 0 
z
" id="ArialMT-6c"/>
      <path d="M 42.09375 16.703125 
L 51.171875 15.578125 
Q 49.03125 7.625 43.21875 3.21875 
Q 37.40625 -1.171875 28.375 -1.171875 
Q 17 -1.171875 10.328125 5.828125 
Q 3.65625 12.84375 3.65625 25.484375 
Q 3.65625 38.578125 10.390625 45.796875 
Q 17.140625 53.03125 27.875 53.03125 
Q 38.28125 53.03125 44.875 45.953125 
Q 51.46875 38.875 51.46875 26.03125 
Q 51.46875 25.25 51.421875 23.6875 
L 12.75 23.6875 
Q 13.234375 15.140625 17.578125 10.59375 
Q 21.921875 6.0625 28.421875 6.0625 
Q 33.25 6.0625 36.671875 8.59375 
Q 40.09375 11.140625 42.09375 16.703125 
z
M 13.234375 30.90625 
L 42.1875 30.90625 
Q 41.609375 37.453125 38.875 40.71875 
Q 34.671875 45.796875 27.984375 45.796875 
Q 21.921875 45.796875 17.796875 41.75 
Q 13.671875 37.703125 13.234375 30.90625 
z
" id="ArialMT-65"/>
      <path d="M 7.625 0 
L 7.625 71.578125 
L 17.328125 71.578125 
L 54.9375 15.375 
L 54.9375 71.578125 
L 64.015625 71.578125 
L 64.015625 0 
L 54.296875 0 
L 16.703125 56.25 
L 16.703125 0 
z
" id="ArialMT-4e"/>
      <path d="M 14.703125 0 
L 6.546875 0 
L 6.546875 71.578125 
L 15.328125 71.578125 
L 15.328125 46.046875 
Q 20.90625 53.03125 29.546875 53.03125 
Q 34.328125 53.03125 38.59375 51.09375 
Q 42.875 49.171875 45.625 45.671875 
Q 48.390625 42.1875 49.953125 37.25 
Q 51.515625 32.328125 51.515625 26.703125 
Q 51.515625 13.375 44.921875 6.09375 
Q 38.328125 -1.171875 29.109375 -1.171875 
Q 19.921875 -1.171875 14.703125 6.5 
z
M 14.59375 26.3125 
Q 14.59375 17 17.140625 12.84375 
Q 21.296875 6.0625 28.375 6.0625 
Q 34.125 6.0625 38.328125 11.0625 
Q 42.53125 16.0625 42.53125 25.984375 
Q 42.53125 36.140625 38.5 40.96875 
Q 34.46875 45.796875 28.765625 45.796875 
Q 23 45.796875 18.796875 40.796875 
Q 14.59375 35.796875 14.59375 26.3125 
z
" id="ArialMT-62"/>
     </defs>
     <g style="fill:#262626;" transform="translate(15.789375 260.451741)rotate(-90)scale(0.12 -0.12)">
      <use xlink:href="#ArialMT-4f"/>
      <use x="77.783203" xlink:href="#ArialMT-76"/>
      <use x="127.783203" xlink:href="#ArialMT-61"/>
      <use x="183.398438" xlink:href="#ArialMT-72"/>
      <use x="216.699219" xlink:href="#ArialMT-69"/>
      <use x="238.916016" xlink:href="#ArialMT-6f"/>
      <use x="294.53125" xlink:href="#ArialMT-6c"/>
      <use x="316.748047" xlink:href="#ArialMT-65"/>
      <use x="372.363281" xlink:href="#ArialMT-4e"/>
      <use x="444.580078" xlink:href="#ArialMT-62"/>
     </g>
    </g>
   </g>
   <g id="PathCollection_1">
    <defs>
     <path d="M 0 3 
C 0.795609 3 1.55874 2.683901 2.12132 2.12132 
C 2.683901 1.55874 3 0.795609 3 0 
C 3 -0.795609 2.683901 -1.55874 2.12132 -2.12132 
C 1.55874 -2.683901 0.795609 -3 0 -3 
C -0.795609 -3 -1.55874 -2.683901 -2.12132 -2.12132 
C -2.683901 -1.55874 -3 -0.795609 -3 0 
C -3 0.795609 -2.683901 1.55874 -2.12132 2.12132 
C -1.55874 2.683901 -0.795609 3 0 3 
z
" id="m5c8e23e4a2" style="stroke:#aaaaaa;stroke-opacity:0.8;"/>
    </defs>
    <g clip-path="url(#pa7e60c5f79)">
     <use style="fill:#aaaaaa;fill-opacity:0.8;stroke:#aaaaaa;stroke-opacity:0.8;" x="182.86767" xlink:href="#m5c8e23e4a2" y="233.860279"/>
     <use style="fill:#aaaaaa;fill-opacity:0.8;stroke:#aaaaaa;stroke-opacity:0.8;" x="214.52397" xlink:href="#m5c8e23e4a2" y="199.120348"/>
     <use style="fill:#aaaaaa;fill-opacity:0.8;stroke:#aaaaaa;stroke-opacity:0.8;" x="232.122437" xlink:href="#m5c8e23e4a2" y="202.452378"/>
     <use style="fill:#aaaaaa;fill-opacity:0.8;stroke:#aaaaaa;stroke-opacity:0.8;" x="229.25757" xlink:href="#m5c8e23e4a2" y="230.441429"/>
     <use style="fill:#aaaaaa;fill-opacity:0.8;stroke:#aaaaaa;stroke-opacity:0.8;" x="170.323171" xlink:href="#m5c8e23e4a2" y="204.451596"/>
     <use style="fill:#aaaaaa;fill-opacity:0.8;stroke:#aaaaaa;stroke-opacity:0.8;" x="161.319305" xlink:href="#m5c8e23e4a2" y="235.772676"/>
     <use style="fill:#aaaaaa;fill-opacity:0.8;stroke:#aaaaaa;stroke-opacity:0.8;" x="151.906172" xlink:href="#m5c8e23e4a2" y="207.783626"/>
     <use style="fill:#aaaaaa;fill-opacity:0.8;stroke:#aaaaaa;stroke-opacity:0.8;" x="112.616572" xlink:href="#m5c8e23e4a2" y="285.086718"/>
     <use style="fill:#aaaaaa;fill-opacity:0.8;stroke:#aaaaaa;stroke-opacity:0.8;" x="145.357905" xlink:href="#m5c8e23e4a2" y="211.782062"/>
     <use style="fill:#aaaaaa;fill-opacity:0.8;stroke:#aaaaaa;stroke-opacity:0.8;" x="216.570304" xlink:href="#m5c8e23e4a2" y="237.771894"/>
     <use style="fill:#aaaaaa;fill-opacity:0.8;stroke:#aaaaaa;stroke-opacity:0.8;" x="232.531703" xlink:href="#m5c8e23e4a2" y="238.4383"/>
     <use style="fill:#aaaaaa;fill-opacity:0.8;stroke:#aaaaaa;stroke-opacity:0.8;" x="221.481504" xlink:href="#m5c8e23e4a2" y="233.773458"/>
     <use style="fill:#aaaaaa;fill-opacity:0.8;stroke:#aaaaaa;stroke-opacity:0.8;" x="208.384971" xlink:href="#m5c8e23e4a2" y="218.446121"/>
     <use style="fill:#aaaaaa;fill-opacity:0.8;stroke:#aaaaaa;stroke-opacity:0.8;" x="185.056771" xlink:href="#m5c8e23e4a2" y="219.778933"/>
     <use style="fill:#aaaaaa;fill-opacity:0.8;stroke:#aaaaaa;stroke-opacity:0.8;" x="174.825105" xlink:href="#m5c8e23e4a2" y="225.110181"/>
     <use style="fill:#aaaaaa;fill-opacity:0.8;stroke:#aaaaaa;stroke-opacity:0.8;" x="210.431304" xlink:href="#m5c8e23e4a2" y="237.105488"/>
     <use style="fill:#aaaaaa;fill-opacity:0.8;stroke:#aaaaaa;stroke-opacity:0.8;" x="187.921638" xlink:href="#m5c8e23e4a2" y="295.749213"/>
     <use style="fill:#aaaaaa;fill-opacity:0.8;stroke:#aaaaaa;stroke-opacity:0.8;" x="136.354039" xlink:href="#m5c8e23e4a2" y="179.794575"/>
     <use style="fill:#aaaaaa;fill-opacity:0.8;stroke:#aaaaaa;stroke-opacity:0.8;" x="237.85217" xlink:href="#m5c8e23e4a2" y="325.071076"/>
     <use style="fill:#aaaaaa;fill-opacity:0.8;stroke:#aaaaaa;stroke-opacity:0.8;" x="164.593438" xlink:href="#m5c8e23e4a2" y="212.448467"/>
     <use style="fill:#aaaaaa;fill-opacity:0.8;stroke:#aaaaaa;stroke-opacity:0.8;" x="114.253639" xlink:href="#m5c8e23e4a2" y="315.741392"/>
     <use style="fill:#aaaaaa;fill-opacity:0.8;stroke:#aaaaaa;stroke-opacity:0.8;" x="228.848304" xlink:href="#m5c8e23e4a2" y="221.778151"/>
     <use style="fill:#aaaaaa;fill-opacity:0.8;stroke:#aaaaaa;stroke-opacity:0.8;" x="172.369505" xlink:href="#m5c8e23e4a2" y="297.748431"/>
     <use style="fill:#aaaaaa;fill-opacity:0.8;stroke:#aaaaaa;stroke-opacity:0.8;" x="176.871438" xlink:href="#m5c8e23e4a2" y="203.78519"/>
     <use style="fill:#aaaaaa;fill-opacity:0.8;stroke:#aaaaaa;stroke-opacity:0.8;" x="137.172572" xlink:href="#m5c8e23e4a2" y="269.759381"/>
     <use style="fill:#aaaaaa;fill-opacity:0.8;stroke:#aaaaaa;stroke-opacity:0.8;" x="164.184171" xlink:href="#m5c8e23e4a2" y="214.447685"/>
     <use style="fill:#aaaaaa;fill-opacity:0.8;stroke:#aaaaaa;stroke-opacity:0.8;" x="200.199637" xlink:href="#m5c8e23e4a2" y="209.782844"/>
     <use style="fill:#aaaaaa;fill-opacity:0.8;stroke:#aaaaaa;stroke-opacity:0.8;" x="177.280705" xlink:href="#m5c8e23e4a2" y="299.747649"/>
     <use style="fill:#aaaaaa;fill-opacity:0.8;stroke:#aaaaaa;stroke-opacity:0.8;" x="205.110837" xlink:href="#m5c8e23e4a2" y="217.113309"/>
     <use style="fill:#aaaaaa;fill-opacity:0.8;stroke:#aaaaaa;stroke-opacity:0.8;" x="177.689971" xlink:href="#m5c8e23e4a2" y="198.453942"/>
     <use style="fill:#aaaaaa;fill-opacity:0.8;stroke:#aaaaaa;stroke-opacity:0.8;" x="212.477637" xlink:href="#m5c8e23e4a2" y="214.447685"/>
     <use style="fill:#aaaaaa;fill-opacity:0.8;stroke:#aaaaaa;stroke-opacity:0.8;" x="223.937104" xlink:href="#m5c8e23e4a2" y="239.104706"/>
     <use style="fill:#aaaaaa;fill-opacity:0.8;stroke:#aaaaaa;stroke-opacity:0.8;" x="231.303903" xlink:href="#m5c8e23e4a2" y="232.440646"/>
     <use style="fill:#aaaaaa;fill-opacity:0.8;stroke:#aaaaaa;stroke-opacity:0.8;" x="239.898503" xlink:href="#m5c8e23e4a2" y="191.789883"/>
     <use style="fill:#aaaaaa;fill-opacity:0.8;stroke:#aaaaaa;stroke-opacity:0.8;" x="146.176438" xlink:href="#m5c8e23e4a2" y="205.784408"/>
     <use style="fill:#aaaaaa;fill-opacity:0.8;stroke:#aaaaaa;stroke-opacity:0.8;" x="184.647504" xlink:href="#m5c8e23e4a2" y="281.754688"/>
     <use style="fill:#aaaaaa;fill-opacity:0.8;stroke:#aaaaaa;stroke-opacity:0.8;" x="222.300037" xlink:href="#m5c8e23e4a2" y="198.453942"/>
     <use style="fill:#aaaaaa;fill-opacity:0.8;stroke:#aaaaaa;stroke-opacity:0.8;" x="156.817372" xlink:href="#m5c8e23e4a2" y="239.104706"/>
     <use style="fill:#aaaaaa;fill-opacity:0.8;stroke:#aaaaaa;stroke-opacity:0.8;" x="221.89077" xlink:href="#m5c8e23e4a2" y="213.114873"/>
     <use style="fill:#aaaaaa;fill-opacity:0.8;stroke:#aaaaaa;stroke-opacity:0.8;" x="149.859838" xlink:href="#m5c8e23e4a2" y="212.448467"/>
     <use style="fill:#aaaaaa;fill-opacity:0.8;stroke:#aaaaaa;stroke-opacity:0.8;" x="209.203504" xlink:href="#m5c8e23e4a2" y="235.772676"/>
     <use style="fill:#aaaaaa;fill-opacity:0.8;stroke:#aaaaaa;stroke-opacity:0.8;" x="220.66297" xlink:href="#m5c8e23e4a2" y="188.340252"/>
     <use style="fill:#aaaaaa;fill-opacity:0.8;stroke:#aaaaaa;stroke-opacity:0.8;" x="245.628237" xlink:href="#m5c8e23e4a2" y="225.110181"/>
     <use style="fill:#aaaaaa;fill-opacity:0.8;stroke:#aaaaaa;stroke-opacity:0.8;" x="258.72477" xlink:href="#m5c8e23e4a2" y="206.450814"/>
     <use style="fill:#aaaaaa;fill-opacity:0.8;stroke:#aaaaaa;stroke-opacity:0.8;" x="150.269105" xlink:href="#m5c8e23e4a2" y="271.758598"/>
     <use style="fill:#aaaaaa;fill-opacity:0.8;stroke:#aaaaaa;stroke-opacity:0.8;" x="170.732438" xlink:href="#m5c8e23e4a2" y="203.118784"/>
     <use style="fill:#aaaaaa;fill-opacity:0.8;stroke:#aaaaaa;stroke-opacity:0.8;" x="207.975704" xlink:href="#m5c8e23e4a2" y="236.105879"/>
     <use style="fill:#aaaaaa;fill-opacity:0.8;stroke:#aaaaaa;stroke-opacity:0.8;" x="144.130105" xlink:href="#m5c8e23e4a2" y="198.453942"/>
     <use style="fill:#aaaaaa;fill-opacity:0.8;stroke:#aaaaaa;stroke-opacity:0.8;" x="246.856037" xlink:href="#m5c8e23e4a2" y="223.110963"/>
     <use style="fill:#aaaaaa;fill-opacity:0.8;stroke:#aaaaaa;stroke-opacity:0.8;" x="175.234371" xlink:href="#m5c8e23e4a2" y="221.111745"/>
     <use style="fill:#aaaaaa;fill-opacity:0.8;stroke:#aaaaaa;stroke-opacity:0.8;" x="221.481504" xlink:href="#m5c8e23e4a2" y="223.110963"/>
     <use style="fill:#aaaaaa;fill-opacity:0.8;stroke:#aaaaaa;stroke-opacity:0.8;" x="237.442903" xlink:href="#m5c8e23e4a2" y="201.119566"/>
     <use style="fill:#aaaaaa;fill-opacity:0.8;stroke:#aaaaaa;stroke-opacity:0.8;" x="196.925504" xlink:href="#m5c8e23e4a2" y="180.460981"/>
     <use style="fill:#aaaaaa;fill-opacity:0.8;stroke:#aaaaaa;stroke-opacity:0.8;" x="211.659104" xlink:href="#m5c8e23e4a2" y="271.758598"/>
     <use style="fill:#aaaaaa;fill-opacity:0.8;stroke:#aaaaaa;stroke-opacity:0.8;" x="146.585705" xlink:href="#m5c8e23e4a2" y="233.773458"/>
     <use style="fill:#aaaaaa;fill-opacity:0.8;stroke:#aaaaaa;stroke-opacity:0.8;" x="239.489237" xlink:href="#m5c8e23e4a2" y="208.450032"/>
     <use style="fill:#aaaaaa;fill-opacity:0.8;stroke:#aaaaaa;stroke-opacity:0.8;" x="213.705437" xlink:href="#m5c8e23e4a2" y="235.772676"/>
     <use style="fill:#aaaaaa;fill-opacity:0.8;stroke:#aaaaaa;stroke-opacity:0.8;" x="212.068371" xlink:href="#m5c8e23e4a2" y="215.780497"/>
     <use style="fill:#aaaaaa;fill-opacity:0.8;stroke:#aaaaaa;stroke-opacity:0.8;" x="165.821238" xlink:href="#m5c8e23e4a2" y="204.784799"/>
     <use style="fill:#aaaaaa;fill-opacity:0.8;stroke:#aaaaaa;stroke-opacity:0.8;" x="180.964104" xlink:href="#m5c8e23e4a2" y="248.43439"/>
     <use style="fill:#aaaaaa;fill-opacity:0.8;stroke:#aaaaaa;stroke-opacity:0.8;" x="162.547105" xlink:href="#m5c8e23e4a2" y="230.441429"/>
     <use style="fill:#aaaaaa;fill-opacity:0.8;stroke:#aaaaaa;stroke-opacity:0.8;" x="213.705437" xlink:href="#m5c8e23e4a2" y="230.441429"/>
     <use style="fill:#aaaaaa;fill-opacity:0.8;stroke:#aaaaaa;stroke-opacity:0.8;" x="174.825105" xlink:href="#m5c8e23e4a2" y="190.457071"/>
     <use style="fill:#aaaaaa;fill-opacity:0.8;stroke:#aaaaaa;stroke-opacity:0.8;" x="177.280705" xlink:href="#m5c8e23e4a2" y="176.462545"/>
     <use style="fill:#aaaaaa;fill-opacity:0.8;stroke:#aaaaaa;stroke-opacity:0.8;" x="185.056771" xlink:href="#m5c8e23e4a2" y="238.4383"/>
     <use style="fill:#aaaaaa;fill-opacity:0.8;stroke:#aaaaaa;stroke-opacity:0.8;" x="224.755637" xlink:href="#m5c8e23e4a2" y="214.447685"/>
     <use style="fill:#aaaaaa;fill-opacity:0.8;stroke:#aaaaaa;stroke-opacity:0.8;" x="203.473771" xlink:href="#m5c8e23e4a2" y="200.45316"/>
     <use style="fill:#aaaaaa;fill-opacity:0.8;stroke:#aaaaaa;stroke-opacity:0.8;" x="179.736304" xlink:href="#m5c8e23e4a2" y="197.787536"/>
     <use style="fill:#aaaaaa;fill-opacity:0.8;stroke:#aaaaaa;stroke-opacity:0.8;" x="249.311636" xlink:href="#m5c8e23e4a2" y="200.45316"/>
     <use style="fill:#aaaaaa;fill-opacity:0.8;stroke:#aaaaaa;stroke-opacity:0.8;" x="219.844437" xlink:href="#m5c8e23e4a2" y="218.446121"/>
     <use style="fill:#aaaaaa;fill-opacity:0.8;stroke:#aaaaaa;stroke-opacity:0.8;" x="159.682238" xlink:href="#m5c8e23e4a2" y="202.452378"/>
     <use style="fill:#aaaaaa;fill-opacity:0.8;stroke:#aaaaaa;stroke-opacity:0.8;" x="238.670703" xlink:href="#m5c8e23e4a2" y="209.782844"/>
     <use style="fill:#aaaaaa;fill-opacity:0.8;stroke:#aaaaaa;stroke-opacity:0.8;" x="225.983437" xlink:href="#m5c8e23e4a2" y="177.128951"/>
     <use style="fill:#aaaaaa;fill-opacity:0.8;stroke:#aaaaaa;stroke-opacity:0.8;" x="134.716972" xlink:href="#m5c8e23e4a2" y="237.771894"/>
     <use style="fill:#aaaaaa;fill-opacity:0.8;stroke:#aaaaaa;stroke-opacity:0.8;" x="175.234371" xlink:href="#m5c8e23e4a2" y="227.109399"/>
     <use style="fill:#aaaaaa;fill-opacity:0.8;stroke:#aaaaaa;stroke-opacity:0.8;" x="168.276838" xlink:href="#m5c8e23e4a2" y="215.780497"/>
     <use style="fill:#aaaaaa;fill-opacity:0.8;stroke:#aaaaaa;stroke-opacity:0.8;" x="170.323171" xlink:href="#m5c8e23e4a2" y="220.445339"/>
     <use style="fill:#aaaaaa;fill-opacity:0.8;stroke:#aaaaaa;stroke-opacity:0.8;" x="157.226638" xlink:href="#m5c8e23e4a2" y="209.782844"/>
     <use style="fill:#aaaaaa;fill-opacity:0.8;stroke:#aaaaaa;stroke-opacity:0.8;" x="247.67457" xlink:href="#m5c8e23e4a2" y="209.116438"/>
     <use style="fill:#aaaaaa;fill-opacity:0.8;stroke:#aaaaaa;stroke-opacity:0.8;" x="219.43517" xlink:href="#m5c8e23e4a2" y="238.4383"/>
     <use style="fill:#aaaaaa;fill-opacity:0.8;stroke:#aaaaaa;stroke-opacity:0.8;" x="166.230505" xlink:href="#m5c8e23e4a2" y="229.108617"/>
     <use style="fill:#aaaaaa;fill-opacity:0.8;stroke:#aaaaaa;stroke-opacity:0.8;" x="127.759439" xlink:href="#m5c8e23e4a2" y="207.783626"/>
     <use style="fill:#aaaaaa;fill-opacity:0.8;stroke:#aaaaaa;stroke-opacity:0.8;" x="266.910103" xlink:href="#m5c8e23e4a2" y="220.445339"/>
     <use style="fill:#aaaaaa;fill-opacity:0.8;stroke:#aaaaaa;stroke-opacity:0.8;" x="257.906236" xlink:href="#m5c8e23e4a2" y="224.443775"/>
     <use style="fill:#aaaaaa;fill-opacity:0.8;stroke:#aaaaaa;stroke-opacity:0.8;" x="159.272972" xlink:href="#m5c8e23e4a2" y="231.107835"/>
     <use style="fill:#aaaaaa;fill-opacity:0.8;stroke:#aaaaaa;stroke-opacity:0.8;" x="230.48537" xlink:href="#m5c8e23e4a2" y="211.782062"/>
     <use style="fill:#aaaaaa;fill-opacity:0.8;stroke:#aaaaaa;stroke-opacity:0.8;" x="176.871438" xlink:href="#m5c8e23e4a2" y="221.111745"/>
     <use style="fill:#aaaaaa;fill-opacity:0.8;stroke:#aaaaaa;stroke-opacity:0.8;" x="244.809703" xlink:href="#m5c8e23e4a2" y="209.782844"/>
     <use style="fill:#aaaaaa;fill-opacity:0.8;stroke:#aaaaaa;stroke-opacity:0.8;" x="132.261372" xlink:href="#m5c8e23e4a2" y="236.439082"/>
     <use style="fill:#aaaaaa;fill-opacity:0.8;stroke:#aaaaaa;stroke-opacity:0.8;" x="198.153304" xlink:href="#m5c8e23e4a2" y="183.126605"/>
     <use style="fill:#aaaaaa;fill-opacity:0.8;stroke:#aaaaaa;stroke-opacity:0.8;" x="210.022037" xlink:href="#m5c8e23e4a2" y="210.44925"/>
     <use style="fill:#aaaaaa;fill-opacity:0.8;stroke:#aaaaaa;stroke-opacity:0.8;" x="252.995036" xlink:href="#m5c8e23e4a2" y="217.779715"/>
     <use style="fill:#aaaaaa;fill-opacity:0.8;stroke:#aaaaaa;stroke-opacity:0.8;" x="225.57417" xlink:href="#m5c8e23e4a2" y="223.777369"/>
     <use style="fill:#aaaaaa;fill-opacity:0.8;stroke:#aaaaaa;stroke-opacity:0.8;" x="200.199637" xlink:href="#m5c8e23e4a2" y="223.777369"/>
     <use style="fill:#aaaaaa;fill-opacity:0.8;stroke:#aaaaaa;stroke-opacity:0.8;" x="219.025904" xlink:href="#m5c8e23e4a2" y="221.111745"/>
     <use style="fill:#aaaaaa;fill-opacity:0.8;stroke:#aaaaaa;stroke-opacity:0.8;" x="238.261437" xlink:href="#m5c8e23e4a2" y="209.116438"/>
     <use style="fill:#aaaaaa;fill-opacity:0.8;stroke:#aaaaaa;stroke-opacity:0.8;" x="201.427437" xlink:href="#m5c8e23e4a2" y="201.785972"/>
     <use style="fill:#aaaaaa;fill-opacity:0.8;stroke:#aaaaaa;stroke-opacity:0.8;" x="162.547105" xlink:href="#m5c8e23e4a2" y="113.153978"/>
     <use style="fill:#aaaaaa;fill-opacity:0.8;stroke:#aaaaaa;stroke-opacity:0.8;" x="218.616637" xlink:href="#m5c8e23e4a2" y="205.118002"/>
     <use style="fill:#aaaaaa;fill-opacity:0.8;stroke:#aaaaaa;stroke-opacity:0.8;" x="232.122437" xlink:href="#m5c8e23e4a2" y="203.78519"/>
     <use style="fill:#aaaaaa;fill-opacity:0.8;stroke:#aaaaaa;stroke-opacity:0.8;" x="156.408105" xlink:href="#m5c8e23e4a2" y="189.790665"/>
     <use style="fill:#aaaaaa;fill-opacity:0.8;stroke:#aaaaaa;stroke-opacity:0.8;" x="239.898503" xlink:href="#m5c8e23e4a2" y="238.4383"/>
     <use style="fill:#aaaaaa;fill-opacity:0.8;stroke:#aaaaaa;stroke-opacity:0.8;" x="241.126303" xlink:href="#m5c8e23e4a2" y="205.118002"/>
     <use style="fill:#aaaaaa;fill-opacity:0.8;stroke:#aaaaaa;stroke-opacity:0.8;" x="197.334771" xlink:href="#m5c8e23e4a2" y="214.447685"/>
     <use style="fill:#aaaaaa;fill-opacity:0.8;stroke:#aaaaaa;stroke-opacity:0.8;" x="140.446705" xlink:href="#m5c8e23e4a2" y="260.429697"/>
     <use style="fill:#aaaaaa;fill-opacity:0.8;stroke:#aaaaaa;stroke-opacity:0.8;" x="112.616572" xlink:href="#m5c8e23e4a2" y="347.728879"/>
     <use style="fill:#aaaaaa;fill-opacity:0.8;stroke:#aaaaaa;stroke-opacity:0.8;" x="232.94097" xlink:href="#m5c8e23e4a2" y="250.433608"/>
     <use style="fill:#aaaaaa;fill-opacity:0.8;stroke:#aaaaaa;stroke-opacity:0.8;" x="219.844437" xlink:href="#m5c8e23e4a2" y="177.128951"/>
     <use style="fill:#aaaaaa;fill-opacity:0.8;stroke:#aaaaaa;stroke-opacity:0.8;" x="201.836704" xlink:href="#m5c8e23e4a2" y="224.443775"/>
     <use style="fill:#aaaaaa;fill-opacity:0.8;stroke:#aaaaaa;stroke-opacity:0.8;" x="185.056771" xlink:href="#m5c8e23e4a2" y="205.784408"/>
     <use style="fill:#aaaaaa;fill-opacity:0.8;stroke:#aaaaaa;stroke-opacity:0.8;" x="176.052905" xlink:href="#m5c8e23e4a2" y="267.760163"/>
     <use style="fill:#aaaaaa;fill-opacity:0.8;stroke:#aaaaaa;stroke-opacity:0.8;" x="113.435106" xlink:href="#m5c8e23e4a2" y="242.436736"/>
     <use style="fill:#aaaaaa;fill-opacity:0.8;stroke:#aaaaaa;stroke-opacity:0.8;" x="251.767236" xlink:href="#m5c8e23e4a2" y="191.789883"/>
     <use style="fill:#aaaaaa;fill-opacity:0.8;stroke:#aaaaaa;stroke-opacity:0.8;" x="211.659104" xlink:href="#m5c8e23e4a2" y="200.45316"/>
     <use style="fill:#aaaaaa;fill-opacity:0.8;stroke:#aaaaaa;stroke-opacity:0.8;" x="198.153304" xlink:href="#m5c8e23e4a2" y="228.442211"/>
     <use style="fill:#aaaaaa;fill-opacity:0.8;stroke:#aaaaaa;stroke-opacity:0.8;" x="148.222772" xlink:href="#m5c8e23e4a2" y="235.772676"/>
     <use style="fill:#aaaaaa;fill-opacity:0.8;stroke:#aaaaaa;stroke-opacity:0.8;" x="209.203504" xlink:href="#m5c8e23e4a2" y="201.785972"/>
     <use style="fill:#aaaaaa;fill-opacity:0.8;stroke:#aaaaaa;stroke-opacity:0.8;" x="256.678436" xlink:href="#m5c8e23e4a2" y="165.80005"/>
     <use style="fill:#aaaaaa;fill-opacity:0.8;stroke:#aaaaaa;stroke-opacity:0.8;" x="116.299972" xlink:href="#m5c8e23e4a2" y="329.735918"/>
     <use style="fill:#aaaaaa;fill-opacity:0.8;stroke:#aaaaaa;stroke-opacity:0.8;" x="205.929371" xlink:href="#m5c8e23e4a2" y="211.782062"/>
     <use style="fill:#aaaaaa;fill-opacity:0.8;stroke:#aaaaaa;stroke-opacity:0.8;" x="174.825105" xlink:href="#m5c8e23e4a2" y="203.118784"/>
     <use style="fill:#aaaaaa;fill-opacity:0.8;stroke:#aaaaaa;stroke-opacity:0.8;" x="245.21897" xlink:href="#m5c8e23e4a2" y="213.781279"/>
     <use style="fill:#aaaaaa;fill-opacity:0.8;stroke:#aaaaaa;stroke-opacity:0.8;" x="219.43517" xlink:href="#m5c8e23e4a2" y="169.13208"/>
     <use style="fill:#aaaaaa;fill-opacity:0.8;stroke:#aaaaaa;stroke-opacity:0.8;" x="149.859838" xlink:href="#m5c8e23e4a2" y="235.10627"/>
     <use style="fill:#aaaaaa;fill-opacity:0.8;stroke:#aaaaaa;stroke-opacity:0.8;" x="179.736304" xlink:href="#m5c8e23e4a2" y="211.115656"/>
     <use style="fill:#aaaaaa;fill-opacity:0.8;stroke:#aaaaaa;stroke-opacity:0.8;" x="159.682238" xlink:href="#m5c8e23e4a2" y="228.442211"/>
     <use style="fill:#aaaaaa;fill-opacity:0.8;stroke:#aaaaaa;stroke-opacity:0.8;" x="175.643638" xlink:href="#m5c8e23e4a2" y="217.779715"/>
     <use style="fill:#aaaaaa;fill-opacity:0.8;stroke:#aaaaaa;stroke-opacity:0.8;" x="237.442903" xlink:href="#m5c8e23e4a2" y="144.475059"/>
     <use style="fill:#aaaaaa;fill-opacity:0.8;stroke:#aaaaaa;stroke-opacity:0.8;" x="225.164904" xlink:href="#m5c8e23e4a2" y="227.775805"/>
     <use style="fill:#aaaaaa;fill-opacity:0.8;stroke:#aaaaaa;stroke-opacity:0.8;" x="162.137838" xlink:href="#m5c8e23e4a2" y="231.774241"/>
     <use style="fill:#aaaaaa;fill-opacity:0.8;stroke:#aaaaaa;stroke-opacity:0.8;" x="223.527837" xlink:href="#m5c8e23e4a2" y="246.435172"/>
     <use style="fill:#aaaaaa;fill-opacity:0.8;stroke:#aaaaaa;stroke-opacity:0.8;" x="198.562571" xlink:href="#m5c8e23e4a2" y="224.443775"/>
     <use style="fill:#aaaaaa;fill-opacity:0.8;stroke:#aaaaaa;stroke-opacity:0.8;" x="239.898503" xlink:href="#m5c8e23e4a2" y="222.444557"/>
     <use style="fill:#aaaaaa;fill-opacity:0.8;stroke:#aaaaaa;stroke-opacity:0.8;" x="115.890706" xlink:href="#m5c8e23e4a2" y="222.444557"/>
     <use style="fill:#aaaaaa;fill-opacity:0.8;stroke:#aaaaaa;stroke-opacity:0.8;" x="201.018171" xlink:href="#m5c8e23e4a2" y="221.111745"/>
     <use style="fill:#aaaaaa;fill-opacity:0.8;stroke:#aaaaaa;stroke-opacity:0.8;" x="210.022037" xlink:href="#m5c8e23e4a2" y="217.779715"/>
     <use style="fill:#aaaaaa;fill-opacity:0.8;stroke:#aaaaaa;stroke-opacity:0.8;" x="225.164904" xlink:href="#m5c8e23e4a2" y="225.776587"/>
     <use style="fill:#aaaaaa;fill-opacity:0.8;stroke:#aaaaaa;stroke-opacity:0.8;" x="126.531639" xlink:href="#m5c8e23e4a2" y="217.113309"/>
     <use style="fill:#aaaaaa;fill-opacity:0.8;stroke:#aaaaaa;stroke-opacity:0.8;" x="146.585705" xlink:href="#m5c8e23e4a2" y="255.098449"/>
     <use style="fill:#aaaaaa;fill-opacity:0.8;stroke:#aaaaaa;stroke-opacity:0.8;" x="198.562571" xlink:href="#m5c8e23e4a2" y="217.113309"/>
     <use style="fill:#aaaaaa;fill-opacity:0.8;stroke:#aaaaaa;stroke-opacity:0.8;" x="220.66297" xlink:href="#m5c8e23e4a2" y="234.439864"/>
     <use style="fill:#aaaaaa;fill-opacity:0.8;stroke:#aaaaaa;stroke-opacity:0.8;" x="210.431304" xlink:href="#m5c8e23e4a2" y="241.77033"/>
     <use style="fill:#aaaaaa;fill-opacity:0.8;stroke:#aaaaaa;stroke-opacity:0.8;" x="275.913969" xlink:href="#m5c8e23e4a2" y="237.771894"/>
     <use style="fill:#aaaaaa;fill-opacity:0.8;stroke:#aaaaaa;stroke-opacity:0.8;" x="203.064504" xlink:href="#m5c8e23e4a2" y="257.097667"/>
     <use style="fill:#aaaaaa;fill-opacity:0.8;stroke:#aaaaaa;stroke-opacity:0.8;" x="200.608904" xlink:href="#m5c8e23e4a2" y="226.442993"/>
     <use style="fill:#aaaaaa;fill-opacity:0.8;stroke:#aaaaaa;stroke-opacity:0.8;" x="250.948703" xlink:href="#m5c8e23e4a2" y="215.780497"/>
     <use style="fill:#aaaaaa;fill-opacity:0.8;stroke:#aaaaaa;stroke-opacity:0.8;" x="225.57417" xlink:href="#m5c8e23e4a2" y="171.131298"/>
     <use style="fill:#aaaaaa;fill-opacity:0.8;stroke:#aaaaaa;stroke-opacity:0.8;" x="239.489237" xlink:href="#m5c8e23e4a2" y="227.775805"/>
     <use style="fill:#aaaaaa;fill-opacity:0.8;stroke:#aaaaaa;stroke-opacity:0.8;" x="121.620439" xlink:href="#m5c8e23e4a2" y="229.775023"/>
     <use style="fill:#aaaaaa;fill-opacity:0.8;stroke:#aaaaaa;stroke-opacity:0.8;" x="226.392704" xlink:href="#m5c8e23e4a2" y="231.774241"/>
     <use style="fill:#aaaaaa;fill-opacity:0.8;stroke:#aaaaaa;stroke-opacity:0.8;" x="242.354103" xlink:href="#m5c8e23e4a2" y="200.45316"/>
     <use style="fill:#aaaaaa;fill-opacity:0.8;stroke:#aaaaaa;stroke-opacity:0.8;" x="221.89077" xlink:href="#m5c8e23e4a2" y="208.064218"/>
     <use style="fill:#aaaaaa;fill-opacity:0.8;stroke:#aaaaaa;stroke-opacity:0.8;" x="205.110837" xlink:href="#m5c8e23e4a2" y="217.779715"/>
     <use style="fill:#aaaaaa;fill-opacity:0.8;stroke:#aaaaaa;stroke-opacity:0.8;" x="133.079905" xlink:href="#m5c8e23e4a2" y="279.75547"/>
     <use style="fill:#aaaaaa;fill-opacity:0.8;stroke:#aaaaaa;stroke-opacity:0.8;" x="241.53557" xlink:href="#m5c8e23e4a2" y="203.118784"/>
     <use style="fill:#aaaaaa;fill-opacity:0.8;stroke:#aaaaaa;stroke-opacity:0.8;" x="196.516237" xlink:href="#m5c8e23e4a2" y="219.112527"/>
     <use style="fill:#aaaaaa;fill-opacity:0.8;stroke:#aaaaaa;stroke-opacity:0.8;" x="253.404303" xlink:href="#m5c8e23e4a2" y="237.105488"/>
     <use style="fill:#aaaaaa;fill-opacity:0.8;stroke:#aaaaaa;stroke-opacity:0.8;" x="246.44677" xlink:href="#m5c8e23e4a2" y="217.779715"/>
     <use style="fill:#aaaaaa;fill-opacity:0.8;stroke:#aaaaaa;stroke-opacity:0.8;" x="223.937104" xlink:href="#m5c8e23e4a2" y="181.127387"/>
     <use style="fill:#aaaaaa;fill-opacity:0.8;stroke:#aaaaaa;stroke-opacity:0.8;" x="112.616572" xlink:href="#m5c8e23e4a2" y="243.103142"/>
     <use style="fill:#aaaaaa;fill-opacity:0.8;stroke:#aaaaaa;stroke-opacity:0.8;" x="205.929371" xlink:href="#m5c8e23e4a2" y="197.787536"/>
     <use style="fill:#aaaaaa;fill-opacity:0.8;stroke:#aaaaaa;stroke-opacity:0.8;" x="152.724705" xlink:href="#m5c8e23e4a2" y="231.774241"/>
     <use style="fill:#aaaaaa;fill-opacity:0.8;stroke:#aaaaaa;stroke-opacity:0.8;" x="113.025839" xlink:href="#m5c8e23e4a2" y="216.446903"/>
     <use style="fill:#aaaaaa;fill-opacity:0.8;stroke:#aaaaaa;stroke-opacity:0.8;" x="175.643638" xlink:href="#m5c8e23e4a2" y="211.115656"/>
     <use style="fill:#aaaaaa;fill-opacity:0.8;stroke:#aaaaaa;stroke-opacity:0.8;" x="260.771103" xlink:href="#m5c8e23e4a2" y="221.778151"/>
     <use style="fill:#aaaaaa;fill-opacity:0.8;stroke:#aaaaaa;stroke-opacity:0.8;" x="209.612771" xlink:href="#m5c8e23e4a2" y="210.44925"/>
     <use style="fill:#aaaaaa;fill-opacity:0.8;stroke:#aaaaaa;stroke-opacity:0.8;" x="174.415838" xlink:href="#m5c8e23e4a2" y="190.457071"/>
     <use style="fill:#aaaaaa;fill-opacity:0.8;stroke:#aaaaaa;stroke-opacity:0.8;" x="153.133972" xlink:href="#m5c8e23e4a2" y="195.121912"/>
     <use style="fill:#aaaaaa;fill-opacity:0.8;stroke:#aaaaaa;stroke-opacity:0.8;" x="236.62437" xlink:href="#m5c8e23e4a2" y="185.792229"/>
     <use style="fill:#aaaaaa;fill-opacity:0.8;stroke:#aaaaaa;stroke-opacity:0.8;" x="208.384971" xlink:href="#m5c8e23e4a2" y="207.783626"/>
     <use style="fill:#aaaaaa;fill-opacity:0.8;stroke:#aaaaaa;stroke-opacity:0.8;" x="164.593438" xlink:href="#m5c8e23e4a2" y="212.78167"/>
     <use style="fill:#aaaaaa;fill-opacity:0.8;stroke:#aaaaaa;stroke-opacity:0.8;" x="239.489237" xlink:href="#m5c8e23e4a2" y="228.442211"/>
     <use style="fill:#aaaaaa;fill-opacity:0.8;stroke:#aaaaaa;stroke-opacity:0.8;" x="240.717037" xlink:href="#m5c8e23e4a2" y="221.111745"/>
     <use style="fill:#aaaaaa;fill-opacity:0.8;stroke:#aaaaaa;stroke-opacity:0.8;" x="174.006571" xlink:href="#m5c8e23e4a2" y="211.115656"/>
     <use style="fill:#aaaaaa;fill-opacity:0.8;stroke:#aaaaaa;stroke-opacity:0.8;" x="171.550971" xlink:href="#m5c8e23e4a2" y="189.790665"/>
     <use style="fill:#aaaaaa;fill-opacity:0.8;stroke:#aaaaaa;stroke-opacity:0.8;" x="252.995036" xlink:href="#m5c8e23e4a2" y="231.107835"/>
     <use style="fill:#aaaaaa;fill-opacity:0.8;stroke:#aaaaaa;stroke-opacity:0.8;" x="168.686105" xlink:href="#m5c8e23e4a2" y="231.774241"/>
     <use style="fill:#aaaaaa;fill-opacity:0.8;stroke:#aaaaaa;stroke-opacity:0.8;" x="176.871438" xlink:href="#m5c8e23e4a2" y="220.445339"/>
     <use style="fill:#aaaaaa;fill-opacity:0.8;stroke:#aaaaaa;stroke-opacity:0.8;" x="196.516237" xlink:href="#m5c8e23e4a2" y="247.767984"/>
     <use style="fill:#aaaaaa;fill-opacity:0.8;stroke:#aaaaaa;stroke-opacity:0.8;" x="125.303839" xlink:href="#m5c8e23e4a2" y="251.766419"/>
     <use style="fill:#aaaaaa;fill-opacity:0.8;stroke:#aaaaaa;stroke-opacity:0.8;" x="232.122437" xlink:href="#m5c8e23e4a2" y="207.11722"/>
     <use style="fill:#aaaaaa;fill-opacity:0.8;stroke:#aaaaaa;stroke-opacity:0.8;" x="175.643638" xlink:href="#m5c8e23e4a2" y="211.782062"/>
     <use style="fill:#aaaaaa;fill-opacity:0.8;stroke:#aaaaaa;stroke-opacity:0.8;" x="213.705437" xlink:href="#m5c8e23e4a2" y="233.107052"/>
     <use style="fill:#aaaaaa;fill-opacity:0.8;stroke:#aaaaaa;stroke-opacity:0.8;" x="257.906236" xlink:href="#m5c8e23e4a2" y="228.442211"/>
     <use style="fill:#aaaaaa;fill-opacity:0.8;stroke:#aaaaaa;stroke-opacity:0.8;" x="213.705437" xlink:href="#m5c8e23e4a2" y="217.113309"/>
     <use style="fill:#aaaaaa;fill-opacity:0.8;stroke:#aaaaaa;stroke-opacity:0.8;" x="194.060638" xlink:href="#m5c8e23e4a2" y="203.78519"/>
     <use style="fill:#aaaaaa;fill-opacity:0.8;stroke:#aaaaaa;stroke-opacity:0.8;" x="121.211172" xlink:href="#m5c8e23e4a2" y="313.742174"/>
     <use style="fill:#aaaaaa;fill-opacity:0.8;stroke:#aaaaaa;stroke-opacity:0.8;" x="144.948638" xlink:href="#m5c8e23e4a2" y="277.756252"/>
     <use style="fill:#aaaaaa;fill-opacity:0.8;stroke:#aaaaaa;stroke-opacity:0.8;" x="199.790371" xlink:href="#m5c8e23e4a2" y="220.445339"/>
     <use style="fill:#aaaaaa;fill-opacity:0.8;stroke:#aaaaaa;stroke-opacity:0.8;" x="209.203504" xlink:href="#m5c8e23e4a2" y="223.777369"/>
     <use style="fill:#aaaaaa;fill-opacity:0.8;stroke:#aaaaaa;stroke-opacity:0.8;" x="277.960303" xlink:href="#m5c8e23e4a2" y="194.455506"/>
     <use style="fill:#aaaaaa;fill-opacity:0.8;stroke:#aaaaaa;stroke-opacity:0.8;" x="221.072237" xlink:href="#m5c8e23e4a2" y="215.780497"/>
     <use style="fill:#aaaaaa;fill-opacity:0.8;stroke:#aaaaaa;stroke-opacity:0.8;" x="204.292304" xlink:href="#m5c8e23e4a2" y="196.454724"/>
     <use style="fill:#aaaaaa;fill-opacity:0.8;stroke:#aaaaaa;stroke-opacity:0.8;" x="147.813505" xlink:href="#m5c8e23e4a2" y="225.110181"/>
     <use style="fill:#aaaaaa;fill-opacity:0.8;stroke:#aaaaaa;stroke-opacity:0.8;" x="221.89077" xlink:href="#m5c8e23e4a2" y="241.103924"/>
     <use style="fill:#aaaaaa;fill-opacity:0.8;stroke:#aaaaaa;stroke-opacity:0.8;" x="244.809703" xlink:href="#m5c8e23e4a2" y="195.788318"/>
     <use style="fill:#aaaaaa;fill-opacity:0.8;stroke:#aaaaaa;stroke-opacity:0.8;" x="157.635905" xlink:href="#m5c8e23e4a2" y="211.115656"/>
     <use style="fill:#aaaaaa;fill-opacity:0.8;stroke:#aaaaaa;stroke-opacity:0.8;" x="248.493103" xlink:href="#m5c8e23e4a2" y="199.120348"/>
     <use style="fill:#aaaaaa;fill-opacity:0.8;stroke:#aaaaaa;stroke-opacity:0.8;" x="221.072237" xlink:href="#m5c8e23e4a2" y="202.452378"/>
     <use style="fill:#aaaaaa;fill-opacity:0.8;stroke:#aaaaaa;stroke-opacity:0.8;" x="225.983437" xlink:href="#m5c8e23e4a2" y="222.444557"/>
     <use style="fill:#aaaaaa;fill-opacity:0.8;stroke:#aaaaaa;stroke-opacity:0.8;" x="223.11857" xlink:href="#m5c8e23e4a2" y="205.118002"/>
     <use style="fill:#aaaaaa;fill-opacity:0.8;stroke:#aaaaaa;stroke-opacity:0.8;" x="155.589572" xlink:href="#m5c8e23e4a2" y="189.790665"/>
     <use style="fill:#aaaaaa;fill-opacity:0.8;stroke:#aaaaaa;stroke-opacity:0.8;" x="223.11857" xlink:href="#m5c8e23e4a2" y="280.421876"/>
     <use style="fill:#aaaaaa;fill-opacity:0.8;stroke:#aaaaaa;stroke-opacity:0.8;" x="206.338637" xlink:href="#m5c8e23e4a2" y="219.112527"/>
     <use style="fill:#aaaaaa;fill-opacity:0.8;stroke:#aaaaaa;stroke-opacity:0.8;" x="229.25757" xlink:href="#m5c8e23e4a2" y="235.10627"/>
     <use style="fill:#aaaaaa;fill-opacity:0.8;stroke:#aaaaaa;stroke-opacity:0.8;" x="257.906236" xlink:href="#m5c8e23e4a2" y="222.444557"/>
     <use style="fill:#aaaaaa;fill-opacity:0.8;stroke:#aaaaaa;stroke-opacity:0.8;" x="230.076104" xlink:href="#m5c8e23e4a2" y="222.444557"/>
     <use style="fill:#aaaaaa;fill-opacity:0.8;stroke:#aaaaaa;stroke-opacity:0.8;" x="190.377238" xlink:href="#m5c8e23e4a2" y="220.445339"/>
     <use style="fill:#aaaaaa;fill-opacity:0.8;stroke:#aaaaaa;stroke-opacity:0.8;" x="201.427437" xlink:href="#m5c8e23e4a2" y="248.43439"/>
     <use style="fill:#aaaaaa;fill-opacity:0.8;stroke:#aaaaaa;stroke-opacity:0.8;" x="258.72477" xlink:href="#m5c8e23e4a2" y="243.769548"/>
     <use style="fill:#aaaaaa;fill-opacity:0.8;stroke:#aaaaaa;stroke-opacity:0.8;" x="215.342504" xlink:href="#m5c8e23e4a2" y="219.112527"/>
     <use style="fill:#aaaaaa;fill-opacity:0.8;stroke:#aaaaaa;stroke-opacity:0.8;" x="212.068371" xlink:href="#m5c8e23e4a2" y="181.127387"/>
     <use style="fill:#aaaaaa;fill-opacity:0.8;stroke:#aaaaaa;stroke-opacity:0.8;" x="241.944837" xlink:href="#m5c8e23e4a2" y="209.116438"/>
     <use style="fill:#aaaaaa;fill-opacity:0.8;stroke:#aaaaaa;stroke-opacity:0.8;" x="142.493038" xlink:href="#m5c8e23e4a2" y="257.097667"/>
     <use style="fill:#aaaaaa;fill-opacity:0.8;stroke:#aaaaaa;stroke-opacity:0.8;" x="113.025839" xlink:href="#m5c8e23e4a2" y="195.788318"/>
     <use style="fill:#aaaaaa;fill-opacity:0.8;stroke:#aaaaaa;stroke-opacity:0.8;" x="210.431304" xlink:href="#m5c8e23e4a2" y="234.439864"/>
     <use style="fill:#aaaaaa;fill-opacity:0.8;stroke:#aaaaaa;stroke-opacity:0.8;" x="133.079905" xlink:href="#m5c8e23e4a2" y="285.753124"/>
     <use style="fill:#aaaaaa;fill-opacity:0.8;stroke:#aaaaaa;stroke-opacity:0.8;" x="113.844372" xlink:href="#m5c8e23e4a2" y="227.775805"/>
     <use style="fill:#aaaaaa;fill-opacity:0.8;stroke:#aaaaaa;stroke-opacity:0.8;" x="153.952505" xlink:href="#m5c8e23e4a2" y="203.78519"/>
     <use style="fill:#aaaaaa;fill-opacity:0.8;stroke:#aaaaaa;stroke-opacity:0.8;" x="237.442903" xlink:href="#m5c8e23e4a2" y="169.13208"/>
     <use style="fill:#aaaaaa;fill-opacity:0.8;stroke:#aaaaaa;stroke-opacity:0.8;" x="233.350237" xlink:href="#m5c8e23e4a2" y="242.436736"/>
     <use style="fill:#aaaaaa;fill-opacity:0.8;stroke:#aaaaaa;stroke-opacity:0.8;" x="187.103104" xlink:href="#m5c8e23e4a2" y="225.110181"/>
     <use style="fill:#aaaaaa;fill-opacity:0.8;stroke:#aaaaaa;stroke-opacity:0.8;" x="268.956436" xlink:href="#m5c8e23e4a2" y="205.784408"/>
     <use style="fill:#aaaaaa;fill-opacity:0.8;stroke:#aaaaaa;stroke-opacity:0.8;" x="180.554838" xlink:href="#m5c8e23e4a2" y="225.110181"/>
     <use style="fill:#aaaaaa;fill-opacity:0.8;stroke:#aaaaaa;stroke-opacity:0.8;" x="212.477637" xlink:href="#m5c8e23e4a2" y="195.788318"/>
     <use style="fill:#aaaaaa;fill-opacity:0.8;stroke:#aaaaaa;stroke-opacity:0.8;" x="178.099238" xlink:href="#m5c8e23e4a2" y="227.109399"/>
     <use style="fill:#aaaaaa;fill-opacity:0.8;stroke:#aaaaaa;stroke-opacity:0.8;" x="222.709304" xlink:href="#m5c8e23e4a2" y="226.442993"/>
     <use style="fill:#aaaaaa;fill-opacity:0.8;stroke:#aaaaaa;stroke-opacity:0.8;" x="176.462171" xlink:href="#m5c8e23e4a2" y="227.109399"/>
     <use style="fill:#aaaaaa;fill-opacity:0.8;stroke:#aaaaaa;stroke-opacity:0.8;" x="121.211172" xlink:href="#m5c8e23e4a2" y="235.772676"/>
     <use style="fill:#aaaaaa;fill-opacity:0.8;stroke:#aaaaaa;stroke-opacity:0.8;" x="155.180305" xlink:href="#m5c8e23e4a2" y="217.113309"/>
     <use style="fill:#aaaaaa;fill-opacity:0.8;stroke:#aaaaaa;stroke-opacity:0.8;" x="154.771038" xlink:href="#m5c8e23e4a2" y="201.785972"/>
     <use style="fill:#aaaaaa;fill-opacity:0.8;stroke:#aaaaaa;stroke-opacity:0.8;" x="216.161037" xlink:href="#m5c8e23e4a2" y="219.112527"/>
     <use style="fill:#aaaaaa;fill-opacity:0.8;stroke:#aaaaaa;stroke-opacity:0.8;" x="220.66297" xlink:href="#m5c8e23e4a2" y="211.115656"/>
     <use style="fill:#aaaaaa;fill-opacity:0.8;stroke:#aaaaaa;stroke-opacity:0.8;" x="161.728571" xlink:href="#m5c8e23e4a2" y="225.776587"/>
    </g>
   </g>
   <g id="PolyCollection_1">
    <defs>
     <path d="M 57.670256 -191.62855 
L 57.670256 -157.438023 
L 60.450421 -158.347233 
L 63.230586 -159.208208 
L 66.010752 -160.169201 
L 68.790917 -161.091158 
L 71.571082 -162.002598 
L 74.351247 -162.914038 
L 77.131413 -163.819439 
L 79.911578 -164.713353 
L 82.691743 -165.607268 
L 85.471909 -166.501183 
L 88.252074 -167.395643 
L 91.032239 -168.29099 
L 93.812404 -169.186338 
L 96.59257 -170.081686 
L 99.372735 -170.977033 
L 102.1529 -171.84286 
L 104.933066 -172.683015 
L 107.713231 -173.523169 
L 110.493396 -174.363509 
L 113.273561 -175.321893 
L 116.053727 -176.226825 
L 118.833892 -177.154809 
L 121.614057 -177.975691 
L 124.394223 -178.843275 
L 127.174388 -179.756981 
L 129.954553 -180.670687 
L 132.734718 -181.58555 
L 135.514884 -182.494229 
L 138.295049 -183.410907 
L 141.075214 -184.332359 
L 143.85538 -185.13577 
L 146.635545 -185.972162 
L 149.41571 -186.730422 
L 152.195876 -187.473914 
L 154.976041 -188.339208 
L 157.756206 -189.22524 
L 160.536371 -190.190747 
L 163.316537 -191.034604 
L 166.096702 -191.836545 
L 168.876867 -192.690713 
L 171.657033 -193.529472 
L 174.437198 -194.303466 
L 177.217363 -195.208393 
L 179.997528 -196.07245 
L 182.777694 -196.812063 
L 185.557859 -197.564174 
L 188.338024 -198.334014 
L 191.11819 -199.088147 
L 193.898355 -199.796495 
L 196.67852 -200.525203 
L 199.458685 -201.196667 
L 202.238851 -201.920778 
L 205.019016 -202.59123 
L 207.799181 -203.211302 
L 210.579347 -203.802479 
L 213.359512 -204.293915 
L 216.139677 -204.707477 
L 218.919842 -205.124922 
L 221.700008 -205.655161 
L 224.480173 -206.021307 
L 227.260338 -206.451943 
L 230.040504 -206.938424 
L 232.820669 -207.272403 
L 235.600834 -207.658446 
L 238.380999 -208.132531 
L 241.161165 -208.563589 
L 243.94133 -208.929771 
L 246.721495 -209.297004 
L 249.501661 -209.687575 
L 252.281826 -210.015213 
L 255.061991 -210.341216 
L 257.842157 -210.709198 
L 260.622322 -211.018775 
L 263.402487 -211.376448 
L 266.182652 -211.70755 
L 268.962818 -212.056695 
L 271.742983 -212.349169 
L 274.523148 -212.631813 
L 277.303314 -212.917479 
L 280.083479 -213.204562 
L 282.863644 -213.491971 
L 285.643809 -213.77938 
L 288.423975 -214.113164 
L 291.20414 -214.413544 
L 293.984305 -214.693381 
L 296.764471 -214.97848 
L 299.544636 -215.286827 
L 302.324801 -215.595534 
L 305.104966 -215.905173 
L 307.885132 -216.213122 
L 310.665297 -216.473135 
L 313.445462 -216.723241 
L 316.225628 -217.022836 
L 319.005793 -217.328097 
L 321.785958 -217.707907 
L 324.566123 -218.066 
L 327.346289 -218.374884 
L 330.126454 -218.683768 
L 332.906619 -218.958618 
L 332.906619 -247.159673 
L 332.906619 -247.159673 
L 330.126454 -246.301284 
L 327.346289 -245.44171 
L 324.566123 -244.520477 
L 321.785958 -243.648686 
L 319.005793 -242.739714 
L 316.225628 -241.819211 
L 313.445462 -240.89774 
L 310.665297 -239.97473 
L 307.885132 -239.05725 
L 305.104966 -238.14593 
L 302.324801 -237.256804 
L 299.544636 -236.366002 
L 296.764471 -235.4752 
L 293.984305 -234.584397 
L 291.20414 -233.693595 
L 288.423975 -232.806963 
L 285.643809 -231.913493 
L 282.863644 -231.023939 
L 280.083479 -230.160106 
L 277.303314 -229.297013 
L 274.523148 -228.393039 
L 271.742983 -227.514348 
L 268.962818 -226.699113 
L 266.182652 -225.881704 
L 263.402487 -224.993763 
L 260.622322 -224.115149 
L 257.842157 -223.232684 
L 255.061991 -222.387607 
L 252.281826 -221.436487 
L 249.501661 -220.656391 
L 246.721495 -219.888659 
L 243.94133 -219.106479 
L 241.161165 -218.167667 
L 238.380999 -217.391145 
L 235.600834 -216.54675 
L 232.820669 -215.670426 
L 230.040504 -214.966741 
L 227.260338 -214.166065 
L 224.480173 -213.549174 
L 221.700008 -212.96759 
L 218.919842 -212.181561 
L 216.139677 -211.472757 
L 213.359512 -210.768784 
L 210.579347 -210.301588 
L 207.799181 -209.60629 
L 205.019016 -209.035277 
L 202.238851 -208.576355 
L 199.458685 -207.98474 
L 196.67852 -207.583913 
L 193.898355 -207.151839 
L 191.11819 -206.79868 
L 188.338024 -206.383918 
L 185.557859 -206.018542 
L 182.777694 -205.66226 
L 179.997528 -205.234753 
L 177.217363 -204.883762 
L 174.437198 -204.531543 
L 171.657033 -204.180911 
L 168.876867 -203.827228 
L 166.096702 -203.444056 
L 163.316537 -203.128115 
L 160.536371 -202.846954 
L 157.756206 -202.535089 
L 154.976041 -202.251193 
L 152.195876 -201.866467 
L 149.41571 -201.525945 
L 146.635545 -201.213727 
L 143.85538 -200.900347 
L 141.075214 -200.589293 
L 138.295049 -200.331144 
L 135.514884 -200.114026 
L 132.734718 -199.816862 
L 129.954553 -199.562303 
L 127.174388 -199.279406 
L 124.394223 -198.873689 
L 121.614057 -198.467844 
L 118.833892 -198.136961 
L 116.053727 -197.84318 
L 113.273561 -197.501773 
L 110.493396 -197.147947 
L 107.713231 -196.830906 
L 104.933066 -196.518708 
L 102.1529 -196.20651 
L 99.372735 -195.894311 
L 96.59257 -195.582113 
L 93.812404 -195.269915 
L 91.032239 -194.957717 
L 88.252074 -194.645519 
L 85.471909 -194.333321 
L 82.691743 -194.021123 
L 79.911578 -193.708925 
L 77.131413 -193.396727 
L 74.351247 -193.084529 
L 71.571082 -192.828238 
L 68.790917 -192.588301 
L 66.010752 -192.348363 
L 63.230586 -192.108425 
L 60.450421 -191.868488 
L 57.670256 -191.62855 
z
" id="m0aeb7fbbae" style="stroke:#ffffff;stroke-opacity:0.15;"/>
    </defs>
    <g clip-path="url(#pa7e60c5f79)">
     <use style="fill:#aaaaaa;fill-opacity:0.15;stroke:#ffffff;stroke-opacity:0.15;" x="0" xlink:href="#m0aeb7fbbae" y="425.980469"/>
    </g>
   </g>
   <g id="line2d_13">
    <path clip-path="url(#pa7e60c5f79)" d="M 57.670256 250.967074 
L 60.450421 250.38637 
L 63.230586 249.805667 
L 66.010752 249.224963 
L 68.790917 248.64426 
L 71.571082 248.063557 
L 74.351247 247.482853 
L 77.131413 246.90215 
L 79.911578 246.321447 
L 82.691743 245.740743 
L 85.471909 245.16004 
L 88.252074 244.579336 
L 91.032239 243.998633 
L 93.812404 243.41793 
L 96.59257 242.837226 
L 99.372735 242.256523 
L 102.1529 241.67582 
L 104.933066 241.095116 
L 107.713231 240.514413 
L 110.493396 239.933709 
L 113.273561 239.353006 
L 116.053727 238.772303 
L 118.833892 238.191599 
L 121.614057 237.610896 
L 124.394223 237.030193 
L 127.174388 236.449489 
L 129.954553 235.868786 
L 132.734718 235.288082 
L 135.514884 234.707379 
L 138.295049 234.126676 
L 141.075214 233.545972 
L 143.85538 232.965269 
L 146.635545 232.384566 
L 149.41571 231.803862 
L 152.195876 231.223159 
L 154.976041 230.642455 
L 157.756206 230.061752 
L 160.536371 229.481049 
L 163.316537 228.900345 
L 166.096702 228.319642 
L 168.876867 227.738939 
L 171.657033 227.158235 
L 174.437198 226.577532 
L 177.217363 225.996828 
L 179.997528 225.416125 
L 182.777694 224.835422 
L 185.557859 224.254718 
L 188.338024 223.674015 
L 191.11819 223.093312 
L 193.898355 222.512608 
L 196.67852 221.931905 
L 199.458685 221.351201 
L 202.238851 220.770498 
L 205.019016 220.189795 
L 207.799181 219.609091 
L 210.579347 219.028388 
L 213.359512 218.447685 
L 216.139677 217.866981 
L 218.919842 217.286278 
L 221.700008 216.705574 
L 224.480173 216.124871 
L 227.260338 215.544168 
L 230.040504 214.963464 
L 232.820669 214.382761 
L 235.600834 213.802058 
L 238.380999 213.221354 
L 241.161165 212.640651 
L 243.94133 212.059947 
L 246.721495 211.479244 
L 249.501661 210.898541 
L 252.281826 210.317837 
L 255.061991 209.737134 
L 257.842157 209.156431 
L 260.622322 208.575727 
L 263.402487 207.995024 
L 266.182652 207.41432 
L 268.962818 206.833617 
L 271.742983 206.252914 
L 274.523148 205.67221 
L 277.303314 205.091507 
L 280.083479 204.510804 
L 282.863644 203.9301 
L 285.643809 203.349397 
L 288.423975 202.768693 
L 291.20414 202.18799 
L 293.984305 201.607287 
L 296.764471 201.026583 
L 299.544636 200.44588 
L 302.324801 199.865177 
L 305.104966 199.284473 
L 307.885132 198.70377 
L 310.665297 198.123066 
L 313.445462 197.542363 
L 316.225628 196.96166 
L 319.005793 196.380956 
L 321.785958 195.800253 
L 324.566123 195.21955 
L 327.346289 194.638846 
L 330.126454 194.058143 
L 332.906619 193.477439 
" style="fill:none;stroke:#aaaaaa;stroke-linecap:round;stroke-width:2.25;"/>
   </g>
   <g id="patch_3">
    <path d="M 43.908438 384.1 
L 43.908438 76.782857 
" style="fill:none;stroke:#ffffff;stroke-linecap:square;stroke-linejoin:miter;stroke-width:1.25;"/>
   </g>
   <g id="patch_4">
    <path d="M 43.908438 384.1 
L 346.668438 384.1 
" style="fill:none;stroke:#ffffff;stroke-linecap:square;stroke-linejoin:miter;stroke-width:1.25;"/>
   </g>
   <g id="legend_1">
    <g id="patch_5">
     <path d="M 164.345156 101.175357 
L 338.968438 101.175357 
Q 341.168438 101.175357 341.168438 98.975357 
L 341.168438 84.482857 
Q 341.168438 82.282857 338.968438 82.282857 
L 164.345156 82.282857 
Q 162.145156 82.282857 162.145156 84.482857 
L 162.145156 98.975357 
Q 162.145156 101.175357 164.345156 101.175357 
z
" style="fill:#eaeaf2;opacity:0.8;stroke:#cccccc;stroke-linejoin:miter;"/>
    </g>
    <g id="line2d_14"/>
    <g id="line2d_15"/>
    <g id="text_15">
     <!-- pearsonr = 0.29; p = 9.2e-06 -->
     <defs>
      <path d="M 6.59375 -19.875 
L 6.59375 51.859375 
L 14.59375 51.859375 
L 14.59375 45.125 
Q 17.4375 49.078125 21 51.046875 
Q 24.5625 53.03125 29.640625 53.03125 
Q 36.28125 53.03125 41.359375 49.609375 
Q 46.4375 46.1875 49.015625 39.953125 
Q 51.609375 33.734375 51.609375 26.3125 
Q 51.609375 18.359375 48.75 11.984375 
Q 45.90625 5.609375 40.453125 2.21875 
Q 35.015625 -1.171875 29 -1.171875 
Q 24.609375 -1.171875 21.109375 0.6875 
Q 17.625 2.546875 15.375 5.375 
L 15.375 -19.875 
z
M 14.546875 25.640625 
Q 14.546875 15.625 18.59375 10.84375 
Q 22.65625 6.0625 28.421875 6.0625 
Q 34.28125 6.0625 38.453125 11.015625 
Q 42.625 15.96875 42.625 26.375 
Q 42.625 36.28125 38.546875 41.203125 
Q 34.46875 46.140625 28.8125 46.140625 
Q 23.1875 46.140625 18.859375 40.890625 
Q 14.546875 35.640625 14.546875 25.640625 
z
" id="ArialMT-70"/>
      <path d="M 3.078125 15.484375 
L 11.765625 16.84375 
Q 12.5 11.625 15.84375 8.84375 
Q 19.1875 6.0625 25.203125 6.0625 
Q 31.25 6.0625 34.171875 8.515625 
Q 37.109375 10.984375 37.109375 14.3125 
Q 37.109375 17.28125 34.515625 19 
Q 32.71875 20.171875 25.53125 21.96875 
Q 15.875 24.421875 12.140625 26.203125 
Q 8.40625 27.984375 6.46875 31.125 
Q 4.546875 34.28125 4.546875 38.09375 
Q 4.546875 41.546875 6.125 44.5 
Q 7.71875 47.46875 10.453125 49.421875 
Q 12.5 50.921875 16.03125 51.96875 
Q 19.578125 53.03125 23.640625 53.03125 
Q 29.734375 53.03125 34.34375 51.265625 
Q 38.96875 49.515625 41.15625 46.5 
Q 43.359375 43.5 44.1875 38.484375 
L 35.59375 37.3125 
Q 35.015625 41.3125 32.203125 43.546875 
Q 29.390625 45.796875 24.265625 45.796875 
Q 18.21875 45.796875 15.625 43.796875 
Q 13.03125 41.796875 13.03125 39.109375 
Q 13.03125 37.40625 14.109375 36.03125 
Q 15.1875 34.625 17.484375 33.6875 
Q 18.796875 33.203125 25.25 31.453125 
Q 34.578125 28.953125 38.25 27.359375 
Q 41.9375 25.78125 44.03125 22.75 
Q 46.140625 19.734375 46.140625 15.234375 
Q 46.140625 10.84375 43.578125 6.953125 
Q 41.015625 3.078125 36.171875 0.953125 
Q 31.34375 -1.171875 25.25 -1.171875 
Q 15.140625 -1.171875 9.84375 3.03125 
Q 4.546875 7.234375 3.078125 15.484375 
z
" id="ArialMT-73"/>
      <path id="ArialMT-20"/>
      <path d="M 52.828125 42.09375 
L 5.5625 42.09375 
L 5.5625 50.296875 
L 52.828125 50.296875 
z
M 52.828125 20.359375 
L 5.5625 20.359375 
L 5.5625 28.5625 
L 52.828125 28.5625 
z
" id="ArialMT-3d"/>
      <path d="M 9.078125 0 
L 9.078125 10.015625 
L 19.09375 10.015625 
L 19.09375 0 
z
" id="ArialMT-2e"/>
      <path d="M 5.46875 16.546875 
L 13.921875 17.328125 
Q 14.984375 11.375 18.015625 8.6875 
Q 21.046875 6 25.78125 6 
Q 29.828125 6 32.875 7.859375 
Q 35.9375 9.71875 37.890625 12.8125 
Q 39.84375 15.921875 41.15625 21.1875 
Q 42.484375 26.46875 42.484375 31.9375 
Q 42.484375 32.515625 42.4375 33.6875 
Q 39.796875 29.5 35.234375 26.875 
Q 30.671875 24.265625 25.34375 24.265625 
Q 16.453125 24.265625 10.296875 30.703125 
Q 4.15625 37.15625 4.15625 47.703125 
Q 4.15625 58.59375 10.578125 65.234375 
Q 17 71.875 26.65625 71.875 
Q 33.640625 71.875 39.421875 68.109375 
Q 45.21875 64.359375 48.21875 57.390625 
Q 51.21875 50.4375 51.21875 37.25 
Q 51.21875 23.53125 48.234375 15.40625 
Q 45.265625 7.28125 39.375 3.03125 
Q 33.5 -1.21875 25.59375 -1.21875 
Q 17.1875 -1.21875 11.859375 3.4375 
Q 6.546875 8.109375 5.46875 16.546875 
z
M 41.453125 48.140625 
Q 41.453125 55.71875 37.421875 60.15625 
Q 33.40625 64.59375 27.734375 64.59375 
Q 21.875 64.59375 17.53125 59.8125 
Q 13.1875 55.03125 13.1875 47.40625 
Q 13.1875 40.578125 17.3125 36.296875 
Q 21.4375 32.03125 27.484375 32.03125 
Q 33.59375 32.03125 37.515625 36.296875 
Q 41.453125 40.578125 41.453125 48.140625 
z
" id="ArialMT-39"/>
      <path d="M 8.890625 41.84375 
L 8.890625 51.859375 
L 18.890625 51.859375 
L 18.890625 41.84375 
z
M 8.890625 0 
L 8.890625 10.015625 
L 18.890625 10.015625 
L 18.890625 0 
Q 18.890625 -5.515625 16.9375 -8.90625 
Q 14.984375 -12.3125 10.75 -14.15625 
L 8.296875 -10.40625 
Q 11.078125 -9.1875 12.390625 -6.8125 
Q 13.71875 -4.4375 13.875 0 
z
" id="ArialMT-3b"/>
      <path d="M 3.171875 21.484375 
L 3.171875 30.328125 
L 30.171875 30.328125 
L 30.171875 21.484375 
z
" id="ArialMT-2d"/>
      <path d="M 49.75 54.046875 
L 41.015625 53.375 
Q 39.84375 58.546875 37.703125 60.890625 
Q 34.125 64.65625 28.90625 64.65625 
Q 24.703125 64.65625 21.53125 62.3125 
Q 17.390625 59.28125 14.984375 53.46875 
Q 12.59375 47.65625 12.5 36.921875 
Q 15.671875 41.75 20.265625 44.09375 
Q 24.859375 46.4375 29.890625 46.4375 
Q 38.671875 46.4375 44.84375 39.96875 
Q 51.03125 33.5 51.03125 23.25 
Q 51.03125 16.5 48.125 10.71875 
Q 45.21875 4.9375 40.140625 1.859375 
Q 35.0625 -1.21875 28.609375 -1.21875 
Q 17.625 -1.21875 10.6875 6.859375 
Q 3.765625 14.9375 3.765625 33.5 
Q 3.765625 54.25 11.421875 63.671875 
Q 18.109375 71.875 29.4375 71.875 
Q 37.890625 71.875 43.28125 67.140625 
Q 48.6875 62.40625 49.75 54.046875 
z
M 13.875 23.1875 
Q 13.875 18.65625 15.796875 14.5 
Q 17.71875 10.359375 21.1875 8.171875 
Q 24.65625 6 28.46875 6 
Q 34.03125 6 38.03125 10.484375 
Q 42.046875 14.984375 42.046875 22.703125 
Q 42.046875 30.125 38.078125 34.390625 
Q 34.125 38.671875 28.125 38.671875 
Q 22.171875 38.671875 18.015625 34.390625 
Q 13.875 30.125 13.875 23.1875 
z
" id="ArialMT-36"/>
     </defs>
     <g style="fill:#262626;" transform="translate(197.345156 94.589107)scale(0.11 -0.11)">
      <use xlink:href="#ArialMT-70"/>
      <use x="55.615234" xlink:href="#ArialMT-65"/>
      <use x="111.230469" xlink:href="#ArialMT-61"/>
      <use x="166.845703" xlink:href="#ArialMT-72"/>
      <use x="200.146484" xlink:href="#ArialMT-73"/>
      <use x="250.146484" xlink:href="#ArialMT-6f"/>
      <use x="305.761719" xlink:href="#ArialMT-6e"/>
      <use x="361.376953" xlink:href="#ArialMT-72"/>
      <use x="394.677734" xlink:href="#ArialMT-20"/>
      <use x="422.460938" xlink:href="#ArialMT-3d"/>
      <use x="480.859375" xlink:href="#ArialMT-20"/>
      <use x="508.642578" xlink:href="#ArialMT-30"/>
      <use x="564.257812" xlink:href="#ArialMT-2e"/>
      <use x="592.041016" xlink:href="#ArialMT-32"/>
      <use x="647.65625" xlink:href="#ArialMT-39"/>
      <use x="703.271484" xlink:href="#ArialMT-3b"/>
      <use x="731.054688" xlink:href="#ArialMT-20"/>
      <use x="758.837891" xlink:href="#ArialMT-70"/>
      <use x="814.453125" xlink:href="#ArialMT-20"/>
      <use x="842.236328" xlink:href="#ArialMT-3d"/>
      <use x="900.634766" xlink:href="#ArialMT-20"/>
      <use x="928.417969" xlink:href="#ArialMT-39"/>
      <use x="984.033203" xlink:href="#ArialMT-2e"/>
      <use x="1011.816406" xlink:href="#ArialMT-32"/>
      <use x="1067.431641" xlink:href="#ArialMT-65"/>
      <use x="1123.046875" xlink:href="#ArialMT-2d"/>
      <use x="1156.347656" xlink:href="#ArialMT-30"/>
      <use x="1211.962891" xlink:href="#ArialMT-36"/>
     </g>
    </g>
   </g>
  </g>
  <g id="axes_2">
   <g id="patch_6">
    <path d="M 43.908438 66.185714 
L 346.668438 66.185714 
L 346.668438 13.2 
L 43.908438 13.2 
z
" style="fill:#eaeaf2;"/>
   </g>
   <g id="matplotlib.axis_3">
    <g id="xtick_8">
     <g id="line2d_16">
      <path clip-path="url(#p3164ffb437)" d="M 71.28064 66.185714 
L 71.28064 13.2 
" style="fill:none;stroke:#ffffff;stroke-linecap:round;"/>
     </g>
    </g>
    <g id="xtick_9">
     <g id="line2d_17">
      <path clip-path="url(#p3164ffb437)" d="M 112.207306 66.185714 
L 112.207306 13.2 
" style="fill:none;stroke:#ffffff;stroke-linecap:round;"/>
     </g>
    </g>
    <g id="xtick_10">
     <g id="line2d_18">
      <path clip-path="url(#p3164ffb437)" d="M 153.133972 66.185714 
L 153.133972 13.2 
" style="fill:none;stroke:#ffffff;stroke-linecap:round;"/>
     </g>
    </g>
    <g id="xtick_11">
     <g id="line2d_19">
      <path clip-path="url(#p3164ffb437)" d="M 194.060638 66.185714 
L 194.060638 13.2 
" style="fill:none;stroke:#ffffff;stroke-linecap:round;"/>
     </g>
    </g>
    <g id="xtick_12">
     <g id="line2d_20">
      <path clip-path="url(#p3164ffb437)" d="M 234.987303 66.185714 
L 234.987303 13.2 
" style="fill:none;stroke:#ffffff;stroke-linecap:round;"/>
     </g>
    </g>
    <g id="xtick_13">
     <g id="line2d_21">
      <path clip-path="url(#p3164ffb437)" d="M 275.913969 66.185714 
L 275.913969 13.2 
" style="fill:none;stroke:#ffffff;stroke-linecap:round;"/>
     </g>
    </g>
    <g id="xtick_14">
     <g id="line2d_22">
      <path clip-path="url(#p3164ffb437)" d="M 316.840635 66.185714 
L 316.840635 13.2 
" style="fill:none;stroke:#ffffff;stroke-linecap:round;"/>
     </g>
    </g>
   </g>
   <g id="matplotlib.axis_4">
    <g id="ytick_6"/>
    <g id="ytick_7"/>
   </g>
   <g id="patch_7">
    <path clip-path="url(#p3164ffb437)" d="M 112.616572 66.185714 
L 130.988098 66.185714 
L 130.988098 49.708135 
L 112.616572 49.708135 
z
" style="fill:#aaaaaa;opacity:0.4;stroke:#ffffff;stroke-linejoin:miter;"/>
   </g>
   <g id="patch_8">
    <path clip-path="url(#p3164ffb437)" d="M 130.988098 66.185714 
L 149.359624 66.185714 
L 149.359624 49.708135 
L 130.988098 49.708135 
z
" style="fill:#aaaaaa;opacity:0.4;stroke:#ffffff;stroke-linejoin:miter;"/>
   </g>
   <g id="patch_9">
    <path clip-path="url(#p3164ffb437)" d="M 149.359624 66.185714 
L 167.731149 66.185714 
L 167.731149 38.3798 
L 149.359624 38.3798 
z
" style="fill:#aaaaaa;opacity:0.4;stroke:#ffffff;stroke-linejoin:miter;"/>
   </g>
   <g id="patch_10">
    <path clip-path="url(#p3164ffb437)" d="M 167.731149 66.185714 
L 186.102675 66.185714 
L 186.102675 30.141011 
L 167.731149 30.141011 
z
" style="fill:#aaaaaa;opacity:0.4;stroke:#ffffff;stroke-linejoin:miter;"/>
   </g>
   <g id="patch_11">
    <path clip-path="url(#p3164ffb437)" d="M 186.102675 66.185714 
L 204.4742 66.185714 
L 204.4742 42.499195 
L 186.102675 42.499195 
z
" style="fill:#aaaaaa;opacity:0.4;stroke:#ffffff;stroke-linejoin:miter;"/>
   </g>
   <g id="patch_12">
    <path clip-path="url(#p3164ffb437)" d="M 204.4742 66.185714 
L 222.845726 66.185714 
L 222.845726 15.723129 
L 204.4742 15.723129 
z
" style="fill:#aaaaaa;opacity:0.4;stroke:#ffffff;stroke-linejoin:miter;"/>
   </g>
   <g id="patch_13">
    <path clip-path="url(#p3164ffb437)" d="M 222.845726 66.185714 
L 241.217251 66.185714 
L 241.217251 24.991767 
L 222.845726 24.991767 
z
" style="fill:#aaaaaa;opacity:0.4;stroke:#ffffff;stroke-linejoin:miter;"/>
   </g>
   <g id="patch_14">
    <path clip-path="url(#p3164ffb437)" d="M 241.217251 66.185714 
L 259.588777 66.185714 
L 259.588777 42.499195 
L 241.217251 42.499195 
z
" style="fill:#aaaaaa;opacity:0.4;stroke:#ffffff;stroke-linejoin:miter;"/>
   </g>
   <g id="patch_15">
    <path clip-path="url(#p3164ffb437)" d="M 259.588777 66.185714 
L 277.960303 66.185714 
L 277.960303 61.036471 
L 259.588777 61.036471 
z
" style="fill:#aaaaaa;opacity:0.4;stroke:#ffffff;stroke-linejoin:miter;"/>
   </g>
   <g id="line2d_23">
    <path clip-path="url(#p3164ffb437)" d="M 70.180999 66.123468 
L 78.061783 65.92711 
L 83.972371 65.503552 
L 87.912762 64.991509 
L 91.853154 64.23553 
L 95.793546 63.21003 
L 99.733938 61.933008 
L 105.644525 59.709784 
L 111.555113 57.460785 
L 115.495505 56.117023 
L 121.406092 54.397383 
L 129.286876 52.257079 
L 133.227267 50.990488 
L 137.167659 49.483527 
L 141.108051 47.732543 
L 147.018639 44.794992 
L 152.929226 41.821621 
L 156.869618 40.023733 
L 160.81001 38.502817 
L 164.750401 37.348896 
L 168.690793 36.618115 
L 172.631185 36.305908 
L 176.571577 36.317319 
L 182.482164 36.489798 
L 186.422556 36.307657 
L 188.392752 36.029094 
L 190.362948 35.595307 
L 192.333144 34.995631 
L 194.30334 34.230667 
L 196.273535 33.312582 
L 200.213927 31.118713 
L 208.094711 26.403533 
L 210.064907 25.413462 
L 212.035102 24.577837 
L 214.005298 23.925816 
L 215.975494 23.478827 
L 217.94569 23.250274 
L 219.915886 23.245776 
L 221.886082 23.463846 
L 223.856278 23.896919 
L 225.826474 24.532609 
L 227.796669 25.355077 
L 229.766865 26.346379 
L 231.737061 27.487687 
L 235.677453 30.146294 
L 239.617845 33.193198 
L 243.558236 36.509877 
L 251.43902 43.531408 
L 257.349608 48.714474 
L 261.289999 51.924383 
L 265.230391 54.827768 
L 269.170783 57.361696 
L 273.111175 59.498788 
L 277.051566 61.245146 
L 280.991958 62.631701 
L 284.93235 63.703129 
L 288.872742 64.508399 
L 292.813133 65.095044 
L 298.723721 65.659737 
L 304.634309 65.959472 
L 312.515092 66.121167 
L 320.395876 66.138362 
L 320.395876 66.138362 
" style="fill:none;stroke:#aaaaaa;stroke-linecap:round;stroke-width:1.5;"/>
   </g>
   <g id="patch_16">
    <path d="M 43.908438 66.185714 
L 346.668438 66.185714 
" style="fill:none;stroke:#ffffff;stroke-linecap:square;stroke-linejoin:miter;stroke-width:1.25;"/>
   </g>
  </g>
  <g id="axes_3">
   <g id="patch_17">
    <path d="M 357.108438 384.1 
L 409.308438 384.1 
L 409.308438 76.782857 
L 357.108438 76.782857 
z
" style="fill:#eaeaf2;"/>
   </g>
   <g id="matplotlib.axis_5">
    <g id="xtick_15"/>
    <g id="xtick_16"/>
   </g>
   <g id="matplotlib.axis_6">
    <g id="ytick_8">
     <g id="line2d_24">
      <path clip-path="url(#p1c483c913d)" d="M 357.108438 355.72575 
L 409.308438 355.72575 
" style="fill:none;stroke:#ffffff;stroke-linecap:round;"/>
     </g>
    </g>
    <g id="ytick_9">
     <g id="line2d_25">
      <path clip-path="url(#p1c483c913d)" d="M 357.108438 289.085154 
L 409.308438 289.085154 
" style="fill:none;stroke:#ffffff;stroke-linecap:round;"/>
     </g>
    </g>
    <g id="ytick_10">
     <g id="line2d_26">
      <path clip-path="url(#p1c483c913d)" d="M 357.108438 222.444557 
L 409.308438 222.444557 
" style="fill:none;stroke:#ffffff;stroke-linecap:round;"/>
     </g>
    </g>
    <g id="ytick_11">
     <g id="line2d_27">
      <path clip-path="url(#p1c483c913d)" d="M 357.108438 155.80396 
L 409.308438 155.80396 
" style="fill:none;stroke:#ffffff;stroke-linecap:round;"/>
     </g>
    </g>
    <g id="ytick_12">
     <g id="line2d_28">
      <path clip-path="url(#p1c483c913d)" d="M 357.108438 89.163364 
L 409.308438 89.163364 
" style="fill:none;stroke:#ffffff;stroke-linecap:round;"/>
     </g>
    </g>
   </g>
   <g id="patch_18">
    <path clip-path="url(#p1c483c913d)" d="M 357.108438 347.728879 
L 358.320981 347.728879 
L 358.320981 338.706767 
L 357.108438 338.706767 
z
" style="fill:#aaaaaa;opacity:0.4;stroke:#ffffff;stroke-linejoin:miter;"/>
   </g>
   <g id="patch_19">
    <path clip-path="url(#p1c483c913d)" d="M 357.108438 338.706767 
L 358.320981 338.706767 
L 358.320981 329.684656 
L 357.108438 329.684656 
z
" style="fill:#aaaaaa;opacity:0.4;stroke:#ffffff;stroke-linejoin:miter;"/>
   </g>
   <g id="patch_20">
    <path clip-path="url(#p1c483c913d)" d="M 357.108438 329.684656 
L 358.320981 329.684656 
L 358.320981 320.662544 
L 357.108438 320.662544 
z
" style="fill:#aaaaaa;opacity:0.4;stroke:#ffffff;stroke-linejoin:miter;"/>
   </g>
   <g id="patch_21">
    <path clip-path="url(#p1c483c913d)" d="M 357.108438 320.662544 
L 359.533525 320.662544 
L 359.533525 311.640432 
L 357.108438 311.640432 
z
" style="fill:#aaaaaa;opacity:0.4;stroke:#ffffff;stroke-linejoin:miter;"/>
   </g>
   <g id="patch_22">
    <path clip-path="url(#p1c483c913d)" d="M 357.108438 311.640432 
L 357.108438 311.640432 
L 357.108438 302.618321 
L 357.108438 302.618321 
z
" style="fill:#aaaaaa;opacity:0.4;stroke:#ffffff;stroke-linejoin:miter;"/>
   </g>
   <g id="patch_23">
    <path clip-path="url(#p1c483c913d)" d="M 357.108438 302.618321 
L 360.746068 302.618321 
L 360.746068 293.596209 
L 357.108438 293.596209 
z
" style="fill:#aaaaaa;opacity:0.4;stroke:#ffffff;stroke-linejoin:miter;"/>
   </g>
   <g id="patch_24">
    <path clip-path="url(#p1c483c913d)" d="M 357.108438 293.596209 
L 359.533525 293.596209 
L 359.533525 284.574098 
L 357.108438 284.574098 
z
" style="fill:#aaaaaa;opacity:0.4;stroke:#ffffff;stroke-linejoin:miter;"/>
   </g>
   <g id="patch_25">
    <path clip-path="url(#p1c483c913d)" d="M 357.108438 284.574098 
L 361.958612 284.574098 
L 361.958612 275.551986 
L 357.108438 275.551986 
z
" style="fill:#aaaaaa;opacity:0.4;stroke:#ffffff;stroke-linejoin:miter;"/>
   </g>
   <g id="patch_26">
    <path clip-path="url(#p1c483c913d)" d="M 357.108438 275.551986 
L 361.958612 275.551986 
L 361.958612 266.529875 
L 357.108438 266.529875 
z
" style="fill:#aaaaaa;opacity:0.4;stroke:#ffffff;stroke-linejoin:miter;"/>
   </g>
   <g id="patch_27">
    <path clip-path="url(#p1c483c913d)" d="M 357.108438 266.529875 
L 358.320981 266.529875 
L 358.320981 257.507763 
L 357.108438 257.507763 
z
" style="fill:#aaaaaa;opacity:0.4;stroke:#ffffff;stroke-linejoin:miter;"/>
   </g>
   <g id="patch_28">
    <path clip-path="url(#p1c483c913d)" d="M 357.108438 257.507763 
L 363.171155 257.507763 
L 363.171155 248.485652 
L 357.108438 248.485652 
z
" style="fill:#aaaaaa;opacity:0.4;stroke:#ffffff;stroke-linejoin:miter;"/>
   </g>
   <g id="patch_29">
    <path clip-path="url(#p1c483c913d)" d="M 357.108438 248.485652 
L 369.233873 248.485652 
L 369.233873 239.46354 
L 357.108438 239.46354 
z
" style="fill:#aaaaaa;opacity:0.4;stroke:#ffffff;stroke-linejoin:miter;"/>
   </g>
   <g id="patch_30">
    <path clip-path="url(#p1c483c913d)" d="M 357.108438 239.46354 
L 397.122375 239.46354 
L 397.122375 230.441429 
L 357.108438 230.441429 
z
" style="fill:#aaaaaa;opacity:0.4;stroke:#ffffff;stroke-linejoin:miter;"/>
   </g>
   <g id="patch_31">
    <path clip-path="url(#p1c483c913d)" d="M 357.108438 230.441429 
L 404.397636 230.441429 
L 404.397636 221.419317 
L 357.108438 221.419317 
z
" style="fill:#aaaaaa;opacity:0.4;stroke:#ffffff;stroke-linejoin:miter;"/>
   </g>
   <g id="patch_32">
    <path clip-path="url(#p1c483c913d)" d="M 357.108438 221.419317 
L 406.822723 221.419317 
L 406.822723 212.397205 
L 357.108438 212.397205 
z
" style="fill:#aaaaaa;opacity:0.4;stroke:#ffffff;stroke-linejoin:miter;"/>
   </g>
   <g id="patch_33">
    <path clip-path="url(#p1c483c913d)" d="M 357.108438 212.397205 
L 401.972549 212.397205 
L 401.972549 203.375094 
L 357.108438 203.375094 
z
" style="fill:#aaaaaa;opacity:0.4;stroke:#ffffff;stroke-linejoin:miter;"/>
   </g>
   <g id="patch_34">
    <path clip-path="url(#p1c483c913d)" d="M 357.108438 203.375094 
L 389.847113 203.375094 
L 389.847113 194.352982 
L 357.108438 194.352982 
z
" style="fill:#aaaaaa;opacity:0.4;stroke:#ffffff;stroke-linejoin:miter;"/>
   </g>
   <g id="patch_35">
    <path clip-path="url(#p1c483c913d)" d="M 357.108438 194.352982 
L 368.021329 194.352982 
L 368.021329 185.330871 
L 357.108438 185.330871 
z
" style="fill:#aaaaaa;opacity:0.4;stroke:#ffffff;stroke-linejoin:miter;"/>
   </g>
   <g id="patch_36">
    <path clip-path="url(#p1c483c913d)" d="M 357.108438 185.330871 
L 366.808786 185.330871 
L 366.808786 176.308759 
L 357.108438 176.308759 
z
" style="fill:#aaaaaa;opacity:0.4;stroke:#ffffff;stroke-linejoin:miter;"/>
   </g>
   <g id="patch_37">
    <path clip-path="url(#p1c483c913d)" d="M 357.108438 176.308759 
L 360.746068 176.308759 
L 360.746068 167.286648 
L 357.108438 167.286648 
z
" style="fill:#aaaaaa;opacity:0.4;stroke:#ffffff;stroke-linejoin:miter;"/>
   </g>
   <g id="patch_38">
    <path clip-path="url(#p1c483c913d)" d="M 357.108438 167.286648 
L 358.320981 167.286648 
L 358.320981 158.264536 
L 357.108438 158.264536 
z
" style="fill:#aaaaaa;opacity:0.4;stroke:#ffffff;stroke-linejoin:miter;"/>
   </g>
   <g id="patch_39">
    <path clip-path="url(#p1c483c913d)" d="M 357.108438 158.264536 
L 357.108438 158.264536 
L 357.108438 149.242425 
L 357.108438 149.242425 
z
" style="fill:#aaaaaa;opacity:0.4;stroke:#ffffff;stroke-linejoin:miter;"/>
   </g>
   <g id="patch_40">
    <path clip-path="url(#p1c483c913d)" d="M 357.108438 149.242425 
L 358.320981 149.242425 
L 358.320981 140.220313 
L 357.108438 140.220313 
z
" style="fill:#aaaaaa;opacity:0.4;stroke:#ffffff;stroke-linejoin:miter;"/>
   </g>
   <g id="patch_41">
    <path clip-path="url(#p1c483c913d)" d="M 357.108438 140.220313 
L 357.108438 140.220313 
L 357.108438 131.198202 
L 357.108438 131.198202 
z
" style="fill:#aaaaaa;opacity:0.4;stroke:#ffffff;stroke-linejoin:miter;"/>
   </g>
   <g id="patch_42">
    <path clip-path="url(#p1c483c913d)" d="M 357.108438 131.198202 
L 357.108438 131.198202 
L 357.108438 122.17609 
L 357.108438 122.17609 
z
" style="fill:#aaaaaa;opacity:0.4;stroke:#ffffff;stroke-linejoin:miter;"/>
   </g>
   <g id="patch_43">
    <path clip-path="url(#p1c483c913d)" d="M 357.108438 122.17609 
L 358.320981 122.17609 
L 358.320981 113.153978 
L 357.108438 113.153978 
z
" style="fill:#aaaaaa;opacity:0.4;stroke:#ffffff;stroke-linejoin:miter;"/>
   </g>
   <g id="line2d_29">
    <path clip-path="url(#p1c483c913d)" d="M 357.117998 370.131039 
L 357.22157 361.331693 
L 357.743714 343.733002 
L 357.857852 337.133493 
L 358.753113 319.534802 
L 358.707252 306.335784 
L 359.196771 299.736275 
L 360.023225 290.936929 
L 361.464074 279.937747 
L 361.514151 275.538074 
L 361.072915 266.738729 
L 361.132563 264.538893 
L 361.359994 262.339056 
L 361.791172 260.13922 
L 362.456463 257.939383 
L 363.392071 255.739547 
L 364.651668 253.539711 
L 366.308533 251.339874 
L 368.44115 249.140038 
L 371.103007 246.940201 
L 374.28732 244.740365 
L 377.904395 242.540529 
L 389.536338 235.94102 
L 393.067637 233.741183 
L 396.244479 231.541347 
L 399.023522 229.34151 
L 401.359518 227.141674 
L 403.185736 224.941838 
L 404.426984 222.742001 
L 405.034986 220.542165 
L 405.019068 218.342328 
L 404.448401 216.142492 
L 403.421828 213.942656 
L 402.022701 211.742819 
L 400.285033 209.542983 
L 398.189861 207.343147 
L 395.693512 205.14331 
L 392.773146 202.943474 
L 389.467309 200.743637 
L 378.682122 194.144128 
L 375.437549 191.944292 
L 372.624541 189.744455 
L 370.298807 187.544619 
L 368.444411 185.344783 
L 366.990421 183.144946 
L 365.835848 180.94511 
L 364.023299 176.545437 
L 360.866774 167.746092 
L 359.430458 163.346419 
L 358.830351 161.146582 
L 358.349257 158.946746 
L 358.004014 156.74691 
L 357.792936 154.547073 
L 357.6752 150.147401 
L 357.644008 141.348055 
L 357.243792 128.149037 
L 357.425115 121.549528 
L 357.672585 114.950018 
L 357.655266 110.550346 
L 357.125107 92.951655 
L 357.117998 90.751818 
L 357.117998 90.751818 
" style="fill:none;stroke:#aaaaaa;stroke-linecap:round;stroke-width:1.5;"/>
   </g>
   <g id="patch_44">
    <path d="M 357.108438 384.1 
L 357.108438 76.782857 
" style="fill:none;stroke:#ffffff;stroke-linecap:square;stroke-linejoin:miter;stroke-width:1.25;"/>
   </g>
  </g>
 </g>
 <defs>
  <clipPath id="pa7e60c5f79">
   <rect height="307.317143" width="302.76" x="43.908438" y="76.782857"/>
  </clipPath>
  <clipPath id="p3164ffb437">
   <rect height="52.985714" width="302.76" x="43.908438" y="13.2"/>
  </clipPath>
  <clipPath id="p1c483c913d">
   <rect height="307.317143" width="52.2" x="357.108438" y="76.782857"/>
  </clipPath>
 </defs>
</svg>
