<?xml version="1.0" encoding="utf-8" standalone="no"?>
<!DOCTYPE svg PUBLIC "-//W3C//DTD SVG 1.1//EN"
  "http://www.w3.org/Graphics/SVG/1.1/DTD/svg11.dtd">
<!-- Created with matplotlib (http://matplotlib.org/) -->
<svg height="288pt" version="1.1" viewBox="0 0 864 288" width="864pt" xmlns="http://www.w3.org/2000/svg" xmlns:xlink="http://www.w3.org/1999/xlink">
 <defs>
  <style type="text/css">
*{stroke-linecap:butt;stroke-linejoin:round;}
  </style>
 </defs>
 <g id="figure_1">
  <g id="patch_1">
   <path d="M 0 288 
L 864 288 
L 864 0 
L 0 0 
z
" style="fill:#ffffff;"/>
  </g>
  <g id="axes_1">
   <g id="patch_2">
    <path d="M 108 252 
L 304.941176 252 
L 304.941176 34.56 
L 108 34.56 
z
" style="fill:#eaeaf2;"/>
   </g>
   <g id="matplotlib.axis_1">
    <g id="xtick_1">
     <g id="line2d_1">
      <path clip-path="url(#p93b9b90567)" d="M 116.951872 252 
L 116.951872 34.56 
" style="fill:none;stroke:#ffffff;stroke-linecap:round;"/>
     </g>
     <g id="text_1">
      <!-- 0.00 -->
      <defs>
       <path d="M 4.15625 35.296875 
Q 4.15625 48 6.765625 55.734375 
Q 9.375 63.484375 14.515625 67.671875 
Q 19.671875 71.875 27.484375 71.875 
Q 33.25 71.875 37.59375 69.546875 
Q 41.9375 67.234375 44.765625 62.859375 
Q 47.609375 58.5 49.21875 52.21875 
Q 50.828125 45.953125 50.828125 35.296875 
Q 50.828125 22.703125 48.234375 14.96875 
Q 45.65625 7.234375 40.5 3 
Q 35.359375 -1.21875 27.484375 -1.21875 
Q 17.140625 -1.21875 11.234375 6.203125 
Q 4.15625 15.140625 4.15625 35.296875 
z
M 13.1875 35.296875 
Q 13.1875 17.671875 17.3125 11.828125 
Q 21.4375 6 27.484375 6 
Q 33.546875 6 37.671875 11.859375 
Q 41.796875 17.71875 41.796875 35.296875 
Q 41.796875 52.984375 37.671875 58.78125 
Q 33.546875 64.59375 27.390625 64.59375 
Q 21.34375 64.59375 17.71875 59.46875 
Q 13.1875 52.9375 13.1875 35.296875 
z
" id="ArialMT-30"/>
       <path d="M 9.078125 0 
L 9.078125 10.015625 
L 19.09375 10.015625 
L 19.09375 0 
z
" id="ArialMT-2e"/>
      </defs>
      <g style="fill:#262626;" transform="translate(106.248356 269.373594)scale(0.11 -0.11)">
       <use xlink:href="#ArialMT-30"/>
       <use x="55.615234" xlink:href="#ArialMT-2e"/>
       <use x="83.398438" xlink:href="#ArialMT-30"/>
       <use x="139.013672" xlink:href="#ArialMT-30"/>
      </g>
     </g>
    </g>
    <g id="xtick_2">
     <g id="line2d_2">
      <path clip-path="url(#p93b9b90567)" d="M 161.71123 252 
L 161.71123 34.56 
" style="fill:none;stroke:#ffffff;stroke-linecap:round;"/>
     </g>
     <g id="text_2">
      <!-- 0.25 -->
      <defs>
       <path d="M 50.34375 8.453125 
L 50.34375 0 
L 3.03125 0 
Q 2.9375 3.171875 4.046875 6.109375 
Q 5.859375 10.9375 9.828125 15.625 
Q 13.8125 20.3125 21.34375 26.46875 
Q 33.015625 36.03125 37.109375 41.625 
Q 41.21875 47.21875 41.21875 52.203125 
Q 41.21875 57.421875 37.46875 61 
Q 33.734375 64.59375 27.734375 64.59375 
Q 21.390625 64.59375 17.578125 60.78125 
Q 13.765625 56.984375 13.71875 50.25 
L 4.6875 51.171875 
Q 5.609375 61.28125 11.65625 66.578125 
Q 17.71875 71.875 27.9375 71.875 
Q 38.234375 71.875 44.234375 66.15625 
Q 50.25 60.453125 50.25 52 
Q 50.25 47.703125 48.484375 43.546875 
Q 46.734375 39.40625 42.65625 34.8125 
Q 38.578125 30.21875 29.109375 22.21875 
Q 21.1875 15.578125 18.9375 13.203125 
Q 16.703125 10.84375 15.234375 8.453125 
z
" id="ArialMT-32"/>
       <path d="M 4.15625 18.75 
L 13.375 19.53125 
Q 14.40625 12.796875 18.140625 9.390625 
Q 21.875 6 27.15625 6 
Q 33.5 6 37.890625 10.78125 
Q 42.28125 15.578125 42.28125 23.484375 
Q 42.28125 31 38.0625 35.34375 
Q 33.84375 39.703125 27 39.703125 
Q 22.75 39.703125 19.328125 37.765625 
Q 15.921875 35.84375 13.96875 32.765625 
L 5.71875 33.84375 
L 12.640625 70.609375 
L 48.25 70.609375 
L 48.25 62.203125 
L 19.671875 62.203125 
L 15.828125 42.96875 
Q 22.265625 47.46875 29.34375 47.46875 
Q 38.71875 47.46875 45.15625 40.96875 
Q 51.609375 34.46875 51.609375 24.265625 
Q 51.609375 14.546875 45.953125 7.46875 
Q 39.0625 -1.21875 27.15625 -1.21875 
Q 17.390625 -1.21875 11.203125 4.25 
Q 5.03125 9.71875 4.15625 18.75 
z
" id="ArialMT-35"/>
      </defs>
      <g style="fill:#262626;" transform="translate(151.007714 269.373594)scale(0.11 -0.11)">
       <use xlink:href="#ArialMT-30"/>
       <use x="55.615234" xlink:href="#ArialMT-2e"/>
       <use x="83.398438" xlink:href="#ArialMT-32"/>
       <use x="139.013672" xlink:href="#ArialMT-35"/>
      </g>
     </g>
    </g>
    <g id="xtick_3">
     <g id="line2d_3">
      <path clip-path="url(#p93b9b90567)" d="M 206.470588 252 
L 206.470588 34.56 
" style="fill:none;stroke:#ffffff;stroke-linecap:round;"/>
     </g>
     <g id="text_3">
      <!-- 0.50 -->
      <g style="fill:#262626;" transform="translate(195.767073 269.373594)scale(0.11 -0.11)">
       <use xlink:href="#ArialMT-30"/>
       <use x="55.615234" xlink:href="#ArialMT-2e"/>
       <use x="83.398438" xlink:href="#ArialMT-35"/>
       <use x="139.013672" xlink:href="#ArialMT-30"/>
      </g>
     </g>
    </g>
    <g id="xtick_4">
     <g id="line2d_4">
      <path clip-path="url(#p93b9b90567)" d="M 251.229947 252 
L 251.229947 34.56 
" style="fill:none;stroke:#ffffff;stroke-linecap:round;"/>
     </g>
     <g id="text_4">
      <!-- 0.75 -->
      <defs>
       <path d="M 4.734375 62.203125 
L 4.734375 70.65625 
L 51.078125 70.65625 
L 51.078125 63.8125 
Q 44.234375 56.546875 37.515625 44.484375 
Q 30.8125 32.421875 27.15625 19.671875 
Q 24.515625 10.6875 23.78125 0 
L 14.75 0 
Q 14.890625 8.453125 18.0625 20.40625 
Q 21.234375 32.375 27.171875 43.484375 
Q 33.109375 54.59375 39.796875 62.203125 
z
" id="ArialMT-37"/>
      </defs>
      <g style="fill:#262626;" transform="translate(240.526431 269.373594)scale(0.11 -0.11)">
       <use xlink:href="#ArialMT-30"/>
       <use x="55.615234" xlink:href="#ArialMT-2e"/>
       <use x="83.398438" xlink:href="#ArialMT-37"/>
       <use x="139.013672" xlink:href="#ArialMT-35"/>
      </g>
     </g>
    </g>
    <g id="xtick_5">
     <g id="line2d_5">
      <path clip-path="url(#p93b9b90567)" d="M 295.989305 252 
L 295.989305 34.56 
" style="fill:none;stroke:#ffffff;stroke-linecap:round;"/>
     </g>
     <g id="text_5">
      <!-- 1.00 -->
      <defs>
       <path d="M 37.25 0 
L 28.46875 0 
L 28.46875 56 
Q 25.296875 52.984375 20.140625 49.953125 
Q 14.984375 46.921875 10.890625 45.40625 
L 10.890625 53.90625 
Q 18.265625 57.375 23.78125 62.296875 
Q 29.296875 67.234375 31.59375 71.875 
L 37.25 71.875 
z
" id="ArialMT-31"/>
      </defs>
      <g style="fill:#262626;" transform="translate(285.285789 269.373594)scale(0.11 -0.11)">
       <use xlink:href="#ArialMT-31"/>
       <use x="55.615234" xlink:href="#ArialMT-2e"/>
       <use x="83.398438" xlink:href="#ArialMT-30"/>
       <use x="139.013672" xlink:href="#ArialMT-30"/>
      </g>
     </g>
    </g>
   </g>
   <g id="matplotlib.axis_2">
    <g id="ytick_1">
     <g id="line2d_6">
      <path clip-path="url(#p93b9b90567)" d="M 108 242.116364 
L 304.941176 242.116364 
" style="fill:none;stroke:#ffffff;stroke-linecap:round;"/>
     </g>
     <g id="text_6">
      <!-- 0.0 -->
      <g style="fill:#262626;" transform="translate(83.21 246.053161)scale(0.11 -0.11)">
       <use xlink:href="#ArialMT-30"/>
       <use x="55.615234" xlink:href="#ArialMT-2e"/>
       <use x="83.398438" xlink:href="#ArialMT-30"/>
      </g>
     </g>
    </g>
    <g id="ytick_2">
     <g id="line2d_7">
      <path clip-path="url(#p93b9b90567)" d="M 108 202.581818 
L 304.941176 202.581818 
" style="fill:none;stroke:#ffffff;stroke-linecap:round;"/>
     </g>
     <g id="text_7">
      <!-- 0.2 -->
      <g style="fill:#262626;" transform="translate(83.21 206.518615)scale(0.11 -0.11)">
       <use xlink:href="#ArialMT-30"/>
       <use x="55.615234" xlink:href="#ArialMT-2e"/>
       <use x="83.398438" xlink:href="#ArialMT-32"/>
      </g>
     </g>
    </g>
    <g id="ytick_3">
     <g id="line2d_8">
      <path clip-path="url(#p93b9b90567)" d="M 108 163.047273 
L 304.941176 163.047273 
" style="fill:none;stroke:#ffffff;stroke-linecap:round;"/>
     </g>
     <g id="text_8">
      <!-- 0.4 -->
      <defs>
       <path d="M 32.328125 0 
L 32.328125 17.140625 
L 1.265625 17.140625 
L 1.265625 25.203125 
L 33.9375 71.578125 
L 41.109375 71.578125 
L 41.109375 25.203125 
L 50.78125 25.203125 
L 50.78125 17.140625 
L 41.109375 17.140625 
L 41.109375 0 
z
M 32.328125 25.203125 
L 32.328125 57.46875 
L 9.90625 25.203125 
z
" id="ArialMT-34"/>
      </defs>
      <g style="fill:#262626;" transform="translate(83.21 166.98407)scale(0.11 -0.11)">
       <use xlink:href="#ArialMT-30"/>
       <use x="55.615234" xlink:href="#ArialMT-2e"/>
       <use x="83.398438" xlink:href="#ArialMT-34"/>
      </g>
     </g>
    </g>
    <g id="ytick_4">
     <g id="line2d_9">
      <path clip-path="url(#p93b9b90567)" d="M 108 123.512727 
L 304.941176 123.512727 
" style="fill:none;stroke:#ffffff;stroke-linecap:round;"/>
     </g>
     <g id="text_9">
      <!-- 0.6 -->
      <defs>
       <path d="M 49.75 54.046875 
L 41.015625 53.375 
Q 39.84375 58.546875 37.703125 60.890625 
Q 34.125 64.65625 28.90625 64.65625 
Q 24.703125 64.65625 21.53125 62.3125 
Q 17.390625 59.28125 14.984375 53.46875 
Q 12.59375 47.65625 12.5 36.921875 
Q 15.671875 41.75 20.265625 44.09375 
Q 24.859375 46.4375 29.890625 46.4375 
Q 38.671875 46.4375 44.84375 39.96875 
Q 51.03125 33.5 51.03125 23.25 
Q 51.03125 16.5 48.125 10.71875 
Q 45.21875 4.9375 40.140625 1.859375 
Q 35.0625 -1.21875 28.609375 -1.21875 
Q 17.625 -1.21875 10.6875 6.859375 
Q 3.765625 14.9375 3.765625 33.5 
Q 3.765625 54.25 11.421875 63.671875 
Q 18.109375 71.875 29.4375 71.875 
Q 37.890625 71.875 43.28125 67.140625 
Q 48.6875 62.40625 49.75 54.046875 
z
M 13.875 23.1875 
Q 13.875 18.65625 15.796875 14.5 
Q 17.71875 10.359375 21.1875 8.171875 
Q 24.65625 6 28.46875 6 
Q 34.03125 6 38.03125 10.484375 
Q 42.046875 14.984375 42.046875 22.703125 
Q 42.046875 30.125 38.078125 34.390625 
Q 34.125 38.671875 28.125 38.671875 
Q 22.171875 38.671875 18.015625 34.390625 
Q 13.875 30.125 13.875 23.1875 
z
" id="ArialMT-36"/>
      </defs>
      <g style="fill:#262626;" transform="translate(83.21 127.449524)scale(0.11 -0.11)">
       <use xlink:href="#ArialMT-30"/>
       <use x="55.615234" xlink:href="#ArialMT-2e"/>
       <use x="83.398438" xlink:href="#ArialMT-36"/>
      </g>
     </g>
    </g>
    <g id="ytick_5">
     <g id="line2d_10">
      <path clip-path="url(#p93b9b90567)" d="M 108 83.978182 
L 304.941176 83.978182 
" style="fill:none;stroke:#ffffff;stroke-linecap:round;"/>
     </g>
     <g id="text_10">
      <!-- 0.8 -->
      <defs>
       <path d="M 17.671875 38.8125 
Q 12.203125 40.828125 9.5625 44.53125 
Q 6.9375 48.25 6.9375 53.421875 
Q 6.9375 61.234375 12.546875 66.546875 
Q 18.171875 71.875 27.484375 71.875 
Q 36.859375 71.875 42.578125 66.421875 
Q 48.296875 60.984375 48.296875 53.171875 
Q 48.296875 48.1875 45.671875 44.5 
Q 43.0625 40.828125 37.75 38.8125 
Q 44.34375 36.671875 47.78125 31.875 
Q 51.21875 27.09375 51.21875 20.453125 
Q 51.21875 11.28125 44.71875 5.03125 
Q 38.234375 -1.21875 27.640625 -1.21875 
Q 17.046875 -1.21875 10.546875 5.046875 
Q 4.046875 11.328125 4.046875 20.703125 
Q 4.046875 27.6875 7.59375 32.390625 
Q 11.140625 37.109375 17.671875 38.8125 
z
M 15.921875 53.71875 
Q 15.921875 48.640625 19.1875 45.40625 
Q 22.46875 42.1875 27.6875 42.1875 
Q 32.765625 42.1875 36.015625 45.375 
Q 39.265625 48.578125 39.265625 53.21875 
Q 39.265625 58.0625 35.90625 61.359375 
Q 32.5625 64.65625 27.59375 64.65625 
Q 22.5625 64.65625 19.234375 61.421875 
Q 15.921875 58.203125 15.921875 53.71875 
z
M 13.09375 20.65625 
Q 13.09375 16.890625 14.875 13.375 
Q 16.65625 9.859375 20.171875 7.921875 
Q 23.6875 6 27.734375 6 
Q 34.03125 6 38.125 10.046875 
Q 42.234375 14.109375 42.234375 20.359375 
Q 42.234375 26.703125 38.015625 30.859375 
Q 33.796875 35.015625 27.4375 35.015625 
Q 21.234375 35.015625 17.15625 30.90625 
Q 13.09375 26.8125 13.09375 20.65625 
z
" id="ArialMT-38"/>
      </defs>
      <g style="fill:#262626;" transform="translate(83.21 87.914979)scale(0.11 -0.11)">
       <use xlink:href="#ArialMT-30"/>
       <use x="55.615234" xlink:href="#ArialMT-2e"/>
       <use x="83.398438" xlink:href="#ArialMT-38"/>
      </g>
     </g>
    </g>
    <g id="ytick_6">
     <g id="line2d_11">
      <path clip-path="url(#p93b9b90567)" d="M 108 44.443636 
L 304.941176 44.443636 
" style="fill:none;stroke:#ffffff;stroke-linecap:round;"/>
     </g>
     <g id="text_11">
      <!-- 1.0 -->
      <g style="fill:#262626;" transform="translate(83.21 48.380433)scale(0.11 -0.11)">
       <use xlink:href="#ArialMT-31"/>
       <use x="55.615234" xlink:href="#ArialMT-2e"/>
       <use x="83.398438" xlink:href="#ArialMT-30"/>
      </g>
     </g>
    </g>
    <g id="text_12">
     <!-- True Discovery Rate -->
     <defs>
      <path d="M 25.921875 0 
L 25.921875 63.140625 
L 2.34375 63.140625 
L 2.34375 71.578125 
L 59.078125 71.578125 
L 59.078125 63.140625 
L 35.40625 63.140625 
L 35.40625 0 
z
" id="ArialMT-54"/>
      <path d="M 6.5 0 
L 6.5 51.859375 
L 14.40625 51.859375 
L 14.40625 44 
Q 17.4375 49.515625 20 51.265625 
Q 22.5625 53.03125 25.640625 53.03125 
Q 30.078125 53.03125 34.671875 50.203125 
L 31.640625 42.046875 
Q 28.421875 43.953125 25.203125 43.953125 
Q 22.3125 43.953125 20.015625 42.21875 
Q 17.71875 40.484375 16.75 37.40625 
Q 15.28125 32.71875 15.28125 27.15625 
L 15.28125 0 
z
" id="ArialMT-72"/>
      <path d="M 40.578125 0 
L 40.578125 7.625 
Q 34.515625 -1.171875 24.125 -1.171875 
Q 19.53125 -1.171875 15.546875 0.578125 
Q 11.578125 2.34375 9.640625 5 
Q 7.71875 7.671875 6.9375 11.53125 
Q 6.390625 14.109375 6.390625 19.734375 
L 6.390625 51.859375 
L 15.1875 51.859375 
L 15.1875 23.09375 
Q 15.1875 16.21875 15.71875 13.8125 
Q 16.546875 10.359375 19.234375 8.375 
Q 21.921875 6.390625 25.875 6.390625 
Q 29.828125 6.390625 33.296875 8.421875 
Q 36.765625 10.453125 38.203125 13.9375 
Q 39.65625 17.4375 39.65625 24.078125 
L 39.65625 51.859375 
L 48.4375 51.859375 
L 48.4375 0 
z
" id="ArialMT-75"/>
      <path d="M 42.09375 16.703125 
L 51.171875 15.578125 
Q 49.03125 7.625 43.21875 3.21875 
Q 37.40625 -1.171875 28.375 -1.171875 
Q 17 -1.171875 10.328125 5.828125 
Q 3.65625 12.84375 3.65625 25.484375 
Q 3.65625 38.578125 10.390625 45.796875 
Q 17.140625 53.03125 27.875 53.03125 
Q 38.28125 53.03125 44.875 45.953125 
Q 51.46875 38.875 51.46875 26.03125 
Q 51.46875 25.25 51.421875 23.6875 
L 12.75 23.6875 
Q 13.234375 15.140625 17.578125 10.59375 
Q 21.921875 6.0625 28.421875 6.0625 
Q 33.25 6.0625 36.671875 8.59375 
Q 40.09375 11.140625 42.09375 16.703125 
z
M 13.234375 30.90625 
L 42.1875 30.90625 
Q 41.609375 37.453125 38.875 40.71875 
Q 34.671875 45.796875 27.984375 45.796875 
Q 21.921875 45.796875 17.796875 41.75 
Q 13.671875 37.703125 13.234375 30.90625 
z
" id="ArialMT-65"/>
      <path id="ArialMT-20"/>
      <path d="M 7.71875 0 
L 7.71875 71.578125 
L 32.375 71.578125 
Q 40.71875 71.578125 45.125 70.5625 
Q 51.265625 69.140625 55.609375 65.4375 
Q 61.28125 60.640625 64.078125 53.1875 
Q 66.890625 45.75 66.890625 36.1875 
Q 66.890625 28.03125 64.984375 21.734375 
Q 63.09375 15.4375 60.109375 11.296875 
Q 57.125 7.171875 53.578125 4.796875 
Q 50.046875 2.4375 45.046875 1.21875 
Q 40.046875 0 33.546875 0 
z
M 17.1875 8.453125 
L 32.46875 8.453125 
Q 39.546875 8.453125 43.578125 9.765625 
Q 47.609375 11.078125 50 13.484375 
Q 53.375 16.84375 55.25 22.53125 
Q 57.125 28.21875 57.125 36.328125 
Q 57.125 47.5625 53.4375 53.59375 
Q 49.75 59.625 44.484375 61.671875 
Q 40.671875 63.140625 32.234375 63.140625 
L 17.1875 63.140625 
z
" id="ArialMT-44"/>
      <path d="M 6.640625 61.46875 
L 6.640625 71.578125 
L 15.4375 71.578125 
L 15.4375 61.46875 
z
M 6.640625 0 
L 6.640625 51.859375 
L 15.4375 51.859375 
L 15.4375 0 
z
" id="ArialMT-69"/>
      <path d="M 3.078125 15.484375 
L 11.765625 16.84375 
Q 12.5 11.625 15.84375 8.84375 
Q 19.1875 6.0625 25.203125 6.0625 
Q 31.25 6.0625 34.171875 8.515625 
Q 37.109375 10.984375 37.109375 14.3125 
Q 37.109375 17.28125 34.515625 19 
Q 32.71875 20.171875 25.53125 21.96875 
Q 15.875 24.421875 12.140625 26.203125 
Q 8.40625 27.984375 6.46875 31.125 
Q 4.546875 34.28125 4.546875 38.09375 
Q 4.546875 41.546875 6.125 44.5 
Q 7.71875 47.46875 10.453125 49.421875 
Q 12.5 50.921875 16.03125 51.96875 
Q 19.578125 53.03125 23.640625 53.03125 
Q 29.734375 53.03125 34.34375 51.265625 
Q 38.96875 49.515625 41.15625 46.5 
Q 43.359375 43.5 44.1875 38.484375 
L 35.59375 37.3125 
Q 35.015625 41.3125 32.203125 43.546875 
Q 29.390625 45.796875 24.265625 45.796875 
Q 18.21875 45.796875 15.625 43.796875 
Q 13.03125 41.796875 13.03125 39.109375 
Q 13.03125 37.40625 14.109375 36.03125 
Q 15.1875 34.625 17.484375 33.6875 
Q 18.796875 33.203125 25.25 31.453125 
Q 34.578125 28.953125 38.25 27.359375 
Q 41.9375 25.78125 44.03125 22.75 
Q 46.140625 19.734375 46.140625 15.234375 
Q 46.140625 10.84375 43.578125 6.953125 
Q 41.015625 3.078125 36.171875 0.953125 
Q 31.34375 -1.171875 25.25 -1.171875 
Q 15.140625 -1.171875 9.84375 3.03125 
Q 4.546875 7.234375 3.078125 15.484375 
z
" id="ArialMT-73"/>
      <path d="M 40.4375 19 
L 49.078125 17.875 
Q 47.65625 8.9375 41.8125 3.875 
Q 35.984375 -1.171875 27.484375 -1.171875 
Q 16.84375 -1.171875 10.375 5.78125 
Q 3.90625 12.75 3.90625 25.734375 
Q 3.90625 34.125 6.6875 40.421875 
Q 9.46875 46.734375 15.15625 49.875 
Q 20.84375 53.03125 27.546875 53.03125 
Q 35.984375 53.03125 41.359375 48.75 
Q 46.734375 44.484375 48.25 36.625 
L 39.703125 35.296875 
Q 38.484375 40.53125 35.375 43.15625 
Q 32.28125 45.796875 27.875 45.796875 
Q 21.234375 45.796875 17.078125 41.03125 
Q 12.9375 36.28125 12.9375 25.984375 
Q 12.9375 15.53125 16.9375 10.796875 
Q 20.953125 6.0625 27.390625 6.0625 
Q 32.5625 6.0625 36.03125 9.234375 
Q 39.5 12.40625 40.4375 19 
z
" id="ArialMT-63"/>
      <path d="M 3.328125 25.921875 
Q 3.328125 40.328125 11.328125 47.265625 
Q 18.015625 53.03125 27.640625 53.03125 
Q 38.328125 53.03125 45.109375 46.015625 
Q 51.90625 39.015625 51.90625 26.65625 
Q 51.90625 16.65625 48.90625 10.90625 
Q 45.90625 5.171875 40.15625 2 
Q 34.421875 -1.171875 27.640625 -1.171875 
Q 16.75 -1.171875 10.03125 5.8125 
Q 3.328125 12.796875 3.328125 25.921875 
z
M 12.359375 25.921875 
Q 12.359375 15.96875 16.703125 11.015625 
Q 21.046875 6.0625 27.640625 6.0625 
Q 34.1875 6.0625 38.53125 11.03125 
Q 42.875 16.015625 42.875 26.21875 
Q 42.875 35.84375 38.5 40.796875 
Q 34.125 45.75 27.640625 45.75 
Q 21.046875 45.75 16.703125 40.8125 
Q 12.359375 35.890625 12.359375 25.921875 
z
" id="ArialMT-6f"/>
      <path d="M 21 0 
L 1.265625 51.859375 
L 10.546875 51.859375 
L 21.6875 20.796875 
Q 23.484375 15.765625 25 10.359375 
Q 26.171875 14.453125 28.265625 20.21875 
L 39.796875 51.859375 
L 48.828125 51.859375 
L 29.203125 0 
z
" id="ArialMT-76"/>
      <path d="M 6.203125 -19.96875 
L 5.21875 -11.71875 
Q 8.109375 -12.5 10.25 -12.5 
Q 13.1875 -12.5 14.9375 -11.515625 
Q 16.703125 -10.546875 17.828125 -8.796875 
Q 18.65625 -7.46875 20.515625 -2.25 
Q 20.75 -1.515625 21.296875 -0.09375 
L 1.609375 51.859375 
L 11.078125 51.859375 
L 21.875 21.828125 
Q 23.96875 16.109375 25.640625 9.8125 
Q 27.15625 15.875 29.25 21.625 
L 40.328125 51.859375 
L 49.125 51.859375 
L 29.390625 -0.875 
Q 26.21875 -9.421875 24.46875 -12.640625 
Q 22.125 -17 19.09375 -19.015625 
Q 16.0625 -21.046875 11.859375 -21.046875 
Q 9.328125 -21.046875 6.203125 -19.96875 
z
" id="ArialMT-79"/>
      <path d="M 7.859375 0 
L 7.859375 71.578125 
L 39.59375 71.578125 
Q 49.171875 71.578125 54.140625 69.640625 
Q 59.125 67.71875 62.109375 62.828125 
Q 65.09375 57.953125 65.09375 52.046875 
Q 65.09375 44.4375 60.15625 39.203125 
Q 55.21875 33.984375 44.921875 32.5625 
Q 48.6875 30.765625 50.640625 29 
Q 54.78125 25.203125 58.5 19.484375 
L 70.953125 0 
L 59.03125 0 
L 49.5625 14.890625 
Q 45.40625 21.34375 42.71875 24.75 
Q 40.046875 28.171875 37.921875 29.53125 
Q 35.796875 30.90625 33.59375 31.453125 
Q 31.984375 31.78125 28.328125 31.78125 
L 17.328125 31.78125 
L 17.328125 0 
z
M 17.328125 39.984375 
L 37.703125 39.984375 
Q 44.1875 39.984375 47.84375 41.328125 
Q 51.515625 42.671875 53.421875 45.625 
Q 55.328125 48.578125 55.328125 52.046875 
Q 55.328125 57.125 51.640625 60.390625 
Q 47.953125 63.671875 39.984375 63.671875 
L 17.328125 63.671875 
z
" id="ArialMT-52"/>
      <path d="M 40.4375 6.390625 
Q 35.546875 2.25 31.03125 0.53125 
Q 26.515625 -1.171875 21.34375 -1.171875 
Q 12.796875 -1.171875 8.203125 3 
Q 3.609375 7.171875 3.609375 13.671875 
Q 3.609375 17.484375 5.34375 20.625 
Q 7.078125 23.78125 9.890625 25.6875 
Q 12.703125 27.59375 16.21875 28.5625 
Q 18.796875 29.25 24.03125 29.890625 
Q 34.671875 31.15625 39.703125 32.90625 
Q 39.75 34.71875 39.75 35.203125 
Q 39.75 40.578125 37.25 42.78125 
Q 33.890625 45.75 27.25 45.75 
Q 21.046875 45.75 18.09375 43.578125 
Q 15.140625 41.40625 13.71875 35.890625 
L 5.125 37.0625 
Q 6.296875 42.578125 8.984375 45.96875 
Q 11.671875 49.359375 16.75 51.1875 
Q 21.828125 53.03125 28.515625 53.03125 
Q 35.15625 53.03125 39.296875 51.46875 
Q 43.453125 49.90625 45.40625 47.53125 
Q 47.359375 45.171875 48.140625 41.546875 
Q 48.578125 39.3125 48.578125 33.453125 
L 48.578125 21.734375 
Q 48.578125 9.46875 49.140625 6.21875 
Q 49.703125 2.984375 51.375 0 
L 42.1875 0 
Q 40.828125 2.734375 40.4375 6.390625 
z
M 39.703125 26.03125 
Q 34.90625 24.078125 25.34375 22.703125 
Q 19.921875 21.921875 17.671875 20.9375 
Q 15.4375 19.96875 14.203125 18.09375 
Q 12.984375 16.21875 12.984375 13.921875 
Q 12.984375 10.40625 15.640625 8.0625 
Q 18.3125 5.71875 23.4375 5.71875 
Q 28.515625 5.71875 32.46875 7.9375 
Q 36.421875 10.15625 38.28125 14.015625 
Q 39.703125 17 39.703125 22.796875 
z
" id="ArialMT-61"/>
      <path d="M 25.78125 7.859375 
L 27.046875 0.09375 
Q 23.34375 -0.6875 20.40625 -0.6875 
Q 15.625 -0.6875 12.984375 0.828125 
Q 10.359375 2.34375 9.28125 4.8125 
Q 8.203125 7.28125 8.203125 15.1875 
L 8.203125 45.015625 
L 1.765625 45.015625 
L 1.765625 51.859375 
L 8.203125 51.859375 
L 8.203125 64.703125 
L 16.9375 69.96875 
L 16.9375 51.859375 
L 25.78125 51.859375 
L 25.78125 45.015625 
L 16.9375 45.015625 
L 16.9375 14.703125 
Q 16.9375 10.9375 17.40625 9.859375 
Q 17.875 8.796875 18.921875 8.15625 
Q 19.96875 7.515625 21.921875 7.515625 
Q 23.390625 7.515625 25.78125 7.859375 
z
" id="ArialMT-74"/>
     </defs>
     <g style="fill:#262626;" transform="translate(76.684375 197.956875)rotate(-90)scale(0.12 -0.12)">
      <use xlink:href="#ArialMT-54"/>
      <use x="61.037109" xlink:href="#ArialMT-72"/>
      <use x="94.337891" xlink:href="#ArialMT-75"/>
      <use x="149.953125" xlink:href="#ArialMT-65"/>
      <use x="205.568359" xlink:href="#ArialMT-20"/>
      <use x="233.351562" xlink:href="#ArialMT-44"/>
      <use x="305.568359" xlink:href="#ArialMT-69"/>
      <use x="327.785156" xlink:href="#ArialMT-73"/>
      <use x="377.785156" xlink:href="#ArialMT-63"/>
      <use x="427.785156" xlink:href="#ArialMT-6f"/>
      <use x="483.400391" xlink:href="#ArialMT-76"/>
      <use x="533.400391" xlink:href="#ArialMT-65"/>
      <use x="589.015625" xlink:href="#ArialMT-72"/>
      <use x="622.316406" xlink:href="#ArialMT-79"/>
      <use x="672.316406" xlink:href="#ArialMT-20"/>
      <use x="700.099609" xlink:href="#ArialMT-52"/>
      <use x="772.316406" xlink:href="#ArialMT-61"/>
      <use x="827.931641" xlink:href="#ArialMT-74"/>
      <use x="855.714844" xlink:href="#ArialMT-65"/>
     </g>
    </g>
   </g>
   <g id="line2d_12">
    <path clip-path="url(#p93b9b90567)" d="M 116.951872 239.121322 
L 118.742246 239.121322 
L 118.742246 233.13124 
L 119.637433 233.13124 
L 119.637433 230.136198 
L 120.53262 230.136198 
L 120.53262 227.141157 
L 121.427807 227.141157 
L 121.427807 224.146116 
L 125.008556 224.146116 
L 125.008556 221.151074 
L 125.903743 221.151074 
L 125.903743 212.16595 
L 127.694118 212.16595 
L 127.694118 209.170909 
L 133.065241 209.170909 
L 133.065241 200.185785 
L 133.960428 200.185785 
L 133.960428 194.195702 
L 135.750802 194.195702 
L 135.750802 191.200661 
L 143.807487 191.200661 
L 143.807487 179.220496 
L 149.17861 179.220496 
L 149.17861 176.225455 
L 150.073797 176.225455 
L 150.073797 173.230413 
L 158.130481 173.230413 
L 158.130481 170.235372 
L 159.025668 170.235372 
L 159.025668 164.245289 
L 161.71123 164.245289 
L 161.71123 161.250248 
L 162.606417 161.250248 
L 162.606417 158.255207 
L 171.558289 158.255207 
L 171.558289 155.260165 
L 183.195722 155.260165 
L 183.195722 152.265124 
L 184.986096 152.265124 
L 184.986096 149.270083 
L 190.357219 149.270083 
L 190.357219 140.284959 
L 193.042781 140.284959 
L 193.042781 137.289917 
L 196.623529 137.289917 
L 196.623529 128.304793 
L 197.518717 128.304793 
L 197.518717 122.314711 
L 200.204278 122.314711 
L 200.204278 119.319669 
L 201.994652 119.319669 
L 201.994652 113.329587 
L 206.470588 113.329587 
L 206.470588 110.334545 
L 211.841711 110.334545 
L 211.841711 104.344463 
L 215.42246 104.344463 
L 215.42246 101.349421 
L 220.793583 101.349421 
L 220.793583 95.359339 
L 224.374332 95.359339 
L 224.374332 92.364298 
L 227.059893 92.364298 
L 227.059893 86.374215 
L 244.068449 86.374215 
L 244.068449 83.379174 
L 244.963636 83.379174 
L 244.963636 80.384132 
L 250.334759 80.384132 
L 250.334759 77.389091 
L 251.229947 77.389091 
L 251.229947 74.39405 
L 252.125134 74.39405 
L 252.125134 71.399008 
L 261.077005 71.399008 
L 261.077005 65.408926 
L 261.972193 65.408926 
L 261.972193 62.413884 
L 268.238503 62.413884 
L 268.238503 59.418843 
L 270.028877 59.418843 
L 270.028877 56.423802 
L 278.085561 56.423802 
L 278.085561 53.42876 
L 293.303743 53.42876 
L 293.303743 50.433719 
L 295.094118 50.433719 
L 295.094118 47.438678 
L 295.989305 47.438678 
L 295.989305 44.443636 
L 295.989305 44.443636 
" style="fill:none;stroke:#4c72b0;stroke-linecap:round;stroke-width:1.5;"/>
   </g>
   <g id="line2d_13">
    <path clip-path="url(#p93b9b90567)" d="M 116.951872 239.121322 
L 118.742246 239.121322 
L 118.742246 233.13124 
L 119.637433 233.13124 
L 119.637433 230.136198 
L 122.322995 230.136198 
L 122.322995 227.141157 
L 123.218182 227.141157 
L 123.218182 224.146116 
L 125.903743 224.146116 
L 125.903743 221.151074 
L 127.694118 221.151074 
L 127.694118 212.16595 
L 133.065241 212.16595 
L 133.065241 200.185785 
L 133.960428 200.185785 
L 133.960428 194.195702 
L 138.436364 194.195702 
L 138.436364 191.200661 
L 139.331551 191.200661 
L 139.331551 188.20562 
L 140.226738 188.20562 
L 140.226738 185.210579 
L 141.121925 185.210579 
L 141.121925 182.215537 
L 142.017112 182.215537 
L 142.017112 179.220496 
L 144.702674 179.220496 
L 144.702674 176.225455 
L 145.597861 176.225455 
L 145.597861 173.230413 
L 149.17861 173.230413 
L 149.17861 170.235372 
L 150.073797 170.235372 
L 150.073797 167.240331 
L 152.759358 167.240331 
L 152.759358 164.245289 
L 154.549733 164.245289 
L 154.549733 161.250248 
L 156.340107 161.250248 
L 156.340107 158.255207 
L 157.235294 158.255207 
L 157.235294 155.260165 
L 159.025668 155.260165 
L 159.025668 152.265124 
L 161.71123 152.265124 
L 161.71123 146.275041 
L 163.501604 146.275041 
L 163.501604 143.28 
L 168.872727 143.28 
L 168.872727 140.284959 
L 174.24385 140.284959 
L 174.24385 137.289917 
L 176.034225 137.289917 
L 176.034225 134.294876 
L 176.929412 134.294876 
L 176.929412 125.309752 
L 183.195722 125.309752 
L 183.195722 122.314711 
L 184.090909 122.314711 
L 184.090909 119.319669 
L 189.462032 119.319669 
L 189.462032 116.324628 
L 192.147594 116.324628 
L 192.147594 113.329587 
L 208.260963 113.329587 
L 208.260963 110.334545 
L 212.736898 110.334545 
L 212.736898 104.344463 
L 217.212834 104.344463 
L 217.212834 101.349421 
L 219.003209 101.349421 
L 219.003209 98.35438 
L 219.898396 98.35438 
L 219.898396 95.359339 
L 228.850267 95.359339 
L 228.850267 92.364298 
L 229.745455 92.364298 
L 229.745455 89.369256 
L 232.431016 89.369256 
L 232.431016 86.374215 
L 235.116578 86.374215 
L 235.116578 83.379174 
L 242.278075 83.379174 
L 242.278075 77.389091 
L 252.125134 77.389091 
L 252.125134 74.39405 
L 253.020321 74.39405 
L 253.020321 71.399008 
L 259.286631 71.399008 
L 259.286631 65.408926 
L 264.657754 65.408926 
L 264.657754 62.413884 
L 267.343316 62.413884 
L 267.343316 59.418843 
L 270.924064 59.418843 
L 270.924064 56.423802 
L 282.561497 56.423802 
L 282.561497 53.42876 
L 288.827807 53.42876 
L 288.827807 47.438678 
L 295.094118 47.438678 
L 295.094118 44.443636 
L 295.989305 44.443636 
L 295.989305 44.443636 
" style="fill:none;stroke:#dd8452;stroke-linecap:round;stroke-width:1.5;"/>
   </g>
   <g id="line2d_14">
    <path clip-path="url(#p93b9b90567)" d="M 116.951872 239.121322 
L 116.951872 236.126281 
L 119.637433 236.126281 
L 119.637433 233.13124 
L 122.322995 233.13124 
L 122.322995 227.141157 
L 126.79893 227.141157 
L 126.79893 224.146116 
L 129.484492 224.146116 
L 129.484492 215.160992 
L 133.960428 215.160992 
L 133.960428 197.190744 
L 134.855615 197.190744 
L 134.855615 194.195702 
L 136.645989 194.195702 
L 136.645989 191.200661 
L 138.436364 191.200661 
L 138.436364 185.210579 
L 143.807487 185.210579 
L 143.807487 176.225455 
L 144.702674 176.225455 
L 144.702674 173.230413 
L 147.388235 173.230413 
L 147.388235 167.240331 
L 152.759358 167.240331 
L 152.759358 164.245289 
L 157.235294 164.245289 
L 157.235294 161.250248 
L 159.025668 161.250248 
L 159.025668 158.255207 
L 162.606417 158.255207 
L 162.606417 155.260165 
L 163.501604 155.260165 
L 163.501604 152.265124 
L 165.291979 152.265124 
L 165.291979 146.275041 
L 169.767914 146.275041 
L 169.767914 143.28 
L 178.719786 143.28 
L 178.719786 140.284959 
L 179.614973 140.284959 
L 179.614973 137.289917 
L 180.51016 137.289917 
L 180.51016 134.294876 
L 181.405348 134.294876 
L 181.405348 131.299835 
L 192.147594 131.299835 
L 192.147594 128.304793 
L 193.937968 128.304793 
L 193.937968 122.314711 
L 194.833155 122.314711 
L 194.833155 116.324628 
L 203.785027 116.324628 
L 203.785027 113.329587 
L 204.680214 113.329587 
L 204.680214 110.334545 
L 205.575401 110.334545 
L 205.575401 107.339504 
L 214.527273 107.339504 
L 214.527273 104.344463 
L 215.42246 104.344463 
L 215.42246 101.349421 
L 230.640642 101.349421 
L 230.640642 98.35438 
L 231.535829 98.35438 
L 231.535829 95.359339 
L 233.326203 95.359339 
L 233.326203 92.364298 
L 235.116578 92.364298 
L 235.116578 89.369256 
L 236.011765 89.369256 
L 236.011765 86.374215 
L 238.697326 86.374215 
L 238.697326 83.379174 
L 251.229947 83.379174 
L 251.229947 80.384132 
L 253.915508 80.384132 
L 253.915508 77.389091 
L 256.60107 77.389091 
L 256.60107 74.39405 
L 261.972193 74.39405 
L 261.972193 71.399008 
L 266.448128 71.399008 
L 266.448128 68.403967 
L 267.343316 68.403967 
L 267.343316 65.408926 
L 269.13369 65.408926 
L 269.13369 62.413884 
L 272.714439 62.413884 
L 272.714439 59.418843 
L 273.609626 59.418843 
L 273.609626 56.423802 
L 287.037433 56.423802 
L 287.037433 53.42876 
L 288.827807 53.42876 
L 288.827807 47.438678 
L 291.513369 47.438678 
L 291.513369 44.443636 
L 295.989305 44.443636 
L 295.989305 44.443636 
" style="fill:none;stroke:#55a868;stroke-linecap:round;stroke-width:1.5;"/>
   </g>
   <g id="line2d_15">
    <path clip-path="url(#p93b9b90567)" d="M 116.951872 239.121322 
L 116.951872 236.126281 
L 119.637433 236.126281 
L 119.637433 233.13124 
L 122.322995 233.13124 
L 122.322995 227.141157 
L 123.218182 227.141157 
L 123.218182 224.146116 
L 125.903743 224.146116 
L 125.903743 218.156033 
L 130.379679 218.156033 
L 130.379679 215.160992 
L 132.170053 215.160992 
L 132.170053 212.16595 
L 133.065241 212.16595 
L 133.065241 203.180826 
L 135.750802 203.180826 
L 135.750802 200.185785 
L 136.645989 200.185785 
L 136.645989 191.200661 
L 139.331551 191.200661 
L 139.331551 185.210579 
L 140.226738 185.210579 
L 140.226738 179.220496 
L 141.121925 179.220496 
L 141.121925 176.225455 
L 143.807487 176.225455 
L 143.807487 173.230413 
L 144.702674 173.230413 
L 144.702674 170.235372 
L 146.493048 170.235372 
L 146.493048 167.240331 
L 157.235294 167.240331 
L 157.235294 164.245289 
L 167.082353 164.245289 
L 167.082353 161.250248 
L 172.453476 161.250248 
L 172.453476 158.255207 
L 173.348663 158.255207 
L 173.348663 146.275041 
L 174.24385 146.275041 
L 174.24385 143.28 
L 176.034225 143.28 
L 176.034225 140.284959 
L 180.51016 140.284959 
L 180.51016 137.289917 
L 182.300535 137.289917 
L 182.300535 131.299835 
L 187.671658 131.299835 
L 187.671658 128.304793 
L 190.357219 128.304793 
L 190.357219 125.309752 
L 199.309091 125.309752 
L 199.309091 119.319669 
L 202.88984 119.319669 
L 202.88984 116.324628 
L 204.680214 116.324628 
L 204.680214 113.329587 
L 212.736898 113.329587 
L 212.736898 110.334545 
L 218.108021 110.334545 
L 218.108021 107.339504 
L 225.269519 107.339504 
L 225.269519 104.344463 
L 226.164706 104.344463 
L 226.164706 101.349421 
L 227.95508 101.349421 
L 227.95508 98.35438 
L 230.640642 98.35438 
L 230.640642 95.359339 
L 231.535829 95.359339 
L 231.535829 86.374215 
L 233.326203 86.374215 
L 233.326203 83.379174 
L 235.116578 83.379174 
L 235.116578 80.384132 
L 241.382888 80.384132 
L 241.382888 74.39405 
L 250.334759 74.39405 
L 250.334759 71.399008 
L 252.125134 71.399008 
L 252.125134 65.408926 
L 261.972193 65.408926 
L 261.972193 62.413884 
L 262.86738 62.413884 
L 262.86738 56.423802 
L 270.028877 56.423802 
L 270.028877 53.42876 
L 294.19893 53.42876 
L 294.19893 47.438678 
L 295.094118 47.438678 
L 295.094118 44.443636 
L 295.989305 44.443636 
L 295.989305 44.443636 
" style="fill:none;stroke:#c44e52;stroke-linecap:round;stroke-width:1.5;"/>
   </g>
   <g id="line2d_16">
    <path clip-path="url(#p93b9b90567)" d="M 116.951872 242.116364 
L 295.989305 44.443636 
" style="fill:none;stroke:#c44e52;stroke-dasharray:5.55,2.4;stroke-dashoffset:0;stroke-opacity:0.3;stroke-width:1.5;"/>
   </g>
   <g id="patch_3">
    <path d="M 108 252 
L 108 34.56 
" style="fill:none;stroke:#ffffff;stroke-linecap:square;stroke-linejoin:miter;stroke-width:1.25;"/>
   </g>
   <g id="patch_4">
    <path d="M 304.941176 252 
L 304.941176 34.56 
" style="fill:none;stroke:#ffffff;stroke-linecap:square;stroke-linejoin:miter;stroke-width:1.25;"/>
   </g>
   <g id="patch_5">
    <path d="M 108 252 
L 304.941176 252 
" style="fill:none;stroke:#ffffff;stroke-linecap:square;stroke-linejoin:miter;stroke-width:1.25;"/>
   </g>
   <g id="patch_6">
    <path d="M 108 34.56 
L 304.941176 34.56 
" style="fill:none;stroke:#ffffff;stroke-linecap:square;stroke-linejoin:miter;stroke-width:1.25;"/>
   </g>
   <g id="text_13">
    <!-- Network Metrics ROC curve -->
    <defs>
     <path d="M 7.625 0 
L 7.625 71.578125 
L 17.328125 71.578125 
L 54.9375 15.375 
L 54.9375 71.578125 
L 64.015625 71.578125 
L 64.015625 0 
L 54.296875 0 
L 16.703125 56.25 
L 16.703125 0 
z
" id="ArialMT-4e"/>
     <path d="M 16.15625 0 
L 0.296875 51.859375 
L 9.375 51.859375 
L 17.625 21.921875 
L 20.703125 10.796875 
Q 20.90625 11.625 23.390625 21.484375 
L 31.640625 51.859375 
L 40.671875 51.859375 
L 48.4375 21.78125 
L 51.03125 11.859375 
L 54 21.875 
L 62.890625 51.859375 
L 71.4375 51.859375 
L 55.21875 0 
L 46.09375 0 
L 37.84375 31.0625 
L 35.84375 39.890625 
L 25.34375 0 
z
" id="ArialMT-77"/>
     <path d="M 6.640625 0 
L 6.640625 71.578125 
L 15.4375 71.578125 
L 15.4375 30.765625 
L 36.234375 51.859375 
L 47.609375 51.859375 
L 27.78125 32.625 
L 49.609375 0 
L 38.765625 0 
L 21.625 26.515625 
L 15.4375 20.5625 
L 15.4375 0 
z
" id="ArialMT-6b"/>
     <path d="M 7.421875 0 
L 7.421875 71.578125 
L 21.6875 71.578125 
L 38.625 20.90625 
Q 40.96875 13.8125 42.046875 10.296875 
Q 43.265625 14.203125 45.84375 21.78125 
L 62.984375 71.578125 
L 75.734375 71.578125 
L 75.734375 0 
L 66.609375 0 
L 66.609375 59.90625 
L 45.796875 0 
L 37.25 0 
L 16.546875 60.9375 
L 16.546875 0 
z
" id="ArialMT-4d"/>
     <path d="M 4.828125 34.859375 
Q 4.828125 52.6875 14.390625 62.765625 
Q 23.96875 72.859375 39.109375 72.859375 
Q 49.03125 72.859375 56.984375 68.109375 
Q 64.9375 63.375 69.109375 54.90625 
Q 73.296875 46.4375 73.296875 35.6875 
Q 73.296875 24.8125 68.890625 16.21875 
Q 64.5 7.625 56.4375 3.203125 
Q 48.390625 -1.21875 39.0625 -1.21875 
Q 28.953125 -1.21875 20.984375 3.65625 
Q 13.03125 8.546875 8.921875 16.984375 
Q 4.828125 25.4375 4.828125 34.859375 
z
M 14.59375 34.71875 
Q 14.59375 21.78125 21.546875 14.328125 
Q 28.515625 6.890625 39.015625 6.890625 
Q 49.703125 6.890625 56.609375 14.40625 
Q 63.53125 21.921875 63.53125 35.75 
Q 63.53125 44.484375 60.578125 51 
Q 57.625 57.515625 51.921875 61.109375 
Q 46.234375 64.703125 39.15625 64.703125 
Q 29.109375 64.703125 21.84375 57.78125 
Q 14.59375 50.875 14.59375 34.71875 
z
" id="ArialMT-4f"/>
     <path d="M 58.796875 25.09375 
L 68.265625 22.703125 
Q 65.28125 11.03125 57.546875 4.90625 
Q 49.8125 -1.21875 38.625 -1.21875 
Q 27.046875 -1.21875 19.796875 3.484375 
Q 12.546875 8.203125 8.765625 17.140625 
Q 4.984375 26.078125 4.984375 36.328125 
Q 4.984375 47.515625 9.25 55.828125 
Q 13.53125 64.15625 21.40625 68.46875 
Q 29.296875 72.796875 38.765625 72.796875 
Q 49.515625 72.796875 56.828125 67.328125 
Q 64.15625 61.859375 67.046875 51.953125 
L 57.71875 49.75 
Q 55.21875 57.5625 50.484375 61.125 
Q 45.75 64.703125 38.578125 64.703125 
Q 30.328125 64.703125 24.78125 60.734375 
Q 19.234375 56.78125 16.984375 50.109375 
Q 14.75 43.453125 14.75 36.375 
Q 14.75 27.25 17.40625 20.4375 
Q 20.0625 13.625 25.671875 10.25 
Q 31.296875 6.890625 37.84375 6.890625 
Q 45.796875 6.890625 51.3125 11.46875 
Q 56.84375 16.0625 58.796875 25.09375 
z
" id="ArialMT-43"/>
    </defs>
    <g style="fill:#262626;" transform="translate(132.129651 15.714)scale(0.12 -0.12)">
     <use xlink:href="#ArialMT-4e"/>
     <use x="72.216797" xlink:href="#ArialMT-65"/>
     <use x="127.832031" xlink:href="#ArialMT-74"/>
     <use x="155.615234" xlink:href="#ArialMT-77"/>
     <use x="227.832031" xlink:href="#ArialMT-6f"/>
     <use x="283.447266" xlink:href="#ArialMT-72"/>
     <use x="316.748047" xlink:href="#ArialMT-6b"/>
     <use x="366.748047" xlink:href="#ArialMT-20"/>
     <use x="394.53125" xlink:href="#ArialMT-4d"/>
     <use x="477.832031" xlink:href="#ArialMT-65"/>
     <use x="533.447266" xlink:href="#ArialMT-74"/>
     <use x="561.230469" xlink:href="#ArialMT-72"/>
     <use x="594.53125" xlink:href="#ArialMT-69"/>
     <use x="616.748047" xlink:href="#ArialMT-63"/>
     <use x="666.748047" xlink:href="#ArialMT-73"/>
     <use x="716.748047" xlink:href="#ArialMT-20"/>
     <use x="744.53125" xlink:href="#ArialMT-52"/>
     <use x="816.748047" xlink:href="#ArialMT-4f"/>
     <use x="894.53125" xlink:href="#ArialMT-43"/>
     <use x="966.748047" xlink:href="#ArialMT-20"/>
     <use x="994.53125" xlink:href="#ArialMT-63"/>
     <use x="1044.53125" xlink:href="#ArialMT-75"/>
     <use x="1100.146484" xlink:href="#ArialMT-72"/>
     <use x="1133.447266" xlink:href="#ArialMT-76"/>
     <use x="1183.447266" xlink:href="#ArialMT-65"/>
    </g>
    <!-- for Hippo RNAi Ovariole nb -->
    <defs>
     <path d="M 8.6875 0 
L 8.6875 45.015625 
L 0.921875 45.015625 
L 0.921875 51.859375 
L 8.6875 51.859375 
L 8.6875 57.375 
Q 8.6875 62.59375 9.625 65.140625 
Q 10.890625 68.5625 14.078125 70.671875 
Q 17.28125 72.796875 23.046875 72.796875 
Q 26.765625 72.796875 31.25 71.921875 
L 29.9375 64.265625 
Q 27.203125 64.75 24.75 64.75 
Q 20.75 64.75 19.09375 63.03125 
Q 17.4375 61.328125 17.4375 56.640625 
L 17.4375 51.859375 
L 27.546875 51.859375 
L 27.546875 45.015625 
L 17.4375 45.015625 
L 17.4375 0 
z
" id="ArialMT-66"/>
     <path d="M 8.015625 0 
L 8.015625 71.578125 
L 17.484375 71.578125 
L 17.484375 42.1875 
L 54.6875 42.1875 
L 54.6875 71.578125 
L 64.15625 71.578125 
L 64.15625 0 
L 54.6875 0 
L 54.6875 33.734375 
L 17.484375 33.734375 
L 17.484375 0 
z
" id="ArialMT-48"/>
     <path d="M 6.59375 -19.875 
L 6.59375 51.859375 
L 14.59375 51.859375 
L 14.59375 45.125 
Q 17.4375 49.078125 21 51.046875 
Q 24.5625 53.03125 29.640625 53.03125 
Q 36.28125 53.03125 41.359375 49.609375 
Q 46.4375 46.1875 49.015625 39.953125 
Q 51.609375 33.734375 51.609375 26.3125 
Q 51.609375 18.359375 48.75 11.984375 
Q 45.90625 5.609375 40.453125 2.21875 
Q 35.015625 -1.171875 29 -1.171875 
Q 24.609375 -1.171875 21.109375 0.6875 
Q 17.625 2.546875 15.375 5.375 
L 15.375 -19.875 
z
M 14.546875 25.640625 
Q 14.546875 15.625 18.59375 10.84375 
Q 22.65625 6.0625 28.421875 6.0625 
Q 34.28125 6.0625 38.453125 11.015625 
Q 42.625 15.96875 42.625 26.375 
Q 42.625 36.28125 38.546875 41.203125 
Q 34.46875 46.140625 28.8125 46.140625 
Q 23.1875 46.140625 18.859375 40.890625 
Q 14.546875 35.640625 14.546875 25.640625 
z
" id="ArialMT-70"/>
     <path d="M -0.140625 0 
L 27.34375 71.578125 
L 37.546875 71.578125 
L 66.84375 0 
L 56.0625 0 
L 47.703125 21.6875 
L 17.78125 21.6875 
L 9.90625 0 
z
M 20.515625 29.390625 
L 44.78125 29.390625 
L 37.3125 49.21875 
Q 33.890625 58.25 32.234375 64.0625 
Q 30.859375 57.171875 28.375 50.390625 
z
" id="ArialMT-41"/>
     <path d="M 6.390625 0 
L 6.390625 71.578125 
L 15.1875 71.578125 
L 15.1875 0 
z
" id="ArialMT-6c"/>
     <path d="M 6.59375 0 
L 6.59375 51.859375 
L 14.5 51.859375 
L 14.5 44.484375 
Q 20.21875 53.03125 31 53.03125 
Q 35.6875 53.03125 39.625 51.34375 
Q 43.5625 49.65625 45.515625 46.921875 
Q 47.46875 44.1875 48.25 40.4375 
Q 48.734375 37.984375 48.734375 31.890625 
L 48.734375 0 
L 39.9375 0 
L 39.9375 31.546875 
Q 39.9375 36.921875 38.90625 39.578125 
Q 37.890625 42.234375 35.28125 43.8125 
Q 32.671875 45.40625 29.15625 45.40625 
Q 23.53125 45.40625 19.453125 41.84375 
Q 15.375 38.28125 15.375 28.328125 
L 15.375 0 
z
" id="ArialMT-6e"/>
     <path d="M 14.703125 0 
L 6.546875 0 
L 6.546875 71.578125 
L 15.328125 71.578125 
L 15.328125 46.046875 
Q 20.90625 53.03125 29.546875 53.03125 
Q 34.328125 53.03125 38.59375 51.09375 
Q 42.875 49.171875 45.625 45.671875 
Q 48.390625 42.1875 49.953125 37.25 
Q 51.515625 32.328125 51.515625 26.703125 
Q 51.515625 13.375 44.921875 6.09375 
Q 38.328125 -1.171875 29.109375 -1.171875 
Q 19.921875 -1.171875 14.703125 6.5 
z
M 14.59375 26.3125 
Q 14.59375 17 17.140625 12.84375 
Q 21.296875 6.0625 28.375 6.0625 
Q 34.125 6.0625 38.328125 11.0625 
Q 42.53125 16.0625 42.53125 25.984375 
Q 42.53125 36.140625 38.5 40.96875 
Q 34.46875 45.796875 28.765625 45.796875 
Q 23 45.796875 18.796875 40.796875 
Q 14.59375 35.796875 14.59375 26.3125 
z
" id="ArialMT-62"/>
    </defs>
    <g style="fill:#262626;" transform="translate(134.110588 28.59075)scale(0.12 -0.12)">
     <use xlink:href="#ArialMT-66"/>
     <use x="27.783203" xlink:href="#ArialMT-6f"/>
     <use x="83.398438" xlink:href="#ArialMT-72"/>
     <use x="116.699219" xlink:href="#ArialMT-20"/>
     <use x="144.482422" xlink:href="#ArialMT-48"/>
     <use x="216.699219" xlink:href="#ArialMT-69"/>
     <use x="238.916016" xlink:href="#ArialMT-70"/>
     <use x="294.53125" xlink:href="#ArialMT-70"/>
     <use x="350.146484" xlink:href="#ArialMT-6f"/>
     <use x="405.761719" xlink:href="#ArialMT-20"/>
     <use x="433.544922" xlink:href="#ArialMT-52"/>
     <use x="505.761719" xlink:href="#ArialMT-4e"/>
     <use x="577.978516" xlink:href="#ArialMT-41"/>
     <use x="644.677734" xlink:href="#ArialMT-69"/>
     <use x="666.894531" xlink:href="#ArialMT-20"/>
     <use x="694.677734" xlink:href="#ArialMT-4f"/>
     <use x="772.460938" xlink:href="#ArialMT-76"/>
     <use x="822.460938" xlink:href="#ArialMT-61"/>
     <use x="878.076172" xlink:href="#ArialMT-72"/>
     <use x="911.376953" xlink:href="#ArialMT-69"/>
     <use x="933.59375" xlink:href="#ArialMT-6f"/>
     <use x="989.208984" xlink:href="#ArialMT-6c"/>
     <use x="1011.425781" xlink:href="#ArialMT-65"/>
     <use x="1067.041016" xlink:href="#ArialMT-20"/>
     <use x="1094.824219" xlink:href="#ArialMT-6e"/>
     <use x="1150.439453" xlink:href="#ArialMT-62"/>
    </g>
   </g>
  </g>
  <g id="axes_2">
   <g id="patch_7">
    <path d="M 344.329412 252 
L 541.270588 252 
L 541.270588 34.56 
L 344.329412 34.56 
z
" style="fill:#eaeaf2;"/>
   </g>
   <g id="matplotlib.axis_3">
    <g id="xtick_6">
     <g id="line2d_17">
      <path clip-path="url(#p4569e0789a)" d="M 353.281283 252 
L 353.281283 34.56 
" style="fill:none;stroke:#ffffff;stroke-linecap:round;"/>
     </g>
     <g id="text_14">
      <!-- 0.00 -->
      <g style="fill:#262626;" transform="translate(342.577768 269.373594)scale(0.11 -0.11)">
       <use xlink:href="#ArialMT-30"/>
       <use x="55.615234" xlink:href="#ArialMT-2e"/>
       <use x="83.398438" xlink:href="#ArialMT-30"/>
       <use x="139.013672" xlink:href="#ArialMT-30"/>
      </g>
     </g>
    </g>
    <g id="xtick_7">
     <g id="line2d_18">
      <path clip-path="url(#p4569e0789a)" d="M 398.040642 252 
L 398.040642 34.56 
" style="fill:none;stroke:#ffffff;stroke-linecap:round;"/>
     </g>
     <g id="text_15">
      <!-- 0.25 -->
      <g style="fill:#262626;" transform="translate(387.337126 269.373594)scale(0.11 -0.11)">
       <use xlink:href="#ArialMT-30"/>
       <use x="55.615234" xlink:href="#ArialMT-2e"/>
       <use x="83.398438" xlink:href="#ArialMT-32"/>
       <use x="139.013672" xlink:href="#ArialMT-35"/>
      </g>
     </g>
    </g>
    <g id="xtick_8">
     <g id="line2d_19">
      <path clip-path="url(#p4569e0789a)" d="M 442.8 252 
L 442.8 34.56 
" style="fill:none;stroke:#ffffff;stroke-linecap:round;"/>
     </g>
     <g id="text_16">
      <!-- 0.50 -->
      <g style="fill:#262626;" transform="translate(432.096484 269.373594)scale(0.11 -0.11)">
       <use xlink:href="#ArialMT-30"/>
       <use x="55.615234" xlink:href="#ArialMT-2e"/>
       <use x="83.398438" xlink:href="#ArialMT-35"/>
       <use x="139.013672" xlink:href="#ArialMT-30"/>
      </g>
     </g>
    </g>
    <g id="xtick_9">
     <g id="line2d_20">
      <path clip-path="url(#p4569e0789a)" d="M 487.559358 252 
L 487.559358 34.56 
" style="fill:none;stroke:#ffffff;stroke-linecap:round;"/>
     </g>
     <g id="text_17">
      <!-- 0.75 -->
      <g style="fill:#262626;" transform="translate(476.855843 269.373594)scale(0.11 -0.11)">
       <use xlink:href="#ArialMT-30"/>
       <use x="55.615234" xlink:href="#ArialMT-2e"/>
       <use x="83.398438" xlink:href="#ArialMT-37"/>
       <use x="139.013672" xlink:href="#ArialMT-35"/>
      </g>
     </g>
    </g>
    <g id="xtick_10">
     <g id="line2d_21">
      <path clip-path="url(#p4569e0789a)" d="M 532.318717 252 
L 532.318717 34.56 
" style="fill:none;stroke:#ffffff;stroke-linecap:round;"/>
     </g>
     <g id="text_18">
      <!-- 1.00 -->
      <g style="fill:#262626;" transform="translate(521.615201 269.373594)scale(0.11 -0.11)">
       <use xlink:href="#ArialMT-31"/>
       <use x="55.615234" xlink:href="#ArialMT-2e"/>
       <use x="83.398438" xlink:href="#ArialMT-30"/>
       <use x="139.013672" xlink:href="#ArialMT-30"/>
      </g>
     </g>
    </g>
    <g id="text_19">
     <!-- False Discovery Rate -->
     <defs>
      <path d="M 8.203125 0 
L 8.203125 71.578125 
L 56.5 71.578125 
L 56.5 63.140625 
L 17.671875 63.140625 
L 17.671875 40.96875 
L 51.265625 40.96875 
L 51.265625 32.515625 
L 17.671875 32.515625 
L 17.671875 0 
z
" id="ArialMT-46"/>
     </defs>
     <g style="fill:#262626;" transform="translate(385.785 284.149219)scale(0.12 -0.12)">
      <use xlink:href="#ArialMT-46"/>
      <use x="61.083984" xlink:href="#ArialMT-61"/>
      <use x="116.699219" xlink:href="#ArialMT-6c"/>
      <use x="138.916016" xlink:href="#ArialMT-73"/>
      <use x="188.916016" xlink:href="#ArialMT-65"/>
      <use x="244.53125" xlink:href="#ArialMT-20"/>
      <use x="272.314453" xlink:href="#ArialMT-44"/>
      <use x="344.53125" xlink:href="#ArialMT-69"/>
      <use x="366.748047" xlink:href="#ArialMT-73"/>
      <use x="416.748047" xlink:href="#ArialMT-63"/>
      <use x="466.748047" xlink:href="#ArialMT-6f"/>
      <use x="522.363281" xlink:href="#ArialMT-76"/>
      <use x="572.363281" xlink:href="#ArialMT-65"/>
      <use x="627.978516" xlink:href="#ArialMT-72"/>
      <use x="661.279297" xlink:href="#ArialMT-79"/>
      <use x="711.279297" xlink:href="#ArialMT-20"/>
      <use x="739.0625" xlink:href="#ArialMT-52"/>
      <use x="811.279297" xlink:href="#ArialMT-61"/>
      <use x="866.894531" xlink:href="#ArialMT-74"/>
      <use x="894.677734" xlink:href="#ArialMT-65"/>
     </g>
    </g>
   </g>
   <g id="matplotlib.axis_4">
    <g id="ytick_7">
     <g id="line2d_22">
      <path clip-path="url(#p4569e0789a)" d="M 344.329412 242.116364 
L 541.270588 242.116364 
" style="fill:none;stroke:#ffffff;stroke-linecap:round;"/>
     </g>
     <g id="text_20">
      <!-- 0.0 -->
      <g style="fill:#262626;" transform="translate(319.539412 246.053161)scale(0.11 -0.11)">
       <use xlink:href="#ArialMT-30"/>
       <use x="55.615234" xlink:href="#ArialMT-2e"/>
       <use x="83.398438" xlink:href="#ArialMT-30"/>
      </g>
     </g>
    </g>
    <g id="ytick_8">
     <g id="line2d_23">
      <path clip-path="url(#p4569e0789a)" d="M 344.329412 202.581818 
L 541.270588 202.581818 
" style="fill:none;stroke:#ffffff;stroke-linecap:round;"/>
     </g>
     <g id="text_21">
      <!-- 0.2 -->
      <g style="fill:#262626;" transform="translate(319.539412 206.518615)scale(0.11 -0.11)">
       <use xlink:href="#ArialMT-30"/>
       <use x="55.615234" xlink:href="#ArialMT-2e"/>
       <use x="83.398438" xlink:href="#ArialMT-32"/>
      </g>
     </g>
    </g>
    <g id="ytick_9">
     <g id="line2d_24">
      <path clip-path="url(#p4569e0789a)" d="M 344.329412 163.047273 
L 541.270588 163.047273 
" style="fill:none;stroke:#ffffff;stroke-linecap:round;"/>
     </g>
     <g id="text_22">
      <!-- 0.4 -->
      <g style="fill:#262626;" transform="translate(319.539412 166.98407)scale(0.11 -0.11)">
       <use xlink:href="#ArialMT-30"/>
       <use x="55.615234" xlink:href="#ArialMT-2e"/>
       <use x="83.398438" xlink:href="#ArialMT-34"/>
      </g>
     </g>
    </g>
    <g id="ytick_10">
     <g id="line2d_25">
      <path clip-path="url(#p4569e0789a)" d="M 344.329412 123.512727 
L 541.270588 123.512727 
" style="fill:none;stroke:#ffffff;stroke-linecap:round;"/>
     </g>
     <g id="text_23">
      <!-- 0.6 -->
      <g style="fill:#262626;" transform="translate(319.539412 127.449524)scale(0.11 -0.11)">
       <use xlink:href="#ArialMT-30"/>
       <use x="55.615234" xlink:href="#ArialMT-2e"/>
       <use x="83.398438" xlink:href="#ArialMT-36"/>
      </g>
     </g>
    </g>
    <g id="ytick_11">
     <g id="line2d_26">
      <path clip-path="url(#p4569e0789a)" d="M 344.329412 83.978182 
L 541.270588 83.978182 
" style="fill:none;stroke:#ffffff;stroke-linecap:round;"/>
     </g>
     <g id="text_24">
      <!-- 0.8 -->
      <g style="fill:#262626;" transform="translate(319.539412 87.914979)scale(0.11 -0.11)">
       <use xlink:href="#ArialMT-30"/>
       <use x="55.615234" xlink:href="#ArialMT-2e"/>
       <use x="83.398438" xlink:href="#ArialMT-38"/>
      </g>
     </g>
    </g>
    <g id="ytick_12">
     <g id="line2d_27">
      <path clip-path="url(#p4569e0789a)" d="M 344.329412 44.443636 
L 541.270588 44.443636 
" style="fill:none;stroke:#ffffff;stroke-linecap:round;"/>
     </g>
     <g id="text_25">
      <!-- 1.0 -->
      <g style="fill:#262626;" transform="translate(319.539412 48.380433)scale(0.11 -0.11)">
       <use xlink:href="#ArialMT-31"/>
       <use x="55.615234" xlink:href="#ArialMT-2e"/>
       <use x="83.398438" xlink:href="#ArialMT-30"/>
      </g>
     </g>
    </g>
   </g>
   <g id="line2d_28">
    <path clip-path="url(#p4569e0789a)" d="M 353.749968 242.116364 
L 353.749968 238.708213 
L 355.156021 238.708213 
L 355.156021 235.300063 
L 355.624705 235.300063 
L 355.624705 231.891912 
L 357.030758 231.891912 
L 357.030758 228.483762 
L 358.905496 228.483762 
L 358.905496 221.667461 
L 359.37418 221.667461 
L 359.37418 218.25931 
L 364.061024 218.25931 
L 364.061024 208.034859 
L 371.09129 208.034859 
L 371.09129 197.810408 
L 372.028659 197.810408 
L 372.028659 190.994107 
L 374.840765 190.994107 
L 374.840765 187.585956 
L 386.557874 187.585956 
L 386.557874 184.177806 
L 387.495243 184.177806 
L 387.495243 180.769655 
L 389.838665 180.769655 
L 389.838665 177.361505 
L 393.119456 177.361505 
L 393.119456 173.953354 
L 394.056824 173.953354 
L 394.056824 170.545204 
L 397.337615 170.545204 
L 397.337615 167.137053 
L 398.743668 167.137053 
L 398.743668 163.728903 
L 402.493143 163.728903 
L 402.493143 160.320752 
L 408.117356 160.320752 
L 408.117356 156.912602 
L 411.866831 156.912602 
L 411.866831 150.096301 
L 412.8042 150.096301 
L 412.8042 146.68815 
L 414.210253 146.68815 
L 414.210253 143.28 
L 418.897097 143.28 
L 418.897097 139.87185 
L 422.177887 139.87185 
L 422.177887 136.463699 
L 423.115256 136.463699 
L 423.115256 133.055549 
L 424.052625 133.055549 
L 424.052625 129.647398 
L 424.989994 129.647398 
L 424.989994 126.239248 
L 425.458678 126.239248 
L 425.458678 122.831097 
L 432.488944 122.831097 
L 432.488944 119.422947 
L 434.832366 119.422947 
L 434.832366 116.014796 
L 444.206053 116.014796 
L 444.206053 112.606646 
L 448.424213 112.606646 
L 448.424213 109.198495 
L 464.828166 109.198495 
L 464.828166 105.790345 
L 481.700804 105.790345 
L 481.700804 102.382194 
L 489.668438 102.382194 
L 489.668438 98.974044 
L 490.605807 98.974044 
L 490.605807 95.565893 
L 492.01186 95.565893 
L 492.01186 92.157743 
L 499.51081 92.157743 
L 499.51081 88.749592 
L 502.322916 88.749592 
L 502.322916 85.341442 
L 502.791601 85.341442 
L 502.791601 81.933292 
L 503.260285 81.933292 
L 503.260285 78.525141 
L 508.415813 78.525141 
L 508.415813 75.116991 
L 513.102657 75.116991 
L 513.102657 71.70884 
L 513.571341 71.70884 
L 513.571341 68.30069 
L 515.914763 68.30069 
L 515.914763 64.892539 
L 517.320816 64.892539 
L 517.320816 61.484389 
L 521.070291 61.484389 
L 521.070291 58.076238 
L 521.538976 58.076238 
L 521.538976 54.668088 
L 528.569242 54.668088 
L 528.569242 51.259937 
L 529.975295 51.259937 
L 529.975295 44.443636 
L 532.318717 44.443636 
L 532.318717 44.443636 
" style="fill:none;stroke:#4c72b0;stroke-linecap:round;stroke-width:1.5;"/>
   </g>
   <g id="line2d_29">
    <path clip-path="url(#p4569e0789a)" d="M 353.749968 242.116364 
L 353.749968 238.708213 
L 355.624705 238.708213 
L 355.624705 231.891912 
L 356.562074 231.891912 
L 356.562074 228.483762 
L 358.436812 228.483762 
L 358.436812 225.075611 
L 360.311549 225.075611 
L 360.311549 221.667461 
L 363.123655 221.667461 
L 363.123655 218.25931 
L 365.935762 218.25931 
L 365.935762 214.85116 
L 369.216552 214.85116 
L 369.216552 208.034859 
L 370.153921 208.034859 
L 370.153921 204.626708 
L 371.09129 204.626708 
L 371.09129 197.810408 
L 374.372081 197.810408 
L 374.372081 194.402257 
L 375.309449 194.402257 
L 375.309449 190.994107 
L 382.339715 190.994107 
L 382.339715 187.585956 
L 384.214453 187.585956 
L 384.214453 184.177806 
L 384.683137 184.177806 
L 384.683137 180.769655 
L 393.58814 180.769655 
L 393.58814 177.361505 
L 394.056824 177.361505 
L 394.056824 173.953354 
L 396.400246 173.953354 
L 396.400246 170.545204 
L 399.681037 170.545204 
L 399.681037 167.137053 
L 403.430512 167.137053 
L 403.430512 163.728903 
L 408.117356 163.728903 
L 408.117356 160.320752 
L 413.741568 160.320752 
L 413.741568 150.096301 
L 414.210253 150.096301 
L 414.210253 146.68815 
L 417.491043 146.68815 
L 417.491043 143.28 
L 419.365781 143.28 
L 419.365781 139.87185 
L 422.177887 139.87185 
L 422.177887 136.463699 
L 427.8021 136.463699 
L 427.8021 133.055549 
L 436.238419 133.055549 
L 436.238419 129.647398 
L 441.862631 129.647398 
L 441.862631 126.239248 
L 443.737369 126.239248 
L 443.737369 119.422947 
L 448.424213 119.422947 
L 448.424213 116.014796 
L 454.517109 116.014796 
L 454.517109 112.606646 
L 463.422113 112.606646 
L 463.422113 109.198495 
L 467.171588 109.198495 
L 467.171588 102.382194 
L 469.983694 102.382194 
L 469.983694 98.974044 
L 471.389747 98.974044 
L 471.389747 95.565893 
L 476.076591 95.565893 
L 476.076591 92.157743 
L 480.763435 92.157743 
L 480.763435 88.749592 
L 484.044225 88.749592 
L 484.044225 85.341442 
L 485.918963 85.341442 
L 485.918963 81.933292 
L 494.355282 81.933292 
L 494.355282 78.525141 
L 498.104757 78.525141 
L 498.104757 75.116991 
L 500.448179 75.116991 
L 500.448179 71.70884 
L 501.854232 71.70884 
L 501.854232 68.30069 
L 506.541076 68.30069 
L 506.541076 64.892539 
L 510.290551 64.892539 
L 510.290551 61.484389 
L 513.571341 61.484389 
L 513.571341 58.076238 
L 521.070291 58.076238 
L 521.070291 54.668088 
L 522.476345 54.668088 
L 522.476345 51.259937 
L 527.163188 51.259937 
L 527.163188 47.851787 
L 531.381348 47.851787 
L 531.381348 44.443636 
L 532.318717 44.443636 
L 532.318717 44.443636 
" style="fill:none;stroke:#dd8452;stroke-linecap:round;stroke-width:1.5;"/>
   </g>
   <g id="line2d_30">
    <path clip-path="url(#p4569e0789a)" d="M 353.281283 238.708213 
L 354.218652 238.708213 
L 354.218652 235.300063 
L 358.905496 235.300063 
L 358.905496 231.891912 
L 366.87313 231.891912 
L 366.87313 228.483762 
L 372.966027 228.483762 
L 372.966027 221.667461 
L 373.903396 221.667461 
L 373.903396 218.25931 
L 375.778134 218.25931 
L 375.778134 214.85116 
L 377.184187 214.85116 
L 377.184187 211.443009 
L 379.527609 211.443009 
L 379.527609 208.034859 
L 380.464977 208.034859 
L 380.464977 204.626708 
L 387.026559 204.626708 
L 387.026559 201.218558 
L 388.432612 201.218558 
L 388.432612 197.810408 
L 389.838665 197.810408 
L 389.838665 190.994107 
L 393.119456 190.994107 
L 393.119456 187.585956 
L 394.056824 187.585956 
L 394.056824 184.177806 
L 394.525509 184.177806 
L 394.525509 180.769655 
L 397.8063 180.769655 
L 397.8063 177.361505 
L 398.743668 177.361505 
L 398.743668 173.953354 
L 399.212353 173.953354 
L 399.212353 170.545204 
L 401.555775 170.545204 
L 401.555775 167.137053 
L 403.899196 167.137053 
L 403.899196 160.320752 
L 411.866831 160.320752 
L 411.866831 156.912602 
L 413.272884 156.912602 
L 413.272884 150.096301 
L 414.210253 150.096301 
L 414.210253 146.68815 
L 425.927362 146.68815 
L 425.927362 143.28 
L 428.739469 143.28 
L 428.739469 139.87185 
L 436.238419 139.87185 
L 436.238419 136.463699 
L 437.644472 136.463699 
L 437.644472 133.055549 
L 439.987894 133.055549 
L 439.987894 129.647398 
L 441.862631 129.647398 
L 441.862631 122.831097 
L 445.612106 122.831097 
L 445.612106 119.422947 
L 452.173688 119.422947 
L 452.173688 116.014796 
L 467.171588 116.014796 
L 467.171588 109.198495 
L 467.640272 109.198495 
L 467.640272 105.790345 
L 469.51501 105.790345 
L 469.51501 102.382194 
L 470.452378 102.382194 
L 470.452378 98.974044 
L 473.733169 98.974044 
L 473.733169 95.565893 
L 478.888697 95.565893 
L 478.888697 92.157743 
L 479.826066 92.157743 
L 479.826066 88.749592 
L 484.044225 88.749592 
L 484.044225 81.933292 
L 488.731069 81.933292 
L 488.731069 78.525141 
L 489.668438 78.525141 
L 489.668438 75.116991 
L 499.979494 75.116991 
L 499.979494 71.70884 
L 505.603707 71.70884 
L 505.603707 68.30069 
L 509.353182 68.30069 
L 509.353182 64.892539 
L 510.290551 64.892539 
L 510.290551 61.484389 
L 510.759235 61.484389 
L 510.759235 58.076238 
L 512.165288 58.076238 
L 512.165288 51.259937 
L 527.631873 51.259937 
L 527.631873 47.851787 
L 529.975295 47.851787 
L 529.975295 44.443636 
L 532.318717 44.443636 
L 532.318717 44.443636 
" style="fill:none;stroke:#55a868;stroke-linecap:round;stroke-width:1.5;"/>
   </g>
   <g id="line2d_31">
    <path clip-path="url(#p4569e0789a)" d="M 353.749968 242.116364 
L 353.749968 238.708213 
L 354.218652 238.708213 
L 354.218652 235.300063 
L 354.687337 235.300063 
L 354.687337 231.891912 
L 357.030758 231.891912 
L 357.030758 228.483762 
L 359.842865 228.483762 
L 359.842865 225.075611 
L 360.311549 225.075611 
L 360.311549 221.667461 
L 361.717602 221.667461 
L 361.717602 218.25931 
L 365.935762 218.25931 
L 365.935762 214.85116 
L 368.747868 214.85116 
L 368.747868 204.626708 
L 369.216552 204.626708 
L 369.216552 201.218558 
L 369.685237 201.218558 
L 369.685237 197.810408 
L 375.778134 197.810408 
L 375.778134 194.402257 
L 378.59024 194.402257 
L 378.59024 190.994107 
L 382.808399 190.994107 
L 382.808399 187.585956 
L 385.151821 187.585956 
L 385.151821 184.177806 
L 389.369981 184.177806 
L 389.369981 180.769655 
L 394.994193 180.769655 
L 394.994193 177.361505 
L 396.400246 177.361505 
L 396.400246 170.545204 
L 398.274984 170.545204 
L 398.274984 167.137053 
L 402.493143 167.137053 
L 402.493143 163.728903 
L 402.961828 163.728903 
L 402.961828 160.320752 
L 404.367881 160.320752 
L 404.367881 156.912602 
L 408.58604 156.912602 
L 408.58604 153.504451 
L 414.210253 153.504451 
L 414.210253 150.096301 
L 415.616306 150.096301 
L 415.616306 146.68815 
L 416.553675 146.68815 
L 416.553675 143.28 
L 417.022359 143.28 
L 417.022359 139.87185 
L 419.834465 139.87185 
L 419.834465 136.463699 
L 422.177887 136.463699 
L 422.177887 133.055549 
L 423.115256 133.055549 
L 423.115256 129.647398 
L 426.396047 129.647398 
L 426.396047 122.831097 
L 431.551575 122.831097 
L 431.551575 119.422947 
L 433.426312 119.422947 
L 433.426312 116.014796 
L 438.581841 116.014796 
L 438.581841 112.606646 
L 441.862631 112.606646 
L 441.862631 109.198495 
L 453.579741 109.198495 
L 453.579741 105.790345 
L 456.860531 105.790345 
L 456.860531 102.382194 
L 462.484744 102.382194 
L 462.484744 95.565893 
L 475.607907 95.565893 
L 475.607907 92.157743 
L 476.076591 92.157743 
L 476.076591 88.749592 
L 478.420013 88.749592 
L 478.420013 85.341442 
L 482.169488 85.341442 
L 482.169488 81.933292 
L 483.575541 81.933292 
L 483.575541 78.525141 
L 486.387647 78.525141 
L 486.387647 75.116991 
L 495.292651 75.116991 
L 495.292651 71.70884 
L 496.230019 71.70884 
L 496.230019 68.30069 
L 508.884498 68.30069 
L 508.884498 64.892539 
L 520.601607 64.892539 
L 520.601607 61.484389 
L 523.882398 61.484389 
L 523.882398 58.076238 
L 525.757135 58.076238 
L 525.757135 54.668088 
L 528.100557 54.668088 
L 528.100557 47.851787 
L 529.975295 47.851787 
L 529.975295 44.443636 
L 532.318717 44.443636 
L 532.318717 44.443636 
" style="fill:none;stroke:#c44e52;stroke-linecap:round;stroke-width:1.5;"/>
   </g>
   <g id="line2d_32">
    <path clip-path="url(#p4569e0789a)" d="M 353.281283 242.116364 
L 532.318717 44.443636 
" style="fill:none;stroke:#c44e52;stroke-dasharray:5.55,2.4;stroke-dashoffset:0;stroke-opacity:0.3;stroke-width:1.5;"/>
   </g>
   <g id="patch_8">
    <path d="M 344.329412 252 
L 344.329412 34.56 
" style="fill:none;stroke:#ffffff;stroke-linecap:square;stroke-linejoin:miter;stroke-width:1.25;"/>
   </g>
   <g id="patch_9">
    <path d="M 541.270588 252 
L 541.270588 34.56 
" style="fill:none;stroke:#ffffff;stroke-linecap:square;stroke-linejoin:miter;stroke-width:1.25;"/>
   </g>
   <g id="patch_10">
    <path d="M 344.329412 252 
L 541.270588 252 
" style="fill:none;stroke:#ffffff;stroke-linecap:square;stroke-linejoin:miter;stroke-width:1.25;"/>
   </g>
   <g id="patch_11">
    <path d="M 344.329412 34.56 
L 541.270588 34.56 
" style="fill:none;stroke:#ffffff;stroke-linecap:square;stroke-linejoin:miter;stroke-width:1.25;"/>
   </g>
   <g id="text_26">
    <!-- Network Metrics ROC curve -->
    <g style="fill:#262626;" transform="translate(368.459063 15.580875)scale(0.12 -0.12)">
     <use xlink:href="#ArialMT-4e"/>
     <use x="72.216797" xlink:href="#ArialMT-65"/>
     <use x="127.832031" xlink:href="#ArialMT-74"/>
     <use x="155.615234" xlink:href="#ArialMT-77"/>
     <use x="227.832031" xlink:href="#ArialMT-6f"/>
     <use x="283.447266" xlink:href="#ArialMT-72"/>
     <use x="316.748047" xlink:href="#ArialMT-6b"/>
     <use x="366.748047" xlink:href="#ArialMT-20"/>
     <use x="394.53125" xlink:href="#ArialMT-4d"/>
     <use x="477.832031" xlink:href="#ArialMT-65"/>
     <use x="533.447266" xlink:href="#ArialMT-74"/>
     <use x="561.230469" xlink:href="#ArialMT-72"/>
     <use x="594.53125" xlink:href="#ArialMT-69"/>
     <use x="616.748047" xlink:href="#ArialMT-63"/>
     <use x="666.748047" xlink:href="#ArialMT-73"/>
     <use x="716.748047" xlink:href="#ArialMT-20"/>
     <use x="744.53125" xlink:href="#ArialMT-52"/>
     <use x="816.748047" xlink:href="#ArialMT-4f"/>
     <use x="894.53125" xlink:href="#ArialMT-43"/>
     <use x="966.748047" xlink:href="#ArialMT-20"/>
     <use x="994.53125" xlink:href="#ArialMT-63"/>
     <use x="1044.53125" xlink:href="#ArialMT-75"/>
     <use x="1100.146484" xlink:href="#ArialMT-72"/>
     <use x="1133.447266" xlink:href="#ArialMT-76"/>
     <use x="1183.447266" xlink:href="#ArialMT-65"/>
    </g>
    <!-- for Hippo RNAi EggLaying -->
    <defs>
     <path d="M 7.90625 0 
L 7.90625 71.578125 
L 59.671875 71.578125 
L 59.671875 63.140625 
L 17.390625 63.140625 
L 17.390625 41.21875 
L 56.984375 41.21875 
L 56.984375 32.8125 
L 17.390625 32.8125 
L 17.390625 8.453125 
L 61.328125 8.453125 
L 61.328125 0 
z
" id="ArialMT-45"/>
     <path d="M 4.984375 -4.296875 
L 13.53125 -5.5625 
Q 14.0625 -9.515625 16.5 -11.328125 
Q 19.78125 -13.765625 25.4375 -13.765625 
Q 31.546875 -13.765625 34.859375 -11.328125 
Q 38.1875 -8.890625 39.359375 -4.5 
Q 40.046875 -1.8125 39.984375 6.78125 
Q 34.234375 0 25.640625 0 
Q 14.9375 0 9.078125 7.71875 
Q 3.21875 15.4375 3.21875 26.21875 
Q 3.21875 33.640625 5.90625 39.90625 
Q 8.59375 46.1875 13.6875 49.609375 
Q 18.796875 53.03125 25.6875 53.03125 
Q 34.859375 53.03125 40.828125 45.609375 
L 40.828125 51.859375 
L 48.921875 51.859375 
L 48.921875 7.03125 
Q 48.921875 -5.078125 46.453125 -10.125 
Q 44 -15.1875 38.640625 -18.109375 
Q 33.296875 -21.046875 25.484375 -21.046875 
Q 16.21875 -21.046875 10.5 -16.875 
Q 4.78125 -12.703125 4.984375 -4.296875 
z
M 12.25 26.859375 
Q 12.25 16.65625 16.296875 11.96875 
Q 20.359375 7.28125 26.46875 7.28125 
Q 32.515625 7.28125 36.609375 11.9375 
Q 40.71875 16.609375 40.71875 26.5625 
Q 40.71875 36.078125 36.5 40.90625 
Q 32.28125 45.75 26.3125 45.75 
Q 20.453125 45.75 16.34375 40.984375 
Q 12.25 36.234375 12.25 26.859375 
z
" id="ArialMT-67"/>
     <path d="M 7.328125 0 
L 7.328125 71.578125 
L 16.796875 71.578125 
L 16.796875 8.453125 
L 52.046875 8.453125 
L 52.046875 0 
z
" id="ArialMT-4c"/>
    </defs>
    <g style="fill:#262626;" transform="translate(372.765938 28.448625)scale(0.12 -0.12)">
     <use xlink:href="#ArialMT-66"/>
     <use x="27.783203" xlink:href="#ArialMT-6f"/>
     <use x="83.398438" xlink:href="#ArialMT-72"/>
     <use x="116.699219" xlink:href="#ArialMT-20"/>
     <use x="144.482422" xlink:href="#ArialMT-48"/>
     <use x="216.699219" xlink:href="#ArialMT-69"/>
     <use x="238.916016" xlink:href="#ArialMT-70"/>
     <use x="294.53125" xlink:href="#ArialMT-70"/>
     <use x="350.146484" xlink:href="#ArialMT-6f"/>
     <use x="405.761719" xlink:href="#ArialMT-20"/>
     <use x="433.544922" xlink:href="#ArialMT-52"/>
     <use x="505.761719" xlink:href="#ArialMT-4e"/>
     <use x="577.978516" xlink:href="#ArialMT-41"/>
     <use x="644.677734" xlink:href="#ArialMT-69"/>
     <use x="666.894531" xlink:href="#ArialMT-20"/>
     <use x="694.677734" xlink:href="#ArialMT-45"/>
     <use x="761.376953" xlink:href="#ArialMT-67"/>
     <use x="816.992188" xlink:href="#ArialMT-67"/>
     <use x="872.607422" xlink:href="#ArialMT-4c"/>
     <use x="928.222656" xlink:href="#ArialMT-61"/>
     <use x="983.837891" xlink:href="#ArialMT-79"/>
     <use x="1033.837891" xlink:href="#ArialMT-69"/>
     <use x="1056.054688" xlink:href="#ArialMT-6e"/>
     <use x="1111.669922" xlink:href="#ArialMT-67"/>
    </g>
   </g>
  </g>
  <g id="axes_3">
   <g id="patch_12">
    <path d="M 580.658824 252 
L 777.6 252 
L 777.6 34.56 
L 580.658824 34.56 
z
" style="fill:#eaeaf2;"/>
   </g>
   <g id="matplotlib.axis_5">
    <g id="xtick_11">
     <g id="line2d_33">
      <path clip-path="url(#p9048c13a32)" d="M 589.610695 252 
L 589.610695 34.56 
" style="fill:none;stroke:#ffffff;stroke-linecap:round;"/>
     </g>
     <g id="text_27">
      <!-- 0.00 -->
      <g style="fill:#262626;" transform="translate(578.90718 269.373594)scale(0.11 -0.11)">
       <use xlink:href="#ArialMT-30"/>
       <use x="55.615234" xlink:href="#ArialMT-2e"/>
       <use x="83.398438" xlink:href="#ArialMT-30"/>
       <use x="139.013672" xlink:href="#ArialMT-30"/>
      </g>
     </g>
    </g>
    <g id="xtick_12">
     <g id="line2d_34">
      <path clip-path="url(#p9048c13a32)" d="M 634.370053 252 
L 634.370053 34.56 
" style="fill:none;stroke:#ffffff;stroke-linecap:round;"/>
     </g>
     <g id="text_28">
      <!-- 0.25 -->
      <g style="fill:#262626;" transform="translate(623.666538 269.373594)scale(0.11 -0.11)">
       <use xlink:href="#ArialMT-30"/>
       <use x="55.615234" xlink:href="#ArialMT-2e"/>
       <use x="83.398438" xlink:href="#ArialMT-32"/>
       <use x="139.013672" xlink:href="#ArialMT-35"/>
      </g>
     </g>
    </g>
    <g id="xtick_13">
     <g id="line2d_35">
      <path clip-path="url(#p9048c13a32)" d="M 679.129412 252 
L 679.129412 34.56 
" style="fill:none;stroke:#ffffff;stroke-linecap:round;"/>
     </g>
     <g id="text_29">
      <!-- 0.50 -->
      <g style="fill:#262626;" transform="translate(668.425896 269.373594)scale(0.11 -0.11)">
       <use xlink:href="#ArialMT-30"/>
       <use x="55.615234" xlink:href="#ArialMT-2e"/>
       <use x="83.398438" xlink:href="#ArialMT-35"/>
       <use x="139.013672" xlink:href="#ArialMT-30"/>
      </g>
     </g>
    </g>
    <g id="xtick_14">
     <g id="line2d_36">
      <path clip-path="url(#p9048c13a32)" d="M 723.88877 252 
L 723.88877 34.56 
" style="fill:none;stroke:#ffffff;stroke-linecap:round;"/>
     </g>
     <g id="text_30">
      <!-- 0.75 -->
      <g style="fill:#262626;" transform="translate(713.185254 269.373594)scale(0.11 -0.11)">
       <use xlink:href="#ArialMT-30"/>
       <use x="55.615234" xlink:href="#ArialMT-2e"/>
       <use x="83.398438" xlink:href="#ArialMT-37"/>
       <use x="139.013672" xlink:href="#ArialMT-35"/>
      </g>
     </g>
    </g>
    <g id="xtick_15">
     <g id="line2d_37">
      <path clip-path="url(#p9048c13a32)" d="M 768.648128 252 
L 768.648128 34.56 
" style="fill:none;stroke:#ffffff;stroke-linecap:round;"/>
     </g>
     <g id="text_31">
      <!-- 1.00 -->
      <g style="fill:#262626;" transform="translate(757.944613 269.373594)scale(0.11 -0.11)">
       <use xlink:href="#ArialMT-31"/>
       <use x="55.615234" xlink:href="#ArialMT-2e"/>
       <use x="83.398438" xlink:href="#ArialMT-30"/>
       <use x="139.013672" xlink:href="#ArialMT-30"/>
      </g>
     </g>
    </g>
   </g>
   <g id="matplotlib.axis_6">
    <g id="ytick_13">
     <g id="line2d_38">
      <path clip-path="url(#p9048c13a32)" d="M 580.658824 242.116364 
L 777.6 242.116364 
" style="fill:none;stroke:#ffffff;stroke-linecap:round;"/>
     </g>
     <g id="text_32">
      <!-- 0.0 -->
      <g style="fill:#262626;" transform="translate(555.868824 246.053161)scale(0.11 -0.11)">
       <use xlink:href="#ArialMT-30"/>
       <use x="55.615234" xlink:href="#ArialMT-2e"/>
       <use x="83.398438" xlink:href="#ArialMT-30"/>
      </g>
     </g>
    </g>
    <g id="ytick_14">
     <g id="line2d_39">
      <path clip-path="url(#p9048c13a32)" d="M 580.658824 202.581818 
L 777.6 202.581818 
" style="fill:none;stroke:#ffffff;stroke-linecap:round;"/>
     </g>
     <g id="text_33">
      <!-- 0.2 -->
      <g style="fill:#262626;" transform="translate(555.868824 206.518615)scale(0.11 -0.11)">
       <use xlink:href="#ArialMT-30"/>
       <use x="55.615234" xlink:href="#ArialMT-2e"/>
       <use x="83.398438" xlink:href="#ArialMT-32"/>
      </g>
     </g>
    </g>
    <g id="ytick_15">
     <g id="line2d_40">
      <path clip-path="url(#p9048c13a32)" d="M 580.658824 163.047273 
L 777.6 163.047273 
" style="fill:none;stroke:#ffffff;stroke-linecap:round;"/>
     </g>
     <g id="text_34">
      <!-- 0.4 -->
      <g style="fill:#262626;" transform="translate(555.868824 166.98407)scale(0.11 -0.11)">
       <use xlink:href="#ArialMT-30"/>
       <use x="55.615234" xlink:href="#ArialMT-2e"/>
       <use x="83.398438" xlink:href="#ArialMT-34"/>
      </g>
     </g>
    </g>
    <g id="ytick_16">
     <g id="line2d_41">
      <path clip-path="url(#p9048c13a32)" d="M 580.658824 123.512727 
L 777.6 123.512727 
" style="fill:none;stroke:#ffffff;stroke-linecap:round;"/>
     </g>
     <g id="text_35">
      <!-- 0.6 -->
      <g style="fill:#262626;" transform="translate(555.868824 127.449524)scale(0.11 -0.11)">
       <use xlink:href="#ArialMT-30"/>
       <use x="55.615234" xlink:href="#ArialMT-2e"/>
       <use x="83.398438" xlink:href="#ArialMT-36"/>
      </g>
     </g>
    </g>
    <g id="ytick_17">
     <g id="line2d_42">
      <path clip-path="url(#p9048c13a32)" d="M 580.658824 83.978182 
L 777.6 83.978182 
" style="fill:none;stroke:#ffffff;stroke-linecap:round;"/>
     </g>
     <g id="text_36">
      <!-- 0.8 -->
      <g style="fill:#262626;" transform="translate(555.868824 87.914979)scale(0.11 -0.11)">
       <use xlink:href="#ArialMT-30"/>
       <use x="55.615234" xlink:href="#ArialMT-2e"/>
       <use x="83.398438" xlink:href="#ArialMT-38"/>
      </g>
     </g>
    </g>
    <g id="ytick_18">
     <g id="line2d_43">
      <path clip-path="url(#p9048c13a32)" d="M 580.658824 44.443636 
L 777.6 44.443636 
" style="fill:none;stroke:#ffffff;stroke-linecap:round;"/>
     </g>
     <g id="text_37">
      <!-- 1.0 -->
      <g style="fill:#262626;" transform="translate(555.868824 48.380433)scale(0.11 -0.11)">
       <use xlink:href="#ArialMT-31"/>
       <use x="55.615234" xlink:href="#ArialMT-2e"/>
       <use x="83.398438" xlink:href="#ArialMT-30"/>
      </g>
     </g>
    </g>
   </g>
   <g id="line2d_44">
    <path clip-path="url(#p9048c13a32)" d="M 589.610695 238.082226 
L 591.26081 238.082226 
L 591.26081 230.013952 
L 592.085867 230.013952 
L 592.085867 225.979814 
L 594.561039 225.979814 
L 594.561039 221.945677 
L 599.511383 221.945677 
L 599.511383 209.843265 
L 601.161497 209.843265 
L 601.161497 205.809128 
L 606.111841 205.809128 
L 606.111841 193.706716 
L 606.936898 193.706716 
L 606.936898 185.638442 
L 608.587013 185.638442 
L 608.587013 181.604304 
L 612.712299 181.604304 
L 612.712299 177.570167 
L 616.012529 177.570167 
L 616.012529 173.53603 
L 622.612987 173.53603 
L 622.612987 169.501892 
L 623.438044 169.501892 
L 623.438044 165.467755 
L 624.263102 165.467755 
L 624.263102 161.433618 
L 627.563331 161.433618 
L 627.563331 157.399481 
L 634.988846 157.399481 
L 634.988846 153.365343 
L 640.764248 153.365343 
L 640.764248 149.331206 
L 655.615279 149.331206 
L 655.615279 145.297069 
L 662.215737 145.297069 
L 662.215737 137.228794 
L 666.341024 137.228794 
L 666.341024 129.160519 
L 667.166081 129.160519 
L 667.166081 125.126382 
L 668.816196 125.126382 
L 668.816196 121.092245 
L 677.066769 121.092245 
L 677.066769 113.02397 
L 680.366998 113.02397 
L 680.366998 108.989833 
L 683.667227 108.989833 
L 683.667227 104.955696 
L 686.142399 104.955696 
L 686.142399 100.921558 
L 720.794805 100.921558 
L 720.794805 96.887421 
L 727.395264 96.887421 
L 727.395264 92.853284 
L 738.121008 92.853284 
L 738.121008 84.785009 
L 739.771123 84.785009 
L 739.771123 80.750872 
L 745.546524 80.750872 
L 745.546524 76.716735 
L 747.196639 76.716735 
L 747.196639 72.682597 
L 750.496868 72.682597 
L 750.496868 68.64846 
L 753.797097 68.64846 
L 753.797097 64.614323 
L 754.622154 64.614323 
L 754.622154 60.580186 
L 757.097326 60.580186 
L 757.097326 56.546048 
L 763.697785 56.546048 
L 763.697785 52.511911 
L 764.522842 52.511911 
L 764.522842 48.477774 
L 768.648128 48.477774 
L 768.648128 44.443636 
L 768.648128 44.443636 
" style="fill:none;stroke:#4c72b0;stroke-linecap:round;stroke-width:1.5;"/>
   </g>
   <g id="line2d_45">
    <path clip-path="url(#p9048c13a32)" d="M 589.610695 238.082226 
L 591.26081 238.082226 
L 591.26081 230.013952 
L 592.085867 230.013952 
L 592.085867 225.979814 
L 594.561039 225.979814 
L 594.561039 221.945677 
L 595.386096 221.945677 
L 595.386096 217.91154 
L 597.861268 217.91154 
L 597.861268 213.877403 
L 600.33644 213.877403 
L 600.33644 205.809128 
L 601.986555 205.809128 
L 601.986555 201.774991 
L 605.286784 201.774991 
L 605.286784 197.740853 
L 606.111841 197.740853 
L 606.111841 193.706716 
L 606.936898 193.706716 
L 606.936898 185.638442 
L 611.062185 185.638442 
L 611.062185 181.604304 
L 615.187471 181.604304 
L 615.187471 177.570167 
L 619.312758 177.570167 
L 619.312758 173.53603 
L 620.137815 173.53603 
L 620.137815 169.501892 
L 625.088159 169.501892 
L 625.088159 165.467755 
L 627.563331 165.467755 
L 627.563331 161.433618 
L 628.388388 161.433618 
L 628.388388 157.399481 
L 629.213445 157.399481 
L 629.213445 153.365343 
L 631.688617 153.365343 
L 631.688617 145.297069 
L 633.338732 145.297069 
L 633.338732 141.262931 
L 654.790222 141.262931 
L 654.790222 133.194657 
L 662.215737 133.194657 
L 662.215737 129.160519 
L 668.816196 129.160519 
L 668.816196 125.126382 
L 686.967456 125.126382 
L 686.967456 121.092245 
L 690.267685 121.092245 
L 690.267685 117.058108 
L 698.518258 117.058108 
L 698.518258 113.02397 
L 700.99343 113.02397 
L 700.99343 108.989833 
L 707.593888 108.989833 
L 707.593888 104.955696 
L 710.06906 104.955696 
L 710.06906 100.921558 
L 720.794805 100.921558 
L 720.794805 96.887421 
L 724.920092 96.887421 
L 724.920092 92.853284 
L 737.295951 92.853284 
L 737.295951 80.750872 
L 741.421238 80.750872 
L 741.421238 76.716735 
L 743.896409 76.716735 
L 743.896409 72.682597 
L 747.196639 72.682597 
L 747.196639 68.64846 
L 749.671811 68.64846 
L 749.671811 60.580186 
L 755.447212 60.580186 
L 755.447212 56.546048 
L 760.397555 56.546048 
L 760.397555 52.511911 
L 762.04767 52.511911 
L 762.04767 48.477774 
L 764.522842 48.477774 
L 764.522842 44.443636 
L 768.648128 44.443636 
L 768.648128 44.443636 
" style="fill:none;stroke:#dd8452;stroke-linecap:round;stroke-width:1.5;"/>
   </g>
   <g id="line2d_46">
    <path clip-path="url(#p9048c13a32)" d="M 589.610695 238.082226 
L 589.610695 234.048089 
L 592.910924 234.048089 
L 592.910924 230.013952 
L 594.561039 230.013952 
L 594.561039 225.979814 
L 597.861268 225.979814 
L 597.861268 221.945677 
L 601.986555 221.945677 
L 601.986555 213.877403 
L 606.936898 213.877403 
L 606.936898 197.740853 
L 607.761956 197.740853 
L 607.761956 193.706716 
L 611.062185 193.706716 
L 611.062185 189.672579 
L 612.712299 189.672579 
L 612.712299 181.604304 
L 617.662643 181.604304 
L 617.662643 177.570167 
L 620.137815 177.570167 
L 620.137815 173.53603 
L 623.438044 173.53603 
L 623.438044 169.501892 
L 627.563331 169.501892 
L 627.563331 161.433618 
L 630.86356 161.433618 
L 630.86356 153.365343 
L 632.513675 153.365343 
L 632.513675 145.297069 
L 634.988846 145.297069 
L 634.988846 137.228794 
L 637.464018 137.228794 
L 637.464018 129.160519 
L 672.941482 129.160519 
L 672.941482 125.126382 
L 680.366998 125.126382 
L 680.366998 121.092245 
L 682.84217 121.092245 
L 682.84217 117.058108 
L 692.742857 117.058108 
L 692.742857 113.02397 
L 701.818487 113.02397 
L 701.818487 108.989833 
L 710.06906 108.989833 
L 710.06906 104.955696 
L 716.669519 104.955696 
L 716.669519 100.921558 
L 724.095034 100.921558 
L 724.095034 96.887421 
L 726.570206 96.887421 
L 726.570206 88.819147 
L 738.121008 88.819147 
L 738.121008 84.785009 
L 740.59618 84.785009 
L 740.59618 80.750872 
L 743.071352 80.750872 
L 743.071352 76.716735 
L 744.721467 76.716735 
L 744.721467 72.682597 
L 746.371581 72.682597 
L 746.371581 68.64846 
L 747.196639 68.64846 
L 747.196639 64.614323 
L 748.021696 64.614323 
L 748.021696 60.580186 
L 749.671811 60.580186 
L 749.671811 56.546048 
L 758.747441 56.546048 
L 758.747441 52.511911 
L 762.04767 52.511911 
L 762.04767 48.477774 
L 767.823071 48.477774 
L 767.823071 44.443636 
L 768.648128 44.443636 
L 768.648128 44.443636 
" style="fill:none;stroke:#55a868;stroke-linecap:round;stroke-width:1.5;"/>
   </g>
   <g id="line2d_47">
    <path clip-path="url(#p9048c13a32)" d="M 589.610695 238.082226 
L 589.610695 234.048089 
L 592.085867 234.048089 
L 592.085867 230.013952 
L 595.386096 230.013952 
L 595.386096 225.979814 
L 596.211154 225.979814 
L 596.211154 221.945677 
L 597.861268 221.945677 
L 597.861268 209.843265 
L 604.461727 209.843265 
L 604.461727 205.809128 
L 605.286784 205.809128 
L 605.286784 193.706716 
L 610.237128 193.706716 
L 610.237128 185.638442 
L 612.712299 185.638442 
L 612.712299 177.570167 
L 614.362414 177.570167 
L 614.362414 173.53603 
L 615.187471 173.53603 
L 615.187471 169.501892 
L 617.662643 169.501892 
L 617.662643 165.467755 
L 622.612987 165.467755 
L 622.612987 161.433618 
L 627.563331 161.433618 
L 627.563331 157.399481 
L 631.688617 157.399481 
L 631.688617 153.365343 
L 644.889534 153.365343 
L 644.889534 149.331206 
L 646.539649 149.331206 
L 646.539649 145.297069 
L 656.440336 145.297069 
L 656.440336 141.262931 
L 658.090451 141.262931 
L 658.090451 133.194657 
L 659.740565 133.194657 
L 659.740565 129.160519 
L 666.341024 129.160519 
L 666.341024 125.126382 
L 668.816196 125.126382 
L 668.816196 121.092245 
L 672.116425 121.092245 
L 672.116425 113.02397 
L 678.716883 113.02397 
L 678.716883 108.989833 
L 699.343316 108.989833 
L 699.343316 104.955696 
L 700.168373 104.955696 
L 700.168373 100.921558 
L 705.118717 100.921558 
L 705.118717 96.887421 
L 708.418946 96.887421 
L 708.418946 92.853284 
L 721.619862 92.853284 
L 721.619862 88.819147 
L 727.395264 88.819147 
L 727.395264 84.785009 
L 729.870435 84.785009 
L 729.870435 80.750872 
L 738.946066 80.750872 
L 738.946066 76.716735 
L 739.771123 76.716735 
L 739.771123 72.682597 
L 747.196639 72.682597 
L 747.196639 68.64846 
L 748.846753 68.64846 
L 748.846753 64.614323 
L 752.146982 64.614323 
L 752.146982 60.580186 
L 760.397555 60.580186 
L 760.397555 56.546048 
L 764.522842 56.546048 
L 764.522842 48.477774 
L 765.347899 48.477774 
L 765.347899 44.443636 
L 768.648128 44.443636 
L 768.648128 44.443636 
" style="fill:none;stroke:#c44e52;stroke-linecap:round;stroke-width:1.5;"/>
   </g>
   <g id="line2d_48">
    <path clip-path="url(#p9048c13a32)" d="M 589.610695 242.116364 
L 768.648128 44.443636 
" style="fill:none;stroke:#c44e52;stroke-dasharray:5.55,2.4;stroke-dashoffset:0;stroke-opacity:0.3;stroke-width:1.5;"/>
   </g>
   <g id="patch_13">
    <path d="M 580.658824 252 
L 580.658824 34.56 
" style="fill:none;stroke:#ffffff;stroke-linecap:square;stroke-linejoin:miter;stroke-width:1.25;"/>
   </g>
   <g id="patch_14">
    <path d="M 777.6 252 
L 777.6 34.56 
" style="fill:none;stroke:#ffffff;stroke-linecap:square;stroke-linejoin:miter;stroke-width:1.25;"/>
   </g>
   <g id="patch_15">
    <path d="M 580.658824 252 
L 777.6 252 
" style="fill:none;stroke:#ffffff;stroke-linecap:square;stroke-linejoin:miter;stroke-width:1.25;"/>
   </g>
   <g id="patch_16">
    <path d="M 580.658824 34.56 
L 777.6 34.56 
" style="fill:none;stroke:#ffffff;stroke-linecap:square;stroke-linejoin:miter;stroke-width:1.25;"/>
   </g>
   <g id="text_38">
    <!-- Network Metrics ROC curve -->
    <g style="fill:#262626;" transform="translate(604.788474 15.580875)scale(0.12 -0.12)">
     <use xlink:href="#ArialMT-4e"/>
     <use x="72.216797" xlink:href="#ArialMT-65"/>
     <use x="127.832031" xlink:href="#ArialMT-74"/>
     <use x="155.615234" xlink:href="#ArialMT-77"/>
     <use x="227.832031" xlink:href="#ArialMT-6f"/>
     <use x="283.447266" xlink:href="#ArialMT-72"/>
     <use x="316.748047" xlink:href="#ArialMT-6b"/>
     <use x="366.748047" xlink:href="#ArialMT-20"/>
     <use x="394.53125" xlink:href="#ArialMT-4d"/>
     <use x="477.832031" xlink:href="#ArialMT-65"/>
     <use x="533.447266" xlink:href="#ArialMT-74"/>
     <use x="561.230469" xlink:href="#ArialMT-72"/>
     <use x="594.53125" xlink:href="#ArialMT-69"/>
     <use x="616.748047" xlink:href="#ArialMT-63"/>
     <use x="666.748047" xlink:href="#ArialMT-73"/>
     <use x="716.748047" xlink:href="#ArialMT-20"/>
     <use x="744.53125" xlink:href="#ArialMT-52"/>
     <use x="816.748047" xlink:href="#ArialMT-4f"/>
     <use x="894.53125" xlink:href="#ArialMT-43"/>
     <use x="966.748047" xlink:href="#ArialMT-20"/>
     <use x="994.53125" xlink:href="#ArialMT-63"/>
     <use x="1044.53125" xlink:href="#ArialMT-75"/>
     <use x="1100.146484" xlink:href="#ArialMT-72"/>
     <use x="1133.447266" xlink:href="#ArialMT-76"/>
     <use x="1183.447266" xlink:href="#ArialMT-65"/>
    </g>
    <!-- for EggLaying -->
    <g style="fill:#262626;" transform="translate(642.106599 28.448625)scale(0.12 -0.12)">
     <use xlink:href="#ArialMT-66"/>
     <use x="27.783203" xlink:href="#ArialMT-6f"/>
     <use x="83.398438" xlink:href="#ArialMT-72"/>
     <use x="116.699219" xlink:href="#ArialMT-20"/>
     <use x="144.482422" xlink:href="#ArialMT-45"/>
     <use x="211.181641" xlink:href="#ArialMT-67"/>
     <use x="266.796875" xlink:href="#ArialMT-67"/>
     <use x="322.412109" xlink:href="#ArialMT-4c"/>
     <use x="378.027344" xlink:href="#ArialMT-61"/>
     <use x="433.642578" xlink:href="#ArialMT-79"/>
     <use x="483.642578" xlink:href="#ArialMT-69"/>
     <use x="505.859375" xlink:href="#ArialMT-6e"/>
     <use x="561.474609" xlink:href="#ArialMT-67"/>
    </g>
   </g>
   <g id="legend_1">
    <g id="patch_17">
     <path d="M 674.7775 246.5 
L 769.9 246.5 
Q 772.1 246.5 772.1 244.3 
L 772.1 167.342969 
Q 772.1 165.142969 769.9 165.142969 
L 674.7775 165.142969 
Q 672.5775 165.142969 672.5775 167.342969 
L 672.5775 244.3 
Q 672.5775 246.5 674.7775 246.5 
z
" style="fill:#eaeaf2;opacity:0.8;stroke:#cccccc;stroke-linejoin:miter;"/>
    </g>
    <g id="line2d_49">
     <path d="M 676.9775 173.566563 
L 698.9775 173.566563 
" style="fill:none;stroke:#4c72b0;stroke-linecap:round;stroke-width:1.5;"/>
    </g>
    <g id="line2d_50"/>
    <g id="text_39">
     <!-- Betweeness -->
     <defs>
      <path d="M 7.328125 0 
L 7.328125 71.578125 
L 34.1875 71.578125 
Q 42.390625 71.578125 47.34375 69.40625 
Q 52.296875 67.234375 55.09375 62.71875 
Q 57.90625 58.203125 57.90625 53.265625 
Q 57.90625 48.6875 55.421875 44.625 
Q 52.9375 40.578125 47.90625 38.09375 
Q 54.390625 36.1875 57.875 31.59375 
Q 61.375 27 61.375 20.75 
Q 61.375 15.71875 59.25 11.390625 
Q 57.125 7.078125 54 4.734375 
Q 50.875 2.390625 46.15625 1.1875 
Q 41.453125 0 34.625 0 
z
M 16.796875 41.5 
L 32.28125 41.5 
Q 38.578125 41.5 41.3125 42.328125 
Q 44.921875 43.40625 46.75 45.890625 
Q 48.578125 48.390625 48.578125 52.15625 
Q 48.578125 55.71875 46.875 58.421875 
Q 45.171875 61.140625 41.984375 62.140625 
Q 38.8125 63.140625 31.109375 63.140625 
L 16.796875 63.140625 
z
M 16.796875 8.453125 
L 34.625 8.453125 
Q 39.203125 8.453125 41.0625 8.796875 
Q 44.34375 9.375 46.53125 10.734375 
Q 48.734375 12.109375 50.140625 14.71875 
Q 51.5625 17.328125 51.5625 20.75 
Q 51.5625 24.75 49.515625 27.703125 
Q 47.46875 30.671875 43.828125 31.859375 
Q 40.1875 33.0625 33.34375 33.0625 
L 16.796875 33.0625 
z
" id="ArialMT-42"/>
     </defs>
     <g style="fill:#262626;" transform="translate(707.7775 177.416562)scale(0.11 -0.11)">
      <use xlink:href="#ArialMT-42"/>
      <use x="66.699219" xlink:href="#ArialMT-65"/>
      <use x="122.314453" xlink:href="#ArialMT-74"/>
      <use x="150.097656" xlink:href="#ArialMT-77"/>
      <use x="222.314453" xlink:href="#ArialMT-65"/>
      <use x="277.929688" xlink:href="#ArialMT-65"/>
      <use x="333.544922" xlink:href="#ArialMT-6e"/>
      <use x="389.160156" xlink:href="#ArialMT-65"/>
      <use x="444.775391" xlink:href="#ArialMT-73"/>
      <use x="494.775391" xlink:href="#ArialMT-73"/>
     </g>
    </g>
    <g id="line2d_51">
     <path d="M 676.9775 189.126406 
L 698.9775 189.126406 
" style="fill:none;stroke:#dd8452;stroke-linecap:round;stroke-width:1.5;"/>
    </g>
    <g id="line2d_52"/>
    <g id="text_40">
     <!-- EigenVector -->
     <defs>
      <path d="M 28.171875 0 
L 0.4375 71.578125 
L 10.6875 71.578125 
L 29.296875 19.578125 
Q 31.546875 13.328125 33.0625 7.859375 
Q 34.71875 13.71875 36.921875 19.578125 
L 56.25 71.578125 
L 65.921875 71.578125 
L 37.890625 0 
z
" id="ArialMT-56"/>
     </defs>
     <g style="fill:#262626;" transform="translate(707.7775 192.976406)scale(0.11 -0.11)">
      <use xlink:href="#ArialMT-45"/>
      <use x="66.699219" xlink:href="#ArialMT-69"/>
      <use x="88.916016" xlink:href="#ArialMT-67"/>
      <use x="144.53125" xlink:href="#ArialMT-65"/>
      <use x="200.146484" xlink:href="#ArialMT-6e"/>
      <use x="255.761719" xlink:href="#ArialMT-56"/>
      <use x="322.382812" xlink:href="#ArialMT-65"/>
      <use x="377.998047" xlink:href="#ArialMT-63"/>
      <use x="427.998047" xlink:href="#ArialMT-74"/>
      <use x="455.78125" xlink:href="#ArialMT-6f"/>
      <use x="511.396484" xlink:href="#ArialMT-72"/>
     </g>
    </g>
    <g id="line2d_53">
     <path d="M 676.9775 204.815156 
L 698.9775 204.815156 
" style="fill:none;stroke:#55a868;stroke-linecap:round;stroke-width:1.5;"/>
    </g>
    <g id="line2d_54"/>
    <g id="text_41">
     <!-- Closeness -->
     <g style="fill:#262626;" transform="translate(707.7775 208.665156)scale(0.11 -0.11)">
      <use xlink:href="#ArialMT-43"/>
      <use x="72.216797" xlink:href="#ArialMT-6c"/>
      <use x="94.433594" xlink:href="#ArialMT-6f"/>
      <use x="150.048828" xlink:href="#ArialMT-73"/>
      <use x="200.048828" xlink:href="#ArialMT-65"/>
      <use x="255.664062" xlink:href="#ArialMT-6e"/>
      <use x="311.279297" xlink:href="#ArialMT-65"/>
      <use x="366.894531" xlink:href="#ArialMT-73"/>
      <use x="416.894531" xlink:href="#ArialMT-73"/>
     </g>
    </g>
    <g id="line2d_55">
     <path d="M 676.9775 220.375 
L 698.9775 220.375 
" style="fill:none;stroke:#c44e52;stroke-linecap:round;stroke-width:1.5;"/>
    </g>
    <g id="line2d_56"/>
    <g id="text_42">
     <!-- Degrees -->
     <g style="fill:#262626;" transform="translate(707.7775 224.225)scale(0.11 -0.11)">
      <use xlink:href="#ArialMT-44"/>
      <use x="72.216797" xlink:href="#ArialMT-65"/>
      <use x="127.832031" xlink:href="#ArialMT-67"/>
      <use x="183.447266" xlink:href="#ArialMT-72"/>
      <use x="216.748047" xlink:href="#ArialMT-65"/>
      <use x="272.363281" xlink:href="#ArialMT-65"/>
      <use x="327.978516" xlink:href="#ArialMT-73"/>
     </g>
    </g>
    <g id="line2d_57">
     <path d="M 676.9775 236.06375 
L 698.9775 236.06375 
" style="fill:none;stroke:#c44e52;stroke-dasharray:5.55,2.4;stroke-dashoffset:0;stroke-opacity:0.3;stroke-width:1.5;"/>
    </g>
    <g id="line2d_58"/>
    <g id="text_43">
     <!-- Luck -->
     <g style="fill:#262626;" transform="translate(707.7775 239.91375)scale(0.11 -0.11)">
      <use xlink:href="#ArialMT-4c"/>
      <use x="55.615234" xlink:href="#ArialMT-75"/>
      <use x="111.230469" xlink:href="#ArialMT-63"/>
      <use x="161.230469" xlink:href="#ArialMT-6b"/>
     </g>
    </g>
   </g>
  </g>
 </g>
 <defs>
  <clipPath id="p93b9b90567">
   <rect height="217.44" width="196.941176" x="108" y="34.56"/>
  </clipPath>
  <clipPath id="p4569e0789a">
   <rect height="217.44" width="196.941176" x="344.329412" y="34.56"/>
  </clipPath>
  <clipPath id="p9048c13a32">
   <rect height="217.44" width="196.941176" x="580.658824" y="34.56"/>
  </clipPath>
 </defs>
</svg>
