<?xml version="1.0" encoding="UTF-8" standalone="no"?>
<!-- Created with Inkscape (http://www.inkscape.org/) -->
<svg id="svg2" xmlns:rdf="http://www.w3.org/1999/02/22-rdf-syntax-ns#" xmlns="http://www.w3.org/2000/svg" height="200" width="450" version="1.1" xmlns:cc="http://creativecommons.org/ns#" xmlns:dc="http://purl.org/dc/elements/1.1/">
 <metadata id="metadata7">
  <rdf:RDF>
   <cc:Work rdf:about="">
    <dc:format>image/svg+xml</dc:format>
    <dc:type rdf:resource="http://purl.org/dc/dcmitype/StillImage"/>
    <dc:title/>
   </cc:Work>
  </rdf:RDF>
 </metadata>
 <g id="g4614" transform="translate(-45.004 -.00092779)">
  <text id="text4143" style="word-spacing:0px;letter-spacing:0px" xml:space="preserve" font-size="36px" line-height="125%" y="189.08946" x="458.64111" font-family="Sans" fill="#000000"><tspan id="tspan4147" font-size="36px" line-height="125%" y="189.08946" x="458.64111" font-family="Sans">♂</tspan></text>
  <g id="g4700" transform="matrix(.42286 0 0 .42286 55.072 3.6537)">
   <path id="path4702" fill="#fea" d="m245.72 197.46s-67.147 3.1716-65.484 62.376c1.6633 59.204 41.68 95.592 65.484 111.36 23.804-15.763 63.785-52.151 65.448-111.36 1.6633-59.204-65.448-62.376-65.448-62.376z" stroke="#000"/>
   <g id="g4704" fill-rule="evenodd" transform="translate(2,-564)" stroke="#000" fill="#fea">
    <path id="path4706" d="m384.99 952.65c1.5818 5.5734 4.0967 12.235 3.8531 15.679 3.7146-3.9256 5.7957-3.0492 10.809-2.2283-5.0381-5.808-13.263-17.574-14.662-13.451z"/>
    <path id="path4708" d="m375.57 938.94c4.6364 6.8609 4.0694 12.477 8.1996 20.012 2.1309-4.6584 3.4757-4.7363 8.2327-5.2676-3.9429-6.407-8.7316-11.404-13.343-16.697z"/>
    <path id="path4710" d="m365.98 923.73c4.06 6.7668 5.2948 14.945 10.023 20.634 2.4714-5.7611 0.50573-5.9238 7.7326-5.1139-3.7-7.52-10.98-12.33-13.94-19.16z"/>
    <path id="path4712" d="m342.02 879.67c4.89 15.2 22.67 37.06 23.41 49.89 4.1443-6.9419 2.8938-6.7232 10.387-5.3825-6.34-16.04-16.36-29.77-25.13-44.28z"/>
    <path id="path4714" d="m287.14 725.26-3.8891 2.8284c23.035 24.584 28.489 36.704 37.51 62.729 11.352 32.003 22.131 14.763 30.338 29.846-7.1896-3.5912-9.0347-5.5416-12.154-3.9264 4.7464 4.5736 9.0574 10.599 12.804 18.505 4.0913 11.696 3.0367 24.946 2.7603 37.465-0.071044 3.2176 0.70754 6.2653 1.8094 9.2483 0.46751 2.8231 2.6036 3.3503 3.9954 4.2926-6.66 1.21-8.55-3.13-12.69-4.86l-9.0774 1.6993c1.08-8.3288-2.7762-16.008 2.4873-26.011-2.7182-20.102 4.5537-22.324-9.6653-34.727-26.325-12.446-35.652-66.124-57.848-85.281l6.6369-4.31z"/>
    <path id="path4716" d="m285.18 726.92c17.507 4.8179 41.216 27.923 55.907 18.647 0.24062-7.2569 2.6239-7.4402-2.8264-11.413-10.8-4.84-45.98-21.96-56.67-22.69z"/>
    <path id="path4718" d="m338.45 743.65 53.231-17.729c4.2653-1.4206 5.1686-3.284 7.3379-4.9853 3.1115-4.346 3.1713-4.5319-0.42961-8.0561-17.718 4.9304-23.136-0.5334-60.329 21.276-5.6889 3.3359-5.2217 11.297 0.1895 9.4946z"/>
    <path id="path4720" d="m467.86 706.01c3.6515-1.3495 12.252-2.1731 16.138-1.6484 5.6359 2.4383 7.9429 3.3615 13.461 1.665-3.669-3.0405-7.6574-3.2071-11.543-4.3019-5.0308-1.3228-14.28 1.0089-19.015 1.1681z"/>
    <path id="path4722" d="m455.79 707.54 18.665-0.92299c-2.8428-2.3342-2.5466-2.6847-1.1015-5.8025l-18.374 4.1344z"/>
    <path id="path4724" d="m429.09 711.36 29.011-2.4468c-2.9439-2.8546-2.4044-2.9052 0.33702-5.5624l-29.875 4.077z"/>
    <path id="path4726" d="m404.01 719.4c8.2492-1.9397 16.447-5.3638 25.752-7.2345l0.5334-2.489s2.1236-4.4032-1.0115-3.5052c-3.1261 0.89547-35.087 8.641-34.797 10.669-6.5539 9.2525 1.6183 4.4179 9.5227 2.5594z"/>
    <path id="path4728" d="m299.21 685.75c4.0256-6.3385 14.486-12.701 11.801-19.322-3.3045-0.82038-6.5377-1.8012-8.5342-5.5646-2.4039 1.418-4.7035 3.0865-5.9479 7.2873z"/>
    <path id="path4730" d="m302.48 660.86c8.0297-9.0121 11.97-27.46 23.408-30.396-0.61532 8.0743 0.063559 6.2128 7.6706 7.1947-5.2752 10.207-15.03 15.906-22.545 28.766-5.7475 0.45552-8.3744-2.7532-8.5342-5.5646z"/>
    <path id="path4732" d="m371.26 604.92c4.5144-2.1828 11.633-3.2691 12.134-7.1419-4.3639-0.80015-8.5292 0.98221-12.66 3.2097-4.0949 2.0282-0.27241 2.8131 0.52652 3.9322z"/>
    <path id="path4734" d="m359.84 611.06 16.739-4.3644c-7.4229-2.8109-6.7372-1.953-6.9987-9.4483z"/>
    <path id="path4736" d="m350.11 618.25 15.202-6.0383c-2.8475-1.1021-4.5381-3.256-4.7936-6.7145z"/>
    <path id="path4738" d="m332.83 635.48c3.0622-4.4511 8.7802-9.3363 16.242-13.828 1.8837-1.134 4.7738-1.5373 5.7794-3.5028-2.29-0.6-2.97-2.42-3.4-4.41-2.7741 0.24449-3.081 2.9879-5.3051 5.1659l-20.306 13.625c-9.3252 6.2572 2.5395 9.426 6.993 2.9526z"/>
   </g>
   <g id="g4740" fill-rule="evenodd" transform="matrix(-1,0,0,1,489.43,-564)" stroke="#000" fill="#fea">
    <path id="path4742" d="m384.99 952.65c1.5818 5.5734 4.0967 12.235 3.8531 15.679 3.7146-3.9256 5.7957-3.0492 10.809-2.2283-5.0381-5.808-13.263-17.574-14.662-13.451z"/>
    <path id="path4744" d="m375.57 938.94c4.6364 6.8609 4.0694 12.477 8.1996 20.012 2.1309-4.6584 3.4757-4.7363 8.2327-5.2676-3.9429-6.407-8.7316-11.404-13.343-16.697z"/>
    <path id="path4746" d="m365.98 923.73c4.06 6.7668 5.2948 14.945 10.023 20.634 2.4714-5.7611 0.50573-5.9238 7.7326-5.1139-3.7-7.52-10.98-12.33-13.94-19.16z"/>
    <path id="path4748" d="m342.02 879.67c4.89 15.2 22.67 37.06 23.41 49.89 4.1443-6.9419 2.8938-6.7232 10.387-5.3825-6.34-16.04-16.36-29.77-25.13-44.28z"/>
    <path id="path4750" d="m287.14 725.26-3.8891 2.8284c23.035 24.584 28.489 36.704 37.51 62.729 11.352 32.003 22.131 14.763 30.338 29.846-7.1896-3.5912-9.0347-5.5416-12.154-3.9264 4.7464 4.5736 9.0574 10.599 12.804 18.505 4.0913 11.696 3.0367 24.946 2.7603 37.465-0.071044 3.2176 0.70754 6.2653 1.8094 9.2483 0.46751 2.8231 2.6036 3.3503 3.9954 4.2926-6.66 1.21-8.55-3.13-12.69-4.86l-9.0774 1.6993c1.08-8.3288-2.7762-16.008 2.4873-26.011-2.7182-20.102 4.5537-22.324-9.6653-34.727-26.325-12.446-35.652-66.124-57.848-85.281l6.6369-4.31z"/>
    <path id="path4752" d="m285.18 726.92c17.507 4.8179 41.216 27.923 55.907 18.647 0.24062-7.2569 2.6239-7.4402-2.8264-11.413-10.8-4.84-45.98-21.96-56.67-22.69z"/>
    <path id="path4754" d="m338.45 743.65 53.231-17.729c4.2653-1.4206 5.1686-3.284 7.3379-4.9853 3.1115-4.346 3.1713-4.5319-0.42961-8.0561-17.718 4.9304-23.136-0.5334-60.329 21.276-5.6889 3.3359-5.2217 11.297 0.1895 9.4946z"/>
    <path id="path4756" d="m467.86 706.01c3.6515-1.3495 12.252-2.1731 16.138-1.6484 5.6359 2.4383 7.9429 3.3615 13.461 1.665-3.669-3.0405-7.6574-3.2071-11.543-4.3019-5.0308-1.3228-14.28 1.0089-19.015 1.1681z"/>
    <path id="path4758" d="m455.79 707.54 18.665-0.92299c-2.8428-2.3342-2.5466-2.6847-1.1015-5.8025l-18.374 4.1344z"/>
    <path id="path4760" d="m429.09 711.36 29.011-2.4468c-2.9439-2.8546-2.4044-2.9052 0.33702-5.5624l-29.875 4.077z"/>
    <path id="path4762" d="m404.01 719.4c8.2492-1.9397 16.447-5.3638 25.752-7.2345l0.5334-2.489s2.1236-4.4032-1.0115-3.5052c-3.1261 0.89547-35.087 8.641-34.797 10.669-6.5539 9.2525 1.6183 4.4179 9.5227 2.5594z"/>
    <path id="path4764" d="m299.21 685.75c4.0256-6.3385 14.486-12.701 11.801-19.322-3.3045-0.82038-6.5377-1.8012-8.5342-5.5646-2.4039 1.418-4.7035 3.0865-5.9479 7.2873z"/>
    <path id="path4766" d="m302.48 660.86c8.0297-9.0121 11.97-27.46 23.408-30.396-0.61532 8.0743 0.063559 6.2128 7.6706 7.1947-5.2752 10.207-15.03 15.906-22.545 28.766-5.7475 0.45552-8.3744-2.7532-8.5342-5.5646z"/>
    <path id="path4768" d="m371.26 604.92c4.5144-2.1828 11.633-3.2691 12.134-7.1419-4.3639-0.80015-8.5292 0.98221-12.66 3.2097-4.0949 2.0282-0.27241 2.8131 0.52652 3.9322z"/>
    <path id="path4770" d="m359.84 611.06 16.739-4.3644c-7.4229-2.8109-6.7372-1.953-6.9987-9.4483z"/>
    <path id="path4772" d="m350.11 618.25 15.202-6.0383c-2.8475-1.1021-4.5381-3.256-4.7936-6.7145z"/>
    <path id="path4774" d="m332.83 635.48c3.0622-4.4511 8.7802-9.3363 16.242-13.828 1.8837-1.134 4.7738-1.5373 5.7794-3.5028-2.29-0.6-2.97-2.42-3.4-4.41-2.7741 0.24449-3.081 2.9879-5.3051 5.1659l-20.306 13.625c-9.3252 6.2572 2.5395 9.426 6.993 2.9526z"/>
   </g>
   <path id="path4776" d="m188-3.1875c2.85 3.533 5.18 5.888 7.75 9.3438-1.6-0.3679-3.22-0.6732-4.87-0.9063-2.8-2.6672-6.29-5.0346-8.76-7.0312 2.7365 2.4474 5.0856 4.3571 7.6562 6.875-2.4846-0.30136-5.0532-0.44229-7.6562-0.40625-2.6201-1.1159-5.606-1.8436-7.5312-2.625 2.4394 1.0384 4.3516 1.694 6.5312 2.6562-3.0668 0.095642-6.1945 0.4436-9.4375 1.0625 5.9239-0.26387 11.647-0.30288 17.531 0.53125-3.7267 0.99068-6.88 1.4548-10.969 2.4375 3.25-0.7219 8.32-1.0164 12.67-2.1872 0.15519 0.0265 0.3133 0.065926 0.46875 0.09375 0.055568 0.020598 0.10764 0.03549 0.15625 0.03125 1.0844 0.19711 2.182 0.42087 3.2812 0.6875-3.8507 1.0438-7.0606 1.4931-11.25 2.5 3.2301-0.71891 8.2564-1.0297 12.594-2.1875 1.5171 0.40712 3.0365 0.87488 4.5938 1.4375-4.1746 0.94273-7.4899 1.2088-11.938 2.0312 3.2784-0.54922 8.3433-0.59265 12.75-1.5312 0.077818-0.0084193 0.14311 0.0062362 0.21875 0 0.14327 0.040348 0.26206 0.046972 0.375 0.03125 1.29 0.5056 2.57 1.0896 3.9 1.7186-4.2038 0.95415-7.5307 1.2047-12 2.0312 3.2784-0.54922 8.3433-0.59265 12.75-1.5312 0.077818-0.0084193 0.14311 0.0062362 0.21875 0 0.035571 0.010017 0.059988-0.0061486 0.09375 0 1.0725 0.52975 2.1501 1.1013 3.25 1.7188-3.6857 0.76016-6.8127 1.0613-10.875 1.8125 3.0281-0.50729 7.5701-0.59587 11.719-1.3438 4.8966 2.834 10.112 6.5647 15.719 11.469l1.4375-2.375c-3.9219-3.1017-7.9667-5.9709-12.188-8.5 0.05-4.446-0.83-9.323-0.91-12.593 0.04 4.5616 0.39 7.886 0.25 12.219-1.08-0.638-2.17-1.257-3.28-1.844-1.09-4.3004-3.18-8.7758-4.09-11.906 1.18 4.3244 2.34 7.417 3.31 11.531-1.1844-0.61204-2.3822-1.2023-3.5938-1.75-0.035831-0.050962-0.092781-0.10077-0.125-0.15625-1.86-4.1092-4.82-8.1922-6.32-11.159 1.9836 4.0955 3.7457 6.9152 5.4688 10.875-1.4944-0.64897-2.9933-1.2726-4.5312-1.8125-2.3854-3.7788-5.8229-7.3826-7.6875-10.094 2.4526 3.6982 4.5415 6.2345 6.7188 9.7812-1.4977-0.49956-3.0212-0.95855-4.5625-1.3438-0.06-0.0536-0.14-0.0989-0.19-0.1559-2.74-3.5797-6.53-6.8876-8.66-9.4375z"/>
   <path id="path4778" d="m219.38 23.374c0.29919 8.3946 5.8891 14.144 12.728 19.269l13.606-2.4749-5.1265-4.9481c-1.7543-11.682-7.2883-11.268-11.132-16.265-6.408-0.3564-10.712 0.54936-10.076 4.4194z" stroke="#000" stroke-width="1px" fill="#fea"/>
   <path id="path4780" d="m231.89 22.045c-0.027928-0.088681-0.074333-0.17105-0.10079-0.26321 2.1872-6.2237-2.1216-11.472-4.1616-15.158 2.78 5.739 5.34 9.695 3.37 15.399 0.022689 0.10937 0.044554 0.22177 0.074536 0.33362-0.18294 1.8989 1.7087 0.83967 0.81223-0.31103z"/>
   <path id="path4782" d="m234.8 25.139c-0.010991-0.092323-0.04131-0.18187-0.050212-0.27734 3.3-5.71 0.04-11.667-1.28-15.667 1.67 6.156 3.45 10.517 0.46 15.758 0.0020057 0.11168 0.0026389 0.22619 0.011349 0.34166-0.53203 1.832 1.5233 1.1421 0.85583-0.15495z"/>
   <path id="path4784" d="m237.65 28.508c0.0020355-0.092953-0.015455-0.18586-0.010911-0.28164 4.0703-5.1914 1.6755-11.546 0.92742-15.692 0.79431 6.3301 1.9439 10.897-1.749 15.667-0.013641 0.11086-0.029037 0.22433-0.03657 0.33989-0.78314 1.7395 1.3485 1.344 0.86909-0.033669z"/>
   <path id="path4786" d="m222.69 28.78c-0.058564-0.048279-0.10669-0.10861-0.16834-0.15684-3.8129-2.4003-7.4647-5.8966-10.197-7.7891 3.9914 2.6657 6.5921 4.8771 10.62 7.268 0.075822 0.050647 0.15419 0.1016 0.22966 0.15853 1.493 0.44279 0.11242 1.5501-0.48399 0.51947z"/>
   <path id="path4788" d="m303.43-3.1875c-2.85 3.533-5.18 5.888-7.75 9.3438 1.6-0.3679 3.22-0.6732 4.88-0.9063 2.79-2.6672 6.28-5.0346 8.74-7.0312-2.7365 2.4474-5.0856 4.3571-7.6562 6.875 2.4846-0.30136 5.0532-0.44229 7.6562-0.40625 2.6201-1.1159 5.606-1.8436 7.5312-2.625-2.4394 1.0384-4.3516 1.694-6.5312 2.6562 3.0668 0.095642 6.1945 0.4436 9.4375 1.0625-5.9239-0.26387-11.647-0.30288-17.531 0.53125 3.7267 0.99068 6.88 1.4548 10.969 2.4375-3.24-0.7219-8.3-1.0164-12.66-2.1872-0.15519 0.0265-0.3133 0.065926-0.46875 0.09375-0.055568 0.020598-0.10764 0.03549-0.15625 0.03125-1.0844 0.19711-2.182 0.42087-3.2812 0.6875 3.8507 1.0438 7.0606 1.4931 11.25 2.5-3.2301-0.71891-8.2564-1.0297-12.594-2.1875-1.5171 0.40712-3.0365 0.87488-4.5938 1.4375 4.1746 0.94273 7.4899 1.2088 11.938 2.0312-3.2784-0.54922-8.3433-0.59265-12.75-1.5312-0.077818-0.0084193-0.14311 0.0062362-0.21875 0-0.14327 0.040348-0.26206 0.046972-0.375 0.03125-1.29 0.5056-2.57 1.0896-3.9 1.7186 4.2038 0.95415 7.5307 1.2047 12 2.0312-3.2784-0.54922-8.3433-0.59265-12.75-1.5312-0.077818-0.0084193-0.14311 0.0062362-0.21875 0-0.035571 0.010017-0.059988-0.0061486-0.09375 0-1.0725 0.52975-2.1501 1.1013-3.25 1.7188 3.6857 0.76016 6.8127 1.0613 10.875 1.8125-3.03-0.507-7.57-0.595-11.72-1.343-4.8966 2.834-10.112 6.5647-15.719 11.469l-1.4375-2.375c3.9219-3.1017 7.9667-5.9709 12.188-8.5-0.053396-4.4471 0.82501-9.3236 0.90625-12.594-0.03 4.5616-0.38 7.886-0.24 12.219 1.0845-0.63765 2.1742-1.2567 3.2812-1.8438 1.0922-4.3002 3.1789-8.7756 4.0938-11.906-1.19 4.3244-2.35 7.417-3.32 11.531 1.1844-0.61204 2.3822-1.2023 3.5938-1.75 0.035831-0.050962 0.092781-0.10077 0.125-0.15625 1.8537-4.1065 4.8133-8.1895 6.3125-11.156-1.98 4.095-3.74 6.9148-5.47 10.874 1.4944-0.64897 2.9933-1.2726 4.5312-1.8125 2.3854-3.7788 5.8229-7.3826 7.6875-10.094-2.4526 3.6982-4.5415 6.2345-6.7188 9.7812 1.4977-0.49956 3.0212-0.95855 4.5625-1.3438 0.053388-0.053947 0.13388-0.099229 0.1875-0.15625 2.736-3.5797 6.5238-6.8876 8.6562-9.4375z"/>
   <path id="path4790" d="m272.05 23.374c-0.29919 8.3946-5.8891 14.144-12.728 19.269l-13.606-2.4749 5.1265-4.9481c1.7543-11.682 7.2883-11.268 11.132-16.265 6.408-0.3564 10.712 0.54936 10.076 4.4194z" stroke="#000" stroke-width="1px" fill="#fea"/>
   <path id="path4792" fill="#fea" d="m245.72 29.42c-7.3784 0-13.493 3.2852-16.075 10.3l16.08 0.735 16.07-0.736c-2.58-7.014-8.69-10.299-16.07-10.299z" stroke="#000"/>
   <path id="path4794" d="m259.54 22.045c0.027928-0.088681 0.074333-0.17105 0.10079-0.26321-2.1872-6.2237 2.1216-11.472 4.1616-15.158-2.78 5.739-5.34 9.695-3.37 15.399-0.022689 0.10937-0.044554 0.22177-0.074536 0.33362 0.18294 1.8989-1.7087 0.83967-0.81223-0.31103z"/>
   <path id="path4796" d="m256.63 25.139c0.010991-0.092323 0.04131-0.18187 0.050212-0.27734-3.3-5.71-0.04-11.667 1.28-15.667-1.67 6.156-3.45 10.517-0.46 15.758-0.0020057 0.11168-0.0026389 0.22619-0.011349 0.34166 0.53203 1.832-1.5233 1.1421-0.85583-0.15495z"/>
   <path id="path4798" d="m253.78 28.508c-0.0020355-0.092953 0.015455-0.18586 0.010911-0.28164-4.0703-5.1914-1.6755-11.546-0.92742-15.692-0.79431 6.3301-1.9439 10.897 1.749 15.667 0.013641 0.11086 0.029037 0.22433 0.03657 0.33989 0.78314 1.7395-1.3485 1.344-0.86909-0.033669z"/>
   <path id="path4800" d="m268.74 28.78c0.058564-0.048279 0.10669-0.10861 0.16834-0.15684 3.8129-2.4003 7.4647-5.8966 10.197-7.7891-3.9914 2.6657-6.5921 4.8771-10.62 7.268-0.075822 0.050647-0.15419 0.1016-0.22966 0.15853-1.493 0.44279-0.11242 1.5501 0.48399 0.51947z"/>
   <path id="path4802" d="m226.34 33.812c-2.7303 0.042294-5.533 0.42195-8.625 1.4062l-28.812 39.438 3 10.562c3.9049 3.5245 28.232 4.0912 53.812 4.3438 25.58-0.253 49.9-0.819 53.81-4.344l3-10.562-28.812-39.438c-9.8944-3.1498-16.803 0-28 0-7.7 0-13.37-1.499-19.38-1.406z" stroke="#000" stroke-width="1px" fill="#fea"/>
   <path id="path4804" d="m225.77 35.219c0.50703 10.669-0.56009 21.596-4.6027 31.536-3.6951e-7 9.0938e-7 -7.3902e-7 0.0000018188-0.0000011085 0.0000027281-1.7393 4.2806-4.1208 8.3959-7.525 11.59-7.2318e-7 6.7863e-7 -0.0000014464 0.0000013573-0.0000021695 0.0000020359-3.1606 2.9607-7.2909 4.9075-11.639 5.2866l-0.072277-0.91966c4.1307-0.28719 8.1304-2.0922 11.222-4.8975l0.0000021377-0.0000019361c3.3542-3.0379 5.7555-7.0466 7.5484-11.254 1.9044e-7 -4.4687e-7 3.8088e-7 -8.9375e-7 5.7131e-7 -0.0000013406 4.165-9.7824 5.4075-20.666 5.0685-31.342z"/>
   <path id="path4806" d="m217.72 35.219c-11.76-4.1417-29.109 12.032-35.04 25.357-3.3584 7.5456-3.5743 21.011 3.9286 24.464 6.5287 3.0046 13.649-5.8508 18.393-11.25 7.6148-8.6677 10.314-20.323 12.718-31.607 0.48369-2.2705 2.1896-6.1931 0-6.9643z" stroke="#000" stroke-width="1px" fill="#dc281e"/>
   <path id="path4808" d="m265.66 35.219c-0.33899 10.676 0.90349 21.56 5.0685 31.342 3.8088e-7 8.9375e-7 7.6175e-7 0.0000017875 0.0000011426 0.0000026812 1.7929 4.2071 4.1942 8.2158 7.5484 11.254l0.0000021377 0.0000019361c3.092 2.8053 7.0918 4.6103 11.222 4.8975l-0.072277 0.91966c-4.3485-0.37919-8.4788-2.326-11.639-5.2866-7.2318e-7 -6.7863e-7 -0.0000014464-0.0000013573-0.0000021695-0.0000020359-3.4041-3.1945-5.7856-7.3097-7.525-11.59-1.8475e-7 -4.5469e-7 -3.6951e-7 -9.0938e-7 -5.5426e-7 -0.0000013641-4.0426-9.9399-5.1097-20.867-4.6027-31.536z"/>
   <path id="path4810" d="m234.94 72.656c-10.72 0.047956-20.4 2.3932-21.094 4.2188-1.8007 4.7361-7.2125 5.3473-21.938 8.3438 3.8455 3.4709 27.507 4.0845 52.656 4.3438l1.1562-0.25 1.1562 0.25c25.149-0.25921 48.811-0.87284 52.656-4.3438-14.725-2.9964-20.137-3.6076-21.938-8.3438-0.69407-1.8255-10.374-4.1708-21.094-4.2188-3.5733-0.015985-7.2738 0-10.781 0-3.5074 0-7.2079-0.015985-10.781 0z" stroke="#000" stroke-width="1px" fill="#fea"/>
   <path id="path4812" d="m245.72 74.875c-18.805 9e-14 -34.388 8.3728-40.969 26.25l40.97 1.88 40.97-1.88c-6.58-17.872-22.17-26.245-40.97-26.245z" stroke="#000" stroke-width="1px" fill="#ffe680"/>
   <path id="path4814" d="m197.46 99.156c0.59197 0.075203 1.1434 0.5409 1.375 1.2188 0.30874 0.9038-0.063443 1.8584-0.84375 2.125-0.52427 0.17909-1.0884 0.0016219-1.5-0.40625-8.5536 5.4666-14.289 14.712-19.312 23.781 4.7166-9.2568 10.144-18.75 18.781-24.719-0.19962-0.84378 0.17996-1.6894 0.90625-1.9375 0.19508-0.066639 0.39643-0.087568 0.59375-0.0625z"/>
   <path id="path4816" d="m293.97 99.156c-0.59197 0.075203-1.1434 0.5409-1.375 1.2188-0.30874 0.9038 0.063443 1.8584 0.84375 2.125 0.52427 0.17909 1.0884 0.0016219 1.5-0.40625 8.5536 5.4666 14.289 14.712 19.312 23.781-4.7166-9.2568-10.144-18.75-18.781-24.719 0.19962-0.84378-0.17996-1.6894-0.90625-1.9375-0.19508-0.066639-0.39643-0.087568-0.59375-0.0625z"/>
   <path id="path4818" d="m245.72 83.531c-16.728 0-53.809 1.6802-57.5 40.625-1.8525 19.549 4.4315 46.17 23.281 55.594 20.919 15.247 34.219 31.906 34.219 31.906 0-1e-13 13.299-16.66 34.219-31.906 18.85-9.4234 25.134-36.045 23.281-55.594-3.6905-38.945-40.772-40.625-57.5-40.625z" stroke="#000" stroke-width="1px" fill="#ffe680"/>
   <path id="path4820" d="m245.72 89.312c-4.45 35.768 2.69 89.358-10.16 86.968l1 2.7188 9.1562-2 9.1562 2 1-2.7188c-12.848 2.3851-5.7077-51.205-10.156-86.969z" stroke="#000" stroke-width="1px" fill="#ffe680"/>
   <path id="path4822" d="m190.88 152.03c3.9106 10.045 13.217 20.501 29.477 21.608" stroke="#000" stroke-width="1px" fill="#ffe680"/>
   <path id="path4824" d="m273.71 35.219c11.76-4.1417 29.109 12.032 35.04 25.357 3.3584 7.5456 3.5743 21.011-3.9286 24.464-6.5287 3.0046-13.649-5.8508-18.393-11.25-7.6148-8.6677-10.314-20.323-12.718-31.607-0.48369-2.2705-2.1896-6.1931 0-6.9643z" stroke="#000" stroke-width="1px" fill="#dc281e"/>
   <path id="path4826" d="m218.72 173.09c-2.7284-0.048691-6.6202 2.8788-7.2188 6.6562-0.60663 3.8287 1.7769 15.329 8.5 20.281 3.5253 2.5968 16.107 12.438 25.719 12.438 9.6122 0 22.193-9.8407 25.719-12.438 6.7231-4.9524 9.1066-16.453 8.5-20.281-0.73662-4.6492-6.4662-8.006-8.875-6.125-3.3572 2.6217-12.298 0.75949-15.188 2.6562-2.6875 1.7643-4.0423 0.71875-10.156 0.71875-6.114 0-7.4687 1.0455-10.156-0.71875-2.8894-1.8968-11.862-0.034561-15.219-2.6562-0.45164-0.35269-0.99538-0.52001-1.625-0.53125z" stroke="#000" stroke-width="1px" fill="#ffe680"/>
   <path id="path4828" d="m300.55 152.03c-3.9106 10.045-13.217 20.501-29.477 21.608" stroke="#000" stroke-width="1px" fill="#ffe680"/>
   <path id="path4830" d="m221.8 134c0.95508 0 1.7188 0.67542 1.7188 1.5-9e-14 0.67451-0.50742 1.2211-1.2188 1.4062 0.0070829 0.15435-0.010373 0.30988 0 0.46875 0.067474 0.9198 0.2009 1.8548 0.375 2.7812 0.46479 2.4689 1.1336 4.8932 1.875 7.3125 1.5778 5.1405 3.4022 10.258 6.125 14.906-2.9037-4.5372-4.9369-9.6251-6.7188-14.719-0.84101-2.4008-1.6139-4.8156-2.1875-7.3125-0.21532-0.93593-0.3886-1.9006-0.5-2.875-0.022538-0.18336-0.047409-0.37094-0.0625-0.5625-0.66717-0.20705-1.125-0.75896-1.125-1.4062-9e-14 -0.82458 0.76367-1.5 1.7188-1.5z"/>
   <path id="path4832" d="m223.18 155.84c0.65932 0.043793 1.2331 0.43755 1.4062 1.0312 0.14814 0.50788-0.019037 1.0483-0.40625 1.4375 4.485 7.3525 7.3616 15.532 9.75 23.75 2.2215 7.6279 4.2738 15.407 8.4062 22.188-4.2812-6.6872-6.5248-14.493-8.9062-22.062-2.5779-8.1788-5.6465-16.233-10.25-23.375-0.86508 0.18056-1.6882-0.2213-1.9062-0.96875-0.23089-0.79159 0.33312-1.6388 1.25-1.9062 0.22922-0.066857 0.43648-0.10835 0.65625-0.09375z"/>
   <path id="path4834" d="m197.68 132.12c0.95508 0 1.7188 0.67542 1.7188 1.5 1e-13 0.82458-0.76367 1.4688-1.7188 1.4688-0.33225 0-0.64275-0.078528-0.90625-0.21875-10.84 6.926-19.078 17.439-27.344 27.5 7.9509-10.245 15.826-20.966 26.594-28.344-0.046295-0.13477-0.0625-0.25851-0.0625-0.40625 9e-14 -0.82458 0.76367-1.5 1.7188-1.5z"/>
   <path id="path4836" d="m194.96 116.41c0.59197 0.075203 1.1434 0.5409 1.375 1.2188 0.30874 0.9038-0.063443 1.8584-0.84375 2.125-0.54865 0.18742-1.1477-0.019454-1.5625-0.46875-3.9631 2.2207-7.3889 5.4157-10.375 8.9375-3.4721 4.0979-6.416 8.6446-9.375 13.156 2.7963-4.6143 5.585-9.2727 8.9375-13.531 2.8938-3.6784 6.2978-7.0428 10.344-9.5-0.16939-0.8241 0.19647-1.6325 0.90625-1.875 0.19508-0.066639 0.39643-0.087568 0.59375-0.0625z"/>
   <path id="path4838" d="m197.15 129.09c0.53155 0.032374 1.0179 0.28987 1.25 0.75 0.37138 0.73621-0.022272 1.6948-0.875 2.125-0.48677 0.24555-1.0012 0.25486-1.4375 0.09375-4.8899 3.0141-9.5171 6.4974-13.688 10.469-4.4465 4.2332-8.4271 8.9652-12.344 13.719 3.7692-4.8713 7.6268-9.6972 11.969-14.094 4.0184-4.0678 8.4731-7.7057 13.25-10.875-0.27406-0.71577 0.099711-1.5619 0.90625-1.9688 0.31977-0.16131 0.64982-0.23817 0.96875-0.21875z"/>
   <path id="path4840" d="m195.71 113.73c0.57977 0.14121 1.0755 0.6659 1.2294 1.3655 0.20528 0.93276-0.27177 1.8396-1.0771 2.0168-0.56623 0.12462-1.1382-0.14823-1.5-0.64127-4.1874 1.7615-7.9504 4.5515-11.313 7.7157-3.9103 3.682-7.3463 7.8693-10.793 12.02 3.2968-4.271 6.5911-8.5867 10.401-12.442 3.2886-3.3302 7.0489-6.2909 11.345-8.2782-0.075763-0.83791 0.37858-1.6001 1.1111-1.7614 0.20133-0.044308 0.40375-0.04249 0.59701 0.00458z"/>
   <path id="path4842" d="m269.62 134c-0.95508 0-1.7188 0.67542-1.7188 1.5 6e-14 0.67451 0.50742 1.2211 1.2188 1.4062-0.0070829 0.15435 0.010373 0.30988 0 0.46875-0.067474 0.9198-0.2009 1.8548-0.375 2.7812-0.46479 2.4689-1.1336 4.8932-1.875 7.3125-1.5778 5.1405-3.4022 10.258-6.125 14.906 2.9037-4.5372 4.9369-9.6251 6.7188-14.719 0.84101-2.4008 1.6139-4.8156 2.1875-7.3125 0.21532-0.93593 0.3886-1.9006 0.5-2.875 0.022538-0.18336 0.047409-0.37094 0.0625-0.5625 0.66717-0.20705 1.125-0.75896 1.125-1.4062 1e-13 -0.82458-0.76367-1.5-1.7188-1.5z"/>
   <path id="path4844" d="m268.25 155.84c-0.65932 0.043793-1.2331 0.43755-1.4062 1.0312-0.14814 0.50788 0.019037 1.0483 0.40625 1.4375-4.485 7.3525-7.3616 15.532-9.75 23.75-2.2215 7.6279-4.2738 15.407-8.4062 22.188 4.2812-6.6872 6.5248-14.493 8.9062-22.062 2.5779-8.1788 5.6465-16.233 10.25-23.375 0.86508 0.18056 1.6882-0.2213 1.9062-0.96875 0.23089-0.79159-0.33312-1.6388-1.25-1.9062-0.22922-0.066857-0.43648-0.10835-0.65625-0.09375z"/>
   <path id="path4846" d="m293.75 132.12c-0.95508 0-1.7188 0.67542-1.7188 1.5-1e-13 0.82458 0.76367 1.4688 1.7188 1.4688 0.33225 0 0.64275-0.078528 0.90625-0.21875 10.84 6.926 19.078 17.439 27.344 27.5-7.9509-10.245-15.826-20.966-26.594-28.344 0.046295-0.13477 0.0625-0.25851 0.0625-0.40625-1e-13 -0.82458-0.76367-1.5-1.7188-1.5z"/>
   <path id="path4848" d="m296.47 116.41c-0.59197 0.075203-1.1434 0.5409-1.375 1.2188-0.30874 0.9038 0.063443 1.8584 0.84375 2.125 0.54865 0.18742 1.1477-0.019454 1.5625-0.46875 3.9631 2.2207 7.3889 5.4157 10.375 8.9375 3.4721 4.0979 6.416 8.6446 9.375 13.156-2.7963-4.6143-5.585-9.2727-8.9375-13.531-2.89-3.68-6.29-7.05-10.34-9.5 0.16939-0.8241-0.19647-1.6325-0.90625-1.875-0.19508-0.066639-0.39643-0.087568-0.59375-0.0625z"/>
   <path id="path4850" d="m294.28 129.09c-0.53155 0.032374-1.0179 0.28987-1.25 0.75-0.37138 0.73621 0.022272 1.6948 0.875 2.125 0.48677 0.24555 1.0012 0.25486 1.4375 0.09375 4.8899 3.0141 9.5171 6.4974 13.688 10.469 4.4465 4.2332 8.4271 8.9652 12.344 13.719-3.7692-4.8713-7.6268-9.6972-11.969-14.094-4.0184-4.0678-8.4731-7.7057-13.25-10.875 0.27406-0.71577-0.099711-1.5619-0.90625-1.9688-0.31977-0.16131-0.64982-0.23817-0.96875-0.21875z"/>
   <path id="path4852" d="m295.71 113.73c-0.57977 0.14121-1.0755 0.6659-1.2294 1.3655-0.20528 0.93276 0.27177 1.8396 1.0771 2.0168 0.56623 0.12462 1.1382-0.14823 1.5-0.64127 4.1874 1.7615 7.9504 4.5515 11.313 7.7157 3.9103 3.682 7.3463 7.8693 10.793 12.02-3.2968-4.271-6.5911-8.5867-10.401-12.442-3.2886-3.3302-7.0489-6.2909-11.345-8.2782 0.075763-0.83791-0.37858-1.6001-1.1111-1.7614-0.20133-0.044308-0.40375-0.04249-0.59701 0.00458z"/>
   <g id="g4854" transform="translate(0,-200)">
    <path id="path4857" d="m225.64 308.74c0.0045978 0.075759-0.0067334 0.1521 0 0.23008 0.84302 4.4259 0.77425 9.4811 1.2524 12.771-0.77047-4.7375-0.92531-8.1477-1.9218-12.725-0.01463-0.09-0.030775-0.18208-0.040572-0.2761-0.6938-1.3942 1.0575-1.1389 0.71 0z"/>
    <path id="path4859" d="m219.78 321.33c-0.0018419 0.075876-0.019605 0.15098-0.019507 0.22925 0.46474 4.4815-0.032386 9.5126 0.16514 12.831-0.36603-4.7858-0.23118-8.1968-0.83606-12.842-0.0069471-0.090917-0.015227-0.18403-0.017017-0.27854-0.57309-1.448 1.1503-1.0452 0.70744 0.060197z"/>
    <path id="path4861" d="m232.62 334.22c0.015002 0.074401 0.014308 0.15158 0.031732 0.22788 1.4454 4.2674 2.0744 9.2838 3.0017 12.476-1.41-4.58-2.04-7.94-3.65-12.33-0.026903-0.087122-0.055592-0.17609-0.078262-0.26786-0.87945-1.2852 0.89033-1.2739 0.70322-0.09792z"/>
    <path id="path4863" d="m202.69 341.93c-0.0082318 0.075451-0.032263 0.14879-0.038764 0.22679 0.085284 4.5047-0.8342 9.476-0.91711 12.799 0.038723-4.7996 0.46065-8.1871 0.24949-12.866 0.00074208-0.091179 0.00034101-0.18466 0.0065257-0.27899-0.44898-1.4912 1.2343-0.94449 0.69985 0.11962z"/>
    <path id="path4865" d="m212.88 346.94c0.01713 0.07394 0.018649 0.1511 0.038255 0.22688 1.5672 4.2242 2.3399 9.2204 3.3583 12.385-1.5474-4.5435-2.2671-7.8805-4.0107-12.228-0.029391-0.086315-0.060619-0.17442-0.085912-0.26551-0.91595-1.2595 0.85343-1.2989 0.70012-0.11805z"/>
    <path id="path4867" d="m209.08 361.44c-0.0062494 0.075641-0.028348 0.14959-0.032801 0.22773 0.20345 4.5009-0.58529 9.4947-0.58098 12.819-0.08722-4.799 0.24568-8.1964-0.088177-12.869-0.0016505-0.091167-0.004504-0.1846-0.00079651-0.27906-0.48795-1.4789 1.2091-0.97654 0.70275 0.10122z"/>
    <path id="path4869" d="m209.62 299.73c-0.020063 0.073199-0.055393 0.14182-0.07415 0.21781-0.62834 4.4615-2.3226 9.2248-2.9301 12.493 0.79743-4.7331 1.7499-8.0112 2.2816-12.665 0.015155-0.089913 0.029546-0.18228 0.050573-0.27444-0.20746-1.5434 1.3681-0.73736 0.67212 0.22882z"/>
    <path id="path4871" d="m221.93 288.62c-0.012789 0.074813-0.04122 0.14656-0.052436 0.22403-0.18785 4.5016-1.4069 9.4081-1.691 12.72 0.3295-4.7884 0.95593-8.1442 1.0287-12.828 0.006266-0.090966 0.01153-0.1843 0.02342-0.27808-0.35779-1.5156 1.2893-0.86795 0.69132 0.16181z"/>
    <path id="path4873" d="m209.7 321.21c-0.020063 0.073199-0.055393 0.14182-0.07415 0.21781-0.62834 4.4615-2.3226 9.2248-2.9301 12.493 0.79743-4.7331 1.7499-8.0112 2.2816-12.665 0.015155-0.089913 0.029546-0.18228 0.050573-0.27444-0.20746-1.5434 1.3681-0.73736 0.67212 0.22882z"/>
    <path id="path4875" d="m235.23 289.81c-0.013912 0.074613-0.043419 0.14593-0.055799 0.22321-0.25551 4.4983-1.5482 9.3859-1.8821 12.693 0.40145-4.7829 1.0783-8.1289 1.2215-12.811 0.0076329-0.090862 0.0143-0.1841 0.027598-0.2777-0.33497-1.5209 1.3022-0.84847 0.68881 0.17219z"/>
    <path id="path4877" d="m236.49 314.11c-0.0096885 0.075278-0.035133 0.14814-0.04314 0.226-0.0017941 4.5055-1.0172 9.4582-1.1643 12.779 0.13148-4.798 0.6188-8.1767 0.49812-12.859 0.0025041-0.091147 0.0039098-0.18462 0.011916-0.27881-0.42008-1.4996 1.2523-0.92045 0.69741 0.13312z"/>
    <path id="path4879" d="m233.5 355.82c0.01713 0.07394 0.018649 0.1511 0.038255 0.22688 1.5672 4.2242 2.3399 9.2204 3.3583 12.385-1.5474-4.5435-2.2671-7.8805-4.0107-12.228-0.029391-0.086315-0.060619-0.17442-0.085912-0.26551-0.91595-1.2595 0.85343-1.2989 0.70012-0.11805z"/>
   </g>
   <path id="path4881" d="m265.79 108.74c-0.0045978 0.075759 0.0067334 0.1521 0 0.23008-0.84302 4.4259-0.77425 9.4811-1.2524 12.771 0.77047-4.7375 0.92531-8.1477 1.9218-12.725 0.01463-0.09 0.030775-0.18208 0.040572-0.2761 0.6938-1.3942-1.0575-1.1389-0.71 0z"/>
   <path id="path4884" d="m271.65 121.33c0.0018419 0.075876 0.019605 0.15098 0.019507 0.22925-0.46474 4.4815 0.032386 9.5126-0.16514 12.831 0.36603-4.7858 0.23118-8.1968 0.83606-12.842 0.0069471-0.090917 0.015227-0.18403 0.017017-0.27854 0.57309-1.448-1.1503-1.0452-0.70744 0.060197z"/>
   <path id="path4886" d="m258.81 134.22c-0.015002 0.074401-0.014308 0.15158-0.031732 0.22788-1.4454 4.2674-2.0744 9.2838-3.0017 12.476 1.4165-4.586 2.0402-7.9422 3.6584-12.338 0.026903-0.087122 0.055592-0.17609 0.078262-0.26786 0.87945-1.2852-0.89033-1.2739-0.70322-0.09792z"/>
   <path id="path4888" d="m288.74 141.93c0.0082318 0.075451 0.032263 0.14879 0.038764 0.22679-0.085284 4.5047 0.8342 9.476 0.91711 12.799-0.038723-4.7996-0.46065-8.1871-0.24949-12.866-0.00074208-0.091179-0.00034101-0.18466-0.0065257-0.27899 0.44898-1.4912-1.2343-0.94449-0.69985 0.11962z"/>
   <path id="path4890" d="m278.55 146.94c-0.01713 0.07394-0.018649 0.1511-0.038255 0.22688-1.5672 4.2242-2.3399 9.2204-3.3583 12.385 1.5474-4.5435 2.2671-7.8805 4.0107-12.228 0.029391-0.086315 0.060619-0.17442 0.085912-0.26551 0.91595-1.2595-0.85343-1.2989-0.70012-0.11805z"/>
   <path id="path4892" d="m282.35 161.44c0.0062494 0.075641 0.028348 0.14959 0.032801 0.22773-0.20345 4.5009 0.58529 9.4947 0.58098 12.819 0.08722-4.799-0.24568-8.1964 0.088177-12.869 0.0016505-0.091167 0.004504-0.1846 0.00079651-0.27906 0.48795-1.4789-1.2091-0.97654-0.70275 0.10122z"/>
   <path id="path4894" d="m281.81 99.734c0.020063 0.073199 0.055393 0.14182 0.07415 0.21781 0.62834 4.4615 2.3226 9.2248 2.9301 12.493-0.79743-4.7331-1.7499-8.0112-2.2816-12.665-0.015155-0.089913-0.029546-0.18228-0.050573-0.27444 0.20746-1.5434-1.3681-0.73736-0.67212 0.22882z"/>
   <path id="path4896" d="m269.49 88.624c0.012789 0.074813 0.04122 0.14656 0.052436 0.22403 0.18785 4.5016 1.4069 9.4081 1.691 12.72-0.3295-4.7884-0.95593-8.1442-1.0287-12.828-0.006266-0.090966-0.01153-0.1843-0.02342-0.27808 0.35779-1.5156-1.2893-0.86795-0.69132 0.16181z"/>
   <path id="path4898" d="m281.72 121.21c0.020063 0.073199 0.055393 0.14182 0.07415 0.21781 0.62834 4.4615 2.3226 9.2248 2.9301 12.493-0.79743-4.7331-1.7499-8.0112-2.2816-12.665-0.015155-0.089913-0.029546-0.18228-0.050573-0.27444 0.20746-1.5434-1.3681-0.73736-0.67212 0.22882z"/>
   <path id="path4900" d="m256.19 89.815c0.013912 0.074613 0.043419 0.14593 0.055799 0.22321 0.25551 4.4983 1.5482 9.3859 1.8821 12.693-0.40145-4.7829-1.0783-8.1289-1.2215-12.811-0.0076329-0.090862-0.0143-0.1841-0.027598-0.2777 0.33497-1.5209-1.3022-0.84847-0.68881 0.17219z"/>
   <path id="path4902" d="m254.94 114.11c0.0096885 0.075278 0.035133 0.14814 0.04314 0.226 0.0017941 4.5055 1.0172 9.4582 1.1643 12.779-0.13148-4.798-0.6188-8.1767-0.49812-12.859-0.0025041-0.091147-0.0039098-0.18462-0.011916-0.27881 0.42008-1.4996-1.2523-0.92045-0.69741 0.13312z"/>
   <path id="path4904" d="m257.92 155.82c-0.01713 0.07394-0.018649 0.1511-0.038255 0.22688-1.5672 4.2242-2.3399 9.2204-3.3583 12.385 1.5474-4.5435 2.2671-7.8805 4.0107-12.228 0.029391-0.086315 0.060619-0.17442 0.085912-0.26551 0.91595-1.2595-0.85343-1.2989-0.70012-0.11805z"/>
   <g id="g4906" transform="translate(0,-200)">
    <path id="path4908" d="m201.15 280.88c-4.1874 1.7615-7.9504 4.5515-11.313 7.7157-3.9103 3.682-7.3463 7.8693-10.793 12.02 3.2968-4.271 6.5911-8.5867 10.401-12.442 3.2886-3.3302 7.0489-6.2909 11.345-8.2782 1.6472-3.1804 3.0968 0.71207 0.36049 0.98421z"/>
    <path id="path4910" d="m204.41 279.84c-3.8815 2.3604-7.1914 5.6753-10.05 9.3012-3.3239 4.2189-6.1042 8.8675-8.9006 13.482 2.6302-4.7109 5.2513-9.4656 8.4501-13.841 2.761-3.7791 6.043-7.2626 9.9989-9.8623 1.1597-3.3888 3.168 0.24713 0.50183 0.92022z"/>
    <path id="path4912" d="m216.4 256.45c-4.3845 1.1888-8.4852 3.4534-12.239 6.1421-4.3654 3.1291-8.3279 6.822-12.296 10.477 3.8357-3.7945 7.6748-7.6336 11.963-10.948 3.7024-2.8631 7.8232-5.2973 12.346-6.6953 2.0557-2.933 2.9745 1.1177 0.22635 1.0234z"/>
    <path id="path4915" d="m217.33 251.44c-4.6022-0.35025-9.1793 0.2348-13.515 1.2578-5.0425 1.1915-9.8214 2.9481-14.597 4.6731 4.6779-1.8743 9.3698-3.7829 14.38-5.1435 4.3262-1.1762 8.9632-1.8896 13.751-1.6643 2.7199-1.7166 2.6669 1.761-0.01909 0.87691z"/>
    <path id="path4917" d="m220.97 237.8c-3.9238-4.5703-8.6876-8.2542-13.633-11.311-5.7529-3.5538-11.784-6.3429-17.783-9.1582 6.0466 2.5872 12.138 5.1557 18.017 8.524 5.0777 2.9069 10.015 6.5277 14.226 11.154 4.0941 0.9259 0.83599 4.0862-0.82685 0.79162z"/>
    <path id="path4919" d="m239.04 262.5c-0.95508 0-1.7188-0.67542-1.7188-1.5 0-0.67451 0.50742-1.2211 1.2188-1.4062-0.0070829-0.15435 0.010373-0.30988 0-0.46875-0.067474-0.9198-0.2009-1.8548-0.375-2.7812-0.46479-2.4689-1.1336-4.8932-1.875-7.3125-1.5778-5.1405-3.4022-10.258-6.125-14.906 2.9037 4.5372 4.9369 9.6251 6.7188 14.719 0.84101 2.4008 1.6139 4.8156 2.1875 7.3125 0.21532 0.93593 0.3886 1.9006 0.5 2.875 0.022538 0.18336 0.047409 0.37094 0.0625 0.5625 0.66717 0.20705 1.125 0.75896 1.125 1.4062 0 0.82458-0.76367 1.5-1.7188 1.5z"/>
   </g>
   <g id="g4921" transform="matrix(-1,0,0,1,491.43,-200)">
    <path id="path4923" d="m201.15 280.88c-4.1874 1.7615-7.9504 4.5515-11.313 7.7157-3.9103 3.682-7.3463 7.8693-10.793 12.02 3.2968-4.271 6.5911-8.5867 10.401-12.442 3.2886-3.3302 7.0489-6.2909 11.345-8.2782 1.6472-3.1804 3.0968 0.71207 0.36049 0.98421z"/>
    <path id="path4925" d="m204.41 279.84c-3.8815 2.3604-7.1914 5.6753-10.05 9.3012-3.3239 4.2189-6.1042 8.8675-8.9006 13.482 2.6302-4.7109 5.2513-9.4656 8.4501-13.841 2.761-3.7791 6.043-7.2626 9.9989-9.8623 1.1597-3.3888 3.168 0.24713 0.50183 0.92022z"/>
    <path id="path4927" d="m216.4 256.45c-4.3845 1.1888-8.4852 3.4534-12.239 6.1421-4.3654 3.1291-8.3279 6.822-12.296 10.477 3.8357-3.7945 7.6748-7.6336 11.963-10.948 3.7024-2.8631 7.8232-5.2973 12.346-6.6953 2.0557-2.933 2.9745 1.1177 0.22635 1.0234z"/>
    <path id="path4929" d="m217.33 251.44c-4.6022-0.35025-9.1793 0.2348-13.515 1.2578-5.0425 1.1915-9.8214 2.9481-14.597 4.6731 4.6779-1.8743 9.3698-3.7829 14.38-5.1435 4.3262-1.1762 8.9632-1.8896 13.751-1.6643 2.7199-1.7166 2.6669 1.761-0.01909 0.87691z"/>
    <path id="path4931" d="m220.97 237.8c-3.9238-4.5703-8.6876-8.2542-13.633-11.311-5.7529-3.5538-11.784-6.3429-17.783-9.1582 6.0466 2.5872 12.138 5.1557 18.017 8.524 5.0777 2.9069 10.015 6.5277 14.226 11.154 4.0941 0.9259 0.83599 4.0862-0.82685 0.79162z"/>
    <path id="path4933" d="m239.04 262.5c-0.95508 0-1.7188-0.67542-1.7188-1.5 0-0.67451 0.50742-1.2211 1.2188-1.4062-0.0070829-0.15435 0.010373-0.30988 0-0.46875-0.067474-0.9198-0.2009-1.8548-0.375-2.7812-0.46479-2.4689-1.1336-4.8932-1.875-7.3125-1.5778-5.1405-3.4022-10.258-6.125-14.906 2.9037 4.5372 4.9369 9.6251 6.7188 14.719 0.84101 2.4008 1.6139 4.8156 2.1875 7.3125 0.21532 0.93593 0.3886 1.9006 0.5 2.875 0.022538 0.18336 0.047409 0.37094 0.0625 0.5625 0.66717 0.20705 1.125 0.75896 1.125 1.4062 0 0.82458-0.76367 1.5-1.7188 1.5z"/>
   </g>
   <g id="g4935" transform="matrix(.99752 -.070325 .070325 .99752 -68.813 31.016)" stroke="#000">
    <g id="g4937" transform="translate(-139.65 -9.8455)">
     <path id="path4939" fill-opacity=".078431" d="m504.06 141.88c8.3192 16.589 7.0677 34.545 9.4441 51.982 3.3746-0.28122 12.466 45.817 8.5 69.51 12.83 67.29 14.27 180.84-53 195.99-42.283 9.5224-67.071-37.308-70-73.5-6.6199-81.792-5.2459-118.44 27-163.14 8.1558-11.307 25.689-4.6403 37-19.5 13.473-17.701 36.398-29.24 23.5-50.857 4.162-3.4551 8.2477-7.052 10.125-14.75 2.3316 2.876 4.7671 4.714 7.4309 4.2677z"/>
     <path id="path4941" stroke-width=".5" fill="none" d="m509.97 160.19c-8.2785 9.3625-2.4932 25.821-3.9697 40.172-13.238 12.934-7.259 21.633-5.0477 37.295 7.8393 56.192-0.0070651 134.17 19.776 164.48"/>
     <path id="path4943" stroke-width=".5" fill="none" d="m513.43 193.68c1.6391 7.9901-8.616 8.908-8.6621 16.44-0.14187 23.199 7.4573 33.719 17.324 54.094"/>
     <path id="path4945" stroke-width=".5" fill="none" d="m497.85 220.05c-1.5367 14.02-5.4399 28.813-5.8131 40.981l-1.7678 57.629c-1.5592 50.831-18.288 98.343-32.88 142.13"/>
     <path id="path4947" stroke-width=".5" fill="none" d="m489.62 160.49c1.5528 0.61968 3.8262-0.64128 4.75 2.5 2.4929 8.4771 3.16 17.371 0.125 27.375-2.6492 8.7321-3.4776 13.198-4.875 19.875-3.4393 16.434-4.262 33.029-8.625 49.625-4.3283 16.464-11.981 31.957-16 48.5-4.5019 18.532-8.3711 40.898-11.25 59.75-4.7807 31.307-24.25 82.25-24.25 82.25"/>
     <path id="path4949" stroke-width=".5" fill="none" d="m494.69 189.61c-6.3956 7.8496-12.042 18.197-16.44 32.704-3.5403 11.676-20.664 58.323-35.747 83.549-9.9733 16.68-47 34.5-47 34.5"/>
     <path id="path4951" stroke-width=".5" fill="none" d="m480.12 263.49c3.5734 0.74433 7.6256 5.7975 11.5 9.25"/>
     <path id="path4953" stroke-width=".5" fill="none" d="m443.06 304.8c6.3875 6.7626 12.153 13.095 19.031 15.437 5.7696 7.6875 14.017 15.5 26.094 23.187"/>
    </g>
    <g id="g4955" transform="matrix(-.99011 -.1403 -.1403 .99011 767.15 54.084)">
     <path id="path4957" fill-opacity=".078431" d="m504.06 141.88c8.3192 16.589 7.0677 34.545 9.4441 51.982 3.3746-0.28122 12.466 45.817 8.5 69.51 12.83 67.29 14.27 180.84-53 195.99-42.283 9.5224-67.071-37.308-70-73.5-6.6199-81.792-5.2459-118.44 27-163.14 8.1558-11.307 25.689-4.6403 37-19.5 13.473-17.701 36.398-29.24 23.5-50.857 4.162-3.4551 8.2477-7.052 10.125-14.75 2.3316 2.876 4.7671 4.714 7.4309 4.2677z"/>
     <path id="path4959" stroke-width=".5" fill="none" d="m509.97 160.19c-8.2785 9.3625-2.4932 25.821-3.9697 40.172-13.238 12.934-7.259 21.633-5.0477 37.295 7.8393 56.192-0.0070651 134.17 19.776 164.48"/>
     <path id="path4961" stroke-width=".5" fill="none" d="m513.43 193.68c1.6391 7.9901-8.616 8.908-8.6621 16.44-0.14187 23.199 7.4573 33.719 17.324 54.094"/>
     <path id="path4963" stroke-width=".5" fill="none" d="m497.85 220.05c-1.5367 14.02-5.4399 28.813-5.8131 40.981l-1.7678 57.629c-1.5592 50.831-18.288 98.343-32.88 142.13"/>
     <path id="path4965" stroke-width=".5" fill="none" d="m489.62 160.49c1.5528 0.61968 3.8262-0.64128 4.75 2.5 2.4929 8.4771 3.16 17.371 0.125 27.375-2.6492 8.7321-3.4776 13.198-4.875 19.875-3.4393 16.434-4.262 33.029-8.625 49.625-4.3283 16.464-11.981 31.957-16 48.5-4.5019 18.532-8.3711 40.898-11.25 59.75-4.7807 31.307-24.25 82.25-24.25 82.25"/>
     <path id="path4967" stroke-width=".5" fill="none" d="m494.69 189.61c-6.3956 7.8496-12.042 18.197-16.44 32.704-3.5403 11.676-20.664 58.323-35.747 83.549-9.9733 16.68-47 34.5-47 34.5"/>
     <path id="path4969" stroke-width=".5" fill="none" d="m480.12 263.49c3.5734 0.74433 7.6256 5.7975 11.5 9.25"/>
     <path id="path4971" stroke-width=".5" fill="none" d="m443.06 304.8c6.3875 6.7626 12.153 13.095 19.031 15.437 5.7696 7.6875 14.017 15.5 26.094 23.187"/>
    </g>
   </g>
   <path id="path4973" style="block-progression:tb;color:#000000;text-transform:none;text-indent:0" d="m182.16 241.62c-0.56515 2.1571-0.99352 4.4155-1.3218 6.7878 17.581 5.1161 43.648 4.3942 64.877 4.3942s47.265 0.72189 64.841-4.3942c-0.32809-2.3723-0.75701-4.6306-1.3218-6.7878-15.404 4.5291-41.944 4.3227-63.519 4.3227s-48.147 0.20632-63.555-4.3227zm63.483 22.65c-7.4345 0-13.511 2.8829-14.004 6.5377-19.43-0.52333-37.352-2.3009-51.194-6.3948 0.23613 3.7722 0.6098 7.4587 1.1432 11.039 18.336 4.7205 40.733 5.8232 64.126 5.8232 23.394 0 45.762-1.1027 64.091-5.8232 0.53301-3.5804 0.90719-7.2668 1.1432-11.039-13.87 4.1013-31.829 5.8763-51.301 6.3948-0.49313-3.6548-6.5697-6.5377-14.004-6.5377zm0 27.437c-7.3866 0-13.407 2.845-13.968 6.4662-15.867-0.20604-31.58-1.0924-46.014-4.7514 1.0636 3.5146 2.2231 6.9237 3.5368 10.217 18.511 3.8081 37.914 3.7511 56.517 3.7511s37.978 0.056953 56.481-3.7511c1.3126-3.2937 2.474-6.7028 3.5368-10.217-14.474 3.6695-30.215 4.5487-46.121 4.7514-0.56142-3.6213-6.5819-6.4662-13.968-6.4662zm0 22.864c-6.995 0-12.789 2.5482-13.861 5.8946-13.227-0.47873-26.507-1.6217-36.189-3.2153 2.1481 3.9761 4.4426 7.7714 6.8592 11.361 13.045 1.5639 28.911 2.3936 43.263 2.3936 14.366 0 30.221-0.82692 43.263-2.3936 2.4148-3.589 4.7128-7.3846 6.8592-11.361-9.7121 1.5999-23.066 2.7383-36.332 3.2153-1.0722-3.3464-6.8663-5.8946-13.861-5.8946zm-35.62 24.26c4.0305 4.9767 8.2175 9.4765 12.397 13.54 6.3979 0.44443 13.318 0.78595 23.293 0.78595 9.9982 0 16.928-0.33992 23.328-0.78595 4.171-4.0587 8.3387-8.5703 12.361-13.54-11.627 0.87985-19.285 1.7505-35.689 1.7505-16.387 0-24.08-0.87162-35.689-1.7505z"/>
  </g>
  <g id="g4975" transform="matrix(.42286 0 0 .42286 -96.998 3.6537)">
   <g id="g4977" fill-rule="evenodd" transform="translate(882,-564)" stroke="#000" fill="#fea">
    <path id="path4979" d="m384.99 952.65c1.5818 5.5734 4.0967 12.235 3.8531 15.679 3.7146-3.9256 5.7957-3.0492 10.809-2.2283-5.0381-5.808-13.263-17.574-14.662-13.451z"/>
    <path id="path4981" d="m375.57 938.94c4.6364 6.8609 4.0694 12.477 8.1996 20.012 2.1309-4.6584 3.4757-4.7363 8.2327-5.2676-3.9429-6.407-8.7316-11.404-13.343-16.697z"/>
    <path id="path4983" d="m365.98 923.73c4.06 6.7668 5.2948 14.945 10.023 20.634 2.4714-5.7611 0.50573-5.9238 7.7326-5.1139-3.7-7.52-10.98-12.33-13.94-19.16z"/>
    <path id="path4985" d="m342.02 879.67c4.89 15.2 22.67 37.06 23.41 49.89 4.1443-6.9419 2.8938-6.7232 10.387-5.3825-6.34-16.04-16.36-29.77-25.13-44.28z"/>
    <path id="path4987" d="m287.14 725.26-3.8891 2.8284c23.035 24.584 28.489 36.704 37.51 62.729 11.352 32.003 22.131 14.763 30.338 29.846-7.1896-3.5912-9.0347-5.5416-12.154-3.9264 4.7464 4.5736 9.0574 10.599 12.804 18.505 4.0913 11.696 3.0367 24.946 2.7603 37.465-0.071044 3.2176 0.70754 6.2653 1.8094 9.2483 0.46751 2.8231 2.6036 3.3503 3.9954 4.2926-6.66 1.21-8.55-3.13-12.69-4.86l-9.0774 1.6993c1.08-8.3288-2.7762-16.008 2.4873-26.011-2.7182-20.102 4.5537-22.324-9.6653-34.727-26.325-12.446-35.652-66.124-57.848-85.281l6.6369-4.31z"/>
    <path id="path4989" d="m285.18 726.92c17.507 4.8179 41.216 27.923 55.907 18.647 0.24062-7.2569 2.6239-7.4402-2.8264-11.413-10.8-4.84-45.98-21.96-56.67-22.69z"/>
    <path id="path4991" d="m338.45 743.65 53.231-17.729c4.2653-1.4206 5.1686-3.284 7.3379-4.9853 3.1115-4.346 3.1713-4.5319-0.42961-8.0561-17.718 4.9304-23.136-0.5334-60.329 21.276-5.6889 3.3359-5.2217 11.297 0.1895 9.4946z"/>
    <path id="path4994" d="m467.86 706.01c3.6515-1.3495 12.252-2.1731 16.138-1.6484 5.6359 2.4383 7.9429 3.3615 13.461 1.665-3.669-3.0405-7.6574-3.2071-11.543-4.3019-5.0308-1.3228-14.28 1.0089-19.015 1.1681z"/>
    <path id="path4996" d="m455.79 707.54 18.665-0.92299c-2.8428-2.3342-2.5466-2.6847-1.1015-5.8025l-18.374 4.1344z"/>
    <path id="path4998" d="m429.09 711.36 29.011-2.4468c-2.9439-2.8546-2.4044-2.9052 0.33702-5.5624l-29.875 4.077z"/>
    <path id="path5000" d="m404.01 719.4c8.2492-1.9397 16.447-5.3638 25.752-7.2345l0.5334-2.489s2.1236-4.4032-1.0115-3.5052c-3.1261 0.89547-35.087 8.641-34.797 10.669-6.5539 9.2525 1.6183 4.4179 9.5227 2.5594z"/>
    <path id="path5002" d="m299.21 685.75c4.0256-6.3385 14.486-12.701 11.801-19.322-3.3045-0.82038-6.5377-1.8012-8.5342-5.5646-2.4039 1.418-4.7035 3.0865-5.9479 7.2873z"/>
    <path id="path5004" d="m302.48 660.86c8.0297-9.0121 11.97-27.46 23.408-30.396-0.61532 8.0743 0.063559 6.2128 7.6706 7.1947-5.2752 10.207-15.03 15.906-22.545 28.766-5.7475 0.45552-8.3744-2.7532-8.5342-5.5646z"/>
    <path id="path5006" d="m371.26 604.92c4.5144-2.1828 11.633-3.2691 12.134-7.1419-4.3639-0.80015-8.5292 0.98221-12.66 3.2097-4.0949 2.0282-0.27241 2.8131 0.52652 3.9322z"/>
    <path id="path5008" d="m359.84 611.06 16.739-4.3644c-7.4229-2.8109-6.7372-1.953-6.9987-9.4483z"/>
    <path id="path5010" d="m350.11 618.25 15.202-6.0383c-2.8475-1.1021-4.5381-3.256-4.7936-6.7145z"/>
    <path id="path5012" d="m332.83 635.48c3.0622-4.4511 8.7802-9.3363 16.242-13.828 1.8837-1.134 4.7738-1.5373 5.7794-3.5028-2.29-0.6-2.97-2.42-3.4-4.41-2.7741 0.24449-3.081 2.9879-5.3051 5.1659l-20.306 13.625c-9.3252 6.2572 2.5395 9.426 6.993 2.9526z"/>
   </g>
   <g id="g5014" fill-rule="evenodd" transform="matrix(-1,0,0,1,1369.4,-564)" stroke="#000" fill="#fea">
    <path id="path5016" d="m384.99 952.65c1.5818 5.5734 4.0967 12.235 3.8531 15.679 3.7146-3.9256 5.7957-3.0492 10.809-2.2283-5.0381-5.808-13.263-17.574-14.662-13.451z"/>
    <path id="path5018" d="m375.57 938.94c4.6364 6.8609 4.0694 12.477 8.1996 20.012 2.1309-4.6584 3.4757-4.7363 8.2327-5.2676-3.9429-6.407-8.7316-11.404-13.343-16.697z"/>
    <path id="path5020" d="m365.98 923.73c4.06 6.7668 5.2948 14.945 10.023 20.634 2.4714-5.7611 0.50573-5.9238 7.7326-5.1139-3.7-7.52-10.98-12.33-13.94-19.16z"/>
    <path id="path5022" d="m342.02 879.67c4.89 15.2 22.67 37.06 23.41 49.89 4.1443-6.9419 2.8938-6.7232 10.387-5.3825-6.34-16.04-16.36-29.77-25.13-44.28z"/>
    <path id="path5024" d="m287.14 725.26-3.8891 2.8284c23.035 24.584 28.489 36.704 37.51 62.729 11.352 32.003 22.131 14.763 30.338 29.846-7.1896-3.5912-9.0347-5.5416-12.154-3.9264 4.7464 4.5736 9.0574 10.599 12.804 18.505 4.0913 11.696 3.0367 24.946 2.7603 37.465-0.071044 3.2176 0.70754 6.2653 1.8094 9.2483 0.46751 2.8231 2.6036 3.3503 3.9954 4.2926-6.66 1.21-8.55-3.13-12.69-4.86l-9.0774 1.6993c1.08-8.3288-2.7762-16.008 2.4873-26.011-2.7182-20.102 4.5537-22.324-9.6653-34.727-26.325-12.446-35.652-66.124-57.848-85.281l6.6369-4.31z"/>
    <path id="path5026" d="m285.18 726.92c17.507 4.8179 41.216 27.923 55.907 18.647 0.24062-7.2569 2.6239-7.4402-2.8264-11.413-10.8-4.84-45.98-21.96-56.67-22.69z"/>
    <path id="path5028" d="m338.45 743.65 53.231-17.729c4.2653-1.4206 5.1686-3.284 7.3379-4.9853 3.1115-4.346 3.1713-4.5319-0.42961-8.0561-17.718 4.9304-23.136-0.5334-60.329 21.276-5.6889 3.3359-5.2217 11.297 0.1895 9.4946z"/>
    <path id="path5030" d="m467.86 706.01c3.6515-1.3495 12.252-2.1731 16.138-1.6484 5.6359 2.4383 7.9429 3.3615 13.461 1.665-3.669-3.0405-7.6574-3.2071-11.543-4.3019-5.0308-1.3228-14.28 1.0089-19.015 1.1681z"/>
    <path id="path5032" d="m455.79 707.54 18.665-0.92299c-2.8428-2.3342-2.5466-2.6847-1.1015-5.8025l-18.374 4.1344z"/>
    <path id="path5034" d="m429.09 711.36 29.011-2.4468c-2.9439-2.8546-2.4044-2.9052 0.33702-5.5624l-29.875 4.077z"/>
    <path id="path5036" d="m404.01 719.4c8.2492-1.9397 16.447-5.3638 25.752-7.2345l0.5334-2.489s2.1236-4.4032-1.0115-3.5052c-3.1261 0.89547-35.087 8.641-34.797 10.669-6.5539 9.2525 1.6183 4.4179 9.5227 2.5594z"/>
    <path id="path5038" d="m299.21 685.75c4.0256-6.3385 14.486-12.701 11.801-19.322-3.3045-0.82038-6.5377-1.8012-8.5342-5.5646-2.4039 1.418-4.7035 3.0865-5.9479 7.2873z"/>
    <path id="path5040" d="m302.48 660.86c8.0297-9.0121 11.97-27.46 23.408-30.396-0.61532 8.0743 0.063559 6.2128 7.6706 7.1947-5.2752 10.207-15.03 15.906-22.545 28.766-5.7475 0.45552-8.3744-2.7532-8.5342-5.5646z"/>
    <path id="path5042" d="m371.26 604.92c4.5144-2.1828 11.633-3.2691 12.134-7.1419-4.3639-0.80015-8.5292 0.98221-12.66 3.2097-4.0949 2.0282-0.27241 2.8131 0.52652 3.9322z"/>
    <path id="path5044" d="m359.84 611.06 16.739-4.3644c-7.4229-2.8109-6.7372-1.953-6.9987-9.4483z"/>
    <path id="path5046" d="m350.11 618.25 15.202-6.0383c-2.8475-1.1021-4.5381-3.256-4.7936-6.7145z"/>
    <path id="path5048" d="m332.83 635.48c3.0622-4.4511 8.7802-9.3363 16.242-13.828 1.8837-1.134 4.7738-1.5373 5.7794-3.5028-2.29-0.6-2.97-2.42-3.4-4.41-2.7741 0.24449-3.081 2.9879-5.3051 5.1659l-20.306 13.625c-9.3252 6.2572 2.5395 9.426 6.993 2.9526z"/>
   </g>
   <path id="path5050" d="m1123.1 204.47c-11.808 0.3448-58.992 5.2791-58.156 61.969 0.95491 64.788 37.869 85.969 60.812 85.969 22.943 6e-14 59.858-21.181 60.812-85.969 0.95491-64.788-60.812-61.969-60.812-61.969s-0.96934-0.049257-2.6562 0z" stroke="#000" stroke-width="1px" fill="#fea"/>
   <path id="path5052" style="block-progression:tb;color:#000000;text-transform:none;text-indent:0" d="m1185.7 252.91c0.030634 0.84791-0.25068 1.5211-1.1562 2.4375-0.95074 0.96213-2.621 1.9815-4.8125 2.9062-4.383 1.8494-13.243 3.4011-20.031 4.375-13.576 1.9477-28.786 2.25-34 2.25-5.2142 0-20.424-0.30229-34-2.25-6.7881-0.97385-15.648-2.4318-20.031-4.2812-2.1915-0.92472-3.8618-1.9441-4.8125-2.9062-0.9281-0.93922-1.2037-1.6216-1.1562-2.5-0.2409 1.705-0.45904 3.4857-0.59375 5.3125 0.20422 0.25276 0.42826 0.48803 0.65625 0.71875 1.6614 1.6813 3.8764 2.9506 6.4375 4.0312 5.1222 2.1614 11.772 3.5569 18.781 4.5625 14.019 2.0113 29.319 2.3125 34.719 2.3125 5.3997 0 20.699-0.3012 34.719-2.3125 7.0097-1.0056 13.659-2.4011 18.781-4.5625 2.5611-1.0807 4.7761-2.3499 6.4375-4.0312 0.21783-0.22044 0.42879-0.44689 0.625-0.6875-0.13619-1.8616-0.31617-3.6397-0.5625-5.375zm-120.1 26.03c0.18976 2.0115 0.42398 3.9604 0.6875 5.875 1.6659 1.4166 3.7513 2.491 6.1562 3.4062 5.2939 2.0148 12.159 3.2347 19.312 4.0625 14.307 1.6557 29.703 1.5937 34 1.5938 4.2973-4e-13 19.693 0.06195 34-1.5938 7.1536-0.82785 14.019-2.0477 19.312-4.0625 2.405-0.9153 4.4904-1.9896 6.1562-3.4062 0.25931-1.884 0.46833-3.8034 0.65625-5.7812-0.1238 0.51451-0.40582 1.006-1.0625 1.625-0.98678 0.9301-2.7521 1.9451-5.0312 2.8125-4.5584 1.7349-13.683 3.0404-20.625 3.8438-13.885 1.6068-29.068 1.5625-33.406 1.5625-4.3381-4e-13 -19.522 0.044298-33.406-1.5625-6.9423-0.8034-16.067-2.1714-20.625-3.9062-2.2792-0.86743-4.0445-1.8824-5.0312-2.8125-0.67293-0.63428-0.97688-1.1274-1.0938-1.6562zm116.9 19.59c-6.2238 11.048-25.517 15.234-43.938 16.438-0.34474-4.2032-5.9572-7.5625-12.844-7.5625-6.8865-4e-13 -12.499 3.3593-12.844 7.5625-18.399-1.2052-37.693-5.3905-43.938-16.406 10.332 39.898 38.159 53.844 56.781 53.844 18.627 1e-13 46.455-13.954 56.781-53.875z"/>
   <path id="path5054" d="m1068-3.1875c2.8546 3.533 5.1802 5.888 7.75 9.3438-1.6008-0.36792-3.2248-0.67321-4.875-0.90625-2.7938-2.6673-6.289-5.0347-8.75-7.0312 2.7365 2.4474 5.0856 4.3571 7.6562 6.875-2.4846-0.30136-5.0532-0.44229-7.6562-0.40625-2.6201-1.1159-5.606-1.8436-7.5312-2.625 2.4394 1.0384 4.3516 1.694 6.5312 2.6562-3.0668 0.095642-6.1945 0.4436-9.4375 1.0625 5.9239-0.26387 11.647-0.30288 17.531 0.53125-3.7267 0.99068-6.88 1.4548-10.969 2.4375 3.2447-0.72215 8.3055-1.0167 12.656-2.1875 0.15519 0.0265 0.3133 0.065926 0.46875 0.09375 0.055568 0.020598 0.10764 0.03549 0.15625 0.03125 1.0844 0.19711 2.182 0.42087 3.2812 0.6875-3.8507 1.0438-7.0606 1.4931-11.25 2.5 3.2301-0.71891 8.2564-1.0297 12.594-2.1875 1.5171 0.40712 3.0365 0.87488 4.5938 1.4375-4.2 0.9415-7.5 1.2075-12 2.0295 3.2784-0.54922 8.3433-0.59265 12.75-1.5312 0.077818-0.0084193 0.14311 0.0062362 0.21875 0 0.14327 0.040348 0.26206 0.046972 0.375 0.03125 1.4 0.506 2.6 1.09 4 1.719-4.2038 0.95415-7.5307 1.2047-12 2.0312 3.2784-0.54922 8.3433-0.59265 12.75-1.5312 0.077818-0.0084193 0.14311 0.0062362 0.21875 0 0.035571 0.010017 0.059988-0.0061486 0.09375 0 1.0725 0.52975 2.1501 1.1013 3.25 1.7188-3.6857 0.76016-6.8127 1.0613-10.875 1.8125 3.0281-0.50729 7.5701-0.59587 11.719-1.3438 4.8966 2.834 10.112 6.5647 15.719 11.469l1.4375-2.375c-3.9219-3.1017-7.9667-5.9709-12.188-8.5 0.053396-4.4471-0.82501-9.3236-0.90625-12.594 0.036322 4.562 0.39394 7.8864 0.25 12.219-1.0845-0.63765-2.1742-1.2567-3.2812-1.8438-1.0922-4.3002-3.1789-8.7756-4.0938-11.906 1.1 4.3254 2.3 7.418 3.3 11.532-1.1844-0.61204-2.3822-1.2023-3.5938-1.75-0.035831-0.050962-0.092781-0.10077-0.125-0.15625-1.8537-4.1065-4.8133-8.1895-6.3125-11.156 1.9836 4.0955 3.7457 6.9152 5.4688 10.875-1.4944-0.64897-2.9933-1.2726-4.5312-1.8125-2.3854-3.7788-5.8229-7.3826-7.6875-10.094 2.4526 3.6982 4.5415 6.2345 6.7188 9.7812-1.4977-0.49956-3.0212-0.95855-4.5625-1.3438-0.053388-0.053947-0.13388-0.099229-0.1875-0.15625-2.736-3.5797-6.5238-6.8876-8.6562-9.4375z"/>
   <path id="path5056" d="m1099.4 23.374c0.29919 8.3946 5.8891 14.144 12.728 19.269l13.606-2.4749-5.1265-4.9481c-1.7543-11.682-7.2883-11.268-11.132-16.265-6.408-0.3564-10.712 0.54936-10.076 4.4194z" stroke="#000" stroke-width="1px" fill="#fea"/>
   <path id="path5058" d="m1111.9 22.045c-0.027928-0.088681-0.074333-0.17105-0.10079-0.26321 2.1872-6.2237-2.1216-11.472-4.1616-15.158 2.8 5.739 5.4 9.695 3.4 15.399 0.022689 0.10937 0.044554 0.22177 0.074536 0.33362-0.18294 1.8989 1.7087 0.83967 0.81223-0.31103z"/>
   <path id="path5060" d="m1114.8 25.139c-0.010991-0.092323-0.04131-0.18187-0.050212-0.27734 3.3038-5.7099 0.043507-11.667-1.2773-15.667 1.6722 6.1567 3.4495 10.517 0.46038 15.758 0.0020057 0.11168 0.0026389 0.22619 0.011349 0.34166-0.53203 1.832 1.5233 1.1421 0.85583-0.15495z"/>
   <path id="path5062" d="m1117.7 28.508c0.0020355-0.092953-0.015455-0.18586-0.010911-0.28164 4.0703-5.1914 1.6755-11.546 0.92742-15.692 0.79431 6.3301 1.9439 10.897-1.749 15.667-0.013641 0.11086-0.029037 0.22433-0.03657 0.33989-0.78314 1.7395 1.3485 1.344 0.86909-0.033669z"/>
   <path id="path5064" d="m1102.7 28.78c-0.058564-0.048279-0.10669-0.10861-0.16834-0.15684-3.8129-2.4003-7.4647-5.8966-10.197-7.7891 3.9914 2.6657 6.5921 4.8771 10.62 7.268 0.075822 0.050647 0.15419 0.1016 0.22966 0.15853 1.493 0.44279 0.11242 1.5501-0.48399 0.51947z"/>
   <path id="path5066" d="m1183.4-3.1875c-2.9 3.533-5.2 5.888-7.8 9.3438 1.6008-0.36792 3.2248-0.67321 4.875-0.90625 2.7938-2.6673 6.289-5.0347 8.75-7.0312-2.7365 2.4474-5.0856 4.3571-7.6562 6.875 2.4846-0.30136 5.0532-0.44229 7.6562-0.40625 2.6201-1.1159 5.606-1.8436 7.5312-2.625-2.4394 1.0384-4.3516 1.694-6.5312 2.6562 3.0668 0.095642 6.1945 0.4436 9.4375 1.0625-5.9239-0.26387-11.647-0.30288-17.531 0.53125 3.7267 0.99068 6.88 1.4548 10.969 2.4375-3.2-0.7222-8.3-1.0167-12.6-2.1875-0.15519 0.0265-0.3133 0.065926-0.46875 0.09375-0.055568 0.020598-0.10764 0.03549-0.15625 0.03125-1.0844 0.19711-2.182 0.42087-3.2812 0.6875 3.8507 1.0438 7.0606 1.4931 11.25 2.5-3.2301-0.71891-8.2564-1.0297-12.594-2.1875-1.5171 0.40712-3.0365 0.87488-4.5938 1.4375 4.1746 0.94273 7.4899 1.2088 11.938 2.0312-3.2784-0.54922-8.3433-0.59265-12.75-1.5312-0.077818-0.0084193-0.14311 0.0062362-0.21875 0-0.14327 0.040348-0.26206 0.046972-0.375 0.03125-1.3 0.5056-2.5 1.0896-3.9 1.7186 4.2038 0.95415 7.5307 1.2047 12 2.0312-3.2784-0.54922-8.3433-0.59265-12.75-1.5312-0.077818-0.0084193-0.14311 0.0062362-0.21875 0-0.035571 0.010017-0.059988-0.0061486-0.09375 0-1.0725 0.52975-2.1501 1.1013-3.25 1.7188 3.6857 0.76016 6.8127 1.0613 10.875 1.8125-3.0281-0.50729-7.5701-0.59587-11.719-1.3438-4.8966 2.834-10.112 6.5647-15.719 11.469l-1.4375-2.375c3.9219-3.1017 7.9667-5.9709 12.188-8.5-0.053396-4.4471 0.82501-9.3236 0.90625-12.594-0.036322 4.562-0.39394 7.8864-0.25 12.219 1.0845-0.63765 2.1742-1.2567 3.2812-1.8438 1.0922-4.3002 3.1789-8.7756 4.0938-11.906-1.1 4.3254-2.3 7.418-3.3 11.532 1.1844-0.61204 2.3822-1.2023 3.5938-1.75 0.035831-0.050962 0.092781-0.10077 0.125-0.15625 1.8537-4.1065 4.8133-8.1895 6.3125-11.156-1.9 4.095-3.7 6.9148-5.4 10.874 1.4944-0.64897 2.9933-1.2726 4.5312-1.8125 2.3854-3.7788 5.8229-7.3826 7.6875-10.094-2.4526 3.6982-4.5415 6.2345-6.7188 9.7812 1.4977-0.49956 3.0212-0.95855 4.5625-1.3438 0.053388-0.053947 0.13388-0.099229 0.1875-0.15625 2.736-3.5797 6.5238-6.8876 8.6562-9.4375z"/>
   <path id="path5068" d="m1152 23.374c-0.29919 8.3946-5.8891 14.144-12.728 19.269l-13.606-2.4749 5.1265-4.9481c1.7543-11.682 7.2883-11.268 11.132-16.265 6.408-0.3564 10.712 0.54936 10.076 4.4194z" stroke="#000" stroke-width="1px" fill="#fea"/>
   <path id="path5070" fill="#fea" d="m1125.7 29.42c-7.3784 0-13.493 3.2852-16.075 10.3l16.1 0.735 16.1-0.736c-2.6-7.014-8.7-10.299-16.1-10.299z" stroke="#000"/>
   <path id="path5072" d="m1139.5 22.045c0.027928-0.088681 0.074333-0.17105 0.10079-0.26321-2.1872-6.2237 2.1216-11.472 4.1616-15.158-2.8 5.739-5.4 9.695-3.4 15.399-0.022689 0.10937-0.044554 0.22177-0.074536 0.33362 0.18294 1.8989-1.7087 0.83967-0.81223-0.31103z"/>
   <path id="path5074" d="m1136.6 25.139c0.010991-0.092323 0.04131-0.18187 0.050212-0.27734-3.3038-5.7099-0.043507-11.667 1.2773-15.667-1.6 6.156-3.4 10.517-0.4 15.758-0.0020057 0.11168-0.0026389 0.22619-0.011349 0.34166 0.53203 1.832-1.5233 1.1421-0.85583-0.15495z"/>
   <path id="path5076" d="m1133.8 28.508c-0.0020355-0.092953 0.015455-0.18586 0.010911-0.28164-4.0703-5.1914-1.6755-11.546-0.92742-15.692-0.79431 6.3301-1.9439 10.897 1.749 15.667 0.013641 0.11086 0.029037 0.22433 0.03657 0.33989 0.78314 1.7395-1.3485 1.344-0.86909-0.033669z"/>
   <path id="path5078" d="m1148.7 28.78c0.058564-0.048279 0.10669-0.10861 0.16834-0.15684 3.8129-2.4003 7.4647-5.8966 10.197-7.7891-3.9914 2.6657-6.5921 4.8771-10.62 7.268-0.075822 0.050647-0.15419 0.1016-0.22966 0.15853-1.493 0.44279-0.11242 1.5501 0.48399 0.51947z"/>
   <path id="path5080" d="m1106.3 33.812c-2.7303 0.042294-5.533 0.42195-8.625 1.4062l-28.812 39.438 3 10.562c3.9049 3.5245 28.232 4.0912 53.812 4.3438 25.58-0.25254 49.908-0.81922 53.812-4.3438l3-10.562-28.812-39.438c-9.8944-3.1498-16.803 0-28 0-7.7 0-13.4-1.499-19.4-1.406z" stroke="#000" stroke-width="1px" fill="#fea"/>
   <path id="path5082" d="m1105.8 35.219c0.50703 10.669-0.56009 21.596-4.6027 31.536-3.6951e-7 9.0938e-7 -7.3902e-7 0.0000018188-0.0000011085 0.0000027281-1.7393 4.2806-4.1208 8.3959-7.525 11.59-7.2318e-7 6.7863e-7 -0.0000014464 0.0000013573-0.0000021695 0.0000020359-3.1606 2.9607-7.2909 4.9075-11.639 5.2866l-0.072277-0.91966c4.1307-0.28719 8.1304-2.0922 11.222-4.8975l0.0000021377-0.0000019361c3.3542-3.0379 5.7555-7.0466 7.5484-11.254 1.9044e-7 -4.4687e-7 3.8088e-7 -8.9375e-7 5.7131e-7 -0.0000013406 4.165-9.7824 5.4075-20.666 5.0685-31.342z"/>
   <path id="path5084" d="m1097.7 35.219c-11.76-4.1417-29.109 12.032-35.04 25.357-3.3584 7.5456-3.5743 21.011 3.9286 24.464 6.5287 3.0046 13.649-5.8508 18.393-11.25 7.6148-8.6677 10.314-20.323 12.718-31.607 0.48369-2.2705 2.1896-6.1931 0-6.9643z" stroke="#000" stroke-width="1px" fill="#dc281e"/>
   <path id="path5086" d="m1145.7 35.219c-0.33899 10.676 0.90349 21.56 5.0685 31.342 1.7929 4.2071 4.1942 8.2158 7.5484 11.254l0.0000021377 0.0000019361c3.092 2.8053 7.0918 4.6103 11.222 4.8975l-0.072277 0.91966c-4.3485-0.37919-8.4788-2.326-11.639-5.2866-3.6159e-7 -3.3932e-7 -7.2318e-7 -6.7863e-7 -0.0000010848-0.0000010179-3.4041-3.1945-5.7856-7.3097-7.525-11.59-4.0426-9.9399-5.1097-20.867-4.6027-31.536z"/>
   <path id="path5088" d="m1114.9 72.656c-10.72 0.047956-20.4 2.3932-21.094 4.2188-1.8007 4.7361-7.2125 5.3473-21.938 8.3438 3.8455 3.4709 27.507 4.0845 52.656 4.3438l1.1562-0.25 1.1562 0.25c25.149-0.25921 48.811-0.87284 52.656-4.3438-14.725-2.9964-20.137-3.6076-21.938-8.3438-0.69407-1.8255-10.374-4.1708-21.094-4.2188-3.5733-0.015985-7.2738 0-10.781 0-3.5074 0-7.2079-0.015985-10.781 0z" stroke="#000" stroke-width="1px" fill="#fea"/>
   <path id="path5090" d="m1125.7 74.875c-18.805 9e-14 -34.388 8.3728-40.969 26.25l40.969 1.875 40.969-1.875c-6.5-17.872-22.1-26.245-40.9-26.245z" stroke="#000" stroke-width="1px" fill="#ffe680"/>
   <path id="path5092" d="m1077.5 99.156c0.59197 0.075203 1.1434 0.5409 1.375 1.2188 0.30874 0.9038-0.063443 1.8584-0.84375 2.125-0.52427 0.17909-1.0884 0.0016219-1.5-0.40625-8.5536 5.4666-14.289 14.712-19.312 23.781 4.7166-9.2568 10.144-18.75 18.781-24.719-0.19962-0.84378 0.17996-1.6894 0.90625-1.9375 0.19508-0.066639 0.39643-0.087568 0.59375-0.0625z"/>
   <path id="path5094" d="m1174 99.156c-0.59197 0.075203-1.1434 0.5409-1.375 1.2188-0.30874 0.9038 0.063443 1.8584 0.84375 2.125 0.52427 0.17909 1.0884 0.0016219 1.5-0.40625 8.5536 5.4666 14.289 14.712 19.312 23.781-4.7166-9.2568-10.144-18.75-18.781-24.719 0.19962-0.84378-0.17996-1.6894-0.90625-1.9375-0.19508-0.066639-0.39643-0.087568-0.59375-0.0625z"/>
   <path id="path5096" d="m1125.7 83.531c-16.728 0-53.809 1.6802-57.5 40.625-1.8525 19.549 4.4315 46.17 23.281 55.594 20.919 15.247 34.219 31.906 34.219 31.906 0-1e-13 13.299-16.66 34.219-31.906 18.85-9.4234 25.134-36.045 23.281-55.594-3.6905-38.945-40.772-40.625-57.5-40.625z" stroke="#000" stroke-width="1px" fill="#ffe680"/>
   <path id="path5098" d="m1125.7 89.312c-4.4 35.768 2.7 89.358-10.2 86.968l1 2.7188 9.1562-2 9.1562 2 1-2.7188c-12.848 2.3851-5.7077-51.205-10.156-86.969z" stroke="#000" stroke-width="1px" fill="#ffe680"/>
   <path id="path5100" d="m1070.9 152.03c3.9106 10.045 13.217 20.501 29.477 21.608" stroke="#000" stroke-width="1px" fill="#ffe680"/>
   <path id="path5102" d="m1153.7 35.219c11.76-4.1417 29.109 12.032 35.04 25.357 3.3584 7.5456 3.5743 21.011-3.9286 24.464-6.5287 3.0046-13.649-5.8508-18.393-11.25-7.6148-8.6677-10.314-20.323-12.718-31.607-0.48369-2.2705-2.1896-6.1931 0-6.9643z" stroke="#000" stroke-width="1px" fill="#dc281e"/>
   <path id="path5104" d="m1098.7 173.09c-2.7284-0.048691-6.6202 2.8788-7.2188 6.6562-0.60663 3.8287 1.7769 15.329 8.5 20.281 3.5253 2.5968 16.107 12.438 25.719 12.438 9.6122 0 22.193-9.8407 25.719-12.438 6.7231-4.9524 9.1066-16.453 8.5-20.281-0.73662-4.6492-6.4662-8.006-8.875-6.125-3.3572 2.6217-12.298 0.75949-15.188 2.6562-2.6875 1.7643-4.0423 0.71875-10.156 0.71875-6.114 0-7.4687 1.0455-10.156-0.71875-2.8894-1.8968-11.862-0.034561-15.219-2.6562-0.45164-0.35269-0.99538-0.52001-1.625-0.53125z" stroke="#000" stroke-width="1px" fill="#ffe680"/>
   <path id="path5106" d="m1180.5 152.03c-3.9106 10.045-13.217 20.501-29.477 21.608" stroke="#000" stroke-width="1px" fill="#ffe680"/>
   <path id="path5108" d="m1101.8 134c0.95508 0 1.7188 0.67542 1.7188 1.5 0 0.67451-0.50742 1.2211-1.2188 1.4062 0.0070829 0.15435-0.010373 0.30988 0 0.46875 0.067474 0.9198 0.2009 1.8548 0.375 2.7812 0.46479 2.4689 1.1336 4.8932 1.875 7.3125 1.5778 5.1405 3.4022 10.258 6.125 14.906-2.9037-4.5372-4.9369-9.6251-6.7188-14.719-0.84101-2.4008-1.6139-4.8156-2.1875-7.3125-0.21532-0.93593-0.3886-1.9006-0.5-2.875-0.022538-0.18336-0.047409-0.37094-0.0625-0.5625-0.66717-0.20705-1.125-0.75896-1.125-1.4062 0-0.82458 0.76367-1.5 1.7188-1.5z"/>
   <path id="path5110" d="m1103.2 155.84c0.65932 0.043793 1.2331 0.43755 1.4062 1.0312 0.14814 0.50788-0.019037 1.0483-0.40625 1.4375 4.485 7.3525 7.3616 15.532 9.75 23.75 2.2215 7.6279 4.2738 15.407 8.4062 22.188-4.2812-6.6872-6.5248-14.493-8.9062-22.062-2.5779-8.1788-5.6465-16.233-10.25-23.375-0.86508 0.18056-1.6882-0.2213-1.9062-0.96875-0.23089-0.79159 0.33312-1.6388 1.25-1.9062 0.22922-0.066857 0.43648-0.10835 0.65625-0.09375z"/>
   <path id="path5112" d="m1077.7 132.12c0.95508 0 1.7188 0.67542 1.7188 1.5s-0.76367 1.4688-1.7188 1.4688c-0.33225 0-0.64275-0.078528-0.90625-0.21875-10.84 6.926-19.078 17.439-27.344 27.5 7.9509-10.245 15.826-20.966 26.594-28.344-0.046295-0.13477-0.0625-0.25851-0.0625-0.40625 0-0.82458 0.76367-1.5 1.7188-1.5z"/>
   <path id="path5114" d="m1075 116.41c0.59197 0.075203 1.1434 0.5409 1.375 1.2188 0.30874 0.9038-0.063443 1.8584-0.84375 2.125-0.54865 0.18742-1.1477-0.019454-1.5625-0.46875-3.9631 2.2207-7.3889 5.4157-10.375 8.9375-3.4721 4.0979-6.416 8.6446-9.375 13.156 2.7963-4.6143 5.585-9.2727 8.9375-13.531 2.8938-3.6784 6.2978-7.0428 10.344-9.5-0.16939-0.8241 0.19647-1.6325 0.90625-1.875 0.19508-0.066639 0.39643-0.087568 0.59375-0.0625z"/>
   <path id="path5116" d="m1077.1 129.09c0.53155 0.032374 1.0179 0.28987 1.25 0.75 0.37138 0.73621-0.022272 1.6948-0.875 2.125-0.48677 0.24555-1.0012 0.25486-1.4375 0.09375-4.8899 3.0141-9.5171 6.4974-13.688 10.469-4.4465 4.2332-8.4271 8.9652-12.344 13.719 3.7692-4.8713 7.6268-9.6972 11.969-14.094 4.0184-4.0678 8.4731-7.7057 13.25-10.875-0.27406-0.71577 0.099711-1.5619 0.90625-1.9688 0.31977-0.16131 0.64982-0.23817 0.96875-0.21875z"/>
   <path id="path5118" d="m1075.7 113.73c0.57977 0.14121 1.0755 0.6659 1.2294 1.3655 0.20528 0.93276-0.27177 1.8396-1.0771 2.0168-0.56623 0.12462-1.1382-0.14823-1.5-0.64127-4.1874 1.7615-7.9504 4.5515-11.313 7.7157-3.9103 3.682-7.3463 7.8693-10.793 12.02 3.2968-4.271 6.5911-8.5867 10.401-12.442 3.2886-3.3302 7.0489-6.2909 11.345-8.2782-0.075763-0.83791 0.37858-1.6001 1.1111-1.7614 0.20133-0.044308 0.40375-0.04249 0.59701 0.00458z"/>
   <path id="path5120" d="m1149.6 134c-0.95508 0-1.7188 0.67542-1.7188 1.5 0 0.67451 0.50742 1.2211 1.2188 1.4062-0.0070829 0.15435 0.010373 0.30988 0 0.46875-0.067474 0.9198-0.2009 1.8548-0.375 2.7812-0.46479 2.4689-1.1336 4.8932-1.875 7.3125-1.5778 5.1405-3.4022 10.258-6.125 14.906 2.9037-4.5372 4.9369-9.6251 6.7188-14.719 0.84101-2.4008 1.6139-4.8156 2.1875-7.3125 0.21532-0.93593 0.3886-1.9006 0.5-2.875 0.022538-0.18336 0.047409-0.37094 0.0625-0.5625 0.66717-0.20705 1.125-0.75896 1.125-1.4062 0-0.82458-0.76367-1.5-1.7188-1.5z"/>
   <path id="path5122" d="m1148.2 155.84c-0.65932 0.043793-1.2331 0.43755-1.4062 1.0312-0.14814 0.50788 0.019037 1.0483 0.40625 1.4375-4.485 7.3525-7.3616 15.532-9.75 23.75-2.2215 7.6279-4.2738 15.407-8.4062 22.188 4.2812-6.6872 6.5248-14.493 8.9062-22.062 2.5779-8.1788 5.6465-16.233 10.25-23.375 0.86508 0.18056 1.6882-0.2213 1.9062-0.96875 0.23089-0.79159-0.33312-1.6388-1.25-1.9062-0.22922-0.066857-0.43648-0.10835-0.65625-0.09375z"/>
   <path id="path5124" d="m1173.8 132.12c-0.95508 0-1.7188 0.67542-1.7188 1.5s0.76367 1.4688 1.7188 1.4688c0.33225 0 0.64275-0.078528 0.90625-0.21875 10.84 6.926 19.078 17.439 27.344 27.5-7.9509-10.245-15.826-20.966-26.594-28.344 0.046295-0.13477 0.0625-0.25851 0.0625-0.40625 0-0.82458-0.76367-1.5-1.7188-1.5z"/>
   <path id="path5126" d="m1176.5 116.41c-0.59197 0.075203-1.1434 0.5409-1.375 1.2188-0.30874 0.9038 0.063443 1.8584 0.84375 2.125 0.54865 0.18742 1.1477-0.019454 1.5625-0.46875 3.9631 2.2207 7.3889 5.4157 10.375 8.9375 3.4721 4.0979 6.416 8.6446 9.375 13.156-2.7963-4.6143-5.585-9.2727-8.9375-13.531-2.8938-3.6784-6.2978-7.0428-10.344-9.5 0.16939-0.8241-0.19647-1.6325-0.90625-1.875-0.19508-0.066639-0.39643-0.087568-0.59375-0.0625z"/>
   <path id="path5128" d="m1174.3 129.09c-0.53155 0.032374-1.0179 0.28987-1.25 0.75-0.37138 0.73621 0.022272 1.6948 0.875 2.125 0.48677 0.24555 1.0012 0.25486 1.4375 0.09375 4.8899 3.0141 9.5171 6.4974 13.688 10.469 4.4465 4.2332 8.4271 8.9652 12.344 13.719-3.7692-4.8713-7.6268-9.6972-11.969-14.094-4.0184-4.0678-8.4731-7.7057-13.25-10.875 0.27406-0.71577-0.099711-1.5619-0.90625-1.9688-0.31977-0.16131-0.64982-0.23817-0.96875-0.21875z"/>
   <path id="path5130" d="m1175.7 113.73c-0.57977 0.14121-1.0755 0.6659-1.2294 1.3655-0.20528 0.93276 0.27177 1.8396 1.0771 2.0168 0.56623 0.12462 1.1382-0.14823 1.5-0.64127 4.1874 1.7615 7.9504 4.5515 11.313 7.7157 3.9103 3.682 7.3463 7.8693 10.793 12.02-3.2968-4.271-6.5911-8.5867-10.401-12.442-3.2886-3.3302-7.0489-6.2909-11.345-8.2782 0.075763-0.83791-0.37858-1.6001-1.1111-1.7614-0.20133-0.044308-0.40375-0.04249-0.59701 0.00458z"/>
   <g id="g5132" transform="translate(880,-200)">
    <path id="path5134" d="m225.64 308.74c0.0045978 0.075759-0.0067334 0.1521 0 0.23008 0.84302 4.4259 0.77425 9.4811 1.2524 12.771-0.77047-4.7375-0.92531-8.1477-1.9218-12.725-0.01463-0.09-0.030775-0.18208-0.040572-0.2761-0.6938-1.3942 1.0575-1.1389 0.71 0z"/>
    <path id="path5136" d="m219.78 321.33c-0.0018419 0.075876-0.019605 0.15098-0.019507 0.22925 0.46474 4.4815-0.032386 9.5126 0.16514 12.831-0.36603-4.7858-0.23118-8.1968-0.83606-12.842-0.0069471-0.090917-0.015227-0.18403-0.017017-0.27854-0.57309-1.448 1.1503-1.0452 0.70744 0.060197z"/>
    <path id="path5138" d="m232.62 334.22c0.015002 0.074401 0.014308 0.15158 0.031732 0.22788 1.4454 4.2674 2.0744 9.2838 3.0017 12.476-1.41-4.58-2.04-7.94-3.65-12.33-0.026903-0.087122-0.055592-0.17609-0.078262-0.26786-0.87945-1.2852 0.89033-1.2739 0.70322-0.09792z"/>
    <path id="path5140" d="m202.69 341.93c-0.0082318 0.075451-0.032263 0.14879-0.038764 0.22679 0.085284 4.5047-0.8342 9.476-0.91711 12.799 0.038723-4.7996 0.46065-8.1871 0.24949-12.866 0.00074208-0.091179 0.00034101-0.18466 0.0065257-0.27899-0.44898-1.4912 1.2343-0.94449 0.69985 0.11962z"/>
    <path id="path5142" d="m212.88 346.94c0.01713 0.07394 0.018649 0.1511 0.038255 0.22688 1.5672 4.2242 2.3399 9.2204 3.3583 12.385-1.5474-4.5435-2.2671-7.8805-4.0107-12.228-0.029391-0.086315-0.060619-0.17442-0.085912-0.26551-0.91595-1.2595 0.85343-1.2989 0.70012-0.11805z"/>
    <path id="path5144" d="m209.08 361.44c-0.0062494 0.075641-0.028348 0.14959-0.032801 0.22773 0.20345 4.5009-0.58529 9.4947-0.58098 12.819-0.08722-4.799 0.24568-8.1964-0.088177-12.869-0.0016505-0.091167-0.004504-0.1846-0.00079651-0.27906-0.48795-1.4789 1.2091-0.97654 0.70275 0.10122z"/>
    <path id="path5146" d="m209.62 299.73c-0.020063 0.073199-0.055393 0.14182-0.07415 0.21781-0.62834 4.4615-2.3226 9.2248-2.9301 12.493 0.79743-4.7331 1.7499-8.0112 2.2816-12.665 0.015155-0.089913 0.029546-0.18228 0.050573-0.27444-0.20746-1.5434 1.3681-0.73736 0.67212 0.22882z"/>
    <path id="path5148" d="m221.93 288.62c-0.012789 0.074813-0.04122 0.14656-0.052436 0.22403-0.18785 4.5016-1.4069 9.4081-1.691 12.72 0.3295-4.7884 0.95593-8.1442 1.0287-12.828 0.006266-0.090966 0.01153-0.1843 0.02342-0.27808-0.35779-1.5156 1.2893-0.86795 0.69132 0.16181z"/>
    <path id="path5150" d="m209.7 321.21c-0.020063 0.073199-0.055393 0.14182-0.07415 0.21781-0.62834 4.4615-2.3226 9.2248-2.9301 12.493 0.79743-4.7331 1.7499-8.0112 2.2816-12.665 0.015155-0.089913 0.029546-0.18228 0.050573-0.27444-0.20746-1.5434 1.3681-0.73736 0.67212 0.22882z"/>
    <path id="path5152" d="m235.23 289.81c-0.013912 0.074613-0.043419 0.14593-0.055799 0.22321-0.25551 4.4983-1.5482 9.3859-1.8821 12.693 0.40145-4.7829 1.0783-8.1289 1.2215-12.811 0.0076329-0.090862 0.0143-0.1841 0.027598-0.2777-0.33497-1.5209 1.3022-0.84847 0.68881 0.17219z"/>
    <path id="path5154" d="m236.49 314.11c-0.0096885 0.075278-0.035133 0.14814-0.04314 0.226-0.0017941 4.5055-1.0172 9.4582-1.1643 12.779 0.13148-4.798 0.6188-8.1767 0.49812-12.859 0.0025041-0.091147 0.0039098-0.18462 0.011916-0.27881-0.42008-1.4996 1.2523-0.92045 0.69741 0.13312z"/>
    <path id="path5156" d="m233.5 355.82c0.01713 0.07394 0.018649 0.1511 0.038255 0.22688 1.5672 4.2242 2.3399 9.2204 3.3583 12.385-1.5474-4.5435-2.2671-7.8805-4.0107-12.228-0.029391-0.086315-0.060619-0.17442-0.085912-0.26551-0.91595-1.2595 0.85343-1.2989 0.70012-0.11805z"/>
   </g>
   <path id="path5158" d="m1145.8 108.74c-0.0045978 0.075759 0.0067334 0.1521 0 0.23008-0.84302 4.4259-0.77425 9.4811-1.2524 12.771 0.77047-4.7375 0.92531-8.1477 1.9218-12.725 0.01463-0.09 0.030775-0.18208 0.040572-0.2761 0.6938-1.3942-1.0575-1.1389-0.71 0z"/>
   <path id="path5160" d="m1151.6 121.33c0.0018419 0.075876 0.019605 0.15098 0.019507 0.22925-0.46474 4.4815 0.032386 9.5126-0.16514 12.831 0.36603-4.7858 0.23118-8.1968 0.83606-12.842 0.0069471-0.090917 0.015227-0.18403 0.017017-0.27854 0.57309-1.448-1.1503-1.0452-0.70744 0.060197z"/>
   <path id="path5162" d="m1138.8 134.22c-0.015002 0.074401-0.014308 0.15158-0.031732 0.22788-1.4454 4.2674-2.0744 9.2838-3.0017 12.476 1.4165-4.586 2.0402-7.9422 3.6584-12.338 0.026903-0.087122 0.055592-0.17609 0.078262-0.26786 0.87945-1.2852-0.89033-1.2739-0.70322-0.09792z"/>
   <path id="path5164" d="m1168.7 141.93c0.0082318 0.075451 0.032263 0.14879 0.038764 0.22679-0.085284 4.5047 0.8342 9.476 0.91711 12.799-0.038723-4.7996-0.46065-8.1871-0.24949-12.866-0.00074208-0.091179-0.00034101-0.18466-0.0065257-0.27899 0.44898-1.4912-1.2343-0.94449-0.69985 0.11962z"/>
   <path id="path5166" d="m1158.5 146.94c-0.01713 0.07394-0.018649 0.1511-0.038255 0.22688-1.5672 4.2242-2.3399 9.2204-3.3583 12.385 1.5474-4.5435 2.2671-7.8805 4.0107-12.228 0.029391-0.086315 0.060619-0.17442 0.085912-0.26551 0.91595-1.2595-0.85343-1.2989-0.70012-0.11805z"/>
   <path id="path5168" d="m1162.4 161.44c0.0062494 0.075641 0.028348 0.14959 0.032801 0.22773-0.20345 4.5009 0.58529 9.4947 0.58098 12.819 0.08722-4.799-0.24568-8.1964 0.088177-12.869 0.0016505-0.091167 0.004504-0.1846 0.00079651-0.27906 0.48795-1.4789-1.2091-0.97654-0.70275 0.10122z"/>
   <path id="path5170" d="m1161.8 99.734c0.020063 0.073199 0.055393 0.14182 0.07415 0.21781 0.62834 4.4615 2.3226 9.2248 2.9301 12.493-0.79743-4.7331-1.7499-8.0112-2.2816-12.665-0.015155-0.089913-0.029546-0.18228-0.050573-0.27444 0.20746-1.5434-1.3681-0.73736-0.67212 0.22882z"/>
   <path id="path5172" d="m1149.5 88.624c0.012789 0.074813 0.04122 0.14656 0.052436 0.22403 0.18785 4.5016 1.4069 9.4081 1.691 12.72-0.3295-4.7884-0.95593-8.1442-1.0287-12.828-0.006266-0.090966-0.01153-0.1843-0.02342-0.27808 0.35779-1.5156-1.2893-0.86795-0.69132 0.16181z"/>
   <path id="path5174" d="m1161.7 121.21c0.020063 0.073199 0.055393 0.14182 0.07415 0.21781 0.62834 4.4615 2.3226 9.2248 2.9301 12.493-0.79743-4.7331-1.7499-8.0112-2.2816-12.665-0.015155-0.089913-0.029546-0.18228-0.050573-0.27444 0.20746-1.5434-1.3681-0.73736-0.67212 0.22882z"/>
   <path id="path5176" d="m1136.2 89.815c0.013912 0.074613 0.043419 0.14593 0.055799 0.22321 0.25551 4.4983 1.5482 9.3859 1.8821 12.693-0.40145-4.7829-1.0783-8.1289-1.2215-12.811-0.0076329-0.090862-0.0143-0.1841-0.027598-0.2777 0.33497-1.5209-1.3022-0.84847-0.68881 0.17219z"/>
   <path id="path5178" d="m1134.9 114.11c0.0096885 0.075278 0.035133 0.14814 0.04314 0.226 0.0017941 4.5055 1.0172 9.4582 1.1643 12.779-0.13148-4.798-0.6188-8.1767-0.49812-12.859-0.0025041-0.091147-0.0039098-0.18462-0.011916-0.27881 0.42008-1.4996-1.2523-0.92045-0.69741 0.13312z"/>
   <path id="path5180" d="m1137.9 155.82c-0.01713 0.07394-0.018649 0.1511-0.038255 0.22688-1.5672 4.2242-2.3399 9.2204-3.3583 12.385 1.5474-4.5435 2.2671-7.8805 4.0107-12.228 0.029391-0.086315 0.060619-0.17442 0.085912-0.26551 0.91595-1.2595-0.85343-1.2989-0.70012-0.11805z"/>
   <g id="g5182" transform="translate(880,-200)">
    <path id="path5184" d="m201.15 280.88c-4.1874 1.7615-7.9504 4.5515-11.313 7.7157-3.9103 3.682-7.3463 7.8693-10.793 12.02 3.2968-4.271 6.5911-8.5867 10.401-12.442 3.2886-3.3302 7.0489-6.2909 11.345-8.2782 1.6472-3.1804 3.0968 0.71207 0.36049 0.98421z"/>
    <path id="path5186" d="m204.41 279.84c-3.8815 2.3604-7.1914 5.6753-10.05 9.3012-3.3239 4.2189-6.1042 8.8675-8.9006 13.482 2.6302-4.7109 5.2513-9.4656 8.4501-13.841 2.761-3.7791 6.043-7.2626 9.9989-9.8623 1.1597-3.3888 3.168 0.24713 0.50183 0.92022z"/>
    <path id="path5188" d="m216.4 256.45c-4.3845 1.1888-8.4852 3.4534-12.239 6.1421-4.3654 3.1291-8.3279 6.822-12.296 10.477 3.8357-3.7945 7.6748-7.6336 11.963-10.948 3.7024-2.8631 7.8232-5.2973 12.346-6.6953 2.0557-2.933 2.9745 1.1177 0.22635 1.0234z"/>
    <path id="path5190" d="m217.33 251.44c-4.6022-0.35025-9.1793 0.2348-13.515 1.2578-5.0425 1.1915-9.8214 2.9481-14.597 4.6731 4.6779-1.8743 9.3698-3.7829 14.38-5.1435 4.3262-1.1762 8.9632-1.8896 13.751-1.6643 2.7199-1.7166 2.6669 1.761-0.01909 0.87691z"/>
    <path id="path5192" d="m220.97 237.8c-3.9238-4.5703-8.6876-8.2542-13.633-11.311-5.7529-3.5538-11.784-6.3429-17.783-9.1582 6.0466 2.5872 12.138 5.1557 18.017 8.524 5.0777 2.9069 10.015 6.5277 14.226 11.154 4.0941 0.9259 0.83599 4.0862-0.82685 0.79162z"/>
    <path id="path5194" d="m239.04 262.5c-0.95508 0-1.7188-0.67542-1.7188-1.5 0-0.67451 0.50742-1.2211 1.2188-1.4062-0.0070829-0.15435 0.010373-0.30988 0-0.46875-0.067474-0.9198-0.2009-1.8548-0.375-2.7812-0.46479-2.4689-1.1336-4.8932-1.875-7.3125-1.5778-5.1405-3.4022-10.258-6.125-14.906 2.9037 4.5372 4.9369 9.6251 6.7188 14.719 0.84101 2.4008 1.6139 4.8156 2.1875 7.3125 0.21532 0.93593 0.3886 1.9006 0.5 2.875 0.022538 0.18336 0.047409 0.37094 0.0625 0.5625 0.66717 0.20705 1.125 0.75896 1.125 1.4062 0 0.82458-0.76367 1.5-1.7188 1.5z"/>
   </g>
   <g id="g5196" transform="matrix(-1,0,0,1,1371.4,-200)">
    <path id="path5198" d="m201.15 280.88c-4.1874 1.7615-7.9504 4.5515-11.313 7.7157-3.9103 3.682-7.3463 7.8693-10.793 12.02 3.2968-4.271 6.5911-8.5867 10.401-12.442 3.2886-3.3302 7.0489-6.2909 11.345-8.2782 1.6472-3.1804 3.0968 0.71207 0.36049 0.98421z"/>
    <path id="path5200" d="m204.41 279.84c-3.8815 2.3604-7.1914 5.6753-10.05 9.3012-3.3239 4.2189-6.1042 8.8675-8.9006 13.482 2.6302-4.7109 5.2513-9.4656 8.4501-13.841 2.761-3.7791 6.043-7.2626 9.9989-9.8623 1.1597-3.3888 3.168 0.24713 0.50183 0.92022z"/>
    <path id="path5202" d="m216.4 256.45c-4.3845 1.1888-8.4852 3.4534-12.239 6.1421-4.3654 3.1291-8.3279 6.822-12.296 10.477 3.8357-3.7945 7.6748-7.6336 11.963-10.948 3.7024-2.8631 7.8232-5.2973 12.346-6.6953 2.0557-2.933 2.9745 1.1177 0.22635 1.0234z"/>
    <path id="path5204" d="m217.33 251.44c-4.6022-0.35025-9.1793 0.2348-13.515 1.2578-5.0425 1.1915-9.8214 2.9481-14.597 4.6731 4.6779-1.8743 9.3698-3.7829 14.38-5.1435 4.3262-1.1762 8.9632-1.8896 13.751-1.6643 2.7199-1.7166 2.6669 1.761-0.01909 0.87691z"/>
    <path id="path5206" d="m220.97 237.8c-3.9238-4.5703-8.6876-8.2542-13.633-11.311-5.7529-3.5538-11.784-6.3429-17.783-9.1582 6.0466 2.5872 12.138 5.1557 18.017 8.524 5.0777 2.9069 10.015 6.5277 14.226 11.154 4.0941 0.9259 0.83599 4.0862-0.82685 0.79162z"/>
    <path id="path5208" d="m239.04 262.5c-0.95508 0-1.7188-0.67542-1.7188-1.5 0-0.67451 0.50742-1.2211 1.2188-1.4062-0.0070829-0.15435 0.010373-0.30988 0-0.46875-0.067474-0.9198-0.2009-1.8548-0.375-2.7812-0.46479-2.4689-1.1336-4.8932-1.875-7.3125-1.5778-5.1405-3.4022-10.258-6.125-14.906 2.9037 4.5372 4.9369 9.6251 6.7188 14.719 0.84101 2.4008 1.6139 4.8156 2.1875 7.3125 0.21532 0.93593 0.3886 1.9006 0.5 2.875 0.022538 0.18336 0.047409 0.37094 0.0625 0.5625 0.66717 0.20705 1.125 0.75896 1.125 1.4062 0 0.82458-0.76367 1.5-1.7188 1.5z"/>
   </g>
   <g id="g5210" transform="matrix(.99752 -.070325 .070325 .99752 811.19 31.016)" stroke="#000">
    <g id="g5212" transform="translate(-139.65 -9.8455)">
     <path id="path5214" fill-opacity=".078431" d="m504.06 141.88c8.3192 16.589 7.0677 34.545 9.4441 51.982 3.3746-0.28122 12.466 45.817 8.5 69.51 12.83 67.29 14.27 180.84-53 195.99-42.283 9.5224-67.071-37.308-70-73.5-6.6199-81.792-5.2459-118.44 27-163.14 8.1558-11.307 25.689-4.6403 37-19.5 13.473-17.701 36.398-29.24 23.5-50.857 4.162-3.4551 8.2477-7.052 10.125-14.75 2.3316 2.876 4.7671 4.714 7.4309 4.2677z"/>
     <path id="path5216" stroke-width=".5" fill="none" d="m509.97 160.19c-8.2785 9.3625-2.4932 25.821-3.9697 40.172-13.238 12.934-7.259 21.633-5.0477 37.295 7.8393 56.192-0.0070651 134.17 19.776 164.48"/>
     <path id="path5218" stroke-width=".5" fill="none" d="m513.43 193.68c1.6391 7.9901-8.616 8.908-8.6621 16.44-0.14187 23.199 7.4573 33.719 17.324 54.094"/>
     <path id="path5220" stroke-width=".5" fill="none" d="m497.85 220.05c-1.5367 14.02-5.4399 28.813-5.8131 40.981l-1.7678 57.629c-1.5592 50.831-18.288 98.343-32.88 142.13"/>
     <path id="path5222" stroke-width=".5" fill="none" d="m489.62 160.49c1.5528 0.61968 3.8262-0.64128 4.75 2.5 2.4929 8.4771 3.16 17.371 0.125 27.375-2.6492 8.7321-3.4776 13.198-4.875 19.875-3.4393 16.434-4.262 33.029-8.625 49.625-4.3283 16.464-11.981 31.957-16 48.5-4.5019 18.532-8.3711 40.898-11.25 59.75-4.7807 31.307-24.25 82.25-24.25 82.25"/>
     <path id="path5224" stroke-width=".5" fill="none" d="m494.69 189.61c-6.3956 7.8496-12.042 18.197-16.44 32.704-3.5403 11.676-20.664 58.323-35.747 83.549-9.9733 16.68-47 34.5-47 34.5"/>
     <path id="path5226" stroke-width=".5" fill="none" d="m480.12 263.49c3.5734 0.74433 7.6256 5.7975 11.5 9.25"/>
     <path id="path5228" stroke-width=".5" fill="none" d="m443.06 304.8c6.3875 6.7626 12.153 13.095 19.031 15.437 5.7696 7.6875 14.017 15.5 26.094 23.187"/>
    </g>
    <g id="g5230" transform="matrix(-.99011 -.1403 -.1403 .99011 767.15 54.084)">
     <path id="path5232" fill-opacity=".078431" d="m504.06 141.88c8.3192 16.589 7.0677 34.545 9.4441 51.982 3.3746-0.28122 12.466 45.817 8.5 69.51 12.83 67.29 14.27 180.84-53 195.99-42.283 9.5224-67.071-37.308-70-73.5-6.6199-81.792-5.2459-118.44 27-163.14 8.1558-11.307 25.689-4.6403 37-19.5 13.473-17.701 36.398-29.24 23.5-50.857 4.162-3.4551 8.2477-7.052 10.125-14.75 2.3316 2.876 4.7671 4.714 7.4309 4.2677z"/>
     <path id="path5234" stroke-width=".5" fill="none" d="m509.97 160.19c-8.2785 9.3625-2.4932 25.821-3.9697 40.172-13.238 12.934-7.259 21.633-5.0477 37.295 7.8393 56.192-0.0070651 134.17 19.776 164.48"/>
     <path id="path5236" stroke-width=".5" fill="none" d="m513.43 193.68c1.6391 7.9901-8.616 8.908-8.6621 16.44-0.14187 23.199 7.4573 33.719 17.324 54.094"/>
     <path id="path5238" stroke-width=".5" fill="none" d="m497.85 220.05c-1.5367 14.02-5.4399 28.813-5.8131 40.981l-1.7678 57.629c-1.5592 50.831-18.288 98.343-32.88 142.13"/>
     <path id="path5240" stroke-width=".5" fill="none" d="m489.62 160.49c1.5528 0.61968 3.8262-0.64128 4.75 2.5 2.4929 8.4771 3.16 17.371 0.125 27.375-2.6492 8.7321-3.4776 13.198-4.875 19.875-3.4393 16.434-4.262 33.029-8.625 49.625-4.3283 16.464-11.981 31.957-16 48.5-4.5019 18.532-8.3711 40.898-11.25 59.75-4.7807 31.307-24.25 82.25-24.25 82.25"/>
     <path id="path5242" stroke-width=".5" fill="none" d="m494.69 189.61c-6.3956 7.8496-12.042 18.197-16.44 32.704-3.5403 11.676-20.664 58.323-35.747 83.549-9.9733 16.68-47 34.5-47 34.5"/>
     <path id="path5244" stroke-width=".5" fill="none" d="m480.12 263.49c3.5734 0.74433 7.6256 5.7975 11.5 9.25"/>
     <path id="path5246" stroke-width=".5" fill="none" d="m443.06 304.8c6.3875 6.7626 12.153 13.095 19.031 15.437 5.7696 7.6875 14.017 15.5 26.094 23.187"/>
    </g>
   </g>
  </g>
  <g id="g4598" transform="translate(38.29)" stroke="#000" stroke-width="0.2" fill="#ffe680">
   <g id="g3265" transform="translate(0 4.9)">
    <path id="path3259" d="m119.2 25.093a1.1327 1.1327 0 1 1 -2.2655 0 1.1327 1.1327 0 1 1 2.2655 0z" transform="translate(1.2327 1.4659)"/>
    <path id="path3261" d="m119.2 25.093a1.1327 1.1327 0 1 1 -2.2655 0 1.1327 1.1327 0 1 1 2.2655 0z" transform="translate(3.9979 1.4659)"/>
   </g>
   <path id="path3263" d="m119.2 25.093a1.1327 1.1327 0 1 1 -2.2655 0 1.1327 1.1327 0 1 1 2.2655 0z" transform="translate(2.6153 4.0338)"/>
  </g>
  <text id="text4322" style="word-spacing:0px;letter-spacing:0px" xml:space="preserve" font-size="36px" line-height="125%" y="187.2877" x="239.52094" font-family="Sans" fill="#000000"><tspan id="tspan4324" font-size="36px" line-height="125%" y="187.2877" x="239.52094" font-family="Sans">♀</tspan></text>
  <g id="g4604" transform="translate(258.33)" stroke="#000" stroke-width="0.2" fill="#ffe680">
   <g id="g4606" transform="translate(0 4.9)">
    <path id="path4608" d="m119.2 25.093a1.1327 1.1327 0 1 1 -2.2655 0 1.1327 1.1327 0 1 1 2.2655 0z" transform="translate(1.2327 1.4659)"/>
    <path id="path4610" d="m119.2 25.093a1.1327 1.1327 0 1 1 -2.2655 0 1.1327 1.1327 0 1 1 2.2655 0z" transform="translate(3.9979 1.4659)"/>
   </g>
   <path id="path4612" d="m119.2 25.093a1.1327 1.1327 0 1 1 -2.2655 0 1.1327 1.1327 0 1 1 2.2655 0z" transform="translate(2.6153 4.0338)"/>
  </g>
 </g>
</svg>